<?xml version="1.0" encoding="utf-8"?>
<!-- Generator: Adobe Illustrator 25.2.1, SVG Export Plug-In . SVG Version: 6.00 Build 0)  -->
<svg version="1.1" id="Layer_1" xmlns="http://www.w3.org/2000/svg" xmlns:xlink="http://www.w3.org/1999/xlink" x="0px" y="0px"
	 width="496px" height="496px" viewBox="0 0 496 496" style="enable-background:new 0 0 496 496;" xml:space="preserve">
<style type="text/css">
	.st0{fill:#9B9B9B;}
</style>
<g id="Layer_2_1_">
	<g id="Layer_1-2">
		<path class="st0" d="M0,248C0,111,111,0,248,0s248,111,248,248S385,496,248,496S0,385,0,248z M292,364V248h70.9
			c10.7,0,16.1-13,8.5-20.5L256.5,113.2c-4.6-4.7-12.1-4.7-16.8-0.1c0,0-0.1,0.1-0.1,0.1l-115,114.3c-4.7,4.7-4.7,12.3,0,17
			c2.3,2.3,5.3,3.5,8.5,3.5H204v116c0,6.6,5.4,12,12,12h64C286.6,376,292,370.6,292,364z"/>
	</g>
</g>
</svg>
