<?xml version="1.0" encoding="utf-8"?>
<!-- Generator: Adobe Illustrator 25.2.0, SVG Export Plug-In . SVG Version: 6.00 Build 0)  -->
<svg version="1.1" id="Layer_1" xmlns="http://www.w3.org/2000/svg" xmlns:xlink="http://www.w3.org/1999/xlink" x="0px" y="0px"
	 width="496px" height="496px" viewBox="0 0 496 496" style="enable-background:new 0 0 496 496;" xml:space="preserve">
<style type="text/css">
	.st0{fill:#9B9B9B;}
</style>
<g id="Layer_2_1_">
	<g id="Layer_1-2">
		<path class="st0" d="M0,248C0,111,111,0,248,0s248,111,248,248S385,496,248,496S0,385,0,248z M292,364V248h70.9
			c10.7,0,16.1-13,8.5-20.5L256.5,113.2c-4.621-4.667-12.149-4.704-16.816-0.084c-0.028,0.028-0.056,0.056-0.084,0.084l-115,114.3
			c-4.694,4.678-4.708,12.276-0.03,16.971c2.259,2.267,5.329,3.537,8.53,3.529H204v116c0.019,6.619,5.381,11.981,12,12h64
			C286.619,375.981,291.981,370.619,292,364z"/>
	</g>
</g>
</svg>
