<?xml version="1.0" encoding="utf-8"?>
<!-- Generator: Adobe Illustrator 25.2.1, SVG Export Plug-In . SVG Version: 6.00 Build 0)  -->
<svg version="1.1" id="Layer_1" xmlns="http://www.w3.org/2000/svg" xmlns:xlink="http://www.w3.org/1999/xlink" x="0px" y="0px"
	 width="512px" height="512px" viewBox="0 0 512 512" style="enable-background:new 0 0 512 512;" xml:space="preserve">
<style type="text/css">
	.st0{fill:#FE4733;}
</style>
<path class="st0" d="M512,256c0,141.4-114.6,256-256,256S0,397.4,0,256S114.6,0,256,0S512,114.6,512,256z M210.6,136.3V256h-73.2
	c-11,0-16.6,13.4-8.8,21.2l118.6,118c4.9,4.9,12.6,4.9,17.4,0l118.6-118c7.8-7.8,2.3-21.2-8.8-21.2h-73.1V136.3
	c0-6.8-5.6-12.4-12.4-12.4H223C216.2,123.9,210.6,129.4,210.6,136.3z"/>
</svg>
