<svg xmlns="http://www.w3.org/2000/svg" width="21.891" height="20" viewBox="0 0 21.891 20">
  <defs>
    <style>
      .cls-1 {
        fill: #f9c023;
      }
    </style>
  </defs>
  <g id="Layer_2" data-name="Layer 2">
    <g id="Layer_1-2" data-name="Layer 1">
      <path class="cls-1" d="M10.946,0C4.9,0,0,4.451,0,9.946a9.378,9.378,0,0,0,2.5,6.319C2.627,18.629,0,19.782,0,19.782a7.57,7.57,0,0,0,5.962-.992,11.742,11.742,0,0,0,4.984,1.1c6.049,0,10.945-4.452,10.945-9.939S17,0,10.946,0Zm1.5,14.485a1.474,1.474,0,1,1-2.948,0V9.472a1.476,1.476,0,0,1,2.518-1.044,1.49,1.49,0,0,1,.43,1.044Zm-.313-7.961a1.7,1.7,0,0,1-1.182.423,1.669,1.669,0,0,1-1.175-.423,1.434,1.434,0,0,1-.453-1.088,1.429,1.429,0,0,1,.453-1.08,1.638,1.638,0,0,1,1.175-.423,1.67,1.67,0,0,1,1.182.423,1.428,1.428,0,0,1,.452,1.08A1.434,1.434,0,0,1,12.128,6.524Z"/>
    </g>
  </g>
</svg>
