<svg xmlns="http://www.w3.org/2000/svg" width="106" height="123.619" viewBox="0 0 106 123.619">
  <defs>
    <style>
      .cls-1 {
        fill: none;
        stroke: #ffc300;
        stroke-miterlimit: 10;
        stroke-width: 3.287px;
      }
    </style>
  </defs>
  <g id="Layer_2" data-name="Layer 2">
    <g id="Layer_3" data-name="Layer 3">
      <g>
        <path class="cls-1" d="M70.8,41.973V54.727a48.439,48.439,0,0,1-1.545,12.457A44.258,44.258,0,0,1,57.52,62.089a41.03,41.03,0,0,0,.657-7.4V41.809c0-1.019-.033-2.038-.131-3.023A32.068,32.068,0,0,0,55.778,28.5a27.618,27.618,0,0,0-5.062-8.381C45.753,14.43,38.916,11.6,30.305,11.6H14.265V85.031h16.04c8.611,0,15.448-2.826,20.411-8.513a22.16,22.16,0,0,0,2.5-3.418,57.4,57.4,0,0,0,11.372,4.667,40.181,40.181,0,0,1-4.864,6.015,35.185,35.185,0,0,1-11.6,7.855,41.2,41.2,0,0,1-12.227,3.025,51.263,51.263,0,0,1-5.587.295H1.643V1.643H30.305q18.341,0,29.417,11.275a37.518,37.518,0,0,1,8.414,13.113,42.424,42.424,0,0,1,2.3,9.861A45.467,45.467,0,0,1,70.8,41.973Z"/>
        <g>
          <path class="cls-1" d="M94.957,34.348q-9.072-8.382-24.389-8.381c-.821,0-1.643.032-2.432.064a42.424,42.424,0,0,1,2.3,9.861h.131c6.771,0,11.932,1.711,15.547,5.062,3.616,3.386,5.423,7.79,5.423,13.279H103.7A27.53,27.53,0,0,0,94.957,34.348Z"/>
          <path class="cls-1" d="M104.357,96.962a21.538,21.538,0,0,1-9.236,18.143c-6.146,4.569-14.2,6.871-24.092,6.871a41.713,41.713,0,0,1-24.717-7.593c-7-4.964-10.453-11.538-10.42-19.721a41.2,41.2,0,0,0,12.227-3.025c.23,8.579,2.433,12.786,6.574,15.711q6.557,4.686,16.336,4.7c6.376,0,11.405-1.348,15.119-4.043a12.686,12.686,0,0,0,5.588-10.879A13.781,13.781,0,0,0,86.9,86.445q-4.782-4.29-17.026-7.232c-1.841-.427-3.615-.92-5.292-1.446A57.4,57.4,0,0,1,53.214,73.1a38.562,38.562,0,0,1-6.442-4.272,21.614,21.614,0,0,1-8.316-17.29q0-10.945,8.94-18.243a29.448,29.448,0,0,1,8.382-4.8,32.068,32.068,0,0,1,2.268,10.289,13.63,13.63,0,0,0-1.94,1.38,13.844,13.844,0,0,0-5.028,11.109c0,4.076,1.84,7.461,5.456,10.157.328.23.657.459.986.657a44.258,44.258,0,0,0,11.734,5.095v.032c1.545.461,3.188.92,4.963,1.381q14.74,3.65,22.449,10.748A23.02,23.02,0,0,1,104.357,96.962Z"/>
        </g>
      </g>
    </g>
  </g>
</svg>
