<!-- Generator: Adobe Illustrator 25.2.0, SVG Export Plug-In  -->
<svg version="1.1" xmlns="http://www.w3.org/2000/svg" xmlns:xlink="http://www.w3.org/1999/xlink" x="0px" y="0px" width="9px"
	 height="977px" viewBox="0 0 9 977" style="overflow:visible;enable-background:new 0 0 9 977;" xml:space="preserve">
<style type="text/css">
	.st0{fill:#4E4E50;}
</style>
<defs>
</defs>
<circle class="st0" cx="4.5" cy="4.5" r="4.5"/>
<circle class="st0" cx="4.5" cy="26.5" r="4.5"/>
<circle class="st0" cx="4.5" cy="48.5" r="4.5"/>
<circle class="st0" cx="4.5" cy="70.5" r="4.5"/>
<circle class="st0" cx="4.5" cy="92.5" r="4.5"/>
<circle class="st0" cx="4.5" cy="114.5" r="4.5"/>
<circle class="st0" cx="4.5" cy="136.5" r="4.5"/>
<circle class="st0" cx="4.5" cy="158.5" r="4.5"/>
<circle class="st0" cx="4.5" cy="180.5" r="4.5"/>
<circle class="st0" cx="4.5" cy="202.5" r="4.5"/>
<circle class="st0" cx="4.5" cy="224.5" r="4.5"/>
<circle class="st0" cx="4.5" cy="246.5" r="4.5"/>
<circle class="st0" cx="4.5" cy="268.5" r="4.5"/>
<circle class="st0" cx="4.5" cy="290.5" r="4.5"/>
<circle class="st0" cx="4.5" cy="312.5" r="4.5"/>
<circle class="st0" cx="4.5" cy="334.5" r="4.5"/>
<circle class="st0" cx="4.5" cy="356.5" r="4.5"/>
<circle class="st0" cx="4.5" cy="378.5" r="4.5"/>
<circle class="st0" cx="4.5" cy="400.5" r="4.5"/>
<circle class="st0" cx="4.5" cy="422.5" r="4.5"/>
<circle class="st0" cx="4.5" cy="444.5" r="4.5"/>
<circle class="st0" cx="4.5" cy="466.5" r="4.5"/>
<circle class="st0" cx="4.5" cy="488.5" r="4.5"/>
<circle class="st0" cx="4.5" cy="510.5" r="4.5"/>
<circle class="st0" cx="4.5" cy="532.5" r="4.5"/>
<circle class="st0" cx="4.5" cy="554.5" r="4.5"/>
<circle class="st0" cx="4.5" cy="576.5" r="4.5"/>
<circle class="st0" cx="4.5" cy="598.5" r="4.5"/>
<circle class="st0" cx="4.5" cy="620.5" r="4.5"/>
<circle class="st0" cx="4.5" cy="642.5" r="4.5"/>
<circle class="st0" cx="4.5" cy="664.5" r="4.5"/>
<circle class="st0" cx="4.5" cy="686.5" r="4.5"/>
<circle class="st0" cx="4.5" cy="708.5" r="4.5"/>
<circle class="st0" cx="4.5" cy="730.5" r="4.5"/>
<circle class="st0" cx="4.5" cy="752.5" r="4.5"/>
<circle class="st0" cx="4.5" cy="774.5" r="4.5"/>
<circle class="st0" cx="4.5" cy="796.5" r="4.5"/>
<circle class="st0" cx="4.5" cy="818.5" r="4.5"/>
<circle class="st0" cx="4.5" cy="840.5" r="4.5"/>
<circle class="st0" cx="4.5" cy="862.5" r="4.5"/>
<circle class="st0" cx="4.5" cy="884.5" r="4.5"/>
<circle class="st0" cx="4.5" cy="906.5" r="4.5"/>
<circle class="st0" cx="4.5" cy="928.5" r="4.5"/>
<circle class="st0" cx="4.5" cy="950.5" r="4.5"/>
<circle class="st0" cx="4.5" cy="972.5" r="4.5"/>
</svg>
