<svg xmlns="http://www.w3.org/2000/svg" viewBox="0 0 266.314 400.083">
  <defs>
    <style>
      .cls-1 {
        fill: #a2c0cc;
      }

      .cls-2 {
        opacity: 0.4;
      }

      .cls-3 {
        fill: #7b8d9e;
      }
    </style>
  </defs>
  <g id="Layer_2" data-name="Layer 2">
    <g id="Layer_1-2" data-name="Layer 1">
      <g>
        <g>
          <path class="cls-1" d="M35,111.683l.1-.526,2.73-.979,3.535-20.125-2.415-.946.106-.524H45.6a9.468,9.468,0,0,1,5.163,1.225,4.112,4.112,0,0,1,1.908,3.71A5.6,5.6,0,0,1,51.31,97.07a7.32,7.32,0,0,1-3.851,2.4,6.743,6.743,0,0,1,3.921,1.854,4.965,4.965,0,0,1,1.295,3.5,5.637,5.637,0,0,1-1.155,3.4,8.017,8.017,0,0,1-3.238,2.519,11.722,11.722,0,0,1-4.883.946Zm9.591-11.236H41.9l-1.715,9.87h3.429a6.917,6.917,0,0,0,4.918-1.54,5.16,5.16,0,0,0,1.627-3.92A3.882,3.882,0,0,0,48.72,101.5,6.922,6.922,0,0,0,44.59,100.447Zm.979-10.465h-1.82l-1.609,9.1h2.029a6.088,6.088,0,0,0,4.463-1.506A4.971,4.971,0,0,0,50.154,93.9a3.728,3.728,0,0,0-1.1-2.939A5.154,5.154,0,0,0,45.569,89.982Z"/>
          <path class="cls-1" d="M59.6,112.032a2.849,2.849,0,0,1-2.327-1.172,5.536,5.536,0,0,1-.927-3.482,12.4,12.4,0,0,1,.735-4.148,15.152,15.152,0,0,1,1.977-3.815,10.639,10.639,0,0,1,2.871-2.782,6.2,6.2,0,0,1,3.412-1.05,5.438,5.438,0,0,1,1.662.262,5.787,5.787,0,0,1,1.453.682l.944-.769h.526l-2.066,11.76a5.783,5.783,0,0,0-.122,1.942.594.594,0,0,0,.612.543q1.437,0,2.7-2.766l.455.176a10.429,10.429,0,0,1-2.083,3.534,3.206,3.206,0,0,1-2.222,1.085,1.506,1.506,0,0,1-1.453-.857,4.452,4.452,0,0,1-.087-2.712l.14-.735h-.106a18.132,18.132,0,0,1-3.08,3.2A4.871,4.871,0,0,1,59.6,112.032Zm-1.154-5.425q0,3.677,2.275,3.675a3.6,3.6,0,0,0,1.889-.577,9.048,9.048,0,0,0,1.8-1.47,21.583,21.583,0,0,0,1.628-1.908l1.4-8.189a5.037,5.037,0,0,0-1.277-1.05,3.411,3.411,0,0,0-1.7-.386A3.968,3.968,0,0,0,62,97.543,7.29,7.29,0,0,0,60.1,99.817,12.336,12.336,0,0,0,58.87,103,15.391,15.391,0,0,0,58.45,106.607Z"/>
          <path class="cls-1" d="M73.955,111.683l2.484-14.14-2.415-.735v-.281l4.2-.944H78.4l-.244,3.779h.105a29.391,29.391,0,0,1,2.2-2.187A7.189,7.189,0,0,1,82.3,95.968a4.84,4.84,0,0,1,1.942-.385,2.847,2.847,0,0,1,2.572,1.347,5.317,5.317,0,0,1,.4,3.833L86,107.518a5.764,5.764,0,0,0-.123,1.942.614.614,0,0,0,.648.543q1.4,0,2.66-2.766l.455.176a10.076,10.076,0,0,1-2.048,3.534,3.234,3.234,0,0,1-2.257,1.085,1.47,1.47,0,0,1-1.435-.857,4.716,4.716,0,0,1-.1-2.712l1.365-7.84a4.037,4.037,0,0,0-.21-2.4,1.892,1.892,0,0,0-1.925-1,3.464,3.464,0,0,0-1.75.507,9.917,9.917,0,0,0-1.715,1.278q-.84.769-1.61,1.575l-1.925,11.1Z"/>
          <path class="cls-1" d="M95.1,112.032a2.8,2.8,0,0,1-2.31-1.172,5.61,5.61,0,0,1-.91-3.482,12.65,12.65,0,0,1,.718-4.148,14.406,14.406,0,0,1,1.976-3.815,10.992,10.992,0,0,1,2.87-2.782,6.12,6.12,0,0,1,3.4-1.05,5.382,5.382,0,0,1,1.277.157,5.67,5.67,0,0,1,1.207.438l1.54-8.821-2.8-.7v-.279l5-.945h.176l-3.886,22.085a5.783,5.783,0,0,0-.122,1.942.613.613,0,0,0,.648.543q1.4,0,2.66-2.766l.455.176a10.061,10.061,0,0,1-2.048,3.534,3.236,3.236,0,0,1-2.258,1.085,1.47,1.47,0,0,1-1.434-.857,4.714,4.714,0,0,1-.106-2.712l.141-.735h-.105a16.96,16.96,0,0,1-3.15,3.254A4.925,4.925,0,0,1,95.1,112.032Zm-1.156-5.425a5.089,5.089,0,0,0,.6,2.8,1.946,1.946,0,0,0,1.715.875,4.241,4.241,0,0,0,2.625-1.1A15.477,15.477,0,0,0,101.5,106.4l1.435-8.259A5.618,5.618,0,0,0,101.6,97.07,3.362,3.362,0,0,0,99.96,96.7a3.987,3.987,0,0,0-2.433.823,7.118,7.118,0,0,0-1.907,2.24,12.5,12.5,0,0,0-1.243,3.185A15.156,15.156,0,0,0,93.939,106.607Z"/>
          <path class="cls-1" d="M115.71,119.732v-.455l1.89-.84,3.675-20.894-2.415-.735v-.281l4.2-.944h.175l-.28,4.234h.14a17.628,17.628,0,0,1,3.027-3.149,4.844,4.844,0,0,1,2.993-1.085,2.732,2.732,0,0,1,2.327,1.26,6.4,6.4,0,0,1,.893,3.71,12.936,12.936,0,0,1-.7,4.217,13.709,13.709,0,0,1-1.907,3.693,9.961,9.961,0,0,1-2.749,2.607,5.978,5.978,0,0,1-3.219.962,5.963,5.963,0,0,1-2.835-.734l-1.225,7.1,2.695.875v.455Zm12.25-22.4a3.539,3.539,0,0,0-1.838.56,8.8,8.8,0,0,0-1.784,1.452,24.679,24.679,0,0,0-1.628,1.873l-1.435,8.085a5.171,5.171,0,0,0,1.61,1.242,4.165,4.165,0,0,0,1.75.368,4,4,0,0,0,2.87-1.226,8.547,8.547,0,0,0,2.013-3.412,15.428,15.428,0,0,0,.752-5.022Q130.27,97.334,127.96,97.333Z"/>
          <path class="cls-1" d="M135.94,111.683l2.52-14.14-2.485-.735v-.281l4.305-.944h.14l-.28,4.06h.14a17.012,17.012,0,0,1,2-2.678,4.891,4.891,0,0,1,1.47-1.12,3.029,3.029,0,0,1,1.155-.262,1.857,1.857,0,0,1,1.085.314.9.9,0,0,1,.455.736.935.935,0,0,1-.1.42l-.665,1.259h-.14l-.455-.28a1.859,1.859,0,0,0-1.085-.314,2.905,2.905,0,0,0-1.89.769,13.7,13.7,0,0,0-2.275,2.906l-1.82,10.29Z"/>
          <path class="cls-1" d="M150.186,112.032a2.849,2.849,0,0,1-2.328-1.172,5.536,5.536,0,0,1-.927-3.482,12.4,12.4,0,0,1,.735-4.148,15.123,15.123,0,0,1,1.978-3.815,10.622,10.622,0,0,1,2.87-2.782,6.2,6.2,0,0,1,3.412-1.05,5.438,5.438,0,0,1,1.662.262,5.787,5.787,0,0,1,1.453.682l.944-.769h.526l-2.066,11.76a5.783,5.783,0,0,0-.122,1.942.6.6,0,0,0,.613.543q1.435,0,2.695-2.766l.455.176A10.429,10.429,0,0,1,160,110.947a3.206,3.206,0,0,1-2.222,1.085,1.507,1.507,0,0,1-1.453-.857,4.452,4.452,0,0,1-.087-2.712l.14-.735h-.106a18.132,18.132,0,0,1-3.08,3.2A4.871,4.871,0,0,1,150.186,112.032Zm-1.155-5.425q0,3.677,2.275,3.675a3.6,3.6,0,0,0,1.889-.577,9.048,9.048,0,0,0,1.8-1.47,21.583,21.583,0,0,0,1.628-1.908l1.4-8.189a5.037,5.037,0,0,0-1.277-1.05,3.408,3.408,0,0,0-1.7-.386,3.968,3.968,0,0,0-2.468.841,7.29,7.29,0,0,0-1.907,2.274A12.336,12.336,0,0,0,149.451,103,15.391,15.391,0,0,0,149.031,106.607Z"/>
          <path class="cls-1" d="M169.437,112.032a4.546,4.546,0,0,1-3.816-1.609,6.859,6.859,0,0,1-1.26-4.34,10.5,10.5,0,0,1,.718-3.815,12.585,12.585,0,0,1,1.942-3.378,10.167,10.167,0,0,1,2.73-2.414,5.96,5.96,0,0,1,3.08-.893,4.766,4.766,0,0,1,2.135.42,4.417,4.417,0,0,1,1.365,1.015,1.777,1.777,0,0,1,.595,1.155.823.823,0,0,1-.42.7l-.944.595h-.21L174.9,98.7a6.186,6.186,0,0,0-1.19-1.452,2.658,2.658,0,0,0-1.785-.543,4.1,4.1,0,0,0-2.747,1.12,7.818,7.818,0,0,0-2.048,3.045,11.6,11.6,0,0,0-.77,4.341,6.25,6.25,0,0,0,1.033,3.867,3.5,3.5,0,0,0,2.957,1.348,4.418,4.418,0,0,0,2.573-.875,9.616,9.616,0,0,0,2.467-2.87h.07l.28.21a11.884,11.884,0,0,1-2.642,3.674A5.236,5.236,0,0,1,169.437,112.032Z"/>
          <path class="cls-1" d="M182,112.032a1.974,1.974,0,0,1-1.628-.665,2.91,2.91,0,0,1-.542-1.889,3.552,3.552,0,0,1,.052-.56q.052-.315.088-.665L181.9,97.192h-2.661v-.245l3.08-1.085,2.311-3.779h.245l-.665,3.85h4.234v1.259h-4.479l-1.681,9.7c-.047.327-.087.63-.122.91a6,6,0,0,0-.053.734,2.041,2.041,0,0,0,.263,1.191.922.922,0,0,0,.787.349,2.645,2.645,0,0,0,1.785-.944,8.644,8.644,0,0,0,1.715-2.766l.491.21a11.389,11.389,0,0,1-2.433,4.218A3.944,3.944,0,0,1,182,112.032Z"/>
          <path class="cls-1" d="M192.5,112.032a1.5,1.5,0,0,1-1.452-.857,4.458,4.458,0,0,1-.088-2.712l1.925-10.955-2.59-.7v-.281l4.725-.944h.28l-2.135,11.935a5.783,5.783,0,0,0-.122,1.942.612.612,0,0,0,.647.543q1.4,0,2.661-2.766l.455.176a10.67,10.67,0,0,1-2.066,3.534A3.179,3.179,0,0,1,192.5,112.032Zm2.625-21.524a1.482,1.482,0,0,1-1.085-.455,1.52,1.52,0,0,1-.455-1.12,1.554,1.554,0,0,1,1.54-1.54,1.525,1.525,0,0,1,1.12.455,1.482,1.482,0,0,1,.455,1.085,1.554,1.554,0,0,1-1.575,1.575Z"/>
          <path class="cls-1" d="M204.541,112.032a4.544,4.544,0,0,1-3.815-1.609,6.859,6.859,0,0,1-1.26-4.34,10.476,10.476,0,0,1,.718-3.815,12.559,12.559,0,0,1,1.942-3.378,10.164,10.164,0,0,1,2.729-2.414,5.963,5.963,0,0,1,3.081-.893,4.759,4.759,0,0,1,2.134.42,4.41,4.41,0,0,1,1.366,1.015,1.78,1.78,0,0,1,.594,1.155.821.821,0,0,1-.42.7l-.944.595h-.21L210,98.7a6.211,6.211,0,0,0-1.19-1.452,2.659,2.659,0,0,0-1.786-.543,4.1,4.1,0,0,0-2.747,1.12,7.829,7.829,0,0,0-2.048,3.045,11.615,11.615,0,0,0-.769,4.341,6.257,6.257,0,0,0,1.032,3.867,3.5,3.5,0,0,0,2.957,1.348,4.416,4.416,0,0,0,2.573-.875,9.588,9.588,0,0,0,2.467-2.87h.071l.28.21a11.87,11.87,0,0,1-2.643,3.674A5.232,5.232,0,0,1,204.541,112.032Z"/>
          <path class="cls-1" d="M219.17,112.032a4.576,4.576,0,0,1-3.867-1.609,6.626,6.626,0,0,1-1.242-4.165,11.416,11.416,0,0,1,.7-3.973,11.754,11.754,0,0,1,1.925-3.412,10.055,10.055,0,0,1,2.764-2.4,6.325,6.325,0,0,1,3.22-.893,3.762,3.762,0,0,1,2.7.84,2.562,2.562,0,0,1,.875,1.889,2.909,2.909,0,0,1-.962,2.083,8.3,8.3,0,0,1-3.168,1.715,33.452,33.452,0,0,1-5.915,1.278,15.138,15.138,0,0,0-.139,2.064,5.7,5.7,0,0,0,1.049,3.676,3.655,3.655,0,0,0,3.01,1.3q2.8,0,4.9-3.255h.069l.28.21a9.591,9.591,0,0,1-2.537,3.29A5.551,5.551,0,0,1,219.17,112.032Zm2.766-15.47a4.631,4.631,0,0,0-3.5,1.628,9.13,9.13,0,0,0-2.1,4.358,22.518,22.518,0,0,0,6.02-1.558,2.77,2.77,0,0,0,1.786-2.538,1.833,1.833,0,0,0-.543-1.347A2.264,2.264,0,0,0,221.936,96.562Z"/>
          <path class="cls-1" d="M240.8,112.032a2.846,2.846,0,0,1-2.327-1.172,5.53,5.53,0,0,1-.928-3.482,12.4,12.4,0,0,1,.735-4.148,15.188,15.188,0,0,1,1.978-3.815,10.622,10.622,0,0,1,2.87-2.782,6.2,6.2,0,0,1,3.412-1.05,5.433,5.433,0,0,1,1.662.262,5.787,5.787,0,0,1,1.453.682l.945-.769h.525l-2.065,11.76a5.729,5.729,0,0,0-.122,1.942.594.594,0,0,0,.612.543q1.435,0,2.695-2.766l.455.176a10.413,10.413,0,0,1-2.083,3.534,3.2,3.2,0,0,1-2.221,1.085,1.507,1.507,0,0,1-1.454-.857,4.452,4.452,0,0,1-.087-2.712l.14-.735h-.105a18.167,18.167,0,0,1-3.08,3.2A4.871,4.871,0,0,1,240.8,112.032Zm-1.154-5.425q0,3.677,2.274,3.675a3.6,3.6,0,0,0,1.89-.577,9.071,9.071,0,0,0,1.8-1.47,21.251,21.251,0,0,0,1.628-1.908l1.4-8.189a5.058,5.058,0,0,0-1.278-1.05,3.408,3.408,0,0,0-1.7-.386,3.97,3.97,0,0,0-2.468.841,7.29,7.29,0,0,0-1.907,2.274A12.373,12.373,0,0,0,240.065,103,15.391,15.391,0,0,0,239.646,106.607Z"/>
          <path class="cls-1" d="M258.44,112.032a6.122,6.122,0,0,1-2.625-.471,4.064,4.064,0,0,1-1.47-1.1,1.486,1.486,0,0,1-.385-.875.781.781,0,0,1,.385-.665l.595-.42h.21l.455.8a3.254,3.254,0,0,0,1.365,1.33,3.865,3.865,0,0,0,1.75.42,3.339,3.339,0,0,0,2.415-.875,3.017,3.017,0,0,0,.91-2.276,2.817,2.817,0,0,0-.683-2,8.794,8.794,0,0,0-2.011-1.5,9.287,9.287,0,0,1-2.433-1.96,3.665,3.665,0,0,1-.718-2.344,3.611,3.611,0,0,1,.736-2.118,6.007,6.007,0,0,1,1.907-1.715,4.837,4.837,0,0,1,2.468-.682,5.262,5.262,0,0,1,2.152.385,4.128,4.128,0,0,1,1.417,1.014,1.481,1.481,0,0,1,.315.806.932.932,0,0,1-.35.7l-.525.386h-.21l-.63-.841a3.9,3.9,0,0,0-1.137-1.1,2.853,2.853,0,0,0-1.488-.368,2.693,2.693,0,0,0-2.065.823,2.623,2.623,0,0,0-.769,1.838,2.924,2.924,0,0,0,.612,1.907,6.445,6.445,0,0,0,1.732,1.418,12.161,12.161,0,0,1,2.625,1.925,3.694,3.694,0,0,1,.875,2.66,4.359,4.359,0,0,1-.7,2.345,5.488,5.488,0,0,1-4.725,2.554Z"/>
          <path class="cls-1" d="M3.5,152.032a2.647,2.647,0,0,1-2.135-.909A3.958,3.958,0,0,1,.6,148.5a6.1,6.1,0,0,1,.052-.788c.036-.268.076-.554.123-.857l1.68-9.31L0,136.808v-.281l4.585-.944H4.8l-1.925,11.2-.123.736a3.731,3.731,0,0,0-.052.594,2.685,2.685,0,0,0,.473,1.628,1.8,1.8,0,0,0,1.557.648A3.783,3.783,0,0,0,7.21,149.32a25.116,25.116,0,0,0,2.31-2.293l1.68-9.484-2.45-.735v-.281l4.62-.944h.21l-2.1,11.935a5.639,5.639,0,0,0-.123,1.924.62.62,0,0,0,.648.561,1.991,1.991,0,0,0,1.365-.7,6.711,6.711,0,0,0,1.3-2.066l.49.176a10.413,10.413,0,0,1-2.083,3.534,3.2,3.2,0,0,1-2.222,1.085,1.5,1.5,0,0,1-1.453-.875,4.549,4.549,0,0,1-.122-2.694l.035-.175H9.17A19.672,19.672,0,0,1,6.2,151.175,4.5,4.5,0,0,1,3.5,152.032Z"/>
          <path class="cls-1" d="M20.686,152.032a6.116,6.116,0,0,1-2.625-.471,4.06,4.06,0,0,1-1.471-1.1,1.486,1.486,0,0,1-.385-.875.872.872,0,0,1,.07-.315.855.855,0,0,1,.315-.35l.6-.42h.21l.455.805a3.246,3.246,0,0,0,1.364,1.33,3.865,3.865,0,0,0,1.75.42,3.339,3.339,0,0,0,2.415-.875,3.017,3.017,0,0,0,.91-2.276,2.817,2.817,0,0,0-.683-1.995A8.794,8.794,0,0,0,21.6,144.4a9.287,9.287,0,0,1-2.433-1.96,3.671,3.671,0,0,1-.718-2.344,3.611,3.611,0,0,1,.736-2.118,6.007,6.007,0,0,1,1.907-1.715,4.837,4.837,0,0,1,2.468-.682,5.262,5.262,0,0,1,2.152.385,4.128,4.128,0,0,1,1.417,1.014,1.481,1.481,0,0,1,.315.806.923.923,0,0,1-.35.7l-.525.386h-.21l-.629-.841a3.918,3.918,0,0,0-1.138-1.1,2.849,2.849,0,0,0-1.487-.368,2.694,2.694,0,0,0-2.066.823,2.623,2.623,0,0,0-.769,1.838,2.924,2.924,0,0,0,.612,1.907,6.445,6.445,0,0,0,1.732,1.418,12.161,12.161,0,0,1,2.625,1.925,3.694,3.694,0,0,1,.875,2.66,4.359,4.359,0,0,1-.7,2.345,5.488,5.488,0,0,1-4.724,2.554Z"/>
          <path class="cls-1" d="M33.67,152.032a2.647,2.647,0,0,1-2.135-.909,3.953,3.953,0,0,1-.77-2.625,6.1,6.1,0,0,1,.052-.788c.036-.268.076-.554.122-.857l1.681-9.31-2.45-.735v-.281l4.585-.944h.21l-1.925,11.2-.123.736a3.731,3.731,0,0,0-.052.594,2.679,2.679,0,0,0,.473,1.628,1.8,1.8,0,0,0,1.557.648,3.785,3.785,0,0,0,2.485-1.068,24.981,24.981,0,0,0,2.309-2.293l1.681-9.484-2.45-.735v-.281l4.62-.944h.21l-2.1,11.935a5.639,5.639,0,0,0-.123,1.924.62.62,0,0,0,.648.561,1.991,1.991,0,0,0,1.365-.7,6.711,6.711,0,0,0,1.3-2.066l.49.176a10.413,10.413,0,0,1-2.083,3.534,3.2,3.2,0,0,1-2.222,1.085,1.5,1.5,0,0,1-1.453-.875,4.549,4.549,0,0,1-.122-2.694l.034-.175H39.34a19.672,19.672,0,0,1-2.975,2.887A4.5,4.5,0,0,1,33.67,152.032Z"/>
          <path class="cls-1" d="M50.75,152.032a2.846,2.846,0,0,1-2.327-1.172,5.536,5.536,0,0,1-.928-3.482,12.4,12.4,0,0,1,.735-4.148,15.188,15.188,0,0,1,1.978-3.815,10.622,10.622,0,0,1,2.87-2.782,6.2,6.2,0,0,1,3.412-1.05,5.433,5.433,0,0,1,1.662.262,5.77,5.77,0,0,1,1.453.682l.945-.769h.525l-2.065,11.76a5.783,5.783,0,0,0-.122,1.942A.594.594,0,0,0,59.5,150q1.436,0,2.7-2.766l.455.176a10.413,10.413,0,0,1-2.083,3.534,3.2,3.2,0,0,1-2.221,1.085,1.506,1.506,0,0,1-1.453-.857,4.444,4.444,0,0,1-.087-2.712l.139-.735h-.1a18.167,18.167,0,0,1-3.08,3.2A4.871,4.871,0,0,1,50.75,152.032ZM49.6,146.607q0,3.677,2.274,3.675a3.6,3.6,0,0,0,1.89-.577,9.043,9.043,0,0,0,1.8-1.47,21.251,21.251,0,0,0,1.628-1.908l1.4-8.189a5.041,5.041,0,0,0-1.278-1.05,3.408,3.408,0,0,0-1.7-.386,3.97,3.97,0,0,0-2.468.841,7.29,7.29,0,0,0-1.907,2.274A12.335,12.335,0,0,0,50.016,143,15.338,15.338,0,0,0,49.6,146.607Z"/>
          <path class="cls-1" d="M67.131,152.032a1.472,1.472,0,0,1-1.436-.857,4.717,4.717,0,0,1-.1-2.712l3.744-21.106-2.59-.7v-.279l4.691-.945h.314L67.8,147.518a5.783,5.783,0,0,0-.122,1.942.613.613,0,0,0,.647.543,1.991,1.991,0,0,0,1.366-.7,6.729,6.729,0,0,0,1.294-2.066l.491.176a10.462,10.462,0,0,1-2.083,3.534A3.237,3.237,0,0,1,67.131,152.032Z"/>
          <path class="cls-1" d="M85.506,152.032a1.974,1.974,0,0,1-1.628-.665,2.91,2.91,0,0,1-.542-1.889,3.552,3.552,0,0,1,.052-.56q.052-.315.088-.665L85.4,137.192H82.74v-.245l3.08-1.085,2.311-3.779h.245l-.665,3.85h4.234v1.259H87.466l-1.681,9.7c-.047.327-.087.63-.122.91a6,6,0,0,0-.053.734,2.041,2.041,0,0,0,.263,1.191.922.922,0,0,0,.787.349,2.647,2.647,0,0,0,1.785-.944,8.662,8.662,0,0,0,1.715-2.766l.49.21a11.375,11.375,0,0,1-2.432,4.218A3.946,3.946,0,0,1,85.506,152.032Z"/>
          <path class="cls-1" d="M98.911,152.032a4.908,4.908,0,0,1-4.131-1.8,7.343,7.343,0,0,1-1.4-4.637,11.063,11.063,0,0,1,.63-3.71,11.287,11.287,0,0,1,1.732-3.2,8.573,8.573,0,0,1,2.608-2.257,6.489,6.489,0,0,1,3.219-.84,4.908,4.908,0,0,1,4.13,1.8,7.4,7.4,0,0,1,1.4,4.673,11.167,11.167,0,0,1-.578,3.482,11.308,11.308,0,0,1-1.663,3.237,8.743,8.743,0,0,1-2.589,2.363A6.463,6.463,0,0,1,98.911,152.032Zm.454-1.05a3.918,3.918,0,0,0,2.835-1.207,8.215,8.215,0,0,0,1.926-3.237,13.687,13.687,0,0,0,.7-4.48,7.918,7.918,0,0,0-.857-3.991,3.008,3.008,0,0,0-2.818-1.469,4.063,4.063,0,0,0-2.852,1.155,7.671,7.671,0,0,0-1.943,3.149,13.606,13.606,0,0,0-.7,4.516,8.07,8.07,0,0,0,.875,4.06A3.029,3.029,0,0,0,99.365,150.982Z"/>
          <path class="cls-1" d="M113.506,152.032a2.8,2.8,0,0,1-2.31-1.172,5.61,5.61,0,0,1-.91-3.482A12.65,12.65,0,0,1,111,143.23a14.435,14.435,0,0,1,1.976-3.815,10.98,10.98,0,0,1,2.871-2.782,6.115,6.115,0,0,1,3.395-1.05,5.382,5.382,0,0,1,1.277.157,5.67,5.67,0,0,1,1.207.438l1.541-8.821-2.8-.7v-.279l5-.945h.175l-3.885,22.085a5.783,5.783,0,0,0-.122,1.942.612.612,0,0,0,.647.543q1.4,0,2.66-2.766l.455.176a10.061,10.061,0,0,1-2.048,3.534,3.235,3.235,0,0,1-2.257,1.085,1.47,1.47,0,0,1-1.435-.857,4.716,4.716,0,0,1-.1-2.712l.14-.735h-.1a16.96,16.96,0,0,1-3.15,3.254A4.925,4.925,0,0,1,113.506,152.032Zm-1.155-5.425a5.09,5.09,0,0,0,.595,2.8,1.946,1.946,0,0,0,1.715.875,4.241,4.241,0,0,0,2.625-1.1,15.477,15.477,0,0,0,2.625-2.783l1.435-8.259a5.635,5.635,0,0,0-1.33-1.068,3.368,3.368,0,0,0-1.645-.368,3.987,3.987,0,0,0-2.433.823,7.118,7.118,0,0,0-1.907,2.24,12.5,12.5,0,0,0-1.243,3.185A15.155,15.155,0,0,0,112.351,146.607Z"/>
          <path class="cls-1" d="M131.181,152.032a2.846,2.846,0,0,1-2.327-1.172,5.53,5.53,0,0,1-.928-3.482,12.4,12.4,0,0,1,.735-4.148,15.155,15.155,0,0,1,1.978-3.815,10.622,10.622,0,0,1,2.87-2.782,6.2,6.2,0,0,1,3.412-1.05,5.438,5.438,0,0,1,1.662.262,5.787,5.787,0,0,1,1.453.682l.944-.769h.526l-2.066,11.76a5.783,5.783,0,0,0-.122,1.942.6.6,0,0,0,.613.543q1.435,0,2.695-2.766l.455.176A10.429,10.429,0,0,1,141,150.947a3.206,3.206,0,0,1-2.222,1.085,1.507,1.507,0,0,1-1.453-.857,4.452,4.452,0,0,1-.087-2.712l.14-.735h-.105a18.168,18.168,0,0,1-3.081,3.2A4.871,4.871,0,0,1,131.181,152.032Zm-1.155-5.425q0,3.677,2.275,3.675a3.592,3.592,0,0,0,1.889-.577,9.048,9.048,0,0,0,1.8-1.47,21.583,21.583,0,0,0,1.628-1.908l1.4-8.189a5.058,5.058,0,0,0-1.278-1.05,3.408,3.408,0,0,0-1.7-.386,3.968,3.968,0,0,0-2.468.841,7.29,7.29,0,0,0-1.907,2.274A12.373,12.373,0,0,0,130.446,143,15.391,15.391,0,0,0,130.026,146.607Z"/>
          <path class="cls-1" d="M142.905,160.083a.9.9,0,0,1-1.014-1.016v-1.154l.174-.141h1.75a6.983,6.983,0,0,0,1.208-.086,1.961,1.961,0,0,0,.893-.438,5.56,5.56,0,0,0,.927-1.085q.507-.735,1.278-2.03l1.784-2.941-3.08-13.719-2.554-.665v-.281l4.235-.944h.14l2.764,12.984h.141l2.764-4.514a21.6,21.6,0,0,0,1.611-3.028,5.607,5.607,0,0,0,.49-2.012,1.627,1.627,0,0,0-.245-.946,2.226,2.226,0,0,0-.63-.594l-.525-.281v-.139l.559-.91a1.5,1.5,0,0,1,.368-.456.782.782,0,0,1,.438-.1,1.466,1.466,0,0,1,1.242.787,3.138,3.138,0,0,1,.508,1.733,5.3,5.3,0,0,1-.49,1.942,24.861,24.861,0,0,1-1.75,3.2l-7,11.2c-.328.537-.595.981-.8,1.33s-.427.7-.648,1.05a11.347,11.347,0,0,1-.962,1.261,5.96,5.96,0,0,1-1.768,1.5A3.856,3.856,0,0,1,142.905,160.083Z"/>
          <path class="cls-1" d="M171.676,152.032a2.846,2.846,0,0,1-2.327-1.172,5.53,5.53,0,0,1-.928-3.482,12.4,12.4,0,0,1,.735-4.148,15.155,15.155,0,0,1,1.978-3.815,10.622,10.622,0,0,1,2.87-2.782,6.2,6.2,0,0,1,3.412-1.05,5.433,5.433,0,0,1,1.662.262,5.787,5.787,0,0,1,1.453.682l.945-.769H182l-2.065,11.76a5.764,5.764,0,0,0-.123,1.942.6.6,0,0,0,.613.543q1.436,0,2.7-2.766l.455.176a10.413,10.413,0,0,1-2.083,3.534,3.2,3.2,0,0,1-2.222,1.085,1.507,1.507,0,0,1-1.453-.857,4.452,4.452,0,0,1-.087-2.712l.14-.735h-.105a18.167,18.167,0,0,1-3.08,3.2A4.871,4.871,0,0,1,171.676,152.032Zm-1.155-5.425q0,3.677,2.275,3.675a3.6,3.6,0,0,0,1.89-.577,9.071,9.071,0,0,0,1.8-1.47,21.251,21.251,0,0,0,1.628-1.908l1.4-8.189a5.058,5.058,0,0,0-1.278-1.05,3.408,3.408,0,0,0-1.7-.386,3.97,3.97,0,0,0-2.468.841,7.29,7.29,0,0,0-1.907,2.274A12.373,12.373,0,0,0,170.941,143,15.391,15.391,0,0,0,170.521,146.607Z"/>
          <path class="cls-1" d="M186.026,151.683l2.485-14.14-2.415-.735v-.281l4.2-.944h.175l-.244,3.779h.1a29.391,29.391,0,0,1,2.205-2.187,7.189,7.189,0,0,1,1.838-1.207,4.844,4.844,0,0,1,1.942-.385,2.85,2.85,0,0,1,2.573,1.347,5.318,5.318,0,0,1,.4,3.833l-1.225,6.755a5.764,5.764,0,0,0-.123,1.942.614.614,0,0,0,.648.543q1.4,0,2.66-2.766l.455.176a10.061,10.061,0,0,1-2.048,3.534,3.234,3.234,0,0,1-2.257,1.085,1.471,1.471,0,0,1-1.435-.857,4.724,4.724,0,0,1-.105-2.712l1.366-7.84a4.045,4.045,0,0,0-.21-2.4,1.894,1.894,0,0,0-1.926-1,3.464,3.464,0,0,0-1.75.507,9.955,9.955,0,0,0-1.715,1.278q-.84.77-1.609,1.575l-1.926,11.1Z"/>
          <path class="cls-1" d="M207.167,152.032a2.8,2.8,0,0,1-2.31-1.172,5.61,5.61,0,0,1-.91-3.482,12.677,12.677,0,0,1,.718-4.148,14.438,14.438,0,0,1,1.977-3.815,10.961,10.961,0,0,1,2.87-2.782,6.115,6.115,0,0,1,3.4-1.05,5.4,5.4,0,0,1,1.278.157,5.69,5.69,0,0,1,1.207.438l1.54-8.821-2.8-.7v-.279l5-.945h.175l-3.885,22.085a5.783,5.783,0,0,0-.122,1.942.613.613,0,0,0,.647.543q1.4,0,2.66-2.766l.455.176a10.061,10.061,0,0,1-2.047,3.534,3.239,3.239,0,0,1-2.258,1.085,1.47,1.47,0,0,1-1.435-.857,4.716,4.716,0,0,1-.1-2.712l.14-.735h-.1a16.96,16.96,0,0,1-3.15,3.254A4.925,4.925,0,0,1,207.167,152.032Zm-1.155-5.425a5.09,5.09,0,0,0,.595,2.8,1.946,1.946,0,0,0,1.715.875,4.241,4.241,0,0,0,2.625-1.1,15.477,15.477,0,0,0,2.625-2.783l1.435-8.259a5.635,5.635,0,0,0-1.33-1.068,3.366,3.366,0,0,0-1.645-.368,3.984,3.984,0,0,0-2.432.823,7.121,7.121,0,0,0-1.908,2.24,12.5,12.5,0,0,0-1.243,3.185A15.155,15.155,0,0,0,206.012,146.607Z"/>
          <path class="cls-1" d="M234.607,151.788l-2.765-14.315-2.555-.665v-.281l4.235-.944h.14l2.24,12.705h.14l5.565-12.355h.385l2.625,12.705h.14l2.45-4.585q.98-1.856,1.47-3.045a5.456,5.456,0,0,0,.49-2,1.627,1.627,0,0,0-.245-.946,2.2,2.2,0,0,0-.63-.594l-.524-.281v-.139l.559-.91a1.331,1.331,0,0,1,.385-.456.8.8,0,0,1,.42-.1,1.444,1.444,0,0,1,1.208.805,3.164,3.164,0,0,1,.508,1.715,5.334,5.334,0,0,1-.473,1.924,29.149,29.149,0,0,1-1.663,3.221l-4.9,8.54h-.49L240.8,140.2l-5.67,11.586Z"/>
          <path class="cls-1" d="M257.88,152.032a4.576,4.576,0,0,1-3.867-1.609,6.626,6.626,0,0,1-1.242-4.165,11.416,11.416,0,0,1,.7-3.973,11.754,11.754,0,0,1,1.925-3.412,10.055,10.055,0,0,1,2.764-2.4,6.325,6.325,0,0,1,3.22-.893,3.762,3.762,0,0,1,2.695.84,2.562,2.562,0,0,1,.875,1.889,2.909,2.909,0,0,1-.962,2.083,8.3,8.3,0,0,1-3.168,1.715,33.452,33.452,0,0,1-5.915,1.278,15.138,15.138,0,0,0-.139,2.064,5.7,5.7,0,0,0,1.049,3.676,3.655,3.655,0,0,0,3.01,1.3q2.8,0,4.9-3.255h.069l.28.21a9.591,9.591,0,0,1-2.537,3.29A5.551,5.551,0,0,1,257.88,152.032Zm2.766-15.47a4.631,4.631,0,0,0-3.5,1.628,9.13,9.13,0,0,0-2.1,4.358,22.518,22.518,0,0,0,6.02-1.558,2.77,2.77,0,0,0,1.786-2.538,1.833,1.833,0,0,0-.543-1.347A2.264,2.264,0,0,0,260.646,136.562Z"/>
          <path class="cls-1" d="M62.51,191.788l-2.766-14.315-2.555-.665v-.281l4.236-.944h.139l2.241,12.705h.139l5.566-12.355H69.9l2.625,12.705h.139l2.45-4.585q.981-1.856,1.47-3.045a5.456,5.456,0,0,0,.49-2,1.627,1.627,0,0,0-.245-.946,2.2,2.2,0,0,0-.63-.594l-.524-.281v-.139l.559-.91a1.331,1.331,0,0,1,.385-.456.8.8,0,0,1,.42-.1,1.444,1.444,0,0,1,1.208.805,3.164,3.164,0,0,1,.508,1.715,5.313,5.313,0,0,1-.473,1.924,29.149,29.149,0,0,1-1.663,3.221l-4.9,8.54h-.49L68.7,180.2l-5.67,11.586Z"/>
          <path class="cls-1" d="M85.783,192.032a4.576,4.576,0,0,1-3.867-1.609,6.626,6.626,0,0,1-1.242-4.165,11.416,11.416,0,0,1,.7-3.973,11.754,11.754,0,0,1,1.925-3.412,10.055,10.055,0,0,1,2.764-2.4,6.325,6.325,0,0,1,3.22-.893,3.765,3.765,0,0,1,2.7.84,2.562,2.562,0,0,1,.875,1.889,2.913,2.913,0,0,1-.962,2.083,8.32,8.32,0,0,1-3.168,1.715,33.493,33.493,0,0,1-5.915,1.278,14.98,14.98,0,0,0-.14,2.064,5.7,5.7,0,0,0,1.05,3.676,3.652,3.652,0,0,0,3.01,1.3q2.8,0,4.9-3.255H91.7l.281.21a9.606,9.606,0,0,1-2.538,3.29A5.549,5.549,0,0,1,85.783,192.032Zm2.766-15.47a4.634,4.634,0,0,0-3.5,1.628,9.139,9.139,0,0,0-2.1,4.358,22.538,22.538,0,0,0,6.021-1.558,2.771,2.771,0,0,0,1.785-2.538,1.833,1.833,0,0,0-.543-1.347A2.262,2.262,0,0,0,88.549,176.562Z"/>
          <path class="cls-1" d="M95.653,191.683l2.485-14.14-2.415-.735v-.281l4.2-.944h.175l-.244,3.779h.1a29.391,29.391,0,0,1,2.2-2.187A7.189,7.189,0,0,1,104,175.968a4.844,4.844,0,0,1,1.942-.385,2.85,2.85,0,0,1,2.573,1.347,5.318,5.318,0,0,1,.4,3.833l-1.225,6.755a5.764,5.764,0,0,0-.123,1.942.614.614,0,0,0,.648.543q1.4,0,2.66-2.766l.455.176a10.061,10.061,0,0,1-2.048,3.534,3.234,3.234,0,0,1-2.257,1.085,1.471,1.471,0,0,1-1.435-.857,4.716,4.716,0,0,1-.105-2.712l1.366-7.84a4.045,4.045,0,0,0-.21-2.4,1.894,1.894,0,0,0-1.926-1,3.464,3.464,0,0,0-1.75.507,9.917,9.917,0,0,0-1.715,1.278q-.84.77-1.609,1.575l-1.926,11.1Z"/>
          <path class="cls-1" d="M116.618,192.032a1.977,1.977,0,0,1-1.628-.665,2.91,2.91,0,0,1-.542-1.889,3.552,3.552,0,0,1,.052-.56q.052-.315.088-.665l1.925-11.061h-2.66v-.245l3.08-1.085,2.31-3.779h.245l-.665,3.85h4.235v1.259h-4.48l-1.681,9.7c-.046.327-.086.63-.122.91a5.983,5.983,0,0,0-.052.734,2.05,2.05,0,0,0,.262,1.191.922.922,0,0,0,.787.349,2.649,2.649,0,0,0,1.786-.944,8.644,8.644,0,0,0,1.714-2.766l.491.21a11.375,11.375,0,0,1-2.433,4.218A3.944,3.944,0,0,1,116.618,192.032Z"/>
          <path class="cls-1" d="M135.938,192.032a1.974,1.974,0,0,1-1.627-.665,2.9,2.9,0,0,1-.542-1.889,3.541,3.541,0,0,1,.051-.56c.035-.21.065-.432.088-.665l1.925-11.061h-2.66v-.245l3.08-1.085,2.31-3.779h.246l-.665,3.85h4.234v1.259H137.9l-1.68,9.7c-.047.327-.087.63-.122.91a6,6,0,0,0-.053.734,2.041,2.041,0,0,0,.263,1.191.92.92,0,0,0,.787.349,2.649,2.649,0,0,0,1.785-.944,8.662,8.662,0,0,0,1.715-2.766l.49.21a11.375,11.375,0,0,1-2.433,4.218A3.944,3.944,0,0,1,135.938,192.032Z"/>
          <path class="cls-1" d="M146.019,191.683h-2.066l4.271-24.29-2.451-.736v-.279l4.656-.945h.21l-2.451,13.929h.07a29.582,29.582,0,0,1,2.2-2.187,7.224,7.224,0,0,1,1.838-1.207,4.844,4.844,0,0,1,1.942-.385,2.845,2.845,0,0,1,2.572,1.347,5.312,5.312,0,0,1,.4,3.833l-1.226,6.755a5.783,5.783,0,0,0-.122,1.942.613.613,0,0,0,.648.543q1.4,0,2.66-2.766l.454.176a10.653,10.653,0,0,1-2.065,3.534,3.178,3.178,0,0,1-2.24,1.085,1.468,1.468,0,0,1-1.434-.857,4.7,4.7,0,0,1-.106-2.712l1.365-7.84a4.029,4.029,0,0,0-.21-2.4,1.891,1.891,0,0,0-1.924-1,4.18,4.18,0,0,0-2.608,1.049,21.429,21.429,0,0,0-2.432,2.276Z"/>
          <path class="cls-1" d="M162.538,191.683l2.52-14.14-2.486-.735v-.281l4.306-.944h.14l-.281,4.06h.141a16.887,16.887,0,0,1,2-2.678,4.891,4.891,0,0,1,1.47-1.12,3.025,3.025,0,0,1,1.155-.262,1.859,1.859,0,0,1,1.085.314.9.9,0,0,1,.455.736.935.935,0,0,1-.105.42l-.665,1.259h-.14l-.455-.28a1.859,1.859,0,0,0-1.085-.314,2.91,2.91,0,0,0-1.891.769,13.737,13.737,0,0,0-2.274,2.906l-1.82,10.29Z"/>
          <path class="cls-1" d="M179.129,192.032a4.908,4.908,0,0,1-4.131-1.8,7.337,7.337,0,0,1-1.4-4.637,11.063,11.063,0,0,1,.63-3.71,11.262,11.262,0,0,1,1.732-3.2,8.558,8.558,0,0,1,2.607-2.257,6.493,6.493,0,0,1,3.22-.84,4.91,4.91,0,0,1,4.13,1.8,7.4,7.4,0,0,1,1.4,4.673,11.165,11.165,0,0,1-.577,3.482,11.334,11.334,0,0,1-1.663,3.237,8.746,8.746,0,0,1-2.59,2.363A6.459,6.459,0,0,1,179.129,192.032Zm.454-1.05a3.918,3.918,0,0,0,2.835-1.207,8.227,8.227,0,0,0,1.926-3.237,13.687,13.687,0,0,0,.7-4.48,7.918,7.918,0,0,0-.857-3.991,3.008,3.008,0,0,0-2.818-1.469,4.063,4.063,0,0,0-2.852,1.155,7.671,7.671,0,0,0-1.943,3.149,13.58,13.58,0,0,0-.7,4.516,8.07,8.07,0,0,0,.875,4.06A3.028,3.028,0,0,0,179.583,190.982Z"/>
          <path class="cls-1" d="M193.969,192.032a2.647,2.647,0,0,1-2.135-.909,3.953,3.953,0,0,1-.771-2.625,6.1,6.1,0,0,1,.053-.788c.035-.268.075-.554.122-.857l1.681-9.31-2.45-.735v-.281l4.585-.944h.21l-1.925,11.2-.123.736a3.731,3.731,0,0,0-.052.594,2.679,2.679,0,0,0,.473,1.628,1.8,1.8,0,0,0,1.556.648,3.786,3.786,0,0,0,2.486-1.068,24.981,24.981,0,0,0,2.309-2.293l1.681-9.484-2.45-.735v-.281l4.62-.944h.21l-2.1,11.935a5.639,5.639,0,0,0-.123,1.924.62.62,0,0,0,.648.561,1.991,1.991,0,0,0,1.365-.7,6.73,6.73,0,0,0,1.295-2.066l.49.176a10.429,10.429,0,0,1-2.083,3.534,3.206,3.206,0,0,1-2.223,1.085,1.5,1.5,0,0,1-1.452-.875,4.549,4.549,0,0,1-.122-2.694l.034-.175h-.139a19.672,19.672,0,0,1-2.975,2.887A4.5,4.5,0,0,1,193.969,192.032Z"/>
          <path class="cls-1" d="M213.4,186.327a4.861,4.861,0,0,1-1.786-.314q-2.03.91-2.03,2.415a1.487,1.487,0,0,0,.7,1.33,5.46,5.46,0,0,0,1.82.7q1.121.245,2.38.472a14.779,14.779,0,0,1,2.38.631,4.709,4.709,0,0,1,1.82,1.119,2.708,2.708,0,0,1,.7,1.977,4.544,4.544,0,0,1-.893,2.713,6.067,6.067,0,0,1-2.572,1.978,10.1,10.1,0,0,1-4.06.735,8.61,8.61,0,0,1-4.323-.91,2.8,2.8,0,0,1-1.557-2.521,4.562,4.562,0,0,1,.3-1.715,5.207,5.207,0,0,1,.858-1.4l2.52-1.681v-.1a4.013,4.013,0,0,1-1.453-.963,2.329,2.329,0,0,1-.577-1.662,2.287,2.287,0,0,1,.28-1.155,5.357,5.357,0,0,1,.735-.981l2.24-1.189v-.14a3.511,3.511,0,0,1-1.365-1.523,4.8,4.8,0,0,1-.455-2.082,6.241,6.241,0,0,1,.841-3.151,6.951,6.951,0,0,1,2.256-2.4,5.734,5.734,0,0,1,3.2-.927,5.209,5.209,0,0,1,1.89.35h5.075v1.224H219.1l-.175.141a4.282,4.282,0,0,1,.77,2.66,6.163,6.163,0,0,1-.788,2.939,6.851,6.851,0,0,1-2.222,2.451A5.7,5.7,0,0,1,213.4,186.327Zm-5.426,9.8a2.742,2.742,0,0,0,1.19,2.38,5.23,5.23,0,0,0,3.08.84,5.8,5.8,0,0,0,3.867-1.173,3.449,3.449,0,0,0,1.383-2.677,2.056,2.056,0,0,0-.682-1.663,4.386,4.386,0,0,0-1.786-.857q-1.1-.281-2.327-.473a20.222,20.222,0,0,1-2.345-.507,4.9,4.9,0,0,0-1.872,1.942A5.033,5.033,0,0,0,207.969,196.128Zm5.95-10.78a2.815,2.815,0,0,0,1.907-.718,4.824,4.824,0,0,0,1.3-1.907,6.843,6.843,0,0,0,.473-2.555,4.494,4.494,0,0,0-.7-2.678,2.36,2.36,0,0,0-2.031-.963,2.926,2.926,0,0,0-2,.736,4.776,4.776,0,0,0-1.295,1.907,6.965,6.965,0,0,0-.455,2.538,4.866,4.866,0,0,0,.648,2.572A2.317,2.317,0,0,0,213.919,185.348Z"/>
          <path class="cls-1" d="M225.608,191.683h-2.065l4.27-24.29-2.45-.736v-.279l4.656-.945h.21l-2.451,13.929h.07a29.391,29.391,0,0,1,2.2-2.187,7.224,7.224,0,0,1,1.838-1.207,4.84,4.84,0,0,1,1.942-.385,2.845,2.845,0,0,1,2.572,1.347,5.312,5.312,0,0,1,.4,3.833l-1.226,6.755a5.783,5.783,0,0,0-.122,1.942.612.612,0,0,0,.647.543q1.4,0,2.661-2.766l.454.176a10.653,10.653,0,0,1-2.065,3.534,3.179,3.179,0,0,1-2.24,1.085,1.47,1.47,0,0,1-1.435-.857,4.716,4.716,0,0,1-.105-2.712l1.365-7.84a4.029,4.029,0,0,0-.21-2.4,1.893,1.893,0,0,0-1.925-1A4.18,4.18,0,0,0,230,178.277a21.439,21.439,0,0,0-2.433,2.276Z"/>
          <path class="cls-1" d="M253.4,192.032a2.847,2.847,0,0,1-2.327-1.172,5.536,5.536,0,0,1-.927-3.482,12.4,12.4,0,0,1,.735-4.148,15.152,15.152,0,0,1,1.977-3.815,10.639,10.639,0,0,1,2.871-2.782,6.2,6.2,0,0,1,3.412-1.05,5.438,5.438,0,0,1,1.662.262,5.787,5.787,0,0,1,1.453.682l.944-.769h.526l-2.066,11.76a5.783,5.783,0,0,0-.122,1.942.594.594,0,0,0,.612.543q1.435,0,2.7-2.766l.455.176a10.429,10.429,0,0,1-2.083,3.534,3.208,3.208,0,0,1-2.222,1.085,1.506,1.506,0,0,1-1.453-.857,4.452,4.452,0,0,1-.087-2.712l.14-.735h-.106a18.132,18.132,0,0,1-3.08,3.2A4.871,4.871,0,0,1,253.4,192.032Zm-1.154-5.425q0,3.677,2.275,3.675a3.6,3.6,0,0,0,1.889-.577,9.048,9.048,0,0,0,1.8-1.47,21.583,21.583,0,0,0,1.628-1.908l1.4-8.189a5.037,5.037,0,0,0-1.277-1.05,3.411,3.411,0,0,0-1.7-.386,3.968,3.968,0,0,0-2.468.841,7.29,7.29,0,0,0-1.907,2.274A12.336,12.336,0,0,0,252.663,183,15.391,15.391,0,0,0,252.243,186.607Z"/>
          <path class="cls-1" d="M24.57,231.788l-2.765-14.315-2.555-.665v-.281l4.235-.944h.14l2.24,12.705h.14l5.565-12.355h.385l2.625,12.705h.14l2.45-4.585q.98-1.856,1.47-3.045a5.456,5.456,0,0,0,.49-2,1.627,1.627,0,0,0-.245-.946,2.2,2.2,0,0,0-.63-.594l-.525-.281v-.139l.56-.91a1.331,1.331,0,0,1,.385-.456.8.8,0,0,1,.42-.1,1.444,1.444,0,0,1,1.208.805,3.164,3.164,0,0,1,.508,1.715,5.334,5.334,0,0,1-.473,1.924,29.327,29.327,0,0,1-1.663,3.221l-4.9,8.54h-.49L30.765,220.2,25.1,231.788Z"/>
          <path class="cls-1" d="M45.919,232.032a2.846,2.846,0,0,1-2.327-1.172,5.536,5.536,0,0,1-.928-3.482,12.4,12.4,0,0,1,.735-4.148,15.188,15.188,0,0,1,1.978-3.815,10.622,10.622,0,0,1,2.87-2.782,6.2,6.2,0,0,1,3.412-1.05,5.433,5.433,0,0,1,1.662.262,5.787,5.787,0,0,1,1.453.682l.945-.769h.525l-2.065,11.76a5.783,5.783,0,0,0-.122,1.942.594.594,0,0,0,.612.543q1.436,0,2.7-2.766l.455.176a10.413,10.413,0,0,1-2.083,3.534,3.2,3.2,0,0,1-2.221,1.085,1.506,1.506,0,0,1-1.453-.857,4.444,4.444,0,0,1-.087-2.712l.139-.735h-.1a18.167,18.167,0,0,1-3.08,3.2A4.871,4.871,0,0,1,45.919,232.032Zm-1.154-5.425q0,3.677,2.274,3.675a3.6,3.6,0,0,0,1.89-.577,9.043,9.043,0,0,0,1.8-1.47,21.251,21.251,0,0,0,1.628-1.908l1.4-8.189a5.041,5.041,0,0,0-1.278-1.05,3.408,3.408,0,0,0-1.7-.386,3.97,3.97,0,0,0-2.468.841,7.29,7.29,0,0,0-1.907,2.274A12.335,12.335,0,0,0,45.185,223,15.338,15.338,0,0,0,44.765,226.607Z"/>
          <path class="cls-1" d="M62.3,232.032a1.472,1.472,0,0,1-1.436-.857,4.717,4.717,0,0,1-.1-2.712L64.5,207.357l-2.59-.7v-.279l4.69-.945h.315l-3.955,22.085a5.783,5.783,0,0,0-.122,1.942.613.613,0,0,0,.647.543,1.987,1.987,0,0,0,1.365-.7,6.711,6.711,0,0,0,1.3-2.066l.491.176a10.462,10.462,0,0,1-2.083,3.534A3.237,3.237,0,0,1,62.3,232.032Z"/>
          <path class="cls-1" d="M72.1,232.032a1.974,1.974,0,0,1-1.628-.665,2.9,2.9,0,0,1-.542-1.889,3.541,3.541,0,0,1,.051-.56q.054-.315.088-.665l1.925-11.061h-2.66v-.245l3.08-1.085,2.311-3.779h.245l-.665,3.85h4.234v1.259H74.06l-1.681,9.7c-.047.327-.087.63-.122.91a6,6,0,0,0-.053.734,2.041,2.041,0,0,0,.263,1.191.921.921,0,0,0,.787.349,2.649,2.649,0,0,0,1.785-.944,8.662,8.662,0,0,0,1.715-2.766l.49.21a11.375,11.375,0,0,1-2.432,4.218A3.946,3.946,0,0,1,72.1,232.032Z"/>
          <path class="cls-1" d="M79.274,231.753l-.455-.455,10.255-13.58h-6.4l-1.191,2.38H80.92l.63-4.165H91l.279.525-8.75,11.689,5.846,1.54,1.364-2.66H90.3l-1.016,4.83-6.439-1.679q-.282-.07-.526-.123A2.33,2.33,0,0,0,81.83,230a2.747,2.747,0,0,0-2.03,1.12Z"/>
          <path class="cls-1" d="M107.029,213.937a1.277,1.277,0,0,1-.735-.209,5.3,5.3,0,0,1-1.19-1.225,3.13,3.13,0,0,1-.42-1.75,4.3,4.3,0,0,1,.595-2.013,6.384,6.384,0,0,1,1.785-2.012,7.362,7.362,0,0,1,2.94-1.3v.629a5.774,5.774,0,0,0-2.66,1.4,3.02,3.02,0,0,0-.945,2.205,2.02,2.02,0,0,0,.245.979,2.327,2.327,0,0,0,.875.84l.945.63v.351l-.455.769a1.489,1.489,0,0,1-.49.561A.975.975,0,0,1,107.029,213.937Zm6.125,0a1.277,1.277,0,0,1-.735-.209,5.3,5.3,0,0,1-1.19-1.225,3.13,3.13,0,0,1-.42-1.75,4.3,4.3,0,0,1,.595-2.013,6.384,6.384,0,0,1,1.785-2.012,7.362,7.362,0,0,1,2.94-1.3v.629a5.774,5.774,0,0,0-2.66,1.4,3.02,3.02,0,0,0-.945,2.205,2.02,2.02,0,0,0,.245.979,2.327,2.327,0,0,0,.875.84l.945.63v.351l-.455.769a1.489,1.489,0,0,1-.49.561A.975.975,0,0,1,113.154,213.937Z"/>
          <path class="cls-1" d="M115.324,231.683l.105-.526,2.625-.979,3.57-20.125-2.45-.946.1-.524h7.491l-.105.524-2.66.946-3.57,20.125,2.52.979-.1.526Z"/>
          <path class="cls-1" d="M130.549,232.032a1.472,1.472,0,0,1-1.436-.857,4.717,4.717,0,0,1-.1-2.712l3.744-21.106-2.59-.7v-.279l4.691-.945h.314l-3.955,22.085a5.783,5.783,0,0,0-.122,1.942.613.613,0,0,0,.647.543,1.991,1.991,0,0,0,1.366-.7,6.729,6.729,0,0,0,1.294-2.066l.491.176a10.462,10.462,0,0,1-2.083,3.534A3.237,3.237,0,0,1,130.549,232.032Z"/>
          <path class="cls-1" d="M144.828,231.683l.106-.526,2.729-.979,3.535-20.125-2.415-.946.106-.524h6.545a9.465,9.465,0,0,1,5.162,1.225,4.112,4.112,0,0,1,1.908,3.71,5.6,5.6,0,0,1-1.365,3.552,7.316,7.316,0,0,1-3.851,2.4,6.743,6.743,0,0,1,3.921,1.854,4.965,4.965,0,0,1,1.295,3.5,5.637,5.637,0,0,1-1.155,3.4,8.017,8.017,0,0,1-3.238,2.519,11.721,11.721,0,0,1-4.882.946Zm9.591-11.236h-2.7l-1.715,9.87h3.429a6.917,6.917,0,0,0,4.918-1.54,5.16,5.16,0,0,0,1.627-3.92,3.882,3.882,0,0,0-1.434-3.359A6.922,6.922,0,0,0,154.419,220.447Zm.979-10.465h-1.82l-1.609,9.1H154a6.088,6.088,0,0,0,4.463-1.506,4.968,4.968,0,0,0,1.522-3.675,3.728,3.728,0,0,0-1.1-2.939A5.154,5.154,0,0,0,155.4,209.982Z"/>
          <path class="cls-1" d="M169.434,232.032a2.849,2.849,0,0,1-2.328-1.172,5.536,5.536,0,0,1-.927-3.482,12.4,12.4,0,0,1,.735-4.148,15.123,15.123,0,0,1,1.978-3.815,10.622,10.622,0,0,1,2.87-2.782,6.2,6.2,0,0,1,3.412-1.05,5.438,5.438,0,0,1,1.662.262,5.787,5.787,0,0,1,1.453.682l.944-.769h.526l-2.066,11.76a5.783,5.783,0,0,0-.122,1.942.6.6,0,0,0,.613.543q1.435,0,2.695-2.766l.455.176a10.429,10.429,0,0,1-2.083,3.534,3.206,3.206,0,0,1-2.222,1.085,1.507,1.507,0,0,1-1.453-.857,4.452,4.452,0,0,1-.087-2.712l.14-.735h-.106a18.132,18.132,0,0,1-3.08,3.2A4.871,4.871,0,0,1,169.434,232.032Zm-1.155-5.425q0,3.677,2.275,3.675a3.6,3.6,0,0,0,1.889-.577,9.048,9.048,0,0,0,1.8-1.47,21.583,21.583,0,0,0,1.628-1.908l1.4-8.189a5.037,5.037,0,0,0-1.277-1.05,3.408,3.408,0,0,0-1.7-.386,3.968,3.968,0,0,0-2.468.841,7.29,7.29,0,0,0-1.907,2.274A12.373,12.373,0,0,0,168.7,223,15.391,15.391,0,0,0,168.279,226.607Z"/>
          <path class="cls-1" d="M188.685,232.032a4.546,4.546,0,0,1-3.816-1.609,6.859,6.859,0,0,1-1.26-4.34,10.5,10.5,0,0,1,.718-3.815,12.562,12.562,0,0,1,1.943-3.378A10.149,10.149,0,0,1,189,216.476a5.96,5.96,0,0,1,3.08-.893,4.766,4.766,0,0,1,2.135.42,4.417,4.417,0,0,1,1.365,1.015,1.777,1.777,0,0,1,.595,1.155.823.823,0,0,1-.42.7l-.944.595h-.21l-.455-.771a6.188,6.188,0,0,0-1.191-1.452,2.658,2.658,0,0,0-1.785-.543,4.1,4.1,0,0,0-2.747,1.12,7.818,7.818,0,0,0-2.048,3.045,11.6,11.6,0,0,0-.77,4.341,6.25,6.25,0,0,0,1.033,3.867,3.5,3.5,0,0,0,2.957,1.348,4.418,4.418,0,0,0,2.573-.875,9.616,9.616,0,0,0,2.467-2.87h.07l.28.21a11.884,11.884,0,0,1-2.642,3.674A5.234,5.234,0,0,1,188.685,232.032Z"/>
          <path class="cls-1" d="M200.479,232.032a1.506,1.506,0,0,1-1.453-.857,4.458,4.458,0,0,1-.088-2.712l1.925-10.955-2.59-.7v-.281l4.726-.944h.279l-2.134,11.935a5.764,5.764,0,0,0-.123,1.942.613.613,0,0,0,.648.543q1.4,0,2.66-2.766l.455.176a10.67,10.67,0,0,1-2.065,3.534A3.181,3.181,0,0,1,200.479,232.032Zm2.625-21.524a1.48,1.48,0,0,1-1.085-.455,1.52,1.52,0,0,1-.456-1.12,1.555,1.555,0,0,1,1.541-1.54,1.525,1.525,0,0,1,1.12.455,1.486,1.486,0,0,1,.455,1.085,1.554,1.554,0,0,1-1.575,1.575Z"/>
          <path class="cls-1" d="M212.974,232.032a4.905,4.905,0,0,1-4.131-1.8,7.338,7.338,0,0,1-1.4-4.637,11.063,11.063,0,0,1,.63-3.71,11.264,11.264,0,0,1,1.733-3.2,8.558,8.558,0,0,1,2.607-2.257,6.49,6.49,0,0,1,3.22-.84,4.91,4.91,0,0,1,4.13,1.8,7.4,7.4,0,0,1,1.4,4.673,11.165,11.165,0,0,1-.577,3.482,11.359,11.359,0,0,1-1.663,3.237,8.746,8.746,0,0,1-2.59,2.363A6.459,6.459,0,0,1,212.974,232.032Zm.454-1.05a3.92,3.92,0,0,0,2.835-1.207,8.214,8.214,0,0,0,1.925-3.237,13.687,13.687,0,0,0,.7-4.48,7.907,7.907,0,0,0-.858-3.991,3.006,3.006,0,0,0-2.817-1.469,4.065,4.065,0,0,0-2.853,1.155,7.67,7.67,0,0,0-1.942,3.149,13.58,13.58,0,0,0-.7,4.516,8.07,8.07,0,0,0,.875,4.06A3.028,3.028,0,0,0,213.428,230.982Z"/>
          <path class="cls-1" d="M224,213.937v-.629a5.756,5.756,0,0,0,2.66-1.4,3.02,3.02,0,0,0,.945-2.205,2.037,2.037,0,0,0-.245-.979,2.41,2.41,0,0,0-.839-.84l-.946-.63V206.9l.42-.769a1.5,1.5,0,0,1,.49-.561.983.983,0,0,1,.491-.139,1.729,1.729,0,0,1,.349.035,1.472,1.472,0,0,1,.42.175,3.972,3.972,0,0,1,1.191,1.224,3.5,3.5,0,0,1,.384,1.75,4.253,4.253,0,0,1-.594,2.03,6.476,6.476,0,0,1-1.786,2A7.361,7.361,0,0,1,224,213.937Zm6.125,0v-.629a5.756,5.756,0,0,0,2.66-1.4,3.02,3.02,0,0,0,.945-2.205,2.037,2.037,0,0,0-.245-.979,2.41,2.41,0,0,0-.839-.84l-.946-.63V206.9l.42-.769a1.5,1.5,0,0,1,.49-.561.983.983,0,0,1,.491-.139,1.729,1.729,0,0,1,.349.035,1.472,1.472,0,0,1,.42.175,3.972,3.972,0,0,1,1.191,1.224,3.5,3.5,0,0,1,.384,1.75,4.253,4.253,0,0,1-.594,2.03,6.476,6.476,0,0,1-1.786,2A7.361,7.361,0,0,1,230.124,213.937Z"/>
          <path class="cls-1" d="M246.47,231.857a1.4,1.4,0,0,1-1.138-.437,1.707,1.707,0,0,1-.368-1.138,2.139,2.139,0,0,1,.525-1.4,1.731,1.731,0,0,1,1.4-.63,1.371,1.371,0,0,1,1.136.455,1.725,1.725,0,0,1,.369,1.119,2.109,2.109,0,0,1-.526,1.418A1.75,1.75,0,0,1,246.47,231.857Zm7,0a1.4,1.4,0,0,1-1.138-.437,1.707,1.707,0,0,1-.368-1.138,2.139,2.139,0,0,1,.525-1.4,1.731,1.731,0,0,1,1.4-.63,1.371,1.371,0,0,1,1.136.455,1.725,1.725,0,0,1,.369,1.119,2.109,2.109,0,0,1-.526,1.418A1.75,1.75,0,0,1,253.47,231.857Zm7,0a1.4,1.4,0,0,1-1.138-.437,1.707,1.707,0,0,1-.368-1.138,2.139,2.139,0,0,1,.525-1.4,1.731,1.731,0,0,1,1.4-.63,1.371,1.371,0,0,1,1.136.455,1.725,1.725,0,0,1,.369,1.119,2.109,2.109,0,0,1-.526,1.418A1.75,1.75,0,0,1,260.47,231.857Z"/>
          <path class="cls-1" d="M73.394,272.032a2.849,2.849,0,0,1-2.328-1.172,5.536,5.536,0,0,1-.927-3.482,12.4,12.4,0,0,1,.735-4.148,15.123,15.123,0,0,1,1.978-3.815,10.622,10.622,0,0,1,2.87-2.782,6.2,6.2,0,0,1,3.412-1.05,5.438,5.438,0,0,1,1.662.262,5.787,5.787,0,0,1,1.453.682l.944-.769h.526l-2.066,11.76a5.783,5.783,0,0,0-.122,1.942.6.6,0,0,0,.613.543q1.435,0,2.695-2.766l.455.176a10.429,10.429,0,0,1-2.083,3.534,3.206,3.206,0,0,1-2.222,1.085,1.507,1.507,0,0,1-1.453-.857,4.452,4.452,0,0,1-.087-2.712l.14-.735h-.106a18.132,18.132,0,0,1-3.08,3.2A4.871,4.871,0,0,1,73.394,272.032Zm-1.155-5.425q0,3.676,2.275,3.675a3.6,3.6,0,0,0,1.889-.577,9.048,9.048,0,0,0,1.8-1.47,21.583,21.583,0,0,0,1.628-1.908l1.4-8.189a5.037,5.037,0,0,0-1.277-1.05,3.408,3.408,0,0,0-1.7-.386,3.968,3.968,0,0,0-2.468.841,7.29,7.29,0,0,0-1.907,2.274A12.336,12.336,0,0,0,72.659,263,15.391,15.391,0,0,0,72.239,266.607Z"/>
          <path class="cls-1" d="M87.744,271.683l2.485-14.14-2.416-.735v-.281l4.2-.944h.174l-.244,3.779h.105a29.391,29.391,0,0,1,2.2-2.187,7.189,7.189,0,0,1,1.838-1.207,4.844,4.844,0,0,1,1.942-.385,2.847,2.847,0,0,1,2.572,1.347,5.312,5.312,0,0,1,.4,3.833l-1.225,6.755a5.764,5.764,0,0,0-.123,1.942.614.614,0,0,0,.648.543q1.4,0,2.66-2.766l.455.176a10.076,10.076,0,0,1-2.048,3.534,3.234,3.234,0,0,1-2.257,1.085,1.47,1.47,0,0,1-1.435-.857,4.716,4.716,0,0,1-.105-2.712l1.365-7.84a4.037,4.037,0,0,0-.21-2.4,1.892,1.892,0,0,0-1.925-1,3.464,3.464,0,0,0-1.75.507,9.917,9.917,0,0,0-1.715,1.278q-.84.77-1.61,1.575l-1.925,11.095Z"/>
          <path class="cls-1" d="M108.884,272.032a2.8,2.8,0,0,1-2.31-1.172,5.61,5.61,0,0,1-.91-3.482,12.65,12.65,0,0,1,.718-4.148,14.435,14.435,0,0,1,1.976-3.815,10.98,10.98,0,0,1,2.871-2.782,6.115,6.115,0,0,1,3.395-1.05,5.382,5.382,0,0,1,1.277.157,5.67,5.67,0,0,1,1.207.438l1.54-8.821-2.8-.7v-.279l5-.945h.175l-3.885,22.085a5.764,5.764,0,0,0-.123,1.942.614.614,0,0,0,.648.543q1.4,0,2.66-2.766l.455.176a10.061,10.061,0,0,1-2.048,3.534,3.235,3.235,0,0,1-2.257,1.085,1.47,1.47,0,0,1-1.435-.857,4.722,4.722,0,0,1-.106-2.712l.141-.735h-.1a16.96,16.96,0,0,1-3.15,3.254A4.925,4.925,0,0,1,108.884,272.032Zm-1.155-5.425a5.09,5.09,0,0,0,.595,2.8,1.946,1.946,0,0,0,1.715.875,4.241,4.241,0,0,0,2.625-1.1,15.477,15.477,0,0,0,2.625-2.783l1.435-8.259a5.635,5.635,0,0,0-1.33-1.068,3.368,3.368,0,0,0-1.645-.368,3.987,3.987,0,0,0-2.433.823,7.118,7.118,0,0,0-1.907,2.24,12.5,12.5,0,0,0-1.243,3.185A15.155,15.155,0,0,0,107.729,266.607Z"/>
          <path class="cls-1" d="M134.049,272.032a1.5,1.5,0,0,1-1.452-.857,4.45,4.45,0,0,1-.088-2.712l1.925-10.955-2.59-.7v-.281l4.725-.944h.28l-2.135,11.935a5.783,5.783,0,0,0-.122,1.942.612.612,0,0,0,.647.543q1.4,0,2.66-2.766l.455.176a10.653,10.653,0,0,1-2.065,3.534A3.181,3.181,0,0,1,134.049,272.032Zm2.625-21.524a1.482,1.482,0,0,1-1.085-.455,1.52,1.52,0,0,1-.455-1.12,1.554,1.554,0,0,1,1.54-1.54,1.525,1.525,0,0,1,1.12.455,1.482,1.482,0,0,1,.455,1.085,1.554,1.554,0,0,1-1.575,1.575Z"/>
          <path class="cls-1" d="M143.884,272.032a1.974,1.974,0,0,1-1.628-.665,2.91,2.91,0,0,1-.542-1.889,3.437,3.437,0,0,1,.052-.56q.052-.315.088-.665l1.924-11.061h-2.66v-.245l3.08-1.085,2.311-3.779h.245l-.665,3.85h4.234v1.259h-4.479l-1.681,9.7c-.047.327-.087.63-.122.91a6,6,0,0,0-.053.734,2.041,2.041,0,0,0,.263,1.191.921.921,0,0,0,.787.349,2.647,2.647,0,0,0,1.785-.944,8.662,8.662,0,0,0,1.715-2.766l.49.21a11.375,11.375,0,0,1-2.432,4.218A3.946,3.946,0,0,1,143.884,272.032Z"/>
          <path class="cls-1" d="M165.688,272.032a5.835,5.835,0,0,1-1.819-.3,6.065,6.065,0,0,1-1.61-.788l-1.33.91h-.245l4.305-24.5-2.415-.7v-.279l4.619-.945h.21l-2.519,14.384h.139a21.292,21.292,0,0,1,2.906-3.062,4.733,4.733,0,0,1,3.115-1.172,2.733,2.733,0,0,1,2.327,1.26,6.4,6.4,0,0,1,.893,3.71,12.937,12.937,0,0,1-.7,4.217,13.652,13.652,0,0,1-1.907,3.693,9.954,9.954,0,0,1-2.747,2.607A5.985,5.985,0,0,1,165.688,272.032Zm4.2-14.7a4.239,4.239,0,0,0-2.59,1.085,15.894,15.894,0,0,0-2.66,2.765l-1.4,8.12a4.652,4.652,0,0,0,1.662,1.277,4.4,4.4,0,0,0,1.662.333,4.072,4.072,0,0,0,2.8-1.19,8.181,8.181,0,0,0,2.065-3.361,15.316,15.316,0,0,0,.77-5.109,6.052,6.052,0,0,0-.56-2.976A1.888,1.888,0,0,0,169.889,257.333Z"/>
          <path class="cls-1" d="M177.9,271.683l2.52-14.14-2.486-.735v-.281l4.306-.944h.14l-.28,4.06h.14a17.012,17.012,0,0,1,2-2.678,4.891,4.891,0,0,1,1.47-1.12,3.029,3.029,0,0,1,1.155-.262,1.857,1.857,0,0,1,1.085.314.9.9,0,0,1,.455.736.935.935,0,0,1-.1.42l-.665,1.259h-.14l-.455-.28a1.859,1.859,0,0,0-1.085-.314,2.91,2.91,0,0,0-1.891.769,13.737,13.737,0,0,0-2.274,2.906l-1.82,10.29Z"/>
          <path class="cls-1" d="M194.5,272.032a4.908,4.908,0,0,1-4.131-1.8,7.343,7.343,0,0,1-1.4-4.637,11.063,11.063,0,0,1,.63-3.71,11.287,11.287,0,0,1,1.732-3.2,8.561,8.561,0,0,1,2.608-2.257,6.489,6.489,0,0,1,3.219-.84,4.908,4.908,0,0,1,4.13,1.8,7.4,7.4,0,0,1,1.4,4.673,11.167,11.167,0,0,1-.578,3.482,11.308,11.308,0,0,1-1.663,3.237,8.734,8.734,0,0,1-2.59,2.363A6.457,6.457,0,0,1,194.5,272.032Zm.454-1.05a3.918,3.918,0,0,0,2.835-1.207,8.215,8.215,0,0,0,1.926-3.237,13.687,13.687,0,0,0,.7-4.48,7.918,7.918,0,0,0-.857-3.991,3.008,3.008,0,0,0-2.818-1.469,4.063,4.063,0,0,0-2.852,1.155,7.671,7.671,0,0,0-1.943,3.149,13.606,13.606,0,0,0-.7,4.516,8.07,8.07,0,0,0,.875,4.06A3.029,3.029,0,0,0,194.949,270.982Z"/>
          <path class="cls-1" d="M209.335,272.032a2.647,2.647,0,0,1-2.135-.909,3.958,3.958,0,0,1-.77-2.625,6.1,6.1,0,0,1,.052-.788c.036-.268.076-.554.122-.857l1.681-9.31-2.45-.735v-.281l4.585-.944h.21l-1.925,11.2-.123.736a3.731,3.731,0,0,0-.052.594A2.685,2.685,0,0,0,209,269.74a1.8,1.8,0,0,0,1.557.648,3.783,3.783,0,0,0,2.485-1.068,24.981,24.981,0,0,0,2.309-2.293l1.681-9.484-2.45-.735v-.281l4.62-.944h.21l-2.1,11.935a5.639,5.639,0,0,0-.123,1.924.62.62,0,0,0,.648.561,1.991,1.991,0,0,0,1.365-.7,6.711,6.711,0,0,0,1.295-2.066l.49.176a10.413,10.413,0,0,1-2.083,3.534,3.2,3.2,0,0,1-2.222,1.085,1.5,1.5,0,0,1-1.453-.875,4.549,4.549,0,0,1-.122-2.694l.035-.175h-.14a19.672,19.672,0,0,1-2.975,2.887A4.5,4.5,0,0,1,209.335,272.032Z"/>
          <path class="cls-1" d="M228.761,266.327a4.852,4.852,0,0,1-1.785-.314q-2.031.911-2.031,2.415a1.487,1.487,0,0,0,.7,1.33,5.445,5.445,0,0,0,1.819.7q1.12.244,2.381.472a14.779,14.779,0,0,1,2.38.631,4.705,4.705,0,0,1,1.819,1.119,2.708,2.708,0,0,1,.7,1.977,4.549,4.549,0,0,1-.892,2.713,6.076,6.076,0,0,1-2.573,1.978,10.1,10.1,0,0,1-4.059.735,8.615,8.615,0,0,1-4.324-.91,2.8,2.8,0,0,1-1.557-2.521,4.542,4.542,0,0,1,.3-1.715,5.178,5.178,0,0,1,.857-1.4l2.521-1.681v-.1a4.017,4.017,0,0,1-1.454-.963,2.329,2.329,0,0,1-.577-1.662,2.277,2.277,0,0,1,.281-1.155,5.3,5.3,0,0,1,.734-.981l2.24-1.189v-.14a3.517,3.517,0,0,1-1.365-1.523,4.8,4.8,0,0,1-.455-2.082,6.241,6.241,0,0,1,.841-3.151,6.945,6.945,0,0,1,2.257-2.4,5.729,5.729,0,0,1,3.2-.927,5.208,5.208,0,0,1,1.889.35h5.076v1.224h-3.221l-.175.141a4.282,4.282,0,0,1,.771,2.66,6.165,6.165,0,0,1-.789,2.939,6.851,6.851,0,0,1-2.222,2.451A5.7,5.7,0,0,1,228.761,266.327Zm-5.426,9.8a2.742,2.742,0,0,0,1.19,2.38,5.232,5.232,0,0,0,3.08.84,5.8,5.8,0,0,0,3.868-1.173,3.448,3.448,0,0,0,1.382-2.677,2.056,2.056,0,0,0-.682-1.663,4.387,4.387,0,0,0-1.785-.857q-1.1-.281-2.327-.473a20.194,20.194,0,0,1-2.346-.507,4.912,4.912,0,0,0-1.872,1.942A5.033,5.033,0,0,0,223.335,276.128Zm5.95-10.78a2.813,2.813,0,0,0,1.907-.718,4.824,4.824,0,0,0,1.295-1.907,6.843,6.843,0,0,0,.473-2.555,4.487,4.487,0,0,0-.7-2.678,2.36,2.36,0,0,0-2.031-.963,2.926,2.926,0,0,0-1.995.736,4.776,4.776,0,0,0-1.3,1.907,6.965,6.965,0,0,0-.455,2.538,4.866,4.866,0,0,0,.648,2.572A2.317,2.317,0,0,0,229.285,265.348Z"/>
          <path class="cls-1" d="M240.975,271.683h-2.066l4.271-24.29-2.451-.736v-.279l4.656-.945h.21l-2.45,13.929h.069a29.582,29.582,0,0,1,2.205-2.187,7.224,7.224,0,0,1,1.838-1.207,4.844,4.844,0,0,1,1.942-.385,2.845,2.845,0,0,1,2.572,1.347,5.306,5.306,0,0,1,.4,3.833l-1.226,6.755a5.783,5.783,0,0,0-.122,1.942.613.613,0,0,0,.648.543q1.4,0,2.66-2.766l.454.176a10.636,10.636,0,0,1-2.065,3.534,3.178,3.178,0,0,1-2.24,1.085,1.468,1.468,0,0,1-1.434-.857,4.7,4.7,0,0,1-.106-2.712l1.365-7.84a4.029,4.029,0,0,0-.21-2.4,1.891,1.891,0,0,0-1.924-1,4.18,4.18,0,0,0-2.608,1.049,21.429,21.429,0,0,0-2.432,2.276Z"/>
          <path class="cls-1" d="M259.875,272.032a1.974,1.974,0,0,1-1.628-.665,2.91,2.91,0,0,1-.542-1.889,3.552,3.552,0,0,1,.052-.56q.052-.315.088-.665l1.925-11.061h-2.661v-.245l3.08-1.085,2.311-3.779h.245l-.665,3.85h4.234v1.259h-4.479l-1.681,9.7c-.047.327-.087.63-.122.91a6,6,0,0,0-.053.734,2.041,2.041,0,0,0,.263,1.191.922.922,0,0,0,.787.349,2.645,2.645,0,0,0,1.785-.944,8.644,8.644,0,0,0,1.715-2.766l.491.21a11.389,11.389,0,0,1-2.433,4.218A3.944,3.944,0,0,1,259.875,272.032Z"/>
          <path class="cls-1" d="M39.2,312.032a5.83,5.83,0,0,1-1.819-.3,6.035,6.035,0,0,1-1.61-.788l-1.331.91H34.2l4.306-24.5-2.415-.7v-.279l4.619-.945h.21L38.4,299.817h.139a21.345,21.345,0,0,1,2.905-3.062,4.737,4.737,0,0,1,3.116-1.172,2.733,2.733,0,0,1,2.327,1.26,6.4,6.4,0,0,1,.892,3.71,12.936,12.936,0,0,1-.7,4.217,13.68,13.68,0,0,1-1.907,3.693,9.982,9.982,0,0,1-2.747,2.607A5.987,5.987,0,0,1,39.2,312.032Zm4.2-14.7a4.239,4.239,0,0,0-2.589,1.085,15.9,15.9,0,0,0-2.661,2.765l-1.4,8.12a4.643,4.643,0,0,0,1.662,1.277,4.4,4.4,0,0,0,1.662.333,4.072,4.072,0,0,0,2.8-1.19,8.18,8.18,0,0,0,2.064-3.361,15.289,15.289,0,0,0,.771-5.109,6.05,6.05,0,0,0-.561-2.976A1.888,1.888,0,0,0,43.4,297.333Z"/>
          <path class="cls-1" d="M54.146,312.032a2.849,2.849,0,0,1-2.328-1.172,5.536,5.536,0,0,1-.927-3.482,12.4,12.4,0,0,1,.735-4.148,15.123,15.123,0,0,1,1.978-3.815,10.622,10.622,0,0,1,2.87-2.782,6.2,6.2,0,0,1,3.412-1.05,5.438,5.438,0,0,1,1.662.262,5.787,5.787,0,0,1,1.453.682l.944-.769h.526l-2.066,11.76a5.783,5.783,0,0,0-.122,1.942A.6.6,0,0,0,62.9,310q1.436,0,2.695-2.766l.455.176a10.429,10.429,0,0,1-2.083,3.534,3.206,3.206,0,0,1-2.222,1.085,1.506,1.506,0,0,1-1.453-.857,4.452,4.452,0,0,1-.087-2.712l.14-.735h-.106a18.132,18.132,0,0,1-3.08,3.2A4.871,4.871,0,0,1,54.146,312.032Zm-1.155-5.425q0,3.676,2.275,3.675a3.6,3.6,0,0,0,1.889-.577,9.048,9.048,0,0,0,1.8-1.47,21.583,21.583,0,0,0,1.628-1.908l1.4-8.189a5.037,5.037,0,0,0-1.277-1.05,3.408,3.408,0,0,0-1.7-.386,3.968,3.968,0,0,0-2.468.841,7.29,7.29,0,0,0-1.907,2.274A12.336,12.336,0,0,0,53.411,303,15.391,15.391,0,0,0,52.991,306.607Z"/>
          <path class="cls-1" d="M73.4,312.032a4.545,4.545,0,0,1-3.815-1.609,6.859,6.859,0,0,1-1.26-4.34,10.5,10.5,0,0,1,.718-3.815,12.585,12.585,0,0,1,1.942-3.378,10.167,10.167,0,0,1,2.73-2.414,5.96,5.96,0,0,1,3.08-.893,4.766,4.766,0,0,1,2.135.42,4.417,4.417,0,0,1,1.365,1.015,1.777,1.777,0,0,1,.595,1.155.823.823,0,0,1-.42.7l-.945.6h-.209l-.456-.771a6.186,6.186,0,0,0-1.19-1.452,2.658,2.658,0,0,0-1.785-.543,4.1,4.1,0,0,0-2.747,1.12,7.818,7.818,0,0,0-2.048,3.045,11.6,11.6,0,0,0-.77,4.341,6.25,6.25,0,0,0,1.033,3.867,3.5,3.5,0,0,0,2.957,1.348,4.418,4.418,0,0,0,2.573-.875,9.616,9.616,0,0,0,2.467-2.87h.07l.28.21a11.884,11.884,0,0,1-2.642,3.674A5.236,5.236,0,0,1,73.4,312.032Z"/>
          <path class="cls-1" d="M83.23,311.683l4.236-24.29-2.45-.736v-.279l4.655-.945h.21l-4.62,26.25Zm10.01.349a1.728,1.728,0,0,1-1.452-.717,20.459,20.459,0,0,1-1.452-2.4l-3.325-6.056v-.175q2.555-2.692,4.112-4.235a21.579,21.579,0,0,1,2.5-2.2,3.074,3.074,0,0,1,1.715-.665,2.758,2.758,0,0,1,.682.069,1.207,1.207,0,0,1,.438.21.672.672,0,0,1,.245.981L96.181,298l-.14.069-.455-.21a2.254,2.254,0,0,0-1.19-.28,2.279,2.279,0,0,0-1.173.4,7.377,7.377,0,0,0-1.137.858l-3.29,3.149,3.359,5.88a9.846,9.846,0,0,0,1.1,1.7,1.193,1.193,0,0,0,.892.438q1.189,0,2.415-2.766l.491.176a15.377,15.377,0,0,1-1.838,3.465A2.516,2.516,0,0,1,93.24,312.032Z"/>
          <path class="cls-1" d="M111.056,312.032a1.974,1.974,0,0,1-1.628-.665,2.9,2.9,0,0,1-.542-1.889,3.437,3.437,0,0,1,.052-.56q.052-.315.087-.665l1.925-11.061h-2.66v-.245l3.08-1.085,2.311-3.779h.245l-.665,3.85H117.5v1.259h-4.479l-1.681,9.7c-.047.327-.087.63-.122.91a6,6,0,0,0-.053.734,2.041,2.041,0,0,0,.263,1.191.921.921,0,0,0,.787.349,2.647,2.647,0,0,0,1.785-.944,8.662,8.662,0,0,0,1.715-2.766l.49.21a11.375,11.375,0,0,1-2.432,4.218A3.946,3.946,0,0,1,111.056,312.032Z"/>
          <path class="cls-1" d="M124.461,312.032a4.908,4.908,0,0,1-4.131-1.8,7.337,7.337,0,0,1-1.4-4.637,11.063,11.063,0,0,1,.63-3.71,11.262,11.262,0,0,1,1.732-3.2,8.558,8.558,0,0,1,2.607-2.257,6.493,6.493,0,0,1,3.22-.84,4.91,4.91,0,0,1,4.13,1.8,7.4,7.4,0,0,1,1.4,4.673,11.165,11.165,0,0,1-.577,3.482,11.308,11.308,0,0,1-1.663,3.237,8.734,8.734,0,0,1-2.59,2.363A6.459,6.459,0,0,1,124.461,312.032Zm.454-1.05a3.918,3.918,0,0,0,2.835-1.207,8.227,8.227,0,0,0,1.926-3.237,13.687,13.687,0,0,0,.7-4.48,7.918,7.918,0,0,0-.857-3.991A3.008,3.008,0,0,0,126.7,296.6a4.063,4.063,0,0,0-2.852,1.155,7.671,7.671,0,0,0-1.943,3.149,13.58,13.58,0,0,0-.7,4.516,8.07,8.07,0,0,0,.875,4.06A3.028,3.028,0,0,0,124.915,310.982Z"/>
          <path class="cls-1" d="M144.376,311.683l2.484-14.14-2.415-.735v-.281l4.2-.944h.174l-.244,3.779h.105a30.286,30.286,0,0,1,2.134-2.187,7.1,7.1,0,0,1,1.75-1.207,4.488,4.488,0,0,1,1.891-.385,2.692,2.692,0,0,1,2.223.979,4.184,4.184,0,0,1,.717,2.835h.14q1.226-1.365,2.135-2.2a6.862,6.862,0,0,1,1.75-1.224,4.474,4.474,0,0,1,1.89-.385,2.654,2.654,0,0,1,2.467,1.347,5.6,5.6,0,0,1,.332,3.833l-1.224,6.755a5.783,5.783,0,0,0-.122,1.942.612.612,0,0,0,.647.543q1.4,0,2.659-2.766l.455.176a10.637,10.637,0,0,1-2.064,3.534,3.181,3.181,0,0,1-2.24,1.085,1.469,1.469,0,0,1-1.435-.857,4.716,4.716,0,0,1-.1-2.712l1.365-7.84a4.484,4.484,0,0,0-.14-2.4,1.722,1.722,0,0,0-1.82-1,3.825,3.825,0,0,0-2.521,1.067,25.232,25.232,0,0,0-2.309,2.293l-.035.175-1.96,10.92H153.23l1.926-11.06a4.494,4.494,0,0,0-.14-2.4,1.691,1.691,0,0,0-1.786-1,3.819,3.819,0,0,0-2.519,1.067q-1.226,1.068-2.345,2.258l-1.926,11.13Z"/>
          <path class="cls-1" d="M173.04,312.032a1.5,1.5,0,0,1-1.452-.857,4.458,4.458,0,0,1-.088-2.712l1.925-10.955-2.59-.7v-.281l4.726-.944h.279l-2.135,11.935a5.783,5.783,0,0,0-.122,1.942.612.612,0,0,0,.647.543q1.4,0,2.661-2.766l.455.176a10.67,10.67,0,0,1-2.066,3.534A3.178,3.178,0,0,1,173.04,312.032Zm2.625-21.524a1.482,1.482,0,0,1-1.085-.455,1.52,1.52,0,0,1-.455-1.12,1.554,1.554,0,0,1,1.54-1.54,1.525,1.525,0,0,1,1.12.455,1.482,1.482,0,0,1,.455,1.085,1.554,1.554,0,0,1-1.575,1.575Z"/>
          <path class="cls-1" d="M180.005,311.683l2.484-14.14-2.415-.735v-.281l4.2-.944h.175l-.244,3.779h.1a29.2,29.2,0,0,1,2.2-2.187,7.189,7.189,0,0,1,1.838-1.207,4.84,4.84,0,0,1,1.942-.385,2.847,2.847,0,0,1,2.572,1.347,5.323,5.323,0,0,1,.4,3.833l-1.225,6.755a5.764,5.764,0,0,0-.123,1.942.614.614,0,0,0,.647.543q1.4,0,2.66-2.766l.456.176a10.076,10.076,0,0,1-2.048,3.534,3.237,3.237,0,0,1-2.257,1.085,1.473,1.473,0,0,1-1.436-.857,4.726,4.726,0,0,1-.1-2.712l1.365-7.84a4.037,4.037,0,0,0-.21-2.4,1.893,1.893,0,0,0-1.926-1,3.464,3.464,0,0,0-1.75.507,9.955,9.955,0,0,0-1.715,1.278q-.839.77-1.609,1.575l-1.926,11.095Z"/>
          <path class="cls-1" d="M201.145,312.032a2.8,2.8,0,0,1-2.31-1.172,5.61,5.61,0,0,1-.91-3.482,12.65,12.65,0,0,1,.718-4.148,14.406,14.406,0,0,1,1.976-3.815,10.992,10.992,0,0,1,2.87-2.782,6.116,6.116,0,0,1,3.4-1.05,5.388,5.388,0,0,1,1.277.157,5.67,5.67,0,0,1,1.207.438l1.54-8.821-2.8-.7v-.279l5-.945h.176L209.4,307.518a5.783,5.783,0,0,0-.122,1.942.613.613,0,0,0,.648.543q1.4,0,2.66-2.766l.455.176A10.076,10.076,0,0,1,211,310.947a3.236,3.236,0,0,1-2.258,1.085,1.469,1.469,0,0,1-1.434-.857,4.7,4.7,0,0,1-.106-2.712l.141-.735h-.106a16.929,16.929,0,0,1-3.149,3.254A4.928,4.928,0,0,1,201.145,312.032Zm-1.156-5.425a5.089,5.089,0,0,0,.6,2.8,1.945,1.945,0,0,0,1.715.875,4.241,4.241,0,0,0,2.625-1.1,15.477,15.477,0,0,0,2.625-2.783l1.434-8.259a5.6,5.6,0,0,0-1.33-1.068,3.362,3.362,0,0,0-1.644-.368,3.985,3.985,0,0,0-2.433.823,7.118,7.118,0,0,0-1.907,2.24,12.5,12.5,0,0,0-1.243,3.185A15.156,15.156,0,0,0,199.989,306.607Z"/>
          <path class="cls-1" d="M229.74,312.032a4.908,4.908,0,0,1-4.131-1.8,7.343,7.343,0,0,1-1.4-4.637,11.063,11.063,0,0,1,.63-3.71,11.287,11.287,0,0,1,1.732-3.2,8.573,8.573,0,0,1,2.608-2.257,6.489,6.489,0,0,1,3.219-.84,4.908,4.908,0,0,1,4.13,1.8,7.4,7.4,0,0,1,1.4,4.673,11.194,11.194,0,0,1-.577,3.482,11.336,11.336,0,0,1-1.664,3.237,8.731,8.731,0,0,1-2.589,2.363A6.46,6.46,0,0,1,229.74,312.032Zm.454-1.05a3.916,3.916,0,0,0,2.835-1.207,8.215,8.215,0,0,0,1.926-3.237,13.687,13.687,0,0,0,.7-4.48,7.918,7.918,0,0,0-.857-3.991,3.007,3.007,0,0,0-2.818-1.469,4.063,4.063,0,0,0-2.852,1.155,7.659,7.659,0,0,0-1.942,3.149,13.579,13.579,0,0,0-.7,4.516,8.07,8.07,0,0,0,.875,4.06A3.029,3.029,0,0,0,230.194,310.982Z"/>
          <path class="cls-1" d="M243.11,312.032a1.47,1.47,0,0,1-1.435-.857,4.716,4.716,0,0,1-.105-2.712l3.744-21.106-2.589-.7v-.279l4.69-.945h.314l-3.955,22.085a5.783,5.783,0,0,0-.122,1.942.613.613,0,0,0,.648.543,1.991,1.991,0,0,0,1.365-.7,6.73,6.73,0,0,0,1.3-2.066l.49.176a10.429,10.429,0,0,1-2.083,3.534A3.234,3.234,0,0,1,243.11,312.032Z"/>
          <path class="cls-1" d="M253.26,312.032a2.8,2.8,0,0,1-2.31-1.172,5.61,5.61,0,0,1-.91-3.482,12.65,12.65,0,0,1,.718-4.148,14.435,14.435,0,0,1,1.976-3.815,10.992,10.992,0,0,1,2.87-2.782,6.12,6.12,0,0,1,3.4-1.05,5.382,5.382,0,0,1,1.277.157,5.67,5.67,0,0,1,1.207.438l1.54-8.821-2.8-.7v-.279l5-.945h.176l-3.885,22.085a5.764,5.764,0,0,0-.123,1.942.614.614,0,0,0,.648.543q1.4,0,2.66-2.766l.455.176a10.061,10.061,0,0,1-2.048,3.534,3.236,3.236,0,0,1-2.258,1.085,1.47,1.47,0,0,1-1.434-.857,4.714,4.714,0,0,1-.106-2.712l.141-.735h-.1a16.96,16.96,0,0,1-3.15,3.254A4.925,4.925,0,0,1,253.26,312.032Zm-1.156-5.425a5.089,5.089,0,0,0,.6,2.8,1.946,1.946,0,0,0,1.715.875,4.241,4.241,0,0,0,2.625-1.1,15.477,15.477,0,0,0,2.625-2.783l1.435-8.259a5.635,5.635,0,0,0-1.33-1.068,3.368,3.368,0,0,0-1.645-.368,3.987,3.987,0,0,0-2.433.823,7.118,7.118,0,0,0-1.907,2.24,12.5,12.5,0,0,0-1.243,3.185A15.156,15.156,0,0,0,252.1,306.607Z"/>
          <path class="cls-1" d="M27.9,352.032a1.974,1.974,0,0,1-1.628-.665,2.9,2.9,0,0,1-.542-1.889,3.541,3.541,0,0,1,.051-.56c.035-.21.065-.432.088-.665l1.925-11.061H25.13v-.245l3.08-1.085,2.311-3.779h.245l-.665,3.85h4.234v1.259h-4.48l-1.68,9.7c-.047.327-.087.63-.122.91a6,6,0,0,0-.053.734,2.041,2.041,0,0,0,.263,1.191.921.921,0,0,0,.787.349,2.649,2.649,0,0,0,1.785-.944,8.662,8.662,0,0,0,1.715-2.766l.49.21a11.375,11.375,0,0,1-2.433,4.218A3.944,3.944,0,0,1,27.9,352.032Z"/>
          <path class="cls-1" d="M38.4,352.032a1.506,1.506,0,0,1-1.453-.857,4.458,4.458,0,0,1-.088-2.712l1.925-10.955-2.59-.7v-.281l4.726-.944H41.2l-2.134,11.935a5.764,5.764,0,0,0-.123,1.942.613.613,0,0,0,.648.543q1.4,0,2.66-2.766l.455.176a10.67,10.67,0,0,1-2.065,3.534A3.181,3.181,0,0,1,38.4,352.032Zm2.625-21.524a1.48,1.48,0,0,1-1.085-.455,1.52,1.52,0,0,1-.456-1.12,1.555,1.555,0,0,1,1.541-1.54,1.525,1.525,0,0,1,1.12.455,1.486,1.486,0,0,1,.455,1.085,1.554,1.554,0,0,1-1.575,1.575Z"/>
          <path class="cls-1" d="M45.36,351.683l2.485-14.14-2.415-.735v-.281l4.2-.944h.175l-.244,3.779h.1a30.062,30.062,0,0,1,2.135-2.187,7.062,7.062,0,0,1,1.75-1.207,4.48,4.48,0,0,1,1.89-.385,2.691,2.691,0,0,1,2.223.979,4.174,4.174,0,0,1,.717,2.835h.141q1.224-1.365,2.134-2.2a6.9,6.9,0,0,1,1.75-1.224,4.48,4.48,0,0,1,1.89-.385,2.656,2.656,0,0,1,2.468,1.347,5.616,5.616,0,0,1,.332,3.833l-1.225,6.755a5.783,5.783,0,0,0-.122,1.942A.613.613,0,0,0,66.4,350q1.4,0,2.659-2.766l.455.176a10.653,10.653,0,0,1-2.065,3.534,3.178,3.178,0,0,1-2.24,1.085,1.468,1.468,0,0,1-1.434-.857,4.7,4.7,0,0,1-.106-2.712l1.365-7.84a4.5,4.5,0,0,0-.139-2.4,1.723,1.723,0,0,0-1.821-1,3.821,3.821,0,0,0-2.52,1.067,25.117,25.117,0,0,0-2.31,2.293l-.035.175-1.96,10.92h-2.03l1.926-11.06a4.483,4.483,0,0,0-.141-2.4,1.69,1.69,0,0,0-1.785-1A3.823,3.823,0,0,0,51.7,338.3q-1.226,1.068-2.344,2.258l-1.926,11.13Z"/>
          <path class="cls-1" d="M76.859,352.032a4.576,4.576,0,0,1-3.867-1.609,6.626,6.626,0,0,1-1.242-4.165,11.416,11.416,0,0,1,.7-3.973,11.777,11.777,0,0,1,1.925-3.412,10.045,10.045,0,0,1,2.765-2.4,6.319,6.319,0,0,1,3.219-.893,3.765,3.765,0,0,1,2.7.84,2.562,2.562,0,0,1,.875,1.889,2.913,2.913,0,0,1-.962,2.083A8.312,8.312,0,0,1,79.8,342.11a33.493,33.493,0,0,1-5.915,1.278,14.98,14.98,0,0,0-.14,2.064,5.7,5.7,0,0,0,1.05,3.676,3.652,3.652,0,0,0,3.01,1.3q2.8,0,4.9-3.255h.069l.281.21a9.6,9.6,0,0,1-2.537,3.29A5.551,5.551,0,0,1,76.859,352.032Zm2.766-15.47a4.634,4.634,0,0,0-3.5,1.628,9.139,9.139,0,0,0-2.1,4.358,22.527,22.527,0,0,0,6.021-1.558,2.771,2.771,0,0,0,1.785-2.538,1.833,1.833,0,0,0-.543-1.347A2.262,2.262,0,0,0,79.625,336.562Z"/>
          <path class="cls-1" d="M89.845,352.032a6.116,6.116,0,0,1-2.625-.471,4.06,4.06,0,0,1-1.471-1.1,1.486,1.486,0,0,1-.385-.875.855.855,0,0,1,.071-.315.844.844,0,0,1,.314-.35l.6-.42h.21l.455.805a3.246,3.246,0,0,0,1.364,1.33,3.871,3.871,0,0,0,1.75.42,3.337,3.337,0,0,0,2.415-.875,3.014,3.014,0,0,0,.91-2.276,2.816,2.816,0,0,0-.682-2,8.78,8.78,0,0,0-2.012-1.5,9.287,9.287,0,0,1-2.433-1.96A3.671,3.671,0,0,1,87.6,340.1a3.618,3.618,0,0,1,.736-2.118,6.007,6.007,0,0,1,1.907-1.715,4.839,4.839,0,0,1,2.468-.682,5.262,5.262,0,0,1,2.152.385,4.128,4.128,0,0,1,1.417,1.014,1.483,1.483,0,0,1,.316.806.929.929,0,0,1-.351.7l-.524.386h-.21l-.63-.841a3.918,3.918,0,0,0-1.138-1.1,2.849,2.849,0,0,0-1.487-.368,2.7,2.7,0,0,0-2.066.823,2.628,2.628,0,0,0-.769,1.838,2.924,2.924,0,0,0,.612,1.907,6.436,6.436,0,0,0,1.733,1.418,12.161,12.161,0,0,1,2.625,1.925,3.694,3.694,0,0,1,.875,2.66,4.36,4.36,0,0,1-.7,2.345,5.485,5.485,0,0,1-4.724,2.554Z"/>
          <path class="cls-1" d="M112.1,351.788l-2.765-14.315-2.555-.665v-.281l4.236-.944h.139l2.24,12.7h.14l5.565-12.355h.385l2.625,12.7h.14l2.45-4.585q.98-1.856,1.47-3.045a5.456,5.456,0,0,0,.49-2,1.627,1.627,0,0,0-.245-.946,2.2,2.2,0,0,0-.63-.594l-.524-.281v-.139l.559-.91a1.331,1.331,0,0,1,.385-.456.8.8,0,0,1,.42-.1,1.444,1.444,0,0,1,1.208.8,3.164,3.164,0,0,1,.508,1.715,5.313,5.313,0,0,1-.473,1.924,29.149,29.149,0,0,1-1.663,3.221l-4.9,8.54h-.491L118.3,340.2l-5.67,11.586Z"/>
          <path class="cls-1" d="M132.3,351.683h-2.066l4.271-24.29-2.45-.736v-.279l4.655-.945h.21l-2.45,13.929h.069a29.582,29.582,0,0,1,2.2-2.187,7.224,7.224,0,0,1,1.838-1.207,4.844,4.844,0,0,1,1.942-.385,2.848,2.848,0,0,1,2.573,1.347,5.312,5.312,0,0,1,.4,3.833l-1.226,6.755a5.783,5.783,0,0,0-.122,1.942.613.613,0,0,0,.648.543q1.4,0,2.66-2.766l.454.176a10.654,10.654,0,0,1-2.064,3.534,3.181,3.181,0,0,1-2.241,1.085,1.469,1.469,0,0,1-1.434-.857,4.714,4.714,0,0,1-.106-2.712l1.366-7.84a4.037,4.037,0,0,0-.21-2.4,1.894,1.894,0,0,0-1.925-1,4.183,4.183,0,0,0-2.608,1.049,21.429,21.429,0,0,0-2.432,2.276Z"/>
          <path class="cls-1" d="M150.428,352.032a1.5,1.5,0,0,1-1.452-.857,4.45,4.45,0,0,1-.088-2.712l1.924-10.955-2.589-.7v-.281l4.725-.944h.28l-2.135,11.935a5.783,5.783,0,0,0-.122,1.942.612.612,0,0,0,.647.543q1.4,0,2.66-2.766l.455.176a10.653,10.653,0,0,1-2.065,3.534A3.181,3.181,0,0,1,150.428,352.032Zm2.625-21.524a1.482,1.482,0,0,1-1.085-.455,1.52,1.52,0,0,1-.455-1.12,1.554,1.554,0,0,1,1.54-1.54,1.525,1.525,0,0,1,1.12.455,1.482,1.482,0,0,1,.455,1.085,1.554,1.554,0,0,1-1.575,1.575Z"/>
          <path class="cls-1" d="M162.468,352.032a4.547,4.547,0,0,1-3.816-1.609,6.859,6.859,0,0,1-1.259-4.34,10.5,10.5,0,0,1,.717-3.815,12.562,12.562,0,0,1,1.943-3.378,10.149,10.149,0,0,1,2.729-2.414,5.96,5.96,0,0,1,3.08-.893A4.76,4.76,0,0,1,168,336a4.394,4.394,0,0,1,1.365,1.015,1.777,1.777,0,0,1,.595,1.155.823.823,0,0,1-.42.7l-.944.6h-.21l-.455-.771a6.188,6.188,0,0,0-1.191-1.452,2.656,2.656,0,0,0-1.785-.543,4.1,4.1,0,0,0-2.747,1.12,7.829,7.829,0,0,0-2.048,3.045,11.615,11.615,0,0,0-.769,4.341,6.25,6.25,0,0,0,1.032,3.867,3.5,3.5,0,0,0,2.957,1.348,4.416,4.416,0,0,0,2.573-.875,9.6,9.6,0,0,0,2.467-2.87h.07l.281.21a11.886,11.886,0,0,1-2.643,3.674A5.234,5.234,0,0,1,162.468,352.032Z"/>
          <path class="cls-1" d="M174.367,351.683H172.3l4.27-24.29-2.45-.736v-.279l4.655-.945h.21l-2.45,13.929h.069a29.57,29.57,0,0,1,2.206-2.187,7.22,7.22,0,0,1,1.837-1.207,4.848,4.848,0,0,1,1.943-.385,2.846,2.846,0,0,1,2.572,1.347,5.312,5.312,0,0,1,.4,3.833l-1.225,6.755a5.783,5.783,0,0,0-.122,1.942.612.612,0,0,0,.647.543q1.4,0,2.66-2.766l.454.176a10.637,10.637,0,0,1-2.064,3.534,3.181,3.181,0,0,1-2.24,1.085,1.469,1.469,0,0,1-1.435-.857,4.716,4.716,0,0,1-.1-2.712l1.365-7.84a4.029,4.029,0,0,0-.21-2.4,1.893,1.893,0,0,0-1.925-1,4.18,4.18,0,0,0-2.607,1.049,21.439,21.439,0,0,0-2.433,2.276Z"/>
          <path class="cls-1" d="M202.262,352.032a6.116,6.116,0,0,1-2.625-.471,4.06,4.06,0,0,1-1.471-1.1,1.486,1.486,0,0,1-.385-.875.855.855,0,0,1,.071-.315.844.844,0,0,1,.314-.35l.6-.42h.21l.455.805a3.246,3.246,0,0,0,1.364,1.33,3.871,3.871,0,0,0,1.75.42,3.337,3.337,0,0,0,2.415-.875,3.017,3.017,0,0,0,.91-2.276,2.816,2.816,0,0,0-.682-2,8.78,8.78,0,0,0-2.012-1.5,9.287,9.287,0,0,1-2.433-1.96,3.671,3.671,0,0,1-.718-2.344,3.618,3.618,0,0,1,.736-2.118,6.007,6.007,0,0,1,1.907-1.715,4.839,4.839,0,0,1,2.468-.682,5.262,5.262,0,0,1,2.152.385,4.128,4.128,0,0,1,1.417,1.014,1.483,1.483,0,0,1,.316.806.929.929,0,0,1-.351.7l-.524.386h-.21l-.63-.841a3.918,3.918,0,0,0-1.138-1.1,2.849,2.849,0,0,0-1.487-.368,2.694,2.694,0,0,0-2.066.823,2.628,2.628,0,0,0-.769,1.838,2.924,2.924,0,0,0,.612,1.907,6.436,6.436,0,0,0,1.733,1.418,12.161,12.161,0,0,1,2.625,1.925,3.694,3.694,0,0,1,.875,2.66,4.36,4.36,0,0,1-.7,2.345,5.485,5.485,0,0,1-4.724,2.554Z"/>
          <path class="cls-1" d="M216.506,352.032a4.576,4.576,0,0,1-3.867-1.609,6.626,6.626,0,0,1-1.243-4.165,11.417,11.417,0,0,1,.7-3.973,11.751,11.751,0,0,1,1.924-3.412,10.074,10.074,0,0,1,2.765-2.4,6.323,6.323,0,0,1,3.22-.893,3.762,3.762,0,0,1,2.695.84,2.562,2.562,0,0,1,.875,1.889,2.909,2.909,0,0,1-.962,2.083,8.3,8.3,0,0,1-3.168,1.715,33.452,33.452,0,0,1-5.915,1.278,15.138,15.138,0,0,0-.139,2.064,5.7,5.7,0,0,0,1.049,3.676,3.655,3.655,0,0,0,3.01,1.3q2.8,0,4.9-3.255h.069l.28.21a9.591,9.591,0,0,1-2.537,3.29A5.551,5.551,0,0,1,216.506,352.032Zm2.765-15.47a4.634,4.634,0,0,0-3.5,1.628,9.138,9.138,0,0,0-2.1,4.358,22.518,22.518,0,0,0,6.02-1.558,2.77,2.77,0,0,0,1.786-2.538,1.833,1.833,0,0,0-.543-1.347A2.265,2.265,0,0,0,219.271,336.562Z"/>
          <path class="cls-1" d="M231.311,352.032a4.578,4.578,0,0,1-3.868-1.609,6.626,6.626,0,0,1-1.242-4.165,11.44,11.44,0,0,1,.7-3.973,11.777,11.777,0,0,1,1.925-3.412,10.059,10.059,0,0,1,2.765-2.4,6.32,6.32,0,0,1,3.22-.893,3.764,3.764,0,0,1,2.695.84,2.562,2.562,0,0,1,.875,1.889,2.909,2.909,0,0,1-.962,2.083,8.312,8.312,0,0,1-3.168,1.715,33.473,33.473,0,0,1-5.915,1.278,14.98,14.98,0,0,0-.14,2.064,5.7,5.7,0,0,0,1.05,3.676,3.652,3.652,0,0,0,3.01,1.3q2.8,0,4.9-3.255h.07l.28.21a9.6,9.6,0,0,1-2.537,3.29A5.551,5.551,0,0,1,231.311,352.032Zm2.765-15.47a4.634,4.634,0,0,0-3.5,1.628,9.129,9.129,0,0,0-2.1,4.358,22.518,22.518,0,0,0,6.02-1.558,2.769,2.769,0,0,0,1.785-2.538,1.829,1.829,0,0,0-.543-1.347A2.262,2.262,0,0,0,234.076,336.562Z"/>
          <path class="cls-1" d="M241.181,351.683l2.484-14.14-2.415-.735v-.281l4.2-.944h.175l-.244,3.779h.1a30.485,30.485,0,0,1,2.135-2.187,7.1,7.1,0,0,1,1.75-1.207,4.488,4.488,0,0,1,1.891-.385,2.689,2.689,0,0,1,2.222.979,4.174,4.174,0,0,1,.717,2.835h.141q1.224-1.365,2.135-2.2a6.862,6.862,0,0,1,1.75-1.224,4.472,4.472,0,0,1,1.889-.385,2.655,2.655,0,0,1,2.468,1.347,5.61,5.61,0,0,1,.332,3.833l-1.225,6.755a5.783,5.783,0,0,0-.122,1.942.613.613,0,0,0,.648.543q1.4,0,2.659-2.766l.455.176a10.654,10.654,0,0,1-2.064,3.534,3.181,3.181,0,0,1-2.241,1.085,1.469,1.469,0,0,1-1.434-.857,4.714,4.714,0,0,1-.106-2.712l1.366-7.84a4.484,4.484,0,0,0-.14-2.4,1.722,1.722,0,0,0-1.82-1,3.823,3.823,0,0,0-2.521,1.067,25.106,25.106,0,0,0-2.309,2.293l-.036.175-1.96,10.92h-2.03l1.926-11.06a4.483,4.483,0,0,0-.141-2.4,1.69,1.69,0,0,0-1.785-1,3.819,3.819,0,0,0-2.519,1.067q-1.227,1.068-2.345,2.258l-1.926,11.13Z"/>
          <path class="cls-1" d="M106.084,392.032a6.116,6.116,0,0,1-2.625-.471,4.068,4.068,0,0,1-1.471-1.1,1.484,1.484,0,0,1-.384-.875.783.783,0,0,1,.384-.665l.6-.42h.21l.455.805a3.258,3.258,0,0,0,1.364,1.33,3.871,3.871,0,0,0,1.75.42,3.337,3.337,0,0,0,2.415-.875,3.014,3.014,0,0,0,.91-2.276,2.816,2.816,0,0,0-.682-2,8.78,8.78,0,0,0-2.012-1.5,9.279,9.279,0,0,1-2.432-1.96,3.665,3.665,0,0,1-.718-2.344,3.617,3.617,0,0,1,.735-2.118,6.007,6.007,0,0,1,1.907-1.715,4.842,4.842,0,0,1,2.468-.682,5.262,5.262,0,0,1,2.152.385,4.118,4.118,0,0,1,1.417,1.014,1.483,1.483,0,0,1,.316.806.878.878,0,0,1-.088.367.894.894,0,0,1-.263.332l-.524.386h-.21l-.63-.841a3.906,3.906,0,0,0-1.138-1.1,2.849,2.849,0,0,0-1.487-.368,2.692,2.692,0,0,0-2.065.823,2.624,2.624,0,0,0-.77,1.838,2.924,2.924,0,0,0,.612,1.907,6.467,6.467,0,0,0,1.733,1.418,12.161,12.161,0,0,1,2.625,1.925,3.694,3.694,0,0,1,.875,2.66,4.367,4.367,0,0,1-.7,2.345,5.5,5.5,0,0,1-1.925,1.837A5.443,5.443,0,0,1,106.084,392.032Z"/>
          <path class="cls-1" d="M120.749,392.032a4.908,4.908,0,0,1-4.131-1.8,7.343,7.343,0,0,1-1.4-4.637,11.063,11.063,0,0,1,.63-3.71,11.287,11.287,0,0,1,1.732-3.2,8.569,8.569,0,0,1,2.607-2.257,6.493,6.493,0,0,1,3.22-.84,4.909,4.909,0,0,1,4.13,1.8,7.4,7.4,0,0,1,1.4,4.673,11.165,11.165,0,0,1-.577,3.482,11.308,11.308,0,0,1-1.663,3.237,8.734,8.734,0,0,1-2.59,2.363A6.459,6.459,0,0,1,120.749,392.032Zm.454-1.05a3.918,3.918,0,0,0,2.835-1.207,8.227,8.227,0,0,0,1.926-3.237,13.687,13.687,0,0,0,.7-4.48,7.918,7.918,0,0,0-.857-3.991,3.008,3.008,0,0,0-2.818-1.469,4.063,4.063,0,0,0-2.852,1.155,7.671,7.671,0,0,0-1.943,3.149,13.606,13.606,0,0,0-.7,4.516,8.07,8.07,0,0,0,.875,4.06A3.028,3.028,0,0,0,121.2,390.982Z"/>
          <path class="cls-1" d="M136.324,400.083a1.719,1.719,0,0,1-1.12-.3.826.826,0,0,1-.35-.612,1.888,1.888,0,0,1,.245-.736l.384-.8h.141l.56.314a2.7,2.7,0,0,0,.753.245,4.75,4.75,0,0,0,.822.071,2.773,2.773,0,0,0,2.415-1.75,16.079,16.079,0,0,0,1.434-5.18l2.136-14.141h-2.835v-1.259h3.01l.21-1.4a9.867,9.867,0,0,1,.91-2.694,15.679,15.679,0,0,1,1.907-3.011,11.013,11.013,0,0,1,2.678-2.432,5.874,5.874,0,0,1,3.22-.962,1.624,1.624,0,0,1,.945.245q.6.315.595.665a1.052,1.052,0,0,1-.175.559l-.561,1.016h-.139l-.665-.28a5.065,5.065,0,0,0-2-.385,3.4,3.4,0,0,0-2.835,1.5,9.95,9.95,0,0,0-1.576,4.375l-.419,2.8H149.9v1.259h-4.095l-2.03,13.545a12.362,12.362,0,0,1-.823,2.783,16.935,16.935,0,0,1-1.662,3.1,10.714,10.714,0,0,1-2.275,2.486A4.313,4.313,0,0,1,136.324,400.083Z"/>
          <path class="cls-1" d="M154.069,392.032a2.847,2.847,0,0,1-2.327-1.172,5.536,5.536,0,0,1-.928-3.482,12.4,12.4,0,0,1,.736-4.148,15.152,15.152,0,0,1,1.977-3.815,10.622,10.622,0,0,1,2.87-2.782,6.2,6.2,0,0,1,3.413-1.05,5.438,5.438,0,0,1,1.662.262,5.787,5.787,0,0,1,1.453.682l.944-.769h.526l-2.066,11.76a5.783,5.783,0,0,0-.122,1.942.594.594,0,0,0,.612.543q1.436,0,2.7-2.766l.455.176a10.445,10.445,0,0,1-2.083,3.534,3.208,3.208,0,0,1-2.222,1.085,1.506,1.506,0,0,1-1.453-.857,4.452,4.452,0,0,1-.087-2.712l.14-.735h-.106a18.167,18.167,0,0,1-3.08,3.2A4.871,4.871,0,0,1,154.069,392.032Zm-1.154-5.425q0,3.676,2.274,3.675a3.6,3.6,0,0,0,1.89-.577,9.048,9.048,0,0,0,1.8-1.47,21.583,21.583,0,0,0,1.628-1.908l1.4-8.189a5.037,5.037,0,0,0-1.277-1.05,3.411,3.411,0,0,0-1.7-.386,3.965,3.965,0,0,0-2.468.841,7.277,7.277,0,0,0-1.907,2.274A12.3,12.3,0,0,0,153.335,383,15.391,15.391,0,0,0,152.915,386.607Z"/>
          <path class="cls-1" d="M168.91,391.683l2.52-14.14-2.486-.735v-.281l4.306-.944h.14l-.281,4.06h.141a17.012,17.012,0,0,1,2-2.678,4.891,4.891,0,0,1,1.47-1.12,3.029,3.029,0,0,1,1.155-.262,1.859,1.859,0,0,1,1.085.314.9.9,0,0,1,.455.736.935.935,0,0,1-.1.42l-.665,1.259h-.14l-.455-.28a1.859,1.859,0,0,0-1.085-.314,2.91,2.91,0,0,0-1.891.769,13.737,13.737,0,0,0-2.274,2.906l-1.82,10.29Z"/>
          <path class="cls-1" d="M191.87,392.032a2.847,2.847,0,0,1-2.327-1.172,5.536,5.536,0,0,1-.928-3.482,12.372,12.372,0,0,1,.736-4.148,15.152,15.152,0,0,1,1.977-3.815,10.622,10.622,0,0,1,2.87-2.782,6.2,6.2,0,0,1,3.412-1.05,5.428,5.428,0,0,1,1.662.262,5.794,5.794,0,0,1,1.454.682l.944-.769h.525l-2.065,11.76a5.783,5.783,0,0,0-.122,1.942.594.594,0,0,0,.612.543q1.435,0,2.695-2.766l.456.176a10.445,10.445,0,0,1-2.083,3.534,3.208,3.208,0,0,1-2.222,1.085,1.506,1.506,0,0,1-1.453-.857,4.444,4.444,0,0,1-.087-2.712l.139-.735h-.1a18.167,18.167,0,0,1-3.08,3.2A4.871,4.871,0,0,1,191.87,392.032Zm-1.154-5.425q0,3.676,2.274,3.675a3.6,3.6,0,0,0,1.89-.577,9.076,9.076,0,0,0,1.8-1.47,21.583,21.583,0,0,0,1.628-1.908l1.4-8.189a5.054,5.054,0,0,0-1.277-1.05,3.412,3.412,0,0,0-1.7-.386,3.965,3.965,0,0,0-2.467.841,7.279,7.279,0,0,0-1.908,2.274A12.335,12.335,0,0,0,191.136,383,15.338,15.338,0,0,0,190.716,386.607Z"/>
          <path class="cls-1" d="M210.105,391.788l-2.765-14.315-2.555-.665v-.281l4.236-.944h.139l2.24,12.7h.14l5.565-12.355h.385l2.625,12.7h.14l2.45-4.585q.98-1.856,1.47-3.045a5.456,5.456,0,0,0,.49-2,1.627,1.627,0,0,0-.245-.946,2.2,2.2,0,0,0-.63-.594l-.524-.281v-.139l.559-.91a1.331,1.331,0,0,1,.385-.456.8.8,0,0,1,.42-.1,1.444,1.444,0,0,1,1.208.8,3.164,3.164,0,0,1,.508,1.715,5.313,5.313,0,0,1-.473,1.924,29.149,29.149,0,0,1-1.663,3.221l-4.9,8.54h-.491L216.3,380.2l-5.67,11.586Z"/>
          <path class="cls-1" d="M231.454,392.032a2.847,2.847,0,0,1-2.327-1.172,5.536,5.536,0,0,1-.928-3.482,12.372,12.372,0,0,1,.736-4.148,15.152,15.152,0,0,1,1.977-3.815,10.622,10.622,0,0,1,2.87-2.782,6.2,6.2,0,0,1,3.412-1.05,5.428,5.428,0,0,1,1.662.262,5.794,5.794,0,0,1,1.454.682l.944-.769h.525l-2.065,11.76a5.783,5.783,0,0,0-.122,1.942.594.594,0,0,0,.612.543q1.435,0,2.695-2.766l.455.176a10.413,10.413,0,0,1-2.083,3.534,3.2,3.2,0,0,1-2.221,1.085,1.506,1.506,0,0,1-1.453-.857,4.444,4.444,0,0,1-.087-2.712l.139-.735h-.1a18.167,18.167,0,0,1-3.08,3.2A4.871,4.871,0,0,1,231.454,392.032Zm-1.154-5.425q0,3.676,2.274,3.675a3.6,3.6,0,0,0,1.89-.577,9.076,9.076,0,0,0,1.8-1.47,21.583,21.583,0,0,0,1.628-1.908l1.4-8.189a5.054,5.054,0,0,0-1.277-1.05,3.412,3.412,0,0,0-1.7-.386,3.965,3.965,0,0,0-2.467.841,7.279,7.279,0,0,0-1.908,2.274A12.335,12.335,0,0,0,230.72,383,15.338,15.338,0,0,0,230.3,386.607Z"/>
          <path class="cls-1" d="M243.18,400.083a.9.9,0,0,1-1.015-1.016v-1.154l.175-.141h1.75a7,7,0,0,0,1.208-.086,1.963,1.963,0,0,0,.892-.438,5.526,5.526,0,0,0,.927-1.085q.507-.735,1.279-2.03l1.784-2.941-3.08-13.719-2.555-.665v-.281l4.235-.944h.14l2.765,12.984h.14l2.765-4.514a21.575,21.575,0,0,0,1.61-3.028,5.607,5.607,0,0,0,.49-2.012,1.627,1.627,0,0,0-.245-.946,2.226,2.226,0,0,0-.63-.594l-.525-.281v-.139l.56-.91a1.469,1.469,0,0,1,.368-.456.778.778,0,0,1,.437-.1,1.463,1.463,0,0,1,1.242.787,3.138,3.138,0,0,1,.508,1.733,5.3,5.3,0,0,1-.49,1.942,24.613,24.613,0,0,1-1.75,3.2l-7,11.2q-.49.805-.8,1.33t-.647,1.05a11.5,11.5,0,0,1-.963,1.261,5.948,5.948,0,0,1-1.768,1.5A3.852,3.852,0,0,1,243.18,400.083Z"/>
          <path class="cls-1" d="M260.471,391.857a1.4,1.4,0,0,1-1.138-.437,1.707,1.707,0,0,1-.368-1.138,2.139,2.139,0,0,1,.525-1.4,1.731,1.731,0,0,1,1.4-.63,1.371,1.371,0,0,1,1.136.455,1.725,1.725,0,0,1,.369,1.119,2.109,2.109,0,0,1-.526,1.418A1.75,1.75,0,0,1,260.471,391.857Z"/>
        </g>
        <g class="cls-2">
          <path class="cls-3" d="M212.585,25.78v1.75h11.877V52.021H199.971V27.714Q199.971,0,224.462,0V10.312q-6.261,1.014-9.069,4.741T212.585,25.78Zm41.709,0v1.75h11.878V52.021h-24.4V27.714Q241.772,0,266.172,0V10.312Q254.293,11.878,254.294,25.78Z"/>
        </g>
      </g>
    </g>
  </g>
</svg>
