<svg xmlns="http://www.w3.org/2000/svg" viewBox="0 0 249.596 351.784">
  <defs>
    <style>
      .cls-1 {
        fill: #a2c0cc;
      }
    </style>
  </defs>
  <g id="Layer_2" data-name="Layer 2">
    <g id="Layer_1-2" data-name="Layer 1">
      <g>
        <path class="cls-1" d="M45.448,87.009l3.175,17.375,2.051.325-.051.875H44.349l.049-.875,2.225-.276L45.9,99.984h-7.15l-2.1,4.425,2.25.3-.075.875h-5.8l.1-.875,1.7-.276,8.6-17.424ZM39.323,98.784h6.351l-1.4-8.625-.174-1.5Z"/>
        <path class="cls-1" d="M54.849,103.234a1.268,1.268,0,0,0,.262.912,1.315,1.315,0,0,0,.938.263,3.246,3.246,0,0,0,1.274-.351,5.339,5.339,0,0,0,1.2-.7l.2.775a4.969,4.969,0,0,1-1.6,1.137,4.768,4.768,0,0,1-2.125.563q-2.151,0-2.149-2.05a11.931,11.931,0,0,1,.125-1.575l1.174-9.125H52.623l.226-.875,1.524-.475a13.757,13.757,0,0,0,1.4-3.426h.975l-.449,3.4h3.449l-.2,1.375h-3.4l-1.125,8.275Q54.848,102.835,54.849,103.234Z"/>
        <path class="cls-1" d="M69.7,103.234a1.263,1.263,0,0,0,.263.912,1.312,1.312,0,0,0,.937.263,3.254,3.254,0,0,0,1.275-.351,5.362,5.362,0,0,0,1.2-.7l.2.775a4.952,4.952,0,0,1-1.6,1.137,4.768,4.768,0,0,1-2.125.563q-2.151,0-2.15-2.05a11.931,11.931,0,0,1,.125-1.575L69,93.084H67.473l.225-.875,1.525-.475a13.8,13.8,0,0,0,1.4-3.426H71.6l-.45,3.4H74.6l-.2,1.375H71l-1.125,8.275Q69.7,102.835,69.7,103.234Z"/>
        <path class="cls-1" d="M78.772,103.909a.7.7,0,0,0,.114.425.324.324,0,0,0,.261.15q.5,0,1.3-.825l.324.55a4.585,4.585,0,0,1-1.049,1.062,2.553,2.553,0,0,1-1.6.563,1.525,1.525,0,0,1-1.062-.35,1.321,1.321,0,0,1-.338-1.125q.05-.649.338-2.625t.437-2.975l.8-5.475-1.625-.525.15-.8L80,91.433l.5.25-1.7,11.926A1.3,1.3,0,0,0,78.772,103.909ZM79.011,88.2a1.165,1.165,0,0,1-.338-.862,1.554,1.554,0,0,1,.463-1.125,1.364,1.364,0,0,1,.987-.475,1.112,1.112,0,0,1,.837.324,1.173,1.173,0,0,1,.312.851,1.631,1.631,0,0,1-.437,1.149,1.36,1.36,0,0,1-1.037.476A1.073,1.073,0,0,1,79.011,88.2Z"/>
        <path class="cls-1" d="M89.96,92.346a5.213,5.213,0,0,1,2.863-.962,2.547,2.547,0,0,1,2.012.775,3.809,3.809,0,0,1,.738,2.45A9.144,9.144,0,0,1,97.86,92.3a4.588,4.588,0,0,1,2.638-.913,2.625,2.625,0,0,1,2.087.875,4.119,4.119,0,0,1,.763,2.75,10.636,10.636,0,0,1-.138,1.5q-.138.926-.287,1.825l-.175,1.075-.1.55q-.449,2.7-.524,3.675l-.025.3c0,.368.1.551.3.551a1.246,1.246,0,0,0,.625-.187,4.025,4.025,0,0,0,.776-.638l.3.55a4.436,4.436,0,0,1-1.05,1.05,2.653,2.653,0,0,1-1.651.575,1.293,1.293,0,0,1-.974-.338,1.444,1.444,0,0,1-.325-1.037,10.667,10.667,0,0,1,.137-1.475q.138-.925.287-1.8l.2-1.224.15-.85a24.852,24.852,0,0,0,.475-3.975,2.728,2.728,0,0,0-.375-1.663,1.49,1.49,0,0,0-1.225-.462,3.574,3.574,0,0,0-2.112.9,10.334,10.334,0,0,0-2.114,2.25q-.125,1.224-.424,3.25l-.826,6.175h-2l.8-5.575q.249-1.575.4-2.738a16.792,16.792,0,0,0,.15-2.137,3.146,3.146,0,0,0-.362-1.7,1.535,1.535,0,0,0-1.288-.449,4.238,4.238,0,0,0-2.438,1.025,9.758,9.758,0,0,0-2.312,2.475L86,105.584h-1.95l1.625-12.2-1.2-.576.174-.9,2.625-.525.476.25-.325,3.15A9.8,9.8,0,0,1,89.96,92.346Z"/>
        <path class="cls-1" d="M114.56,105.009a5.977,5.977,0,0,1-3.063.825,4.652,4.652,0,0,1-2.725-.75,4.468,4.468,0,0,1-1.587-1.963,6.7,6.7,0,0,1-.513-2.637,10.661,10.661,0,0,1,.95-4.45,8.761,8.761,0,0,1,2.588-3.375,5.772,5.772,0,0,1,3.638-1.275,3.556,3.556,0,0,1,2.574.85,2.929,2.929,0,0,1,.875,2.2,3.708,3.708,0,0,1-1.5,2.989,10.265,10.265,0,0,1-3.525,1.824,13.136,13.136,0,0,1-3.5.638,4.726,4.726,0,0,0-.025.575,5.047,5.047,0,0,0,.75,2.775,2.54,2.54,0,0,0,2.3,1.175,5.568,5.568,0,0,0,2.225-.5,6.862,6.862,0,0,0,2.125-1.476l.475.851A6.629,6.629,0,0,1,114.56,105.009Zm-3.438-11.475a7.01,7.01,0,0,0-1.587,2.412,9.76,9.76,0,0,0-.713,2.813,10.283,10.283,0,0,0,2.938-.563,7.153,7.153,0,0,0,2.537-1.437,2.82,2.82,0,0,0,1.025-2.15,2.2,2.2,0,0,0-.525-1.525,1.841,1.841,0,0,0-1.4-.526A3.175,3.175,0,0,0,111.122,93.534Z"/>
        <path class="cls-1" d="M127.347,93.234a4.409,4.409,0,0,0-1.013-.388,5.117,5.117,0,0,0-1.313-.163,3.351,3.351,0,0,0-2.011.538,1.841,1.841,0,0,0-.739,1.587,2.32,2.32,0,0,0,.576,1.551,10.129,10.129,0,0,0,1.6,1.449q.975.75,1.5,1.226a5.243,5.243,0,0,1,.975,1.237,3.556,3.556,0,0,1-.938,4.55,5.673,5.673,0,0,1-3.437,1.013,10.309,10.309,0,0,1-2.213-.238,3.31,3.31,0,0,1-1.412-.538l.325-1.524a4.981,4.981,0,0,0,1.412.649,6.37,6.37,0,0,0,1.963.3,4.053,4.053,0,0,0,2.05-.475,1.721,1.721,0,0,0,.825-1.625,2.179,2.179,0,0,0-.362-1.225,4.136,4.136,0,0,0-.8-.913c-.291-.241-.721-.563-1.287-.962a8.307,8.307,0,0,1-1.825-1.7,3.646,3.646,0,0,1-.826-2.35,3.352,3.352,0,0,1,.638-2.025,4.14,4.14,0,0,1,1.713-1.35,5.82,5.82,0,0,1,2.375-.475,10.472,10.472,0,0,1,1.825.163,5.768,5.768,0,0,1,1.3.337l-.4,1.7A1.98,1.98,0,0,0,127.347,93.234Z"/>
        <path class="cls-1" d="M138.922,103.234a1.263,1.263,0,0,0,.263.912,1.31,1.31,0,0,0,.937.263,3.246,3.246,0,0,0,1.274-.351,5.372,5.372,0,0,0,1.2-.7l.2.775a4.969,4.969,0,0,1-1.6,1.137,4.768,4.768,0,0,1-2.125.563q-2.149,0-2.149-2.05a11.931,11.931,0,0,1,.125-1.575l1.175-9.125H136.7l.226-.875,1.524-.475a13.745,13.745,0,0,0,1.4-3.426h.974l-.449,3.4h3.449l-.2,1.375h-3.4l-1.125,8.275C138.979,102.343,138.922,102.968,138.922,103.234Z"/>
        <path class="cls-1" d="M151.234,92.4a5.128,5.128,0,0,1,2.938-1.012,2.589,2.589,0,0,1,2.087.837,4.31,4.31,0,0,1,.713,2.788,22,22,0,0,1-.526,3.725c-.016.1-.033.208-.05.324a2.523,2.523,0,0,1-.075.351,5.122,5.122,0,0,0-.125.75,28.544,28.544,0,0,0-.55,3.475,1.433,1.433,0,0,0,.076.65.322.322,0,0,0,.3.225,1.034,1.034,0,0,0,.526-.163,6.234,6.234,0,0,0,.774-.587l.3.549a2.81,2.81,0,0,1-.5.588,3.8,3.8,0,0,1-.949.651,2.663,2.663,0,0,1-1.2.287,1.2,1.2,0,0,1-1.375-1.35,10.5,10.5,0,0,1,.2-1.763q.2-1.112.224-1.312.026-.075.25-1.4.326-1.65.5-2.763a13.558,13.558,0,0,0,.175-2.112,2.717,2.717,0,0,0-.387-1.675,1.5,1.5,0,0,0-1.238-.475,4.305,4.305,0,0,0-2.5,1.037,9.714,9.714,0,0,0-2.325,2.513l-1.225,9.05h-1.9L147.8,87.109l-1.4-.4.151-.85,2.875-.426.5.3-1.226,9.2A10.229,10.229,0,0,1,151.234,92.4Z"/>
        <path class="cls-1" d="M168.059,105.009a5.977,5.977,0,0,1-3.063.825,4.652,4.652,0,0,1-2.725-.75,4.468,4.468,0,0,1-1.587-1.963,6.7,6.7,0,0,1-.513-2.637,10.661,10.661,0,0,1,.95-4.45,8.761,8.761,0,0,1,2.588-3.375,5.772,5.772,0,0,1,3.638-1.275,3.556,3.556,0,0,1,2.574.85,2.929,2.929,0,0,1,.875,2.2,3.708,3.708,0,0,1-1.5,2.989,10.265,10.265,0,0,1-3.525,1.824,13.136,13.136,0,0,1-3.5.638,4.726,4.726,0,0,0-.025.575,5.047,5.047,0,0,0,.75,2.775,2.54,2.54,0,0,0,2.3,1.175,5.568,5.568,0,0,0,2.225-.5,6.862,6.862,0,0,0,2.125-1.476l.475.851A6.617,6.617,0,0,1,168.059,105.009Zm-3.438-11.475a7.01,7.01,0,0,0-1.587,2.412,9.76,9.76,0,0,0-.713,2.813,10.283,10.283,0,0,0,2.938-.563,7.153,7.153,0,0,0,2.537-1.437,2.82,2.82,0,0,0,1.025-2.15,2.2,2.2,0,0,0-.525-1.525,1.841,1.841,0,0,0-1.4-.526A3.175,3.175,0,0,0,164.621,93.534Z"/>
        <path class="cls-1" d="M179.8,93.047a.423.423,0,0,0-.375-.188.609.609,0,0,0-.413.1q-.187.126-.512.375l-.275-.651a2.959,2.959,0,0,1,.849-.812,2.374,2.374,0,0,1,1.4-.462,1.382,1.382,0,0,1,1.125.4,2.654,2.654,0,0,1,.45,1.276l.95,8.6.25,2.351.949-2.15,4.426-10.375h1.75l.925,10.2.2,2.325,1.6-2.3a19.393,19.393,0,0,0,1.825-3.388,11.057,11.057,0,0,0,1.024-3.937,2.265,2.265,0,0,0-.087-.8c-.075-.25-.121-.4-.137-.45a2.394,2.394,0,0,1-.151-.65,1.205,1.205,0,0,1,.25-.813.883.883,0,0,1,.7-.287q1.3,0,1.3,2.425a9.189,9.189,0,0,1-1.024,3.724,30.61,30.61,0,0,1-2.476,4.326l-2.449,3.8-1.825.125-.45-4.174-.575-5.75-.125-1.625-.525,1.65-2.9,6.05-1.75,3.724-1.7.151-.7-4.225-1.3-7.926A2.025,2.025,0,0,0,179.8,93.047Z"/>
        <path class="cls-1" d="M209.7,103.734a.829.829,0,0,0,.163.574.463.463,0,0,0,.337.176.864.864,0,0,0,.489-.163,4.7,4.7,0,0,0,.612-.537l.35.55a2.563,2.563,0,0,1-.462.562,3.915,3.915,0,0,1-.888.651,2.27,2.27,0,0,1-1.1.287q-1.549,0-1.449-1.651l.15-1.024a8.95,8.95,0,0,1-1.988,1.888,4.1,4.1,0,0,1-2.362.787,3.3,3.3,0,0,1-2.938-1.425,6.792,6.792,0,0,1-.962-3.851,10.2,10.2,0,0,1,.95-4.162,9.439,9.439,0,0,1,2.737-3.575,6.447,6.447,0,0,1,4.163-1.437,7.121,7.121,0,0,1,1.225.125,10.107,10.107,0,0,1,1.25.3l1.375-.4-1.625,12.024A1.533,1.533,0,0,0,209.7,103.734Zm-2.474-11.125a4.168,4.168,0,0,0-2.975,1.188,7.587,7.587,0,0,0-1.9,2.987,10.393,10.393,0,0,0-.651,3.55,6.478,6.478,0,0,0,.563,2.987,1.826,1.826,0,0,0,1.713,1.063,3.578,3.578,0,0,0,2.237-.888,9.37,9.37,0,0,0,1.862-1.962l1.1-8.375A3.367,3.367,0,0,0,207.221,92.609Z"/>
        <path class="cls-1" d="M214.521,92.859a1.486,1.486,0,0,0-.925.475l-.276-.651a2.982,2.982,0,0,1,.838-.812,2.314,2.314,0,0,1,1.387-.462,1.32,1.32,0,0,1,1.113.412,2.791,2.791,0,0,1,.438,1.263l.949,8.125.275,2.7,1.8-2.325a21.53,21.53,0,0,0,2.05-3.5,13.211,13.211,0,0,0,1.051-3.675,2.627,2.627,0,0,0-.226-1.25,2.408,2.408,0,0,1-.149-.65,1.161,1.161,0,0,1,.261-.826.914.914,0,0,1,.688-.274,1.09,1.09,0,0,1,1,.638,3.5,3.5,0,0,1,.351,1.687,8.986,8.986,0,0,1-1.088,3.837,29.368,29.368,0,0,1-2.613,4.313l-2.875,3.8-1.474.151-.75-4.55-1.25-7.6Q214.97,92.86,214.521,92.859Z"/>
        <path class="cls-1" d="M234.883,105.009a5.977,5.977,0,0,1-3.063.825,4.651,4.651,0,0,1-2.724-.75,4.47,4.47,0,0,1-1.588-1.963,6.7,6.7,0,0,1-.513-2.637,10.677,10.677,0,0,1,.95-4.45,8.761,8.761,0,0,1,2.588-3.375,5.772,5.772,0,0,1,3.638-1.275,3.554,3.554,0,0,1,2.574.85,2.929,2.929,0,0,1,.875,2.2,3.708,3.708,0,0,1-1.5,2.989,10.269,10.269,0,0,1-3.524,1.824,13.15,13.15,0,0,1-3.5.638,4.478,4.478,0,0,0-.026.575,5.047,5.047,0,0,0,.75,2.775,2.54,2.54,0,0,0,2.3,1.175,5.577,5.577,0,0,0,2.226-.5,6.885,6.885,0,0,0,2.125-1.476l.474.851A6.617,6.617,0,0,1,234.883,105.009Zm-3.438-11.475a7.01,7.01,0,0,0-1.587,2.412,9.757,9.757,0,0,0-.712,2.813,10.276,10.276,0,0,0,2.937-.563,7.144,7.144,0,0,0,2.537-1.437,2.818,2.818,0,0,0,1.026-2.15,2.209,2.209,0,0,0-.526-1.525,1.84,1.84,0,0,0-1.4-.526A3.175,3.175,0,0,0,231.445,93.534Z"/>
        <path class="cls-1" d="M247.67,93.234a4.409,4.409,0,0,0-1.013-.388,5.109,5.109,0,0,0-1.312-.163,3.353,3.353,0,0,0-2.012.538,1.84,1.84,0,0,0-.738,1.587,2.319,2.319,0,0,0,.575,1.551,10.142,10.142,0,0,0,1.6,1.449q.974.75,1.5,1.226a5.266,5.266,0,0,1,.974,1.237,3.557,3.557,0,0,1-.937,4.55,5.678,5.678,0,0,1-3.438,1.013,10.309,10.309,0,0,1-2.213-.238,3.316,3.316,0,0,1-1.412-.538l.325-1.524a4.994,4.994,0,0,0,1.412.649,6.375,6.375,0,0,0,1.963.3,4.051,4.051,0,0,0,2.05-.475,1.721,1.721,0,0,0,.825-1.625,2.179,2.179,0,0,0-.362-1.225,4.136,4.136,0,0,0-.8-.913c-.291-.241-.72-.563-1.287-.962a8.329,8.329,0,0,1-1.825-1.7,3.645,3.645,0,0,1-.825-2.35,3.357,3.357,0,0,1,.637-2.025,4.147,4.147,0,0,1,1.713-1.35,5.82,5.82,0,0,1,2.375-.475,10.492,10.492,0,0,1,1.826.163,5.756,5.756,0,0,1,1.3.337l-.4,1.7A1.941,1.941,0,0,0,247.67,93.234Z"/>
        <path class="cls-1" d="M1.575,133.047a.423.423,0,0,0-.375-.188.609.609,0,0,0-.413.1q-.187.126-.512.375L0,132.683a2.952,2.952,0,0,1,.85-.812,2.369,2.369,0,0,1,1.4-.462,1.382,1.382,0,0,1,1.125.4,2.644,2.644,0,0,1,.45,1.276l.95,8.6.25,2.351.95-2.15L10.4,131.509h1.75l.925,10.2.2,2.325,1.6-2.3a19.393,19.393,0,0,0,1.825-3.388,11.082,11.082,0,0,0,1.025-3.937,2.312,2.312,0,0,0-.087-.8c-.076-.25-.121-.4-.138-.45a2.382,2.382,0,0,1-.15-.65,1.205,1.205,0,0,1,.25-.813.881.881,0,0,1,.7-.287q1.3,0,1.3,2.425a9.193,9.193,0,0,1-1.025,3.724,30.6,30.6,0,0,1-2.475,4.326l-2.45,3.8-1.825.125-.45-4.174-.575-5.75-.125-1.625-.525,1.65-2.9,6.05L5.5,145.683l-1.7.151-.7-4.225-1.3-7.926A2.025,2.025,0,0,0,1.575,133.047Z"/>
        <path class="cls-1" d="M32.05,132.909a6.567,6.567,0,0,1,1.25,4.274,10.149,10.149,0,0,1-.888,4.188,8.293,8.293,0,0,1-2.474,3.225,5.68,5.68,0,0,1-3.588,1.238,4.49,4.49,0,0,1-3.575-1.463,6.285,6.285,0,0,1-1.325-4.137,10.221,10.221,0,0,1,.875-4.288,8.479,8.479,0,0,1,2.5-3.3,5.7,5.7,0,0,1,3.625-1.262A4.386,4.386,0,0,1,32.05,132.909Zm-6.438.825a7.239,7.239,0,0,0-1.562,2.85,11.873,11.873,0,0,0-.525,3.474,5.833,5.833,0,0,0,.825,3.375,2.72,2.72,0,0,0,2.375,1.176A3.192,3.192,0,0,0,29.15,143.5a7.221,7.221,0,0,0,1.55-2.813,11.536,11.536,0,0,0,.525-3.424,6.376,6.376,0,0,0-.775-3.451,2.608,2.608,0,0,0-2.35-1.2A3.268,3.268,0,0,0,25.612,133.734Z"/>
        <path class="cls-1" d="M38.55,139.409q-.1.725-.175,1.45a12.971,12.971,0,0,0-.075,1.324,2.516,2.516,0,0,0,.475,1.776,1.9,1.9,0,0,0,1.4.474,3.8,3.8,0,0,0,2.137-.787,7.242,7.242,0,0,0,1.863-1.838l1.35-10.274H47.45l-1.6,12.05a1.311,1.311,0,0,0-.025.3c0,.4.109.6.325.6a2.323,2.323,0,0,0,1.375-.85l.3.575a4.278,4.278,0,0,1-.55.612,4.074,4.074,0,0,1-.988.688,2.582,2.582,0,0,1-1.187.3,1.168,1.168,0,0,1-.9-.349,1.3,1.3,0,0,1-.325-.925,2.036,2.036,0,0,1,.025-.375,6.306,6.306,0,0,0,.125-.925L44,143.209a8.046,8.046,0,0,1-2.062,1.875,4.715,4.715,0,0,1-2.563.75,3.07,3.07,0,0,1-2.225-.75,3.5,3.5,0,0,1-.775-2.575,37.005,37.005,0,0,1,.425-4.326l.675-4.75-1.225-.6.15-.875,2.675-.526.475.25-.85,6.6Z"/>
        <path class="cls-1" d="M52.85,143.859a.894.894,0,0,0,.1.462.294.294,0,0,0,.25.163,2.166,2.166,0,0,0,1.325-.825l.326.55a3.833,3.833,0,0,1-.975,1.062,2.593,2.593,0,0,1-1.676.563q-1.3,0-1.3-1.425l.076-.925L53.3,127.109l-1.5-.4.2-.85,2.9-.426.476.3-2.5,17.875Z"/>
        <path class="cls-1" d="M67.649,143.909a.852.852,0,0,0,.088.425.267.267,0,0,0,.238.15,2.042,2.042,0,0,0,1.174-.65l.326.55a3.965,3.965,0,0,1-.963.937,2.508,2.508,0,0,1-1.537.513q-1.351,0-1.276-1.526v-.674a6.089,6.089,0,0,1-1.774,1.562,4.481,4.481,0,0,1-2.325.638,3.508,3.508,0,0,1-3.038-1.438,6.419,6.419,0,0,1-1.038-3.838,10.205,10.205,0,0,1,.951-4.162,9.429,9.429,0,0,1,2.737-3.575,6.446,6.446,0,0,1,4.162-1.437,7.689,7.689,0,0,1,2.075.325l.726-4.6-1.6-.4.2-.85,3-.426.526.3-2.625,17.875A1.245,1.245,0,0,0,67.649,143.909Zm-2.575-11.3a4.111,4.111,0,0,0-3,1.237A7.806,7.806,0,0,0,60.2,136.9a10.743,10.743,0,0,0-.625,3.513,5.733,5.733,0,0,0,.625,2.925,1.963,1.963,0,0,0,1.776,1.05,3.91,3.91,0,0,0,2.274-.75,5.8,5.8,0,0,0,1.65-1.675l1.326-8.7A3.191,3.191,0,0,0,65.074,132.609Z"/>
        <path class="cls-1" d="M87.974,143.909a.841.841,0,0,0,.088.425.264.264,0,0,0,.237.15,2.044,2.044,0,0,0,1.175-.65l.325.55a3.965,3.965,0,0,1-.963.937,2.508,2.508,0,0,1-1.537.513q-1.352,0-1.276-1.526v-.674a6.077,6.077,0,0,1-1.774,1.562,4.481,4.481,0,0,1-2.325.638,3.508,3.508,0,0,1-3.038-1.438,6.419,6.419,0,0,1-1.037-3.838,10.2,10.2,0,0,1,.95-4.162,9.439,9.439,0,0,1,2.737-3.575,6.448,6.448,0,0,1,4.162-1.437,7.689,7.689,0,0,1,2.075.325l.726-4.6-1.6-.4.2-.85,3-.426.525.3L88,143.609A1.256,1.256,0,0,0,87.974,143.909Zm-2.576-11.3a4.111,4.111,0,0,0-3,1.237,7.806,7.806,0,0,0-1.875,3.05,10.743,10.743,0,0,0-.625,3.513,5.733,5.733,0,0,0,.625,2.925,1.963,1.963,0,0,0,1.776,1.05,3.908,3.908,0,0,0,2.274-.75,5.822,5.822,0,0,0,1.651-1.675l1.325-8.7A3.191,3.191,0,0,0,85.4,132.609Z"/>
        <path class="cls-1" d="M102.348,143.734a.824.824,0,0,0,.163.574.46.46,0,0,0,.337.176.859.859,0,0,0,.488-.163,4.7,4.7,0,0,0,.612-.537l.35.55a2.563,2.563,0,0,1-.462.562,3.893,3.893,0,0,1-.888.651,2.266,2.266,0,0,1-1.1.287q-1.551,0-1.45-1.651l.15-1.024a8.967,8.967,0,0,1-1.987,1.888,4.1,4.1,0,0,1-2.363.787,3.3,3.3,0,0,1-2.937-1.425,6.784,6.784,0,0,1-.963-3.851,10.2,10.2,0,0,1,.95-4.162,9.439,9.439,0,0,1,2.737-3.575,6.449,6.449,0,0,1,4.163-1.437,7.121,7.121,0,0,1,1.225.125,10.107,10.107,0,0,1,1.25.3l1.375-.4-1.625,12.024A1.54,1.54,0,0,0,102.348,143.734Zm-2.475-11.125A4.17,4.17,0,0,0,96.9,133.8a7.6,7.6,0,0,0-1.9,2.987,10.392,10.392,0,0,0-.65,3.55,6.479,6.479,0,0,0,.562,2.987,1.826,1.826,0,0,0,1.713,1.063,3.578,3.578,0,0,0,2.237-.888,9.35,9.35,0,0,0,1.863-1.962l1.1-8.375A3.364,3.364,0,0,0,99.873,132.609Z"/>
        <path class="cls-1" d="M114.522,133.234a4.381,4.381,0,0,0-1.012-.388,5.117,5.117,0,0,0-1.313-.163,3.351,3.351,0,0,0-2.011.538,1.838,1.838,0,0,0-.739,1.587,2.324,2.324,0,0,0,.575,1.551,10.142,10.142,0,0,0,1.6,1.449q.974.75,1.5,1.226a5.243,5.243,0,0,1,.975,1.237,3.556,3.556,0,0,1-.938,4.55,5.675,5.675,0,0,1-3.437,1.013,10.3,10.3,0,0,1-2.213-.238,3.3,3.3,0,0,1-1.412-.538l.325-1.524a4.981,4.981,0,0,0,1.412.649,6.37,6.37,0,0,0,1.963.3,4.053,4.053,0,0,0,2.05-.475,1.723,1.723,0,0,0,.825-1.625,2.179,2.179,0,0,0-.362-1.225,4.162,4.162,0,0,0-.8-.913c-.291-.241-.721-.563-1.287-.962a8.333,8.333,0,0,1-1.826-1.7,3.651,3.651,0,0,1-.825-2.35,3.352,3.352,0,0,1,.638-2.025,4.14,4.14,0,0,1,1.713-1.35,5.82,5.82,0,0,1,2.375-.475,10.481,10.481,0,0,1,1.825.163,5.768,5.768,0,0,1,1.3.337l-.4,1.7A1.941,1.941,0,0,0,114.522,133.234Z"/>
        <path class="cls-1" d="M123.561,132.4a5.123,5.123,0,0,1,2.937-1.012,2.589,2.589,0,0,1,2.087.837,4.3,4.3,0,0,1,.713,2.788,22,22,0,0,1-.526,3.725c-.016.1-.033.208-.049.324a2.526,2.526,0,0,1-.076.351,5.122,5.122,0,0,0-.125.75,28.3,28.3,0,0,0-.549,3.475,1.421,1.421,0,0,0,.075.65.322.322,0,0,0,.3.225,1.034,1.034,0,0,0,.525-.163,6.16,6.16,0,0,0,.774-.587l.3.549a2.81,2.81,0,0,1-.5.588,3.8,3.8,0,0,1-.949.651,2.663,2.663,0,0,1-1.2.287,1.2,1.2,0,0,1-1.375-1.35,10.5,10.5,0,0,1,.2-1.763q.2-1.112.225-1.312.024-.075.25-1.4.324-1.65.5-2.763a13.675,13.675,0,0,0,.174-2.112,2.71,2.71,0,0,0-.387-1.675,1.5,1.5,0,0,0-1.238-.475,4.305,4.305,0,0,0-2.5,1.037,9.714,9.714,0,0,0-2.325,2.513l-1.224,9.05h-1.9l2.426-18.475-1.4-.4.15-.85,2.875-.426.5.3-1.226,9.2A10.216,10.216,0,0,1,123.561,132.4Z"/>
        <path class="cls-1" d="M143.247,133.346a6.506,6.506,0,0,1,1.663-1.375,3.971,3.971,0,0,1,2.037-.562,1.463,1.463,0,0,1,.8.149l-.45,2.176a2.437,2.437,0,0,0-1.15-.2,3.9,3.9,0,0,0-2.325.875,5.657,5.657,0,0,0-1.825,2.45l-1.075,8.725h-1.949l1.574-12.151-1.275-.574.175-.9,2.625-.526.475.226-.175,2.225-.149,1.025A6.2,6.2,0,0,1,143.247,133.346Z"/>
        <path class="cls-1" d="M151.622,143.909a.7.7,0,0,0,.113.425.326.326,0,0,0,.262.15q.5,0,1.3-.825l.324.55a4.593,4.593,0,0,1-1.05,1.062,2.548,2.548,0,0,1-1.6.563,1.527,1.527,0,0,1-1.063-.35,1.324,1.324,0,0,1-.338-1.125q.049-.65.338-2.625t.438-2.975l.8-5.475-1.625-.525.151-.8,3.175-.526.5.25-1.7,11.926A1.371,1.371,0,0,0,151.622,143.909Zm.238-15.713a1.169,1.169,0,0,1-.338-.862,1.558,1.558,0,0,1,.463-1.125,1.368,1.368,0,0,1,.988-.475,1.113,1.113,0,0,1,.837.324,1.173,1.173,0,0,1,.312.851,1.631,1.631,0,0,1-.437,1.149,1.36,1.36,0,0,1-1.038.476A1.076,1.076,0,0,1,151.86,128.2Z"/>
        <path class="cls-1" d="M164.585,149.534a6.381,6.381,0,0,1-2.463,1.712,7.65,7.65,0,0,1-2.75.538,9.587,9.587,0,0,1-1.524-.125,5.158,5.158,0,0,1-1.175-.3l.474-1.85a8.672,8.672,0,0,0,1.425.487,6.815,6.815,0,0,0,1.7.213,4,4,0,0,0,2.526-.662,3.6,3.6,0,0,0,1.074-2.364l.525-3.5a6.534,6.534,0,0,1-1.775,1.526,4.371,4.371,0,0,1-2.274.625,3.508,3.508,0,0,1-3.038-1.438,6.419,6.419,0,0,1-1.038-3.838,10.205,10.205,0,0,1,.951-4.162,9.362,9.362,0,0,1,2.75-3.575,6.494,6.494,0,0,1,4.174-1.437,7.136,7.136,0,0,1,2.651.525l1.425-.525-2.326,15.15A5.461,5.461,0,0,1,164.585,149.534Zm-.737-16.925a4.111,4.111,0,0,0-3,1.237,7.914,7.914,0,0,0-1.888,3.05,10.564,10.564,0,0,0-.638,3.513,5.733,5.733,0,0,0,.625,2.925,1.963,1.963,0,0,0,1.776,1.05,3.9,3.9,0,0,0,2.262-.738,6.062,6.062,0,0,0,1.662-1.662l1.3-8.75A3.247,3.247,0,0,0,163.848,132.609Z"/>
        <path class="cls-1" d="M176.685,132.4a5.123,5.123,0,0,1,2.937-1.012,2.589,2.589,0,0,1,2.087.837,4.3,4.3,0,0,1,.713,2.788,22,22,0,0,1-.526,3.725c-.016.1-.033.208-.049.324a2.526,2.526,0,0,1-.076.351,5.122,5.122,0,0,0-.125.75,28.3,28.3,0,0,0-.549,3.475,1.421,1.421,0,0,0,.075.65.322.322,0,0,0,.3.225,1.034,1.034,0,0,0,.525-.163,6.16,6.16,0,0,0,.774-.587l.3.549a2.81,2.81,0,0,1-.5.588,3.8,3.8,0,0,1-.949.651,2.663,2.663,0,0,1-1.2.287,1.2,1.2,0,0,1-1.375-1.35,10.5,10.5,0,0,1,.2-1.763q.2-1.112.225-1.312.024-.075.25-1.4.324-1.65.5-2.763a13.675,13.675,0,0,0,.174-2.112,2.71,2.71,0,0,0-.387-1.675,1.5,1.5,0,0,0-1.238-.475,4.305,4.305,0,0,0-2.5,1.037,9.714,9.714,0,0,0-2.325,2.513l-1.224,9.05h-1.9l2.426-18.475-1.4-.4.15-.85,2.875-.426.5.3-1.226,9.2A10.216,10.216,0,0,1,176.685,132.4Z"/>
        <path class="cls-1" d="M188.472,143.234a1.268,1.268,0,0,0,.262.912,1.315,1.315,0,0,0,.938.263,3.246,3.246,0,0,0,1.274-.351,5.339,5.339,0,0,0,1.2-.7l.2.775a4.969,4.969,0,0,1-1.6,1.137,4.768,4.768,0,0,1-2.125.563q-2.15,0-2.149-2.05a11.931,11.931,0,0,1,.125-1.575l1.174-9.125h-1.525l.226-.875,1.524-.475a13.757,13.757,0,0,0,1.4-3.426h.975l-.449,3.4h3.449l-.2,1.375h-3.4l-1.125,8.275Q188.471,142.835,188.472,143.234Z"/>
        <path class="cls-1" d="M211.046,132.909a6.567,6.567,0,0,1,1.25,4.274,10.149,10.149,0,0,1-.888,4.188,8.293,8.293,0,0,1-2.474,3.225,5.68,5.68,0,0,1-3.588,1.238,4.49,4.49,0,0,1-3.575-1.463,6.285,6.285,0,0,1-1.325-4.137,10.221,10.221,0,0,1,.875-4.288,8.479,8.479,0,0,1,2.5-3.3,5.7,5.7,0,0,1,3.625-1.262A4.386,4.386,0,0,1,211.046,132.909Zm-6.438.825a7.239,7.239,0,0,0-1.562,2.85,11.873,11.873,0,0,0-.525,3.474,5.833,5.833,0,0,0,.825,3.375,2.722,2.722,0,0,0,2.375,1.176,3.192,3.192,0,0,0,2.425-1.113,7.221,7.221,0,0,0,1.55-2.813,11.536,11.536,0,0,0,.525-3.424,6.376,6.376,0,0,0-.775-3.451,2.608,2.608,0,0,0-2.35-1.2A3.268,3.268,0,0,0,204.608,133.734Z"/>
        <path class="cls-1" d="M214.946,132.859a1.49,1.49,0,0,0-.925.475l-.275-.651a2.982,2.982,0,0,1,.838-.812,2.314,2.314,0,0,1,1.387-.462,1.32,1.32,0,0,1,1.113.412,2.78,2.78,0,0,1,.437,1.263l.95,8.125.275,2.7,1.8-2.325a21.6,21.6,0,0,0,2.05-3.5,13.21,13.21,0,0,0,1.05-3.675,2.625,2.625,0,0,0-.225-1.25,2.382,2.382,0,0,1-.15-.65,1.157,1.157,0,0,1,.262-.826.914.914,0,0,1,.688-.274,1.092,1.092,0,0,1,1,.638,3.5,3.5,0,0,1,.35,1.687,8.972,8.972,0,0,1-1.088,3.837,29.274,29.274,0,0,1-2.612,4.313l-2.875,3.8-1.475.151-.75-4.55-1.25-7.6Q215.4,132.859,214.946,132.859Z"/>
        <path class="cls-1" d="M235.309,145.009a5.977,5.977,0,0,1-3.063.825,4.652,4.652,0,0,1-2.725-.75,4.468,4.468,0,0,1-1.587-1.963,6.7,6.7,0,0,1-.513-2.637,10.661,10.661,0,0,1,.95-4.45,8.761,8.761,0,0,1,2.588-3.375,5.772,5.772,0,0,1,3.638-1.275,3.556,3.556,0,0,1,2.574.85,2.929,2.929,0,0,1,.875,2.2,3.708,3.708,0,0,1-1.5,2.989,10.265,10.265,0,0,1-3.525,1.824,13.136,13.136,0,0,1-3.5.638,4.726,4.726,0,0,0-.025.575,5.047,5.047,0,0,0,.75,2.775,2.54,2.54,0,0,0,2.3,1.175,5.568,5.568,0,0,0,2.225-.5,6.862,6.862,0,0,0,2.125-1.476l.475.851A6.617,6.617,0,0,1,235.309,145.009Zm-3.438-11.475a7.01,7.01,0,0,0-1.587,2.412,9.76,9.76,0,0,0-.713,2.813,10.283,10.283,0,0,0,2.938-.563,7.153,7.153,0,0,0,2.537-1.437,2.82,2.82,0,0,0,1.025-2.15,2.2,2.2,0,0,0-.525-1.525,1.841,1.841,0,0,0-1.4-.526A3.175,3.175,0,0,0,231.871,133.534Z"/>
        <path class="cls-1" d="M245.1,133.346a6.472,6.472,0,0,1,1.663-1.375,3.968,3.968,0,0,1,2.037-.562,1.466,1.466,0,0,1,.8.149l-.45,2.176a2.439,2.439,0,0,0-1.15-.2,3.9,3.9,0,0,0-2.325.875,5.649,5.649,0,0,0-1.825,2.45l-1.075,8.725h-1.95l1.575-12.151-1.275-.574.175-.9,2.625-.526.475.226-.175,2.225-.15,1.025A6.238,6.238,0,0,1,245.1,133.346Z"/>
        <path class="cls-1" d="M25.724,183.234a1.268,1.268,0,0,0,.262.912,1.315,1.315,0,0,0,.938.263,3.246,3.246,0,0,0,1.274-.351,5.339,5.339,0,0,0,1.2-.7l.2.775a4.969,4.969,0,0,1-1.6,1.137,4.768,4.768,0,0,1-2.125.563q-2.151,0-2.149-2.05a11.931,11.931,0,0,1,.125-1.575l1.174-9.125H23.5l.226-.875,1.524-.475a13.757,13.757,0,0,0,1.4-3.426h.975l-.449,3.4h3.449l-.2,1.375h-3.4L25.9,181.359Q25.722,182.835,25.724,183.234Z"/>
        <path class="cls-1" d="M38.036,172.4a5.126,5.126,0,0,1,2.938-1.012,2.589,2.589,0,0,1,2.087.837,4.31,4.31,0,0,1,.712,2.788,21.965,21.965,0,0,1-.525,3.725c-.017.1-.033.208-.05.324a2.523,2.523,0,0,1-.075.351,5.122,5.122,0,0,0-.125.75,28.544,28.544,0,0,0-.55,3.475,1.449,1.449,0,0,0,.075.65.323.323,0,0,0,.3.225,1.037,1.037,0,0,0,.526-.163,6.234,6.234,0,0,0,.774-.587l.3.549a2.81,2.81,0,0,1-.5.588,3.82,3.82,0,0,1-.949.651,2.667,2.667,0,0,1-1.2.287,1.2,1.2,0,0,1-1.375-1.35,10.515,10.515,0,0,1,.2-1.763c.132-.741.208-1.178.224-1.312q.026-.075.25-1.4.325-1.65.5-2.763a13.681,13.681,0,0,0,.175-2.112,2.709,2.709,0,0,0-.388-1.675,1.5,1.5,0,0,0-1.237-.475,4.305,4.305,0,0,0-2.5,1.037,9.714,9.714,0,0,0-2.325,2.513l-1.225,9.05h-1.9L34.6,167.109l-1.4-.4.151-.85,2.875-.426.5.3-1.226,9.2A10.229,10.229,0,0,1,38.036,172.4Z"/>
        <path class="cls-1" d="M54.86,185.009a5.973,5.973,0,0,1-3.062.825,4.652,4.652,0,0,1-2.725-.75,4.47,4.47,0,0,1-1.588-1.963,6.716,6.716,0,0,1-.512-2.637,10.661,10.661,0,0,1,.95-4.45,8.761,8.761,0,0,1,2.588-3.375,5.769,5.769,0,0,1,3.637-1.275,3.557,3.557,0,0,1,2.575.85,2.929,2.929,0,0,1,.875,2.2,3.708,3.708,0,0,1-1.5,2.989,10.265,10.265,0,0,1-3.525,1.824,13.136,13.136,0,0,1-3.5.638,4.726,4.726,0,0,0-.025.575,5.047,5.047,0,0,0,.75,2.775,2.539,2.539,0,0,0,2.3,1.175,5.572,5.572,0,0,0,2.225-.5,6.862,6.862,0,0,0,2.125-1.476l.475.851A6.622,6.622,0,0,1,54.86,185.009Zm-3.437-11.475a7.01,7.01,0,0,0-1.587,2.412,9.727,9.727,0,0,0-.713,2.813,10.283,10.283,0,0,0,2.938-.563,7.161,7.161,0,0,0,2.537-1.437,2.82,2.82,0,0,0,1.025-2.15,2.209,2.209,0,0,0-.525-1.525,1.841,1.841,0,0,0-1.4-.526A3.175,3.175,0,0,0,51.423,173.534Z"/>
        <path class="cls-1" d="M71.473,172.047a4.343,4.343,0,0,1,2.325-.663,3.594,3.594,0,0,1,3.1,1.437,6.407,6.407,0,0,1,1.05,3.862,10.274,10.274,0,0,1-.937,4.138A9.381,9.381,0,0,1,74.3,184.4a6.328,6.328,0,0,1-4.1,1.438,7.006,7.006,0,0,1-1.6-.2,7.612,7.612,0,0,1-1.4-.451l-1,.451,2.476-18.525-1.2-.426.224-.849,2.6-.4.5.3-1.051,7.925A5.622,5.622,0,0,1,71.473,172.047Zm-1,12.562a4.062,4.062,0,0,0,2.962-1.225,7.747,7.747,0,0,0,1.863-3.05,10.881,10.881,0,0,0,.625-3.526,5.544,5.544,0,0,0-.651-2.924,2.054,2.054,0,0,0-1.849-1.05,3.787,3.787,0,0,0-2.276.787,6.108,6.108,0,0,0-1.65,1.738l-1.149,8.65A3.261,3.261,0,0,0,70.473,184.609Z"/>
        <path class="cls-1" d="M90.7,172.909a6.567,6.567,0,0,1,1.25,4.274,10.164,10.164,0,0,1-.887,4.188,8.286,8.286,0,0,1-2.475,3.225A5.68,5.68,0,0,1,85,185.834a4.488,4.488,0,0,1-3.574-1.463,6.28,6.28,0,0,1-1.325-4.137,10.19,10.19,0,0,1,.875-4.288,8.46,8.46,0,0,1,2.5-3.3,5.692,5.692,0,0,1,3.625-1.262A4.385,4.385,0,0,1,90.7,172.909Zm-6.437.825a7.24,7.24,0,0,0-1.563,2.85,11.905,11.905,0,0,0-.524,3.474A5.833,5.833,0,0,0,83,183.433a2.723,2.723,0,0,0,2.375,1.176A3.194,3.194,0,0,0,87.8,183.5a7.247,7.247,0,0,0,1.55-2.813,11.567,11.567,0,0,0,.524-3.424,6.386,6.386,0,0,0-.774-3.451,2.609,2.609,0,0,0-2.351-1.2A3.265,3.265,0,0,0,84.26,173.734Z"/>
        <path class="cls-1" d="M94.973,173.047a.423.423,0,0,0-.375-.188.607.607,0,0,0-.413.1q-.187.126-.512.375l-.276-.651a2.952,2.952,0,0,1,.85-.812,2.371,2.371,0,0,1,1.4-.462,1.379,1.379,0,0,1,1.125.4,2.643,2.643,0,0,1,.451,1.276l.95,8.6.25,2.351.949-2.15,4.426-10.375h1.75l.925,10.2.2,2.325,1.6-2.3a19.388,19.388,0,0,0,1.826-3.388,11.1,11.1,0,0,0,1.024-3.937,2.288,2.288,0,0,0-.087-.8q-.113-.375-.138-.45a2.421,2.421,0,0,1-.15-.65,1.205,1.205,0,0,1,.25-.813.881.881,0,0,1,.7-.287q1.3,0,1.3,2.425a9.205,9.205,0,0,1-1.024,3.724,30.61,30.61,0,0,1-2.476,4.326l-2.449,3.8-1.825.125-.451-4.174-.575-5.75-.125-1.625-.524,1.65-2.9,6.05-1.75,3.724-1.7.151-.7-4.225-1.3-7.926A2,2,0,0,0,94.973,173.047Z"/>
        <path class="cls-1" d="M122.7,173.234a4.381,4.381,0,0,0-1.012-.388,5.122,5.122,0,0,0-1.313-.163,3.355,3.355,0,0,0-2.012.538,1.84,1.84,0,0,0-.738,1.587,2.319,2.319,0,0,0,.575,1.551,10.142,10.142,0,0,0,1.6,1.449q.974.75,1.5,1.226a5.24,5.24,0,0,1,.974,1.237,3.553,3.553,0,0,1-.937,4.55,5.676,5.676,0,0,1-3.438,1.013,10.293,10.293,0,0,1-2.212-.238,3.316,3.316,0,0,1-1.413-.538l.326-1.524a4.981,4.981,0,0,0,1.412.649,6.37,6.37,0,0,0,1.963.3,4.047,4.047,0,0,0,2.049-.475,1.721,1.721,0,0,0,.826-1.625,2.172,2.172,0,0,0-.363-1.225,4.133,4.133,0,0,0-.8-.913c-.291-.241-.721-.563-1.288-.962a8.329,8.329,0,0,1-1.825-1.7,3.645,3.645,0,0,1-.825-2.35,3.352,3.352,0,0,1,.638-2.025,4.14,4.14,0,0,1,1.713-1.35,5.813,5.813,0,0,1,2.375-.475,10.481,10.481,0,0,1,1.825.163,5.768,5.768,0,0,1,1.3.337l-.4,1.7A1.941,1.941,0,0,0,122.7,173.234Z"/>
        <path class="cls-1" d="M142,172.909a6.567,6.567,0,0,1,1.25,4.274,10.149,10.149,0,0,1-.888,4.188,8.283,8.283,0,0,1-2.474,3.225,5.68,5.68,0,0,1-3.588,1.238,4.488,4.488,0,0,1-3.574-1.463,6.285,6.285,0,0,1-1.326-4.137,10.221,10.221,0,0,1,.875-4.288,8.479,8.479,0,0,1,2.5-3.3,5.7,5.7,0,0,1,3.625-1.262A4.386,4.386,0,0,1,142,172.909Zm-6.437.825a7.24,7.24,0,0,0-1.563,2.85,11.872,11.872,0,0,0-.524,3.474,5.833,5.833,0,0,0,.824,3.375,2.723,2.723,0,0,0,2.375,1.176A3.2,3.2,0,0,0,139.1,183.5a7.233,7.233,0,0,0,1.549-2.813,11.536,11.536,0,0,0,.525-3.424,6.376,6.376,0,0,0-.775-3.451,2.607,2.607,0,0,0-2.35-1.2A3.265,3.265,0,0,0,135.56,173.734Z"/>
        <path class="cls-1" d="M149.21,167.771A5.947,5.947,0,0,1,151,165.9a3.92,3.92,0,0,1,2.175-.687,5.3,5.3,0,0,1,1.95.3l-.55,1.674a2.926,2.926,0,0,0-1.775-.524,2.046,2.046,0,0,0-1.725.937,5.653,5.653,0,0,0-.9,2.538l-.15,1.375H153.2l-.15,1.424h-3.2l-1.776,13.426a8.334,8.334,0,0,1-1.437,4,3.6,3.6,0,0,1-2.888,1.525,9.346,9.346,0,0,1-1.175-.025,5.309,5.309,0,0,1-.849-.125l.5-1.7a4.284,4.284,0,0,0,.849.263,5.051,5.051,0,0,0,1.125.162,1.314,1.314,0,0,0,1.2-.85,7.33,7.33,0,0,0,.6-2.4l1.851-14.276h-1.726l.2-.774,1.75-.6.175-1.2A6.944,6.944,0,0,1,149.21,167.771Z"/>
        <path class="cls-1" d="M162.747,183.234a1.263,1.263,0,0,0,.263.912,1.312,1.312,0,0,0,.937.263,3.254,3.254,0,0,0,1.275-.351,5.362,5.362,0,0,0,1.2-.7l.2.775a4.958,4.958,0,0,1-1.6,1.137,4.768,4.768,0,0,1-2.125.563q-2.149,0-2.149-2.05a11.931,11.931,0,0,1,.125-1.575l1.175-9.125h-1.526l.226-.875,1.524-.475a13.745,13.745,0,0,0,1.4-3.426h.974l-.449,3.4h3.449l-.2,1.375h-3.4l-1.125,8.275Q162.747,182.835,162.747,183.234Z"/>
        <path class="cls-1" d="M175.06,172.4A5.123,5.123,0,0,1,178,171.384a2.589,2.589,0,0,1,2.087.837,4.3,4.3,0,0,1,.713,2.788,22,22,0,0,1-.526,3.725c-.016.1-.033.208-.049.324a2.526,2.526,0,0,1-.076.351,5.122,5.122,0,0,0-.125.75,28.3,28.3,0,0,0-.549,3.475,1.421,1.421,0,0,0,.075.65.322.322,0,0,0,.3.225,1.034,1.034,0,0,0,.525-.163,6.16,6.16,0,0,0,.774-.587l.3.549a2.81,2.81,0,0,1-.5.588,3.8,3.8,0,0,1-.949.651,2.663,2.663,0,0,1-1.2.287,1.2,1.2,0,0,1-1.375-1.35,10.5,10.5,0,0,1,.2-1.763q.2-1.112.225-1.312.024-.075.25-1.4.324-1.65.5-2.763a13.675,13.675,0,0,0,.174-2.112,2.71,2.71,0,0,0-.387-1.675,1.5,1.5,0,0,0-1.238-.475,4.305,4.305,0,0,0-2.5,1.037,9.714,9.714,0,0,0-2.325,2.513l-1.224,9.05h-1.9l2.426-18.475-1.4-.4.15-.85,2.875-.426.5.3-1.226,9.2A10.216,10.216,0,0,1,175.06,172.4Z"/>
        <path class="cls-1" d="M191.884,185.009a5.977,5.977,0,0,1-3.063.825,4.649,4.649,0,0,1-2.724-.75,4.47,4.47,0,0,1-1.588-1.963,6.7,6.7,0,0,1-.513-2.637,10.661,10.661,0,0,1,.95-4.45,8.761,8.761,0,0,1,2.588-3.375,5.772,5.772,0,0,1,3.638-1.275,3.554,3.554,0,0,1,2.574.85,2.929,2.929,0,0,1,.875,2.2,3.708,3.708,0,0,1-1.5,2.989,10.269,10.269,0,0,1-3.524,1.824,13.15,13.15,0,0,1-3.5.638,4.478,4.478,0,0,0-.026.575,5.047,5.047,0,0,0,.75,2.775,2.54,2.54,0,0,0,2.3,1.175,5.577,5.577,0,0,0,2.226-.5,6.885,6.885,0,0,0,2.125-1.476l.474.851A6.617,6.617,0,0,1,191.884,185.009Zm-3.438-11.475a7.01,7.01,0,0,0-1.587,2.412,9.76,9.76,0,0,0-.713,2.813,10.277,10.277,0,0,0,2.938-.563,7.144,7.144,0,0,0,2.537-1.437,2.817,2.817,0,0,0,1.025-2.15,2.2,2.2,0,0,0-.525-1.525,1.84,1.84,0,0,0-1.4-.526A3.175,3.175,0,0,0,188.446,173.534Z"/>
        <path class="cls-1" d="M210.6,173.234a4.409,4.409,0,0,0-1.013-.388,5.114,5.114,0,0,0-1.312-.163,3.353,3.353,0,0,0-2.012.538,1.84,1.84,0,0,0-.738,1.587,2.319,2.319,0,0,0,.575,1.551,10.129,10.129,0,0,0,1.6,1.449q.975.75,1.5,1.226a5.243,5.243,0,0,1,.975,1.237,3.556,3.556,0,0,1-.938,4.55,5.673,5.673,0,0,1-3.437,1.013,10.309,10.309,0,0,1-2.213-.238,3.31,3.31,0,0,1-1.412-.538l.325-1.524a4.981,4.981,0,0,0,1.412.649,6.375,6.375,0,0,0,1.963.3,4.051,4.051,0,0,0,2.05-.475,1.721,1.721,0,0,0,.825-1.625,2.179,2.179,0,0,0-.362-1.225,4.136,4.136,0,0,0-.8-.913c-.291-.241-.721-.563-1.287-.962a8.329,8.329,0,0,1-1.825-1.7,3.645,3.645,0,0,1-.825-2.35,3.351,3.351,0,0,1,.637-2.025,4.14,4.14,0,0,1,1.713-1.35,5.82,5.82,0,0,1,2.375-.475,10.472,10.472,0,0,1,1.825.163,5.768,5.768,0,0,1,1.3.337l-.4,1.7A1.98,1.98,0,0,0,210.6,173.234Z"/>
        <path class="cls-1" d="M219.634,172.4a5.123,5.123,0,0,1,2.937-1.012,2.587,2.587,0,0,1,2.087.837,4.3,4.3,0,0,1,.713,2.788,22.071,22.071,0,0,1-.525,3.725c-.017.1-.034.208-.05.324a2.676,2.676,0,0,1-.075.351,4.866,4.866,0,0,0-.125.75,28.344,28.344,0,0,0-.55,3.475,1.435,1.435,0,0,0,.075.65.323.323,0,0,0,.3.225,1.031,1.031,0,0,0,.525-.163,6.153,6.153,0,0,0,.775-.587l.3.549a2.81,2.81,0,0,1-.5.588,3.809,3.809,0,0,1-.95.651,2.659,2.659,0,0,1-1.2.287,1.2,1.2,0,0,1-1.375-1.35,10.5,10.5,0,0,1,.2-1.763q.2-1.112.225-1.312.025-.075.25-1.4.326-1.65.5-2.763a13.681,13.681,0,0,0,.175-2.112,2.709,2.709,0,0,0-.388-1.675,1.5,1.5,0,0,0-1.237-.475,4.305,4.305,0,0,0-2.5,1.037,9.7,9.7,0,0,0-2.325,2.513l-1.225,9.05h-1.9l2.425-18.475-1.4-.4.15-.85,2.875-.426.5.3-1.225,9.2A10.2,10.2,0,0,1,219.634,172.4Z"/>
        <path class="cls-1" d="M231.57,183.909a.689.689,0,0,0,.114.425.324.324,0,0,0,.261.15q.5,0,1.3-.825l.324.55a4.585,4.585,0,0,1-1.049,1.062,2.553,2.553,0,0,1-1.6.563,1.529,1.529,0,0,1-1.063-.35,1.324,1.324,0,0,1-.337-1.125q.05-.65.337-2.625t.438-2.975l.8-5.475-1.625-.525.15-.8,3.175-.526.5.25-1.7,11.926A1.3,1.3,0,0,0,231.57,183.909Zm.239-15.713a1.165,1.165,0,0,1-.338-.862,1.554,1.554,0,0,1,.463-1.125,1.364,1.364,0,0,1,.987-.475,1.112,1.112,0,0,1,.837.324,1.173,1.173,0,0,1,.312.851,1.631,1.631,0,0,1-.437,1.149,1.36,1.36,0,0,1-1.037.476A1.073,1.073,0,0,1,231.809,168.2Z"/>
        <path class="cls-1" d="M241.871,172.034a4.153,4.153,0,0,1,2.275-.65,3.628,3.628,0,0,1,3.112,1.437,6.354,6.354,0,0,1,1.062,3.862,10.212,10.212,0,0,1-.949,4.163,9.391,9.391,0,0,1-2.725,3.563,6.363,6.363,0,0,1-4.1,1.425,9.016,9.016,0,0,1-1.976-.3l-.875,6.4h-1.9l2.524-18.724-1.324-.5.175-.8,2.75-.525.475.25-.25,2A6.342,6.342,0,0,1,241.871,172.034Zm-1.025,12.575a4.007,4.007,0,0,0,2.9-1.2,7.72,7.72,0,0,0,1.862-3.013,10.76,10.76,0,0,0,.638-3.588,5.467,5.467,0,0,0-.663-2.937,2.049,2.049,0,0,0-1.812-1.037,3.663,3.663,0,0,0-2.175.737,5.9,5.9,0,0,0-1.6,1.663l-1.225,8.8A3.332,3.332,0,0,0,240.846,184.609Z"/>
        <path class="cls-1" d="M58.323,223.734a.829.829,0,0,0,.163.574.463.463,0,0,0,.337.176.864.864,0,0,0,.489-.163,4.7,4.7,0,0,0,.612-.537l.349.55a2.521,2.521,0,0,1-.461.562,3.937,3.937,0,0,1-.888.651,2.27,2.27,0,0,1-1.1.287q-1.55,0-1.449-1.651l.149-1.024a8.923,8.923,0,0,1-1.987,1.888,4.1,4.1,0,0,1-2.362.787,3.3,3.3,0,0,1-2.938-1.425,6.792,6.792,0,0,1-.963-3.851,10.205,10.205,0,0,1,.951-4.162,9.429,9.429,0,0,1,2.737-3.575,6.447,6.447,0,0,1,4.163-1.437,7.121,7.121,0,0,1,1.225.125,10.2,10.2,0,0,1,1.25.3l1.375-.4-1.625,12.024A1.533,1.533,0,0,0,58.323,223.734Zm-2.474-11.125a4.168,4.168,0,0,0-2.975,1.188,7.587,7.587,0,0,0-1.9,2.987,10.393,10.393,0,0,0-.651,3.55,6.478,6.478,0,0,0,.563,2.987,1.826,1.826,0,0,0,1.713,1.063,3.578,3.578,0,0,0,2.237-.888,9.37,9.37,0,0,0,1.862-1.962l1.1-8.375A3.367,3.367,0,0,0,55.849,212.609Z"/>
        <path class="cls-1" d="M69.11,212.346A5.245,5.245,0,0,1,72,211.384a2.6,2.6,0,0,1,2.075.837,4.2,4.2,0,0,1,.725,2.763,22.91,22.91,0,0,1-.525,3.775l-.125.65q-.024.2-.125.649-.448,2.625-.525,3.576c-.033.567.066.85.3.85a1.874,1.874,0,0,0,1.176-.65l.324.575a4.016,4.016,0,0,1-.975.9,2.625,2.625,0,0,1-1.575.526q-1.326,0-1.325-1.4a9.854,9.854,0,0,1,.15-1.474q.15-.924.325-1.825l.225-1.125.15-.775q.275-1.524.4-2.4a11.928,11.928,0,0,0,.125-1.7,2.782,2.782,0,0,0-.375-1.688,1.591,1.591,0,0,0-1.3-.462,4.209,4.209,0,0,0-2.437,1.037,9.988,9.988,0,0,0-2.313,2.488l-1.225,9.075H63.2l1.625-12.2-1.2-.576.175-.9,2.625-.525.475.25-.325,3.15A9.812,9.812,0,0,1,69.11,212.346Z"/>
        <path class="cls-1" d="M88.073,223.909a.852.852,0,0,0,.088.425.267.267,0,0,0,.237.15,2.041,2.041,0,0,0,1.175-.65l.325.55a3.94,3.94,0,0,1-.962.937,2.509,2.509,0,0,1-1.538.513q-1.35,0-1.275-1.526v-.674a6.1,6.1,0,0,1-1.774,1.562,4.484,4.484,0,0,1-2.326.638,3.509,3.509,0,0,1-3.038-1.438,6.426,6.426,0,0,1-1.037-3.838,10.22,10.22,0,0,1,.95-4.162,9.432,9.432,0,0,1,2.738-3.575,6.446,6.446,0,0,1,4.162-1.437,7.7,7.7,0,0,1,2.075.325l.726-4.6-1.6-.4.2-.85,3-.426.526.3L88.1,223.609A1.245,1.245,0,0,0,88.073,223.909Zm-2.575-11.3a4.111,4.111,0,0,0-3,1.237,7.806,7.806,0,0,0-1.875,3.05A10.743,10.743,0,0,0,80,220.409a5.733,5.733,0,0,0,.625,2.925,1.963,1.963,0,0,0,1.775,1.05,3.911,3.911,0,0,0,2.275-.75,5.817,5.817,0,0,0,1.65-1.675l1.325-8.7A3.188,3.188,0,0,0,85.5,212.609Z"/>
        <path class="cls-1" d="M108.372,223.734a.829.829,0,0,0,.163.574.463.463,0,0,0,.337.176.859.859,0,0,0,.488-.163,4.63,4.63,0,0,0,.613-.537l.349.55a2.5,2.5,0,0,1-.462.562,3.908,3.908,0,0,1-.887.651,2.27,2.27,0,0,1-1.1.287q-1.55,0-1.449-1.651l.149-1.024a8.923,8.923,0,0,1-1.987,1.888,4.1,4.1,0,0,1-2.362.787,3.3,3.3,0,0,1-2.938-1.425,6.792,6.792,0,0,1-.963-3.851,10.22,10.22,0,0,1,.95-4.162,9.432,9.432,0,0,1,2.738-3.575,6.447,6.447,0,0,1,4.163-1.437,7.111,7.111,0,0,1,1.224.125,10.107,10.107,0,0,1,1.25.3l1.375-.4L108.4,223.433A1.622,1.622,0,0,0,108.372,223.734ZM105.9,212.609a4.167,4.167,0,0,0-2.974,1.188,7.6,7.6,0,0,0-1.9,2.987,10.416,10.416,0,0,0-.65,3.55,6.478,6.478,0,0,0,.563,2.987,1.825,1.825,0,0,0,1.712,1.063,3.58,3.58,0,0,0,2.238-.888,9.37,9.37,0,0,0,1.862-1.962l1.1-8.375A3.37,3.37,0,0,0,105.9,212.609Z"/>
        <path class="cls-1" d="M121.3,223.859a.894.894,0,0,0,.1.462.294.294,0,0,0,.25.163,2.171,2.171,0,0,0,1.326-.825l.325.55a3.833,3.833,0,0,1-.975,1.062,2.593,2.593,0,0,1-1.676.563q-1.3,0-1.3-1.425l.075-.925,2.325-16.375-1.5-.4.2-.85,2.9-.426.475.3-2.5,17.875Z"/>
        <path class="cls-1" d="M136.646,212.909a6.567,6.567,0,0,1,1.25,4.274,10.148,10.148,0,0,1-.887,4.188,8.286,8.286,0,0,1-2.475,3.225,5.678,5.678,0,0,1-3.588,1.238,4.489,4.489,0,0,1-3.574-1.463,6.28,6.28,0,0,1-1.325-4.137,10.19,10.19,0,0,1,.875-4.288,8.46,8.46,0,0,1,2.5-3.3,5.692,5.692,0,0,1,3.625-1.262A4.385,4.385,0,0,1,136.646,212.909Zm-6.437.825a7.253,7.253,0,0,0-1.563,2.85,11.905,11.905,0,0,0-.524,3.474,5.833,5.833,0,0,0,.824,3.375,2.723,2.723,0,0,0,2.375,1.176,3.194,3.194,0,0,0,2.426-1.113,7.234,7.234,0,0,0,1.55-2.813,11.567,11.567,0,0,0,.524-3.424,6.386,6.386,0,0,0-.774-3.451,2.609,2.609,0,0,0-2.351-1.2A3.265,3.265,0,0,0,130.209,213.734Z"/>
        <path class="cls-1" d="M142.922,223.234a1.263,1.263,0,0,0,.263.912,1.31,1.31,0,0,0,.937.263,3.246,3.246,0,0,0,1.274-.351,5.372,5.372,0,0,0,1.2-.7l.2.775a4.969,4.969,0,0,1-1.6,1.137,4.768,4.768,0,0,1-2.125.563q-2.149,0-2.149-2.05a11.931,11.931,0,0,1,.125-1.575l1.175-9.125H140.7l.226-.875,1.524-.475a13.745,13.745,0,0,0,1.4-3.426h.974l-.449,3.4h3.449l-.2,1.375h-3.4l-1.125,8.275C142.979,222.343,142.922,222.968,142.922,223.234Z"/>
        <path class="cls-1" d="M165.5,212.909a6.567,6.567,0,0,1,1.25,4.274,10.149,10.149,0,0,1-.888,4.188,8.283,8.283,0,0,1-2.474,3.225,5.68,5.68,0,0,1-3.588,1.238,4.488,4.488,0,0,1-3.574-1.463,6.285,6.285,0,0,1-1.326-4.137,10.221,10.221,0,0,1,.875-4.288,8.479,8.479,0,0,1,2.5-3.3,5.7,5.7,0,0,1,3.625-1.262A4.386,4.386,0,0,1,165.5,212.909Zm-6.437.825a7.24,7.24,0,0,0-1.563,2.85,11.872,11.872,0,0,0-.524,3.474,5.833,5.833,0,0,0,.824,3.375,2.723,2.723,0,0,0,2.375,1.176A3.2,3.2,0,0,0,162.6,223.5a7.233,7.233,0,0,0,1.549-2.813,11.536,11.536,0,0,0,.525-3.424,6.376,6.376,0,0,0-.775-3.451,2.607,2.607,0,0,0-2.35-1.2A3.265,3.265,0,0,0,159.059,213.734Z"/>
        <path class="cls-1" d="M172.709,207.771A5.947,5.947,0,0,1,174.5,205.9a3.92,3.92,0,0,1,2.175-.687,5.3,5.3,0,0,1,1.95.3l-.55,1.674a2.926,2.926,0,0,0-1.775-.524,2.046,2.046,0,0,0-1.725.937,5.653,5.653,0,0,0-.9,2.538l-.15,1.375H176.7l-.15,1.424h-3.2l-1.776,13.426a8.334,8.334,0,0,1-1.437,4,3.6,3.6,0,0,1-2.888,1.525,9.346,9.346,0,0,1-1.175-.025,5.309,5.309,0,0,1-.849-.125l.5-1.7a4.284,4.284,0,0,0,.849.263,5.051,5.051,0,0,0,1.125.162,1.314,1.314,0,0,0,1.2-.85,7.33,7.33,0,0,0,.6-2.4l1.851-14.276h-1.726l.2-.774,1.75-.6.175-1.2A6.944,6.944,0,0,1,172.709,207.771Z"/>
        <path class="cls-1" d="M184.246,213.047a.423.423,0,0,0-.375-.188.609.609,0,0,0-.413.1q-.187.126-.512.375l-.275-.651a2.952,2.952,0,0,1,.85-.812,2.369,2.369,0,0,1,1.4-.462,1.382,1.382,0,0,1,1.125.4,2.644,2.644,0,0,1,.45,1.276l.95,8.6.25,2.351.95-2.15,4.425-10.375h1.75l.925,10.2.2,2.325,1.6-2.3a19.393,19.393,0,0,0,1.825-3.388,11.082,11.082,0,0,0,1.025-3.937,2.312,2.312,0,0,0-.087-.8c-.076-.25-.121-.4-.138-.45a2.382,2.382,0,0,1-.15-.65,1.2,1.2,0,0,1,.25-.813.881.881,0,0,1,.7-.287q1.3,0,1.3,2.425a9.193,9.193,0,0,1-1.025,3.724,30.7,30.7,0,0,1-2.475,4.326l-2.45,3.8-1.825.125-.45-4.174-.575-5.75-.125-1.625-.525,1.65-2.9,6.05-1.75,3.724-1.7.151-.7-4.225-1.3-7.926A2.025,2.025,0,0,0,184.246,213.047Z"/>
        <path class="cls-1" d="M214.146,223.734a.824.824,0,0,0,.163.574.46.46,0,0,0,.337.176.861.861,0,0,0,.488-.163,4.7,4.7,0,0,0,.612-.537l.35.55a2.563,2.563,0,0,1-.462.562,3.893,3.893,0,0,1-.888.651,2.266,2.266,0,0,1-1.1.287q-1.551,0-1.45-1.651l.15-1.024a8.95,8.95,0,0,1-1.988,1.888,4.1,4.1,0,0,1-2.362.787,3.3,3.3,0,0,1-2.937-1.425,6.784,6.784,0,0,1-.963-3.851,10.2,10.2,0,0,1,.95-4.162,9.439,9.439,0,0,1,2.737-3.575,6.449,6.449,0,0,1,4.163-1.437,7.121,7.121,0,0,1,1.225.125,10.107,10.107,0,0,1,1.25.3l1.375-.4-1.625,12.024A1.54,1.54,0,0,0,214.146,223.734Zm-2.475-11.125A4.17,4.17,0,0,0,208.7,213.8a7.587,7.587,0,0,0-1.9,2.987,10.392,10.392,0,0,0-.65,3.55,6.479,6.479,0,0,0,.562,2.987,1.826,1.826,0,0,0,1.713,1.063,3.578,3.578,0,0,0,2.237-.888,9.375,9.375,0,0,0,1.863-1.962l1.1-8.375A3.364,3.364,0,0,0,211.671,212.609Z"/>
        <path class="cls-1" d="M221.346,223.234a1.268,1.268,0,0,0,.262.912,1.315,1.315,0,0,0,.938.263,3.246,3.246,0,0,0,1.274-.351,5.372,5.372,0,0,0,1.2-.7l.2.775a4.969,4.969,0,0,1-1.6,1.137,4.768,4.768,0,0,1-2.125.563q-2.149,0-2.149-2.05a11.931,11.931,0,0,1,.125-1.575l1.175-9.125H219.12l.226-.875,1.524-.475a13.745,13.745,0,0,0,1.4-3.426h.974l-.449,3.4h3.449l-.2,1.375h-3.4l-1.125,8.275C221.4,222.343,221.346,222.968,221.346,223.234Z"/>
        <path class="cls-1" d="M235.308,225.009a5.977,5.977,0,0,1-3.063.825,4.649,4.649,0,0,1-2.724-.75,4.463,4.463,0,0,1-1.588-1.963,6.7,6.7,0,0,1-.513-2.637,10.661,10.661,0,0,1,.95-4.45,8.761,8.761,0,0,1,2.588-3.375,5.772,5.772,0,0,1,3.638-1.275,3.554,3.554,0,0,1,2.574.85,2.929,2.929,0,0,1,.875,2.2,3.708,3.708,0,0,1-1.5,2.989,10.269,10.269,0,0,1-3.524,1.824,13.15,13.15,0,0,1-3.5.638,4.478,4.478,0,0,0-.026.575,5.047,5.047,0,0,0,.75,2.775,2.54,2.54,0,0,0,2.3,1.175,5.577,5.577,0,0,0,2.226-.5,6.885,6.885,0,0,0,2.125-1.476l.474.851A6.617,6.617,0,0,1,235.308,225.009Zm-3.438-11.475a7.01,7.01,0,0,0-1.587,2.412,9.76,9.76,0,0,0-.713,2.813,10.277,10.277,0,0,0,2.938-.563,7.153,7.153,0,0,0,2.537-1.437,2.817,2.817,0,0,0,1.025-2.15,2.2,2.2,0,0,0-.525-1.525,1.84,1.84,0,0,0-1.4-.526A3.175,3.175,0,0,0,231.87,213.534Z"/>
        <path class="cls-1" d="M245.1,213.346a6.488,6.488,0,0,1,1.663-1.375,3.968,3.968,0,0,1,2.037-.562,1.466,1.466,0,0,1,.8.149l-.45,2.176a2.439,2.439,0,0,0-1.15-.2,3.9,3.9,0,0,0-2.325.875,5.649,5.649,0,0,0-1.825,2.45l-1.075,8.725h-1.95l1.575-12.151-1.275-.574.175-.9,2.625-.526.475.226-.175,2.225-.15,1.025A6.238,6.238,0,0,1,245.1,213.346Z"/>
        <path class="cls-1" d="M5.449,253.047a.423.423,0,0,0-.375-.188.609.609,0,0,0-.413.1q-.187.126-.512.375l-.275-.651a2.952,2.952,0,0,1,.85-.812,2.369,2.369,0,0,1,1.4-.462,1.382,1.382,0,0,1,1.125.4,2.644,2.644,0,0,1,.45,1.276l.95,8.6.25,2.351.95-2.15,4.425-10.375h1.75l.925,10.2.2,2.325,1.6-2.3a19.393,19.393,0,0,0,1.825-3.388,11.082,11.082,0,0,0,1.025-3.937,2.312,2.312,0,0,0-.087-.8q-.112-.375-.138-.45a2.382,2.382,0,0,1-.15-.65,1.205,1.205,0,0,1,.25-.813.881.881,0,0,1,.7-.287q1.3,0,1.3,2.425a9.193,9.193,0,0,1-1.025,3.724,30.6,30.6,0,0,1-2.475,4.326l-2.45,3.8-1.825.125-.45-4.174-.575-5.75-.125-1.625-.525,1.65-2.9,6.05-1.75,3.724-1.7.151-.7-4.225-1.3-7.926A2.025,2.025,0,0,0,5.449,253.047Z"/>
        <path class="cls-1" d="M35.924,252.909a6.567,6.567,0,0,1,1.25,4.274,10.149,10.149,0,0,1-.888,4.188,8.293,8.293,0,0,1-2.474,3.225,5.68,5.68,0,0,1-3.588,1.238,4.49,4.49,0,0,1-3.575-1.463,6.285,6.285,0,0,1-1.325-4.137,10.221,10.221,0,0,1,.875-4.288,8.479,8.479,0,0,1,2.5-3.3,5.7,5.7,0,0,1,3.625-1.262A4.386,4.386,0,0,1,35.924,252.909Zm-6.438.825a7.239,7.239,0,0,0-1.562,2.85,11.873,11.873,0,0,0-.525,3.474,5.833,5.833,0,0,0,.825,3.375,2.72,2.72,0,0,0,2.375,1.176,3.192,3.192,0,0,0,2.425-1.113,7.221,7.221,0,0,0,1.55-2.813,11.536,11.536,0,0,0,.525-3.424,6.376,6.376,0,0,0-.775-3.451,2.608,2.608,0,0,0-2.35-1.2A3.268,3.268,0,0,0,29.486,253.734Z"/>
        <path class="cls-1" d="M42.424,259.409q-.1.725-.175,1.45a12.971,12.971,0,0,0-.075,1.324,2.516,2.516,0,0,0,.475,1.776,1.9,1.9,0,0,0,1.4.474,3.8,3.8,0,0,0,2.138-.787,7.254,7.254,0,0,0,1.862-1.838l1.35-10.274h1.925l-1.6,12.05a1.311,1.311,0,0,0-.025.3c0,.4.109.6.325.6a2.323,2.323,0,0,0,1.375-.85l.3.575a4.278,4.278,0,0,1-.55.612,4.074,4.074,0,0,1-.988.688,2.582,2.582,0,0,1-1.187.3,1.168,1.168,0,0,1-.9-.349,1.3,1.3,0,0,1-.325-.925,2.036,2.036,0,0,1,.025-.375,6.306,6.306,0,0,0,.125-.925l-.025-.025a8.046,8.046,0,0,1-2.062,1.875,4.715,4.715,0,0,1-2.563.75,3.07,3.07,0,0,1-2.225-.75,3.5,3.5,0,0,1-.775-2.575,37.005,37.005,0,0,1,.425-4.326l.675-4.75-1.225-.6.15-.875,2.675-.526.475.25-.85,6.6Z"/>
        <path class="cls-1" d="M56.724,263.859a.894.894,0,0,0,.1.462.294.294,0,0,0,.25.163,2.166,2.166,0,0,0,1.325-.825l.326.55a3.833,3.833,0,0,1-.975,1.062,2.593,2.593,0,0,1-1.676.563q-1.3,0-1.3-1.425l.076-.925,2.325-16.375-1.5-.4.2-.85,2.9-.426.476.3-2.5,17.875Z"/>
        <path class="cls-1" d="M71.523,263.909a.852.852,0,0,0,.088.425.267.267,0,0,0,.238.15,2.042,2.042,0,0,0,1.174-.65l.326.55a3.965,3.965,0,0,1-.963.937,2.508,2.508,0,0,1-1.537.513q-1.352,0-1.276-1.526v-.674A6.089,6.089,0,0,1,67.8,265.2a4.481,4.481,0,0,1-2.325.638,3.508,3.508,0,0,1-3.038-1.438,6.419,6.419,0,0,1-1.038-3.838,10.205,10.205,0,0,1,.951-4.162,9.429,9.429,0,0,1,2.737-3.575,6.446,6.446,0,0,1,4.162-1.437,7.689,7.689,0,0,1,2.075.325l.726-4.6-1.6-.4.2-.85,3-.426.526.3-2.625,17.875A1.245,1.245,0,0,0,71.523,263.909Zm-2.575-11.3a4.111,4.111,0,0,0-3,1.237,7.806,7.806,0,0,0-1.875,3.05,10.743,10.743,0,0,0-.625,3.513,5.733,5.733,0,0,0,.625,2.925,1.963,1.963,0,0,0,1.776,1.05,3.91,3.91,0,0,0,2.274-.75,5.8,5.8,0,0,0,1.65-1.675l1.326-8.7A3.191,3.191,0,0,0,68.948,252.609Z"/>
        <path class="cls-1" d="M86.647,253.346a6.493,6.493,0,0,1,1.664-1.375,3.968,3.968,0,0,1,2.037-.562,1.459,1.459,0,0,1,.8.149l-.45,2.176a2.432,2.432,0,0,0-1.149-.2,3.9,3.9,0,0,0-2.325.875,5.651,5.651,0,0,0-1.826,2.45l-1.075,8.725H82.373l1.574-12.151-1.274-.574.175-.9,2.625-.526.474.226-.175,2.225-.149,1.025A6.259,6.259,0,0,1,86.647,253.346Z"/>
        <path class="cls-1" d="M95.1,259.409q-.1.725-.175,1.45a12.971,12.971,0,0,0-.075,1.324,2.516,2.516,0,0,0,.475,1.776,1.9,1.9,0,0,0,1.4.474,3.8,3.8,0,0,0,2.137-.787,7.242,7.242,0,0,0,1.863-1.838l1.35-10.274H104l-1.6,12.05a1.384,1.384,0,0,0-.024.3q0,.6.325.6a2.323,2.323,0,0,0,1.375-.85l.3.575a4.341,4.341,0,0,1-.55.612,4.074,4.074,0,0,1-.988.688,2.586,2.586,0,0,1-1.188.3,1.167,1.167,0,0,1-.9-.349,1.3,1.3,0,0,1-.325-.925,2.036,2.036,0,0,1,.025-.375,6.306,6.306,0,0,0,.125-.925l-.025-.025a8.05,8.05,0,0,1-2.063,1.875,4.712,4.712,0,0,1-2.562.75,3.07,3.07,0,0,1-2.225-.75,3.5,3.5,0,0,1-.775-2.575,36.78,36.78,0,0,1,.425-4.326l.674-4.75-1.224-.6.15-.875,2.675-.526.475.25-.85,6.6Z"/>
        <path class="cls-1" d="M113.185,252.346a5.24,5.24,0,0,1,2.887-.962,2.6,2.6,0,0,1,2.075.837,4.2,4.2,0,0,1,.725,2.763,22.989,22.989,0,0,1-.524,3.775l-.125.65q-.025.2-.125.649-.45,2.625-.526,3.576-.049.851.3.85a1.872,1.872,0,0,0,1.176-.65l.324.575a4.016,4.016,0,0,1-.975.9,2.623,2.623,0,0,1-1.575.526q-1.326,0-1.325-1.4a9.854,9.854,0,0,1,.15-1.474q.15-.924.326-1.825l.224-1.125.151-.775q.273-1.524.4-2.4a11.928,11.928,0,0,0,.125-1.7,2.782,2.782,0,0,0-.375-1.688,1.591,1.591,0,0,0-1.3-.462,4.209,4.209,0,0,0-2.437,1.037,10.006,10.006,0,0,0-2.313,2.488l-1.224,9.075h-1.951l1.625-12.2-1.2-.576.175-.9,2.625-.525.476.25-.326,3.15A9.8,9.8,0,0,1,113.185,252.346Z"/>
        <path class="cls-1" d="M138.072,263.909a.852.852,0,0,0,.088.425.267.267,0,0,0,.237.15,2.041,2.041,0,0,0,1.175-.65l.325.55a3.94,3.94,0,0,1-.962.937,2.509,2.509,0,0,1-1.538.513q-1.35,0-1.275-1.526v-.674a6.1,6.1,0,0,1-1.774,1.562,4.484,4.484,0,0,1-2.326.638,3.509,3.509,0,0,1-3.038-1.438,6.426,6.426,0,0,1-1.037-3.838,10.22,10.22,0,0,1,.95-4.162,9.432,9.432,0,0,1,2.738-3.575,6.446,6.446,0,0,1,4.162-1.437,7.7,7.7,0,0,1,2.075.325l.726-4.6-1.6-.4.2-.85,3-.426.526.3L138.1,263.609A1.245,1.245,0,0,0,138.072,263.909Zm-2.575-11.3a4.111,4.111,0,0,0-3,1.237,7.806,7.806,0,0,0-1.875,3.05,10.743,10.743,0,0,0-.625,3.513,5.733,5.733,0,0,0,.625,2.925,1.963,1.963,0,0,0,1.775,1.05,3.911,3.911,0,0,0,2.275-.75,5.817,5.817,0,0,0,1.65-1.675l1.325-8.7A3.188,3.188,0,0,0,135.5,252.609Z"/>
        <path class="cls-1" d="M153.021,252.909a6.567,6.567,0,0,1,1.25,4.274,10.148,10.148,0,0,1-.887,4.188,8.286,8.286,0,0,1-2.475,3.225,5.678,5.678,0,0,1-3.588,1.238,4.489,4.489,0,0,1-3.574-1.463,6.28,6.28,0,0,1-1.325-4.137,10.19,10.19,0,0,1,.875-4.288,8.46,8.46,0,0,1,2.5-3.3,5.692,5.692,0,0,1,3.625-1.262A4.385,4.385,0,0,1,153.021,252.909Zm-6.437.825a7.253,7.253,0,0,0-1.563,2.85,11.905,11.905,0,0,0-.524,3.474,5.833,5.833,0,0,0,.824,3.375,2.723,2.723,0,0,0,2.375,1.176,3.194,3.194,0,0,0,2.426-1.113,7.234,7.234,0,0,0,1.55-2.813,11.567,11.567,0,0,0,.524-3.424,6.386,6.386,0,0,0-.774-3.451,2.609,2.609,0,0,0-2.351-1.2A3.265,3.265,0,0,0,146.584,253.734Z"/>
        <path class="cls-1" d="M157.3,253.047a.423.423,0,0,0-.375-.188.607.607,0,0,0-.413.1q-.187.126-.512.375l-.275-.651a2.946,2.946,0,0,1,.849-.812,2.374,2.374,0,0,1,1.4-.462,1.382,1.382,0,0,1,1.125.4,2.654,2.654,0,0,1,.45,1.276l.95,8.6.25,2.351.949-2.15,4.426-10.375h1.75l.925,10.2.2,2.325,1.6-2.3a19.393,19.393,0,0,0,1.825-3.388,11.079,11.079,0,0,0,1.024-3.937,2.265,2.265,0,0,0-.087-.8c-.075-.25-.121-.4-.137-.45a2.394,2.394,0,0,1-.151-.65,1.205,1.205,0,0,1,.25-.813.882.882,0,0,1,.7-.287q1.3,0,1.3,2.425a9.205,9.205,0,0,1-1.024,3.724,30.61,30.61,0,0,1-2.476,4.326l-2.449,3.8-1.825.125-.45-4.174-.576-5.75-.125-1.625-.524,1.65-2.9,6.05-1.75,3.724-1.7.151-.7-4.225-1.3-7.926A2,2,0,0,0,157.3,253.047Z"/>
        <path class="cls-1" d="M183.634,252.346a5.24,5.24,0,0,1,2.887-.962,2.6,2.6,0,0,1,2.076.837,4.21,4.21,0,0,1,.724,2.763,22.989,22.989,0,0,1-.524,3.775l-.125.65q-.025.2-.125.649-.45,2.625-.526,3.576-.049.851.3.85a1.872,1.872,0,0,0,1.176-.65l.324.575a4.026,4.026,0,0,1-.974.9,2.628,2.628,0,0,1-1.576.526q-1.324,0-1.325-1.4a9.746,9.746,0,0,1,.151-1.474q.148-.924.325-1.825l.224-1.125.151-.775q.273-1.524.4-2.4a11.928,11.928,0,0,0,.125-1.7,2.782,2.782,0,0,0-.375-1.688,1.589,1.589,0,0,0-1.3-.462,4.212,4.212,0,0,0-2.437,1.037,10.006,10.006,0,0,0-2.313,2.488l-1.224,9.075h-1.95l1.625-12.2-1.2-.576.175-.9,2.625-.525.476.25-.325,3.15A9.781,9.781,0,0,1,183.634,252.346Z"/>
        <path class="cls-1" d="M201.5,263.909a.7.7,0,0,0,.113.425.326.326,0,0,0,.262.15q.5,0,1.3-.825l.324.55a4.593,4.593,0,0,1-1.05,1.062,2.548,2.548,0,0,1-1.6.563,1.527,1.527,0,0,1-1.063-.35,1.324,1.324,0,0,1-.338-1.125q.05-.649.338-2.625t.438-2.975l.8-5.475-1.625-.525.151-.8,3.175-.526.5.25-1.7,11.926A1.371,1.371,0,0,0,201.5,263.909Zm.238-15.713a1.169,1.169,0,0,1-.338-.862,1.558,1.558,0,0,1,.463-1.125,1.368,1.368,0,0,1,.988-.475,1.113,1.113,0,0,1,.837.324,1.173,1.173,0,0,1,.312.851,1.631,1.631,0,0,1-.437,1.149,1.36,1.36,0,0,1-1.038.476A1.076,1.076,0,0,1,201.734,248.2Z"/>
        <path class="cls-1" d="M212.684,252.346a5.24,5.24,0,0,1,2.887-.962,2.6,2.6,0,0,1,2.075.837,4.2,4.2,0,0,1,.725,2.763,22.989,22.989,0,0,1-.524,3.775l-.125.65q-.025.2-.125.649-.45,2.625-.526,3.576-.049.851.3.85a1.872,1.872,0,0,0,1.176-.65l.324.575a4.016,4.016,0,0,1-.975.9,2.623,2.623,0,0,1-1.575.526q-1.325,0-1.325-1.4a9.854,9.854,0,0,1,.15-1.474q.15-.924.326-1.825l.224-1.125.151-.775q.273-1.524.4-2.4a11.928,11.928,0,0,0,.125-1.7,2.782,2.782,0,0,0-.375-1.688,1.591,1.591,0,0,0-1.3-.462,4.209,4.209,0,0,0-2.437,1.037,10.006,10.006,0,0,0-2.313,2.488l-1.224,9.075h-1.951l1.625-12.2-1.2-.576.175-.9,2.625-.525.476.25-.326,3.15A9.8,9.8,0,0,1,212.684,252.346Z"/>
        <path class="cls-1" d="M230.4,263.234a1.263,1.263,0,0,0,.263.912,1.313,1.313,0,0,0,.938.263,3.25,3.25,0,0,0,1.274-.351,5.339,5.339,0,0,0,1.2-.7l.2.775a4.952,4.952,0,0,1-1.6,1.137,4.768,4.768,0,0,1-2.125.563q-2.151,0-2.15-2.05a12.1,12.1,0,0,1,.125-1.575l1.175-9.125h-1.525l.225-.875,1.525-.475a13.8,13.8,0,0,0,1.4-3.426h.975l-.449,3.4H235.3l-.2,1.375h-3.4l-1.125,8.275Q230.4,262.835,230.4,263.234Z"/>
        <path class="cls-1" d="M247.046,252.909a6.567,6.567,0,0,1,1.25,4.274,10.149,10.149,0,0,1-.888,4.188,8.293,8.293,0,0,1-2.474,3.225,5.68,5.68,0,0,1-3.588,1.238,4.49,4.49,0,0,1-3.575-1.463,6.285,6.285,0,0,1-1.325-4.137,10.221,10.221,0,0,1,.875-4.288,8.479,8.479,0,0,1,2.5-3.3,5.7,5.7,0,0,1,3.625-1.262A4.386,4.386,0,0,1,247.046,252.909Zm-6.438.825a7.239,7.239,0,0,0-1.562,2.85,11.873,11.873,0,0,0-.525,3.474,5.833,5.833,0,0,0,.825,3.375,2.722,2.722,0,0,0,2.375,1.176,3.192,3.192,0,0,0,2.425-1.113,7.221,7.221,0,0,0,1.55-2.813,11.536,11.536,0,0,0,.525-3.424,6.376,6.376,0,0,0-.775-3.451,2.608,2.608,0,0,0-2.35-1.2A3.268,3.268,0,0,0,240.608,253.734Z"/>
        <path class="cls-1" d="M13.024,292.909a6.567,6.567,0,0,1,1.25,4.274,10.148,10.148,0,0,1-.887,4.188,8.286,8.286,0,0,1-2.475,3.225,5.678,5.678,0,0,1-3.588,1.238,4.489,4.489,0,0,1-3.574-1.463,6.28,6.28,0,0,1-1.325-4.137,10.19,10.19,0,0,1,.875-4.288,8.46,8.46,0,0,1,2.5-3.3,5.692,5.692,0,0,1,3.625-1.262A4.385,4.385,0,0,1,13.024,292.909Zm-6.437.825a7.253,7.253,0,0,0-1.563,2.85,11.905,11.905,0,0,0-.524,3.474,5.833,5.833,0,0,0,.824,3.375A2.723,2.723,0,0,0,7.7,304.609a3.194,3.194,0,0,0,2.426-1.113,7.234,7.234,0,0,0,1.55-2.813,11.567,11.567,0,0,0,.524-3.424,6.386,6.386,0,0,0-.774-3.451,2.609,2.609,0,0,0-2.351-1.2A3.265,3.265,0,0,0,6.587,293.734Z"/>
        <path class="cls-1" d="M19.524,299.409c-.066.483-.125.967-.174,1.45a12.991,12.991,0,0,0-.076,1.324,2.516,2.516,0,0,0,.476,1.776,1.9,1.9,0,0,0,1.4.474,3.8,3.8,0,0,0,2.138-.787,7.222,7.222,0,0,0,1.862-1.838L26.5,291.534h1.925l-1.6,12.05a1.384,1.384,0,0,0-.024.3q0,.6.325.6a2.323,2.323,0,0,0,1.375-.85l.3.575a4.341,4.341,0,0,1-.55.612,4.113,4.113,0,0,1-.988.688,2.586,2.586,0,0,1-1.188.3,1.165,1.165,0,0,1-.9-.349,1.3,1.3,0,0,1-.325-.925,1.95,1.95,0,0,1,.025-.375,6.306,6.306,0,0,0,.125-.925l-.025-.025a8.05,8.05,0,0,1-2.063,1.875,4.712,4.712,0,0,1-2.562.75,3.07,3.07,0,0,1-2.225-.75,3.493,3.493,0,0,1-.775-2.575,36.939,36.939,0,0,1,.424-4.326l.675-4.75-1.224-.6.15-.875,2.675-.526.474.25-.849,6.6Z"/>
        <path class="cls-1" d="M35.949,293.346a6.506,6.506,0,0,1,1.663-1.375,3.973,3.973,0,0,1,2.037-.562,1.463,1.463,0,0,1,.8.149L40,293.734a2.432,2.432,0,0,0-1.149-.2,3.9,3.9,0,0,0-2.326.875,5.657,5.657,0,0,0-1.825,2.45l-1.075,8.725H31.675l1.574-12.151-1.274-.574.174-.9,2.625-.526.475.226-.175,2.225-.149,1.025A6.231,6.231,0,0,1,35.949,293.346Z"/>
        <path class="cls-1" d="M57.274,303.909a.852.852,0,0,0,.088.425.267.267,0,0,0,.238.15,2.042,2.042,0,0,0,1.174-.65l.326.55a3.965,3.965,0,0,1-.963.937,2.508,2.508,0,0,1-1.537.513q-1.352,0-1.276-1.526v-.674A6.089,6.089,0,0,1,53.55,305.2a4.481,4.481,0,0,1-2.325.638,3.508,3.508,0,0,1-3.038-1.438,6.419,6.419,0,0,1-1.038-3.838A10.205,10.205,0,0,1,48.1,296.4a9.429,9.429,0,0,1,2.737-3.575A6.446,6.446,0,0,1,55,291.384a7.689,7.689,0,0,1,2.075.325l.726-4.6-1.6-.4.2-.85,3-.426.526.3L57.3,303.609A1.245,1.245,0,0,0,57.274,303.909Zm-2.575-11.3a4.111,4.111,0,0,0-3,1.237,7.806,7.806,0,0,0-1.875,3.05,10.743,10.743,0,0,0-.625,3.513,5.733,5.733,0,0,0,.625,2.925,1.963,1.963,0,0,0,1.776,1.05,3.91,3.91,0,0,0,2.274-.75,5.8,5.8,0,0,0,1.65-1.675l1.326-8.7A3.191,3.191,0,0,0,54.7,292.609Z"/>
        <path class="cls-1" d="M69.536,305.009a5.973,5.973,0,0,1-3.062.825,4.652,4.652,0,0,1-2.725-.75,4.47,4.47,0,0,1-1.588-1.963,6.7,6.7,0,0,1-.513-2.637,10.662,10.662,0,0,1,.951-4.45,8.751,8.751,0,0,1,2.588-3.375,5.767,5.767,0,0,1,3.637-1.275,3.554,3.554,0,0,1,2.574.85,2.929,2.929,0,0,1,.875,2.2,3.708,3.708,0,0,1-1.5,2.989,10.26,10.26,0,0,1-3.524,1.824,13.15,13.15,0,0,1-3.5.638,4.526,4.526,0,0,0-.025.575,5.047,5.047,0,0,0,.75,2.775,2.538,2.538,0,0,0,2.3,1.175,5.577,5.577,0,0,0,2.226-.5,6.862,6.862,0,0,0,2.125-1.476l.475.851A6.622,6.622,0,0,1,69.536,305.009ZM66.1,293.534a7,7,0,0,0-1.587,2.412,9.727,9.727,0,0,0-.713,2.813,10.27,10.27,0,0,0,2.937-.563,7.144,7.144,0,0,0,2.537-1.437,2.818,2.818,0,0,0,1.026-2.15,2.209,2.209,0,0,0-.526-1.525,1.839,1.839,0,0,0-1.4-.526A3.173,3.173,0,0,0,66.1,293.534Z"/>
        <path class="cls-1" d="M80.936,292.346a5.24,5.24,0,0,1,2.887-.962,2.6,2.6,0,0,1,2.075.837,4.2,4.2,0,0,1,.725,2.763,22.989,22.989,0,0,1-.524,3.775l-.125.65q-.026.2-.125.649-.45,2.625-.526,3.576-.049.851.3.85a1.872,1.872,0,0,0,1.176-.65l.324.575a4.016,4.016,0,0,1-.975.9,2.623,2.623,0,0,1-1.575.526q-1.326,0-1.325-1.4a9.854,9.854,0,0,1,.15-1.474q.15-.924.326-1.825l.224-1.125.151-.775q.273-1.524.4-2.4a11.928,11.928,0,0,0,.125-1.7,2.782,2.782,0,0,0-.375-1.688,1.591,1.591,0,0,0-1.3-.462,4.209,4.209,0,0,0-2.437,1.037,10.006,10.006,0,0,0-2.313,2.488l-1.224,9.075H75.023l1.625-12.2-1.2-.576.175-.9,2.625-.525.476.25-.326,3.15A9.8,9.8,0,0,1,80.936,292.346Z"/>
        <path class="cls-1" d="M96.648,293.047a.423.423,0,0,0-.375-.188.609.609,0,0,0-.413.1c-.125.084-.3.209-.511.375l-.276-.651a2.952,2.952,0,0,1,.85-.812,2.369,2.369,0,0,1,1.4-.462,1.382,1.382,0,0,1,1.125.4,2.644,2.644,0,0,1,.45,1.276l.951,8.6.25,2.351.949-2.15,4.426-10.375h1.75l.924,10.2.2,2.325,1.6-2.3a19.326,19.326,0,0,0,1.825-3.388,11.082,11.082,0,0,0,1.025-3.937,2.312,2.312,0,0,0-.087-.8q-.112-.375-.138-.45a2.421,2.421,0,0,1-.15-.65,1.205,1.205,0,0,1,.25-.813.881.881,0,0,1,.7-.287q1.3,0,1.3,2.425a9.193,9.193,0,0,1-1.025,3.724,30.5,30.5,0,0,1-2.475,4.326l-2.449,3.8-1.826.125-.45-4.174-.575-5.75-.125-1.625-.524,1.65-2.9,6.05-1.75,3.724-1.7.151-.7-4.225-1.3-7.926A2,2,0,0,0,96.648,293.047Z"/>
        <path class="cls-1" d="M122.786,292.4a5.126,5.126,0,0,1,2.938-1.012,2.589,2.589,0,0,1,2.087.837,4.31,4.31,0,0,1,.712,2.788,21.965,21.965,0,0,1-.525,3.725c-.017.1-.033.208-.05.324a2.523,2.523,0,0,1-.075.351,5.122,5.122,0,0,0-.125.75,28.544,28.544,0,0,0-.55,3.475,1.449,1.449,0,0,0,.075.65.323.323,0,0,0,.3.225,1.037,1.037,0,0,0,.526-.163,6.234,6.234,0,0,0,.774-.587l.3.549a2.81,2.81,0,0,1-.5.588,3.82,3.82,0,0,1-.949.651,2.667,2.667,0,0,1-1.2.287,1.2,1.2,0,0,1-1.375-1.35,10.515,10.515,0,0,1,.2-1.763c.132-.741.208-1.178.224-1.312q.026-.075.25-1.4.326-1.65.5-2.763a13.681,13.681,0,0,0,.175-2.112,2.709,2.709,0,0,0-.388-1.675,1.5,1.5,0,0,0-1.237-.475,4.305,4.305,0,0,0-2.5,1.037,9.714,9.714,0,0,0-2.325,2.513l-1.225,9.05h-1.9l2.426-18.475-1.4-.4.151-.85,2.875-.426.5.3-1.226,9.2A10.229,10.229,0,0,1,122.786,292.4Z"/>
        <path class="cls-1" d="M139.61,305.009a5.973,5.973,0,0,1-3.062.825,4.652,4.652,0,0,1-2.725-.75,4.47,4.47,0,0,1-1.588-1.963,6.716,6.716,0,0,1-.512-2.637,10.661,10.661,0,0,1,.95-4.45,8.761,8.761,0,0,1,2.588-3.375,5.769,5.769,0,0,1,3.637-1.275,3.557,3.557,0,0,1,2.575.85,2.929,2.929,0,0,1,.875,2.2,3.708,3.708,0,0,1-1.5,2.989,10.265,10.265,0,0,1-3.525,1.824,13.136,13.136,0,0,1-3.5.638,4.726,4.726,0,0,0-.025.575,5.047,5.047,0,0,0,.75,2.775,2.539,2.539,0,0,0,2.3,1.175,5.572,5.572,0,0,0,2.225-.5,6.862,6.862,0,0,0,2.125-1.476l.475.851A6.622,6.622,0,0,1,139.61,305.009Zm-3.437-11.475a7.01,7.01,0,0,0-1.587,2.412,9.727,9.727,0,0,0-.713,2.813,10.283,10.283,0,0,0,2.938-.563,7.161,7.161,0,0,0,2.537-1.437,2.82,2.82,0,0,0,1.025-2.15,2.209,2.209,0,0,0-.525-1.525,1.841,1.841,0,0,0-1.4-.526A3.175,3.175,0,0,0,136.173,293.534Z"/>
        <path class="cls-1" d="M149.4,293.346a6.493,6.493,0,0,1,1.664-1.375,3.968,3.968,0,0,1,2.037-.562,1.459,1.459,0,0,1,.8.149l-.45,2.176a2.432,2.432,0,0,0-1.149-.2,3.9,3.9,0,0,0-2.325.875,5.651,5.651,0,0,0-1.826,2.45l-1.075,8.725h-1.949l1.574-12.151-1.274-.574.175-.9,2.625-.526.474.226-.175,2.225-.149,1.025A6.259,6.259,0,0,1,149.4,293.346Z"/>
        <path class="cls-1" d="M162.66,305.009a5.973,5.973,0,0,1-3.062.825,4.652,4.652,0,0,1-2.725-.75,4.47,4.47,0,0,1-1.588-1.963,6.7,6.7,0,0,1-.513-2.637,10.662,10.662,0,0,1,.951-4.45,8.751,8.751,0,0,1,2.588-3.375,5.767,5.767,0,0,1,3.637-1.275,3.554,3.554,0,0,1,2.574.85,2.929,2.929,0,0,1,.875,2.2,3.708,3.708,0,0,1-1.5,2.989,10.26,10.26,0,0,1-3.524,1.824,13.15,13.15,0,0,1-3.5.638,4.526,4.526,0,0,0-.025.575,5.047,5.047,0,0,0,.75,2.775,2.538,2.538,0,0,0,2.3,1.175,5.577,5.577,0,0,0,2.226-.5,6.862,6.862,0,0,0,2.125-1.476l.475.851A6.622,6.622,0,0,1,162.66,305.009Zm-3.437-11.475a7,7,0,0,0-1.587,2.412,9.727,9.727,0,0,0-.713,2.813,10.27,10.27,0,0,0,2.937-.563,7.144,7.144,0,0,0,2.537-1.437,2.818,2.818,0,0,0,1.026-2.15,2.209,2.209,0,0,0-.526-1.525,1.839,1.839,0,0,0-1.4-.526A3.173,3.173,0,0,0,159.223,293.534Z"/>
        <path class="cls-1" d="M174.4,293.047a.423.423,0,0,0-.375-.188.609.609,0,0,0-.413.1c-.125.084-.3.209-.511.375l-.276-.651a2.952,2.952,0,0,1,.85-.812,2.369,2.369,0,0,1,1.4-.462,1.382,1.382,0,0,1,1.125.4,2.644,2.644,0,0,1,.45,1.276l.951,8.6.25,2.351.949-2.15,4.426-10.375h1.75l.924,10.2.2,2.325,1.6-2.3a19.326,19.326,0,0,0,1.825-3.388,11.082,11.082,0,0,0,1.025-3.937,2.312,2.312,0,0,0-.087-.8q-.113-.375-.138-.45a2.421,2.421,0,0,1-.15-.65,1.205,1.205,0,0,1,.25-.813.881.881,0,0,1,.7-.287q1.3,0,1.3,2.425a9.193,9.193,0,0,1-1.025,3.724,30.5,30.5,0,0,1-2.475,4.326l-2.449,3.8-1.826.125-.45-4.174-.575-5.75-.125-1.625-.524,1.65-2.9,6.05-1.75,3.724-1.7.151-.7-4.225-1.3-7.926A2,2,0,0,0,174.4,293.047Z"/>
        <path class="cls-1" d="M202.185,305.009a5.977,5.977,0,0,1-3.063.825,4.652,4.652,0,0,1-2.725-.75,4.468,4.468,0,0,1-1.587-1.963,6.7,6.7,0,0,1-.513-2.637,10.661,10.661,0,0,1,.95-4.45,8.761,8.761,0,0,1,2.588-3.375,5.772,5.772,0,0,1,3.638-1.275,3.556,3.556,0,0,1,2.574.85,2.929,2.929,0,0,1,.875,2.2,3.708,3.708,0,0,1-1.5,2.989,10.265,10.265,0,0,1-3.525,1.824,13.136,13.136,0,0,1-3.5.638,4.726,4.726,0,0,0-.025.575,5.047,5.047,0,0,0,.75,2.775,2.54,2.54,0,0,0,2.3,1.175,5.568,5.568,0,0,0,2.225-.5,6.862,6.862,0,0,0,2.125-1.476l.475.851A6.629,6.629,0,0,1,202.185,305.009Zm-3.438-11.475a7.01,7.01,0,0,0-1.587,2.412,9.76,9.76,0,0,0-.713,2.813,10.283,10.283,0,0,0,2.938-.563,7.153,7.153,0,0,0,2.537-1.437,2.82,2.82,0,0,0,1.025-2.15,2.2,2.2,0,0,0-.525-1.525,1.841,1.841,0,0,0-1.4-.526A3.175,3.175,0,0,0,198.747,293.534Z"/>
        <path class="cls-1" d="M223.071,303.734a.829.829,0,0,0,.163.574.463.463,0,0,0,.337.176.864.864,0,0,0,.489-.163,4.7,4.7,0,0,0,.612-.537l.349.55a2.521,2.521,0,0,1-.461.562,3.937,3.937,0,0,1-.888.651,2.27,2.27,0,0,1-1.1.287q-1.549,0-1.449-1.651l.149-1.024a8.923,8.923,0,0,1-1.987,1.888,4.1,4.1,0,0,1-2.362.787,3.3,3.3,0,0,1-2.938-1.425,6.792,6.792,0,0,1-.963-3.851,10.205,10.205,0,0,1,.951-4.162,9.429,9.429,0,0,1,2.737-3.575,6.447,6.447,0,0,1,4.163-1.437,7.121,7.121,0,0,1,1.225.125,10.2,10.2,0,0,1,1.25.3l1.375-.4L223.1,303.433A1.533,1.533,0,0,0,223.071,303.734ZM220.6,292.609a4.168,4.168,0,0,0-2.975,1.188,7.587,7.587,0,0,0-1.9,2.987,10.393,10.393,0,0,0-.651,3.55,6.478,6.478,0,0,0,.563,2.987,1.826,1.826,0,0,0,1.713,1.063,3.578,3.578,0,0,0,2.237-.888,9.37,9.37,0,0,0,1.862-1.962l1.1-8.375A3.367,3.367,0,0,0,220.6,292.609Z"/>
        <path class="cls-1" d="M232.246,293.346a6.506,6.506,0,0,1,1.663-1.375,3.971,3.971,0,0,1,2.037-.562,1.463,1.463,0,0,1,.8.149l-.45,2.176a2.437,2.437,0,0,0-1.15-.2,3.9,3.9,0,0,0-2.325.875,5.657,5.657,0,0,0-1.825,2.45l-1.075,8.725h-1.949l1.574-12.151-1.275-.574.175-.9,2.625-.526.475.226-.175,2.225-.149,1.025A6.231,6.231,0,0,1,232.246,293.346Z"/>
        <path class="cls-1" d="M245.509,305.009a5.977,5.977,0,0,1-3.063.825,4.651,4.651,0,0,1-2.724-.75,4.47,4.47,0,0,1-1.588-1.963,6.7,6.7,0,0,1-.513-2.637,10.677,10.677,0,0,1,.95-4.45,8.761,8.761,0,0,1,2.588-3.375,5.772,5.772,0,0,1,3.638-1.275,3.554,3.554,0,0,1,2.574.85,2.929,2.929,0,0,1,.875,2.2,3.708,3.708,0,0,1-1.5,2.989,10.269,10.269,0,0,1-3.524,1.824,13.15,13.15,0,0,1-3.5.638,4.478,4.478,0,0,0-.026.575,5.047,5.047,0,0,0,.75,2.775,2.54,2.54,0,0,0,2.3,1.175,5.577,5.577,0,0,0,2.226-.5,6.885,6.885,0,0,0,2.125-1.476l.474.851A6.617,6.617,0,0,1,245.509,305.009Zm-3.438-11.475a7.01,7.01,0,0,0-1.587,2.412,9.76,9.76,0,0,0-.713,2.813,10.277,10.277,0,0,0,2.938-.563,7.153,7.153,0,0,0,2.537-1.437,2.817,2.817,0,0,0,1.025-2.15,2.2,2.2,0,0,0-.525-1.525,1.84,1.84,0,0,0-1.4-.526A3.175,3.175,0,0,0,242.071,293.534Z"/>
        <path class="cls-1" d="M71,343.859a.883.883,0,0,0,.1.462.291.291,0,0,0,.25.163,2.169,2.169,0,0,0,1.325-.825l.325.55a3.833,3.833,0,0,1-.975,1.062,2.59,2.59,0,0,1-1.675.563q-1.3,0-1.3-1.425l.075-.925,2.325-16.375-1.5-.4.2-.85,2.9-.426.475.3-2.5,17.875Z"/>
        <path class="cls-1" d="M78.773,343.909a.7.7,0,0,0,.114.425.324.324,0,0,0,.261.15q.5,0,1.3-.825l.324.55a4.585,4.585,0,0,1-1.049,1.062,2.553,2.553,0,0,1-1.6.563,1.525,1.525,0,0,1-1.062-.35,1.321,1.321,0,0,1-.338-1.125q.05-.649.338-2.625t.437-2.975l.8-5.475-1.625-.525.15-.8L80,331.433l.5.25-1.7,11.926A1.3,1.3,0,0,0,78.773,343.909Zm.239-15.713a1.165,1.165,0,0,1-.338-.862,1.554,1.554,0,0,1,.463-1.125,1.364,1.364,0,0,1,.987-.475,1.112,1.112,0,0,1,.837.324,1.173,1.173,0,0,1,.312.851,1.631,1.631,0,0,1-.437,1.149,1.36,1.36,0,0,1-1.037.476A1.073,1.073,0,0,1,79.012,328.2Z"/>
        <path class="cls-1" d="M84,332.859a1.488,1.488,0,0,0-.925.475l-.275-.651a2.982,2.982,0,0,1,.838-.812,2.311,2.311,0,0,1,1.386-.462,1.321,1.321,0,0,1,1.114.412,2.792,2.792,0,0,1,.437,1.263l.949,8.125.276,2.7,1.8-2.325a21.521,21.521,0,0,0,2.049-3.5,13.177,13.177,0,0,0,1.051-3.675,2.637,2.637,0,0,0-.225-1.25,2.382,2.382,0,0,1-.15-.65,1.157,1.157,0,0,1,.262-.826.912.912,0,0,1,.687-.274,1.09,1.09,0,0,1,1,.638,3.491,3.491,0,0,1,.351,1.687,8.972,8.972,0,0,1-1.088,3.837,29.36,29.36,0,0,1-2.612,4.313l-2.875,3.8-1.475.151-.75-4.55-1.25-7.6Q84.448,332.86,84,332.859Z"/>
        <path class="cls-1" d="M99.474,343.909a.7.7,0,0,0,.113.425.325.325,0,0,0,.262.15c.334,0,.766-.275,1.3-.825l.325.55a4.613,4.613,0,0,1-1.05,1.062,2.553,2.553,0,0,1-1.6.563,1.526,1.526,0,0,1-1.062-.35,1.324,1.324,0,0,1-.338-1.125q.049-.649.338-2.625t.437-2.975l.8-5.475-1.625-.525.15-.8,3.175-.526.5.25-1.7,11.926A1.311,1.311,0,0,0,99.474,343.909Zm.238-15.713a1.165,1.165,0,0,1-.338-.862,1.554,1.554,0,0,1,.463-1.125,1.368,1.368,0,0,1,.987-.475,1.112,1.112,0,0,1,.837.324,1.174,1.174,0,0,1,.313.851,1.632,1.632,0,0,1-.438,1.149,1.36,1.36,0,0,1-1.037.476A1.075,1.075,0,0,1,99.712,328.2Z"/>
        <path class="cls-1" d="M110.661,332.346a5.245,5.245,0,0,1,2.888-.962,2.6,2.6,0,0,1,2.075.837,4.21,4.21,0,0,1,.725,2.763,22.91,22.91,0,0,1-.525,3.775l-.125.65q-.024.2-.125.649-.45,2.625-.525,3.576c-.033.567.066.85.3.85a1.87,1.87,0,0,0,1.175-.65l.325.575a4.035,4.035,0,0,1-.975.9,2.625,2.625,0,0,1-1.575.526q-1.326,0-1.325-1.4a9.722,9.722,0,0,1,.15-1.474q.15-.924.325-1.825l.225-1.125.15-.775q.275-1.524.4-2.4a11.928,11.928,0,0,0,.125-1.7,2.782,2.782,0,0,0-.375-1.688,1.591,1.591,0,0,0-1.3-.462,4.214,4.214,0,0,0-2.438,1.037,10,10,0,0,0-2.312,2.488l-1.225,9.075h-1.95l1.625-12.2-1.2-.576.175-.9,2.625-.525.475.25-.325,3.15A9.812,9.812,0,0,1,110.661,332.346Z"/>
        <path class="cls-1" d="M127.812,349.534a6.389,6.389,0,0,1-2.463,1.712,7.65,7.65,0,0,1-2.75.538,9.609,9.609,0,0,1-1.525-.125,5.187,5.187,0,0,1-1.175-.3l.475-1.85A8.639,8.639,0,0,0,121.8,350a6.815,6.815,0,0,0,1.7.213,4,4,0,0,0,2.525-.662,3.6,3.6,0,0,0,1.075-2.364l.525-3.5a6.534,6.534,0,0,1-1.775,1.526,4.375,4.375,0,0,1-2.275.625,3.509,3.509,0,0,1-3.038-1.438,6.426,6.426,0,0,1-1.037-3.838,10.2,10.2,0,0,1,.95-4.162,9.382,9.382,0,0,1,2.75-3.575,6.5,6.5,0,0,1,4.175-1.437,7.128,7.128,0,0,1,2.65.525l1.425-.525-2.325,15.15A5.461,5.461,0,0,1,127.812,349.534Zm-.738-16.925a4.111,4.111,0,0,0-3,1.237,7.9,7.9,0,0,0-1.887,3.05,10.564,10.564,0,0,0-.638,3.513,5.733,5.733,0,0,0,.625,2.925,1.963,1.963,0,0,0,1.775,1.05,3.9,3.9,0,0,0,2.263-.738,6.062,6.062,0,0,0,1.662-1.662l1.3-8.75A3.25,3.25,0,0,0,127.074,332.609Z"/>
        <path class="cls-1" d="M142.248,343.859a.883.883,0,0,0,.1.462.291.291,0,0,0,.25.163,2.169,2.169,0,0,0,1.325-.825l.325.55a3.833,3.833,0,0,1-.975,1.062,2.59,2.59,0,0,1-1.675.563q-1.3,0-1.3-1.425l.075-.925,2.325-16.375-1.5-.4.2-.85,2.9-.426.475.3-2.5,17.875Z"/>
        <path class="cls-1" d="M150.022,343.909a.7.7,0,0,0,.114.425.324.324,0,0,0,.261.15q.5,0,1.3-.825l.324.55a4.585,4.585,0,0,1-1.049,1.062,2.553,2.553,0,0,1-1.6.563,1.525,1.525,0,0,1-1.062-.35,1.321,1.321,0,0,1-.338-1.125q.049-.649.338-2.625t.437-2.975l.8-5.475-1.625-.525.15-.8,3.175-.526.5.25-1.7,11.926A1.3,1.3,0,0,0,150.022,343.909Zm.239-15.713a1.165,1.165,0,0,1-.338-.862,1.554,1.554,0,0,1,.463-1.125,1.364,1.364,0,0,1,.987-.475,1.112,1.112,0,0,1,.837.324,1.173,1.173,0,0,1,.312.851,1.631,1.631,0,0,1-.437,1.149,1.36,1.36,0,0,1-1.037.476A1.073,1.073,0,0,1,150.261,328.2Z"/>
        <path class="cls-1" d="M159.6,325.734l-2.675,19.85h-1.9l2.426-18.475-1.4-.4.15-.85,2.875-.426Zm.25,11.35q1.125-.675,1.85-1.213a6.033,6.033,0,0,0,1.275-1.287,3.617,3.617,0,0,0,.7-1.875,1.344,1.344,0,0,1,.463-.863,1.31,1.31,0,0,1,.837-.288.977.977,0,0,1,.737.3,1.11,1.11,0,0,1,.288.8,2.669,2.669,0,0,1-.55,1.475,6.937,6.937,0,0,1-1.762,1.65q-1.164.8-2.763,1.7l-.925.525,3.524,5.225a3.65,3.65,0,0,0,.739.8,1.054,1.054,0,0,0,1.212.187,2.234,2.234,0,0,0,.6-.462l.425.7a2.919,2.919,0,0,1-.976.963,2.746,2.746,0,0,1-1.5.412,2.355,2.355,0,0,1-2.049-1.325l-3.75-6.375Q158.948,337.609,159.848,337.084Z"/>
        <path class="cls-1" d="M175.71,345.009a5.974,5.974,0,0,1-3.063.825,4.651,4.651,0,0,1-2.724-.75,4.47,4.47,0,0,1-1.588-1.963,6.7,6.7,0,0,1-.513-2.637,10.677,10.677,0,0,1,.95-4.45,8.771,8.771,0,0,1,2.588-3.375A5.772,5.772,0,0,1,175,331.384a3.554,3.554,0,0,1,2.574.85,2.929,2.929,0,0,1,.875,2.2,3.708,3.708,0,0,1-1.5,2.989,10.269,10.269,0,0,1-3.524,1.824,13.15,13.15,0,0,1-3.5.638,4.478,4.478,0,0,0-.026.575,5.047,5.047,0,0,0,.75,2.775,2.54,2.54,0,0,0,2.3,1.175,5.577,5.577,0,0,0,2.226-.5,6.885,6.885,0,0,0,2.125-1.476l.474.851A6.617,6.617,0,0,1,175.71,345.009Zm-3.438-11.475a6.993,6.993,0,0,0-1.586,2.412,9.727,9.727,0,0,0-.713,2.813,10.276,10.276,0,0,0,2.937-.563,7.144,7.144,0,0,0,2.537-1.437,2.818,2.818,0,0,0,1.026-2.15,2.209,2.209,0,0,0-.526-1.525,1.84,1.84,0,0,0-1.4-.526A3.175,3.175,0,0,0,172.272,333.534Z"/>
        <path class="cls-1" d="M191.422,333.346a6.488,6.488,0,0,1,1.663-1.375,3.971,3.971,0,0,1,2.037-.562,1.466,1.466,0,0,1,.8.149l-.45,2.176a2.439,2.439,0,0,0-1.15-.2,3.9,3.9,0,0,0-2.325.875,5.649,5.649,0,0,0-1.825,2.45l-1.075,8.725h-1.95l1.575-12.151-1.275-.574.175-.9,2.625-.526.475.226-.175,2.225-.15,1.025A6.238,6.238,0,0,1,191.422,333.346Z"/>
        <path class="cls-1" d="M206.8,343.734a.829.829,0,0,0,.163.574.462.462,0,0,0,.337.176.859.859,0,0,0,.488-.163,4.7,4.7,0,0,0,.612-.537l.35.55a2.533,2.533,0,0,1-.462.562,3.893,3.893,0,0,1-.888.651,2.264,2.264,0,0,1-1.1.287q-1.549,0-1.449-1.651l.149-1.024a8.923,8.923,0,0,1-1.987,1.888,4.1,4.1,0,0,1-2.363.787,3.3,3.3,0,0,1-2.937-1.425,6.784,6.784,0,0,1-.963-3.851,10.2,10.2,0,0,1,.95-4.162,9.432,9.432,0,0,1,2.738-3.575,6.447,6.447,0,0,1,4.163-1.437,7.12,7.12,0,0,1,1.224.125,10.107,10.107,0,0,1,1.25.3l1.375-.4-1.625,12.024A1.622,1.622,0,0,0,206.8,343.734Zm-2.475-11.125a4.167,4.167,0,0,0-2.974,1.188,7.6,7.6,0,0,0-1.9,2.987,10.416,10.416,0,0,0-.65,3.55,6.479,6.479,0,0,0,.562,2.987,1.827,1.827,0,0,0,1.713,1.063,3.583,3.583,0,0,0,2.238-.888,9.37,9.37,0,0,0,1.862-1.962l1.1-8.375A3.364,3.364,0,0,0,204.322,332.609Z"/>
        <path class="cls-1" d="M214,343.234a1.263,1.263,0,0,0,.263.912,1.312,1.312,0,0,0,.937.263,3.254,3.254,0,0,0,1.275-.351,5.362,5.362,0,0,0,1.2-.7l.2.775a4.958,4.958,0,0,1-1.6,1.137,4.768,4.768,0,0,1-2.125.563q-2.149,0-2.149-2.05a11.931,11.931,0,0,1,.125-1.575l1.175-9.125h-1.526l.226-.875,1.524-.475a13.745,13.745,0,0,0,1.4-3.426h.974l-.449,3.4H218.9l-.2,1.375h-3.4l-1.125,8.275Q214,342.835,214,343.234Z"/>
        <path class="cls-1" d="M227.9,333.234a4.381,4.381,0,0,0-1.012-.388,5.117,5.117,0,0,0-1.313-.163,3.351,3.351,0,0,0-2.011.538,1.838,1.838,0,0,0-.739,1.587,2.324,2.324,0,0,0,.575,1.551,10.142,10.142,0,0,0,1.6,1.449q.973.75,1.5,1.226a5.243,5.243,0,0,1,.975,1.237,3.556,3.556,0,0,1-.938,4.55,5.675,5.675,0,0,1-3.437,1.013,10.3,10.3,0,0,1-2.213-.238,3.3,3.3,0,0,1-1.412-.538l.325-1.524a4.981,4.981,0,0,0,1.412.649,6.37,6.37,0,0,0,1.963.3,4.053,4.053,0,0,0,2.05-.475,1.723,1.723,0,0,0,.825-1.625,2.179,2.179,0,0,0-.362-1.225,4.162,4.162,0,0,0-.8-.913c-.291-.241-.721-.563-1.287-.962a8.333,8.333,0,0,1-1.826-1.7,3.651,3.651,0,0,1-.825-2.35,3.352,3.352,0,0,1,.638-2.025,4.14,4.14,0,0,1,1.713-1.35,5.82,5.82,0,0,1,2.375-.475,10.481,10.481,0,0,1,1.825.163,5.768,5.768,0,0,1,1.3.337l-.4,1.7A1.941,1.941,0,0,0,227.9,333.234Z"/>
        <path class="cls-1" d="M230.672,343.422a1.455,1.455,0,0,1,1.1-.513,1.184,1.184,0,0,1,.875.3,1.078,1.078,0,0,1,.3.8,1.752,1.752,0,0,1-.5,1.3,1.578,1.578,0,0,1-1.149.5,1.051,1.051,0,0,1-1.1-1.125A1.778,1.778,0,0,1,230.672,343.422Z"/>
        <path class="cls-1" d="M242.547,325.846a4.352,4.352,0,0,1,.525,2.113,5.674,5.674,0,0,1-1.363,3.8,8.815,8.815,0,0,1-3.287,2.424l-.4-.724v-.225a3.643,3.643,0,0,0,1.364-.9,5.663,5.663,0,0,0,1.136-1.613,4.362,4.362,0,0,0,.451-1.913,2.939,2.939,0,0,0-.4-1.524,1.576,1.576,0,0,0-1.125-.8l.05-.4,1.4-1.5A2.537,2.537,0,0,1,242.547,325.846Zm5.875,0a4.352,4.352,0,0,1,.525,2.113,5.674,5.674,0,0,1-1.363,3.8,8.815,8.815,0,0,1-3.287,2.424l-.4-.724v-.225a3.643,3.643,0,0,0,1.364-.9,5.663,5.663,0,0,0,1.136-1.613,4.362,4.362,0,0,0,.451-1.913,2.939,2.939,0,0,0-.4-1.524,1.576,1.576,0,0,0-1.125-.8l.05-.4,1.4-1.5A2.537,2.537,0,0,1,248.422,325.846Z"/>
      </g>
      <path class="cls-1" d="M195.784,25.78v1.75h11.877V52.021H183.17V27.714Q183.17,0,207.661,0V10.312q-6.261,1.014-9.069,4.741T195.784,25.78Zm41.709,0v1.75h11.878V52.021h-24.4V27.714Q224.971,0,249.371,0V10.312Q237.493,11.878,237.493,25.78Z"/>
    </g>
  </g>
</svg>
