<?xml version="1.0" encoding="utf-8"?>
<!-- Generator: Adobe Illustrator 25.2.1, SVG Export Plug-In . SVG Version: 6.00 Build 0)  -->
<svg version="1.1" id="Layer_1" xmlns="http://www.w3.org/2000/svg" xmlns:xlink="http://www.w3.org/1999/xlink" x="0px" y="0px"
	 width="263.9px" height="319.7px" viewBox="0 0 263.9 319.7" style="enable-background:new 0 0 263.9 319.7;" xml:space="preserve"
	>
<style type="text/css">
	.st0{fill:#629EA5;}
	.st1{opacity:0.4;}
</style>
<g id="Layer_2_1_">
	<g id="Layer_8">
		<g>
			<g>
				<path class="st0" d="M33.9,112c-1.1,0-2.2-0.1-3.3-0.4c-0.9-0.3-1.8-0.7-2.7-1.2l0.7-5.4h0.6l1,4.1c0.5,0.5,1.2,1,1.9,1.2
					c0.7,0.3,1.5,0.4,2.2,0.4c1.4,0.1,2.8-0.4,3.8-1.5c0.9-1,1.4-2.4,1.3-3.8c0-0.7-0.2-1.4-0.5-2c-0.4-0.6-0.9-1.2-1.5-1.6
					c-0.7-0.5-1.5-1-2.5-1.7c-1.1-0.6-2.1-1.5-2.9-2.5c-0.6-0.8-0.9-1.9-0.9-2.9c0-1.2,0.3-2.3,1-3.3c0.7-1,1.5-1.9,2.6-2.4
					c1-0.6,2.2-0.9,3.4-0.9c0.9,0,1.8,0.1,2.7,0.4c0.8,0.3,1.6,0.6,2.4,1.1l-0.6,5.2h-0.6l-0.9-4c-0.4-0.4-0.9-0.8-1.4-1
					c-0.6-0.3-1.4-0.5-2.1-0.5c-1.2,0-2.4,0.4-3.2,1.2c-0.9,0.9-1.3,2.1-1.3,3.3c0,0.9,0.3,1.8,0.8,2.5c0.9,1,1.9,1.8,3,2.4
					c0.9,0.5,1.8,1.2,2.7,1.9c0.6,0.5,1.2,1.2,1.5,1.9c0.3,0.8,0.5,1.6,0.5,2.4c0,1.2-0.4,2.4-1,3.4c-0.7,1.1-1.7,2-2.8,2.6
					C36.7,111.7,35.3,112,33.9,112z"/>
				<path class="st0" d="M49.2,112c-0.6,0-1.2-0.2-1.6-0.7c-0.4-0.5-0.6-1.2-0.5-1.9c0-0.2,0-0.4,0.1-0.6c0-0.2,0.1-0.4,0.1-0.7
					l1.9-11.1h-2.7v-0.2l3.1-1.1l2.3-3.8H52l-0.7,3.8h4.2v1.3h-4.5l-1.7,9.7c0,0.3-0.1,0.6-0.1,0.9c0,0.2-0.1,0.5-0.1,0.7
					c0,0.4,0.1,0.8,0.3,1.2c0.2,0.2,0.5,0.4,0.8,0.3c0.7-0.1,1.3-0.4,1.8-0.9c0.7-0.8,1.3-1.7,1.7-2.8l0.5,0.2
					c-0.5,1.6-1.3,3-2.4,4.2C51.2,111.5,50.2,112,49.2,112z"/>
				<path class="st0" d="M59.7,112c-0.6,0-1.2-0.3-1.5-0.9c-0.3-0.9-0.3-1.8-0.1-2.7l1.9-11l-2.6-0.7v-0.3l4.7-0.9h0.3l-2.1,11.9
					c-0.2,0.6-0.2,1.3-0.1,1.9c0,0.3,0.3,0.6,0.6,0.5c0.9,0,1.8-0.9,2.7-2.8l0.5,0.2c-0.5,1.3-1.2,2.5-2.1,3.5
					C61.3,111.6,60.5,112,59.7,112z M62.3,90.5c-0.4,0-0.8-0.2-1.1-0.5c-0.3-0.3-0.5-0.7-0.5-1.1c0-0.8,0.7-1.5,1.5-1.5
					c0.4,0,0.8,0.2,1.1,0.5c0.3,0.3,0.5,0.7,0.5,1.1C63.9,89.8,63.2,90.5,62.3,90.5C62.3,90.5,62.3,90.5,62.3,90.5z"/>
				<path class="st0" d="M68.7,112c-0.6,0-1.2-0.3-1.4-0.9c-0.3-0.9-0.3-1.8-0.1-2.7l3.7-21.1l-2.6-0.7v-0.3l4.7-0.9h0.3l-4,22.1
					c-0.2,0.6-0.2,1.3-0.1,1.9c0,0.3,0.3,0.6,0.6,0.5c0.5,0,1-0.3,1.4-0.7c0.6-0.6,1-1.3,1.3-2.1l0.5,0.2c-0.5,1.3-1.2,2.5-2.1,3.5
					C70.4,111.6,69.5,112,68.7,112z"/>
				<path class="st0" d="M77.6,112c-0.6,0-1.2-0.3-1.4-0.9c-0.3-0.9-0.3-1.8-0.1-2.7l3.7-21.1l-2.6-0.7v-0.3l4.7-0.9h0.3l-4,22.1
					c-0.2,0.6-0.2,1.3-0.1,1.9c0,0.3,0.3,0.6,0.6,0.5c0.5,0,1-0.3,1.4-0.7c0.6-0.6,1-1.3,1.3-2.1l0.5,0.2c-0.5,1.3-1.2,2.5-2.1,3.5
					C79.3,111.6,78.5,112,77.6,112z"/>
				<path class="st0" d="M95.2,112c-0.6,0-1.2-0.3-1.5-0.9c-0.3-0.9-0.3-1.8-0.1-2.7l1.9-11L93,96.8v-0.3l4.7-0.9H98l-2.1,11.9
					c-0.2,0.6-0.2,1.3-0.1,1.9c0,0.3,0.3,0.6,0.6,0.5c0.9,0,1.8-0.9,2.7-2.8l0.5,0.2c-0.5,1.3-1.2,2.5-2.1,3.5
					C96.9,111.6,96.1,112,95.2,112z M97.9,90.5c-0.4,0-0.8-0.2-1.1-0.5c-0.3-0.3-0.5-0.7-0.5-1.1c0-0.8,0.7-1.5,1.5-1.5
					c0.4,0,0.8,0.2,1.1,0.5c0.3,0.3,0.5,0.7,0.5,1.1C99.4,89.8,98.8,90.5,97.9,90.5C97.9,90.5,97.9,90.5,97.9,90.5z"/>
				<path class="st0" d="M102.2,111.7l2.5-14.1l-2.4-0.7v-0.3l4.2-0.9h0.2l-0.2,3.8h0.1c0.7-0.8,1.4-1.5,2.2-2.2
					c0.5-0.5,1.2-0.9,1.8-1.2c0.6-0.3,1.3-0.4,1.9-0.4c1-0.1,2,0.5,2.6,1.3c0.6,1.2,0.8,2.6,0.4,3.8l-1.2,6.8
					c-0.2,0.6-0.2,1.3-0.1,1.9c0,0.3,0.3,0.6,0.6,0.5c0.9,0,1.8-0.9,2.7-2.8l0.5,0.2c-0.4,1.3-1.1,2.5-2,3.5c-0.6,0.7-1.4,1-2.3,1.1
					c-0.6,0-1.2-0.3-1.4-0.9c-0.3-0.9-0.3-1.8-0.1-2.7l1.4-7.8c0.2-0.8,0.1-1.6-0.2-2.4c-0.4-0.7-1.1-1.1-1.9-1
					c-0.6,0-1.2,0.2-1.8,0.5c-0.6,0.4-1.2,0.8-1.7,1.3c-0.6,0.5-1.1,1-1.6,1.6l-1.9,11.1L102.2,111.7z"/>
				<path class="st0" d="M127.6,111.7l0.1-0.5l2.7-1l3.5-20.1l-2.4-1l0.1-0.5h14.9l-1,5.8h-0.6l-0.8-4.5h-7.8l-1.6,9.1h5.5l1.7-2.9
					h0.6l-1.3,7.2h-0.6l-0.7-2.9h-5.5l-1.7,9.7l2.9,1l-0.1,0.5L127.6,111.7z"/>
				<path class="st0" d="M148.3,111.7l2.5-14.1l-2.5-0.7v-0.3l4.3-0.9h0.1l-0.3,4.1h0.1c0.6-1,1.2-1.9,2-2.7
					c0.4-0.5,0.9-0.8,1.5-1.1c0.4-0.2,0.8-0.3,1.2-0.3c0.4,0,0.8,0.1,1.1,0.3c0.3,0.2,0.4,0.4,0.5,0.7c0,0.1,0,0.3-0.1,0.4l-0.7,1.3
					h-0.1l-0.5-0.3c-0.3-0.2-0.7-0.3-1.1-0.3c-0.7,0-1.4,0.3-1.9,0.8c-0.9,0.9-1.6,1.8-2.3,2.9l-1.8,10.3L148.3,111.7z"/>
				<path class="st0" d="M164.4,112c-1.5,0.1-2.9-0.5-3.9-1.6c-0.9-1.2-1.3-2.7-1.2-4.2c0-1.4,0.2-2.7,0.7-4
					c0.4-1.2,1.1-2.4,1.9-3.4c0.8-1,1.7-1.8,2.8-2.4c1-0.6,2.1-0.9,3.2-0.9c1-0.1,1.9,0.2,2.7,0.8c0.5,0.5,0.9,1.2,0.9,1.9
					c0,0.8-0.4,1.5-1,2.1c-0.9,0.8-2,1.4-3.2,1.7c-1.9,0.6-3.9,1-5.9,1.3c-0.1,0.7-0.1,1.4-0.1,2.1c-0.1,1.3,0.3,2.6,1.1,3.7
					c0.7,0.9,1.9,1.4,3,1.3c1.9,0,3.5-1.1,4.9-3.3h0.1l0.3,0.2c-0.6,1.3-1.5,2.4-2.5,3.3C167.1,111.6,165.8,112,164.4,112z
					 M167.2,96.6c-1.3,0-2.6,0.6-3.5,1.6c-1.1,1.2-1.8,2.7-2.1,4.4c2.1-0.2,4.1-0.8,6-1.6c1.1-0.4,1.8-1.4,1.8-2.5
					c0-0.5-0.2-1-0.5-1.3C168.4,96.7,167.8,96.5,167.2,96.6z"/>
				<path class="st0" d="M179.2,112c-1.5,0.1-2.9-0.5-3.9-1.6c-0.9-1.2-1.3-2.7-1.2-4.2c0-1.4,0.2-2.7,0.7-4
					c0.4-1.2,1.1-2.4,1.9-3.4c0.8-1,1.7-1.8,2.8-2.4c1-0.6,2.1-0.9,3.2-0.9c1-0.1,1.9,0.2,2.7,0.8c0.5,0.5,0.9,1.2,0.9,1.9
					c0,0.8-0.4,1.5-1,2.1c-0.9,0.8-2,1.4-3.2,1.7c-1.9,0.6-3.9,1-5.9,1.3c-0.1,0.7-0.1,1.4-0.1,2.1c-0.1,1.3,0.3,2.6,1.1,3.7
					c0.7,0.9,1.9,1.4,3,1.3c1.9,0,3.5-1.1,4.9-3.3h0.1l0.3,0.2c-0.6,1.3-1.5,2.4-2.5,3.3C181.9,111.6,180.6,112,179.2,112z
					 M182,96.6c-1.3,0-2.6,0.6-3.5,1.6c-1.1,1.2-1.8,2.7-2.1,4.4c2.1-0.2,4.1-0.8,6-1.6c1.1-0.4,1.8-1.4,1.8-2.5
					c0-0.5-0.2-1-0.5-1.3C183.2,96.7,182.6,96.5,182,96.6z"/>
				<path class="st0" d="M192,112c-0.6,0-1.2-0.2-1.6-0.7c-0.4-0.5-0.6-1.2-0.5-1.9c0-0.2,0-0.4,0.1-0.6c0-0.2,0.1-0.4,0.1-0.7
					l1.9-11.1h-2.7v-0.2l3.1-1.1l2.3-3.8h0.2l-0.7,3.8h4.2v1.3h-4.5l-1.7,9.7c0,0.3-0.1,0.6-0.1,0.9c0,0.2-0.1,0.5-0.1,0.7
					c0,0.4,0.1,0.8,0.3,1.2c0.2,0.2,0.5,0.4,0.8,0.3c0.7-0.1,1.3-0.4,1.8-0.9c0.7-0.8,1.3-1.7,1.7-2.8l0.5,0.2
					c-0.5,1.6-1.3,3-2.4,4.2C194,111.5,193,112,192,112z"/>
				<path class="st0" d="M205.4,112c-1.6,0.1-3.1-0.6-4.1-1.8c-1-1.3-1.5-3-1.4-4.6c0-1.3,0.2-2.5,0.6-3.7c0.4-1.2,1-2.2,1.7-3.2
					c0.7-0.9,1.6-1.7,2.6-2.3c1-0.6,2.1-0.8,3.2-0.8c1.6-0.1,3.1,0.6,4.1,1.8c1,1.4,1.5,3,1.4,4.7c0,1.2-0.2,2.4-0.6,3.5
					c-0.4,1.2-0.9,2.3-1.7,3.2c-0.7,1-1.6,1.8-2.6,2.4C207.7,111.7,206.6,112,205.4,112z M205.8,111c1.1,0,2.1-0.4,2.8-1.2
					c0.9-0.9,1.5-2,1.9-3.2c0.5-1.4,0.7-3,0.7-4.5c0.1-1.4-0.2-2.8-0.9-4c-0.6-1-1.7-1.6-2.8-1.5c-1.1,0-2.1,0.4-2.9,1.2
					c-0.9,0.9-1.6,2-1.9,3.1c-0.5,1.5-0.7,3-0.7,4.5c-0.1,1.4,0.2,2.8,0.9,4.1C203.6,110.5,204.7,111.1,205.8,111z"/>
				<path class="st0" d="M220.8,111.8L218,97.5l-2.6-0.7v-0.3l4.2-0.9h0.1l2.2,12.7h0.1l5.6-12.4h0.4l2.6,12.7h0.1l2.4-4.6
					c0.7-1.2,1.1-2.3,1.5-3c0.3-0.6,0.5-1.3,0.5-2c0-0.3-0.1-0.7-0.2-0.9c-0.2-0.2-0.4-0.4-0.6-0.6l-0.5-0.3V97l0.6-0.9
					c0.1-0.2,0.2-0.3,0.4-0.5c0.1-0.1,0.3-0.1,0.4-0.1c0.5,0,1,0.3,1.2,0.8c0.3,0.5,0.5,1.1,0.5,1.7c0,0.7-0.2,1.3-0.5,1.9
					c-0.5,1.1-1,2.2-1.7,3.2l-4.9,8.5h-0.5l-2.5-11.6l-5.7,11.6L220.8,111.8z"/>
				<path class="st0" d="M238.9,111.7l2.5-14.1l-2.4-0.7v-0.3l4.2-0.9h0.2l-0.2,3.8h0.1c0.7-0.8,1.4-1.5,2.2-2.2
					c0.5-0.5,1.2-0.9,1.8-1.2c0.6-0.3,1.3-0.4,1.9-0.4c1-0.1,2,0.5,2.6,1.3c0.6,1.2,0.8,2.6,0.4,3.8l-1.2,6.8
					c-0.2,0.6-0.2,1.3-0.1,1.9c0,0.3,0.3,0.6,0.6,0.5c0.9,0,1.8-0.9,2.7-2.8l0.5,0.2c-0.4,1.3-1.1,2.5-2,3.5c-0.6,0.7-1.4,1-2.3,1.1
					c-0.6,0-1.2-0.3-1.4-0.9c-0.3-0.9-0.3-1.8-0.1-2.7l1.4-7.8c0.2-0.8,0.1-1.6-0.2-2.4c-0.4-0.7-1.1-1.1-1.9-1
					c-0.6,0-1.2,0.2-1.8,0.5c-0.6,0.4-1.2,0.8-1.7,1.3c-0.6,0.5-1.1,1-1.6,1.6l-1.9,11.1L238.9,111.7z"/>
				<path class="st0" d="M255.3,118.2v-0.6c1-0.5,1.9-1.1,2.6-2c0.5-0.6,0.8-1.3,0.8-2.1c0-0.4-0.1-0.9-0.3-1.3
					c-0.2-0.4-0.5-0.7-0.8-0.9l-0.9-0.6v-0.3l0.6-0.8c0.3-0.5,0.6-0.7,0.9-0.7c0.3,0,0.5,0.1,0.7,0.3c1,0.7,1.6,1.8,1.6,3.1
					c0,1.2-0.5,2.3-1.3,3.1C258.1,116.6,256.7,117.5,255.3,118.2z"/>
				<path class="st0" d="M10.5,151.8l-2.8-14.3l-2.6-0.7v-0.3l4.2-0.9h0.1l2.2,12.7h0.1l5.6-12.4h0.4l2.6,12.7h0.1l2.5-4.6
					c0.7-1.2,1.1-2.3,1.5-3c0.3-0.6,0.5-1.3,0.5-2c0-0.3-0.1-0.7-0.2-0.9c-0.2-0.2-0.4-0.4-0.6-0.6l-0.5-0.3V137l0.6-0.9
					c0.1-0.2,0.2-0.3,0.4-0.5c0.1-0.1,0.3-0.1,0.4-0.1c0.5,0,1,0.3,1.2,0.8c0.3,0.5,0.5,1.1,0.5,1.7c0,0.7-0.2,1.3-0.5,1.9
					c-0.5,1.1-1,2.2-1.7,3.2l-4.9,8.5h-0.5l-2.5-11.6L11,151.8L10.5,151.8z"/>
				<path class="st0" d="M33.7,152c-1.5,0.1-2.9-0.5-3.9-1.6c-0.9-1.2-1.3-2.7-1.2-4.2c0-1.4,0.2-2.7,0.7-4c0.4-1.2,1.1-2.4,1.9-3.4
					c0.8-1,1.7-1.8,2.8-2.4c1-0.6,2.1-0.9,3.2-0.9c1-0.1,1.9,0.2,2.7,0.8c0.5,0.5,0.9,1.2,0.9,1.9c0,0.8-0.4,1.5-1,2.1
					c-0.9,0.8-2,1.4-3.2,1.7c-1.9,0.6-3.9,1-5.9,1.3c-0.1,0.7-0.1,1.4-0.1,2.1c-0.1,1.3,0.3,2.6,1,3.7c0.7,0.9,1.9,1.4,3,1.3
					c1.9,0,3.5-1.1,4.9-3.3h0.1l0.3,0.2c-0.6,1.3-1.5,2.4-2.5,3.3C36.4,151.6,35.1,152,33.7,152z M36.5,136.6
					c-1.3,0-2.6,0.6-3.5,1.6c-1.1,1.2-1.8,2.7-2.1,4.4c2.1-0.2,4.1-0.8,6-1.6c1.1-0.4,1.8-1.4,1.8-2.5c0-0.5-0.2-1-0.5-1.3
					C37.7,136.7,37.1,136.5,36.5,136.6L36.5,136.6z"/>
				<path class="st0" d="M46.6,152c-0.9,0-1.8-0.4-2.3-1.2c-0.7-1-1-2.3-0.9-3.5c0-1.4,0.3-2.8,0.7-4.1c0.5-1.4,1.1-2.6,2-3.8
					c0.8-1.1,1.7-2,2.9-2.8c1-0.7,2.2-1,3.4-1.1c0.6,0,1.1,0.1,1.7,0.3c0.5,0.2,1,0.4,1.5,0.7l0.9-0.8h0.5l-2.1,11.8
					c-0.2,0.6-0.2,1.3-0.1,1.9c0,0.3,0.3,0.6,0.6,0.5c1,0,1.9-0.9,2.7-2.8l0.5,0.2c-0.5,1.3-1.2,2.5-2.1,3.5c-0.6,0.6-1.4,1-2.2,1.1
					c-0.6,0-1.2-0.3-1.5-0.9c-0.3-0.9-0.3-1.8-0.1-2.7l0.1-0.7h-0.1c-0.9,1.2-1.9,2.3-3.1,3.2C48.8,151.6,47.7,152,46.6,152z
					 M45.5,146.6c0,2.4,0.8,3.7,2.3,3.7c0.7,0,1.3-0.2,1.9-0.6c0.7-0.4,1.3-0.9,1.8-1.5c0.6-0.6,1.1-1.2,1.6-1.9l1.4-8.2
					c-0.4-0.4-0.8-0.8-1.3-1.1c-0.5-0.3-1.1-0.4-1.7-0.4c-0.9,0-1.8,0.3-2.5,0.8c-0.8,0.6-1.4,1.4-1.9,2.3c-0.6,1-1,2.1-1.2,3.2
					C45.6,144.2,45.5,145.4,45.5,146.6z"/>
				<path class="st0" d="M63.8,152c-0.6,0-1.2-0.2-1.6-0.7c-0.4-0.5-0.6-1.2-0.5-1.9c0-0.2,0-0.4,0.1-0.6c0-0.2,0.1-0.4,0.1-0.7
					l1.9-11.1h-2.7v-0.2l3.1-1.1l2.3-3.8h0.2l-0.7,3.8h4.2v1.3h-4.5l-1.7,9.7c0,0.3-0.1,0.6-0.1,0.9c0,0.2-0.1,0.5-0.1,0.7
					c0,0.4,0.1,0.8,0.3,1.2c0.2,0.2,0.5,0.4,0.8,0.4c0.7-0.1,1.3-0.4,1.8-0.9c0.7-0.8,1.3-1.7,1.7-2.8l0.5,0.2
					c-0.5,1.6-1.3,3-2.4,4.2C65.8,151.5,64.9,152,63.8,152z"/>
				<path class="st0" d="M73.9,151.7h-2.1l4.3-24.3l-2.4-0.7v-0.3l4.7-0.9h0.2l-2.4,13.9h0.1c0.7-0.8,1.4-1.5,2.2-2.2
					c0.5-0.5,1.2-0.9,1.8-1.2c0.6-0.3,1.3-0.4,1.9-0.4c1-0.1,2,0.5,2.6,1.3c0.6,1.2,0.8,2.6,0.4,3.8l-1.2,6.8
					c-0.2,0.6-0.2,1.3-0.1,1.9c0,0.3,0.3,0.6,0.6,0.5c0.9,0,1.8-0.9,2.7-2.8l0.5,0.2c-0.5,1.3-1.2,2.5-2.1,3.5
					c-0.6,0.7-1.4,1-2.2,1.1c-0.6,0-1.2-0.3-1.4-0.9c-0.3-0.9-0.3-1.8-0.1-2.7l1.4-7.8c0.2-0.8,0.1-1.6-0.2-2.4
					c-0.4-0.7-1.1-1.1-1.9-1c-1,0-1.9,0.4-2.6,1.1c-0.9,0.7-1.7,1.5-2.4,2.3L73.9,151.7z"/>
				<path class="st0" d="M94.9,152c-1.5,0.1-2.9-0.5-3.9-1.6c-0.9-1.2-1.3-2.7-1.2-4.2c0-1.4,0.2-2.7,0.7-4c0.4-1.2,1.1-2.4,1.9-3.4
					c0.8-1,1.7-1.8,2.8-2.4c1-0.6,2.1-0.9,3.2-0.9c1-0.1,1.9,0.2,2.7,0.8c0.5,0.5,0.9,1.2,0.9,1.9c0,0.8-0.4,1.5-1,2.1
					c-0.9,0.8-2,1.4-3.2,1.7c-1.9,0.6-3.9,1-5.9,1.3c-0.1,0.7-0.1,1.4-0.1,2.1c-0.1,1.3,0.3,2.6,1,3.7c0.7,0.9,1.9,1.4,3,1.3
					c1.9,0,3.5-1.1,4.9-3.3h0.1l0.3,0.2c-0.6,1.3-1.5,2.4-2.5,3.3C97.5,151.6,96.2,152,94.9,152z M97.6,136.6
					c-1.3,0-2.6,0.6-3.5,1.6c-1.1,1.2-1.8,2.7-2.1,4.4c2.1-0.2,4.1-0.8,6-1.6c1.1-0.4,1.8-1.4,1.8-2.5c0-0.5-0.2-1-0.5-1.3
					C98.9,136.7,98.3,136.5,97.6,136.6z"/>
				<path class="st0" d="M105.2,151.7l2.5-14.1l-2.5-0.7v-0.3l4.3-0.9h0.1l-0.3,4.1h0.1c0.6-1,1.2-1.9,2-2.7
					c0.4-0.5,0.9-0.8,1.5-1.1c0.4-0.2,0.8-0.3,1.2-0.3c0.4,0,0.8,0.1,1.1,0.3c0.3,0.2,0.4,0.4,0.5,0.7c0,0.1,0,0.3-0.1,0.4l-0.7,1.3
					h-0.1l-0.5-0.3c-0.3-0.2-0.7-0.3-1.1-0.3c-0.7,0-1.4,0.3-1.9,0.8c-0.9,0.9-1.6,1.8-2.3,2.9l-1.8,10.3L105.2,151.7z"/>
				<path class="st0" d="M129.4,151.8l-2.8-14.3l-2.6-0.7v-0.3l4.2-0.9h0.1l2.2,12.7h0.1l5.6-12.4h0.4l2.6,12.7h0.1l2.4-4.6
					c0.7-1.2,1.1-2.3,1.5-3c0.3-0.6,0.5-1.3,0.5-2c0-0.3-0.1-0.7-0.2-0.9c-0.2-0.2-0.4-0.4-0.6-0.6l-0.5-0.3V137l0.6-0.9
					c0.1-0.2,0.2-0.3,0.4-0.5c0.1-0.1,0.3-0.1,0.4-0.1c0.5,0,1,0.3,1.2,0.8c0.3,0.5,0.5,1.1,0.5,1.7c0,0.7-0.2,1.3-0.5,1.9
					c-0.5,1.1-1,2.2-1.7,3.2l-4.9,8.5h-0.5l-2.5-11.6l-5.7,11.6L129.4,151.8z"/>
				<path class="st0" d="M150.7,152c-0.9,0-1.8-0.4-2.3-1.2c-0.7-1-1-2.3-0.9-3.5c0-1.4,0.3-2.8,0.7-4.1c0.5-1.4,1.1-2.6,2-3.8
					c0.8-1.1,1.7-2,2.9-2.8c1-0.7,2.2-1,3.4-1.1c0.6,0,1.1,0.1,1.7,0.3c0.5,0.2,1,0.4,1.5,0.7l0.9-0.8h0.5l-2.1,11.8
					c-0.2,0.6-0.2,1.3-0.1,1.9c0,0.3,0.3,0.6,0.6,0.5c1,0,1.9-0.9,2.7-2.8l0.5,0.2c-0.5,1.3-1.2,2.5-2.1,3.5c-0.6,0.6-1.4,1-2.2,1.1
					c-0.6,0-1.2-0.3-1.5-0.9c-0.3-0.9-0.3-1.8-0.1-2.7l0.1-0.7h-0.1c-0.9,1.2-1.9,2.3-3.1,3.2C152.9,151.6,151.8,152,150.7,152z
					 M149.6,146.6c0,2.4,0.8,3.7,2.3,3.7c0.7,0,1.3-0.2,1.9-0.6c0.7-0.4,1.3-0.9,1.8-1.5c0.6-0.6,1.1-1.2,1.6-1.9l1.4-8.2
					c-0.4-0.4-0.8-0.8-1.3-1.1c-0.5-0.3-1.1-0.4-1.7-0.4c-0.9,0-1.8,0.3-2.5,0.8c-0.8,0.6-1.4,1.4-1.9,2.3c-0.6,1-1,2.1-1.2,3.2
					C149.7,144.2,149.6,145.4,149.6,146.6L149.6,146.6z"/>
				<path class="st0" d="M165.6,151.7l2.5-14.1l-2.5-0.7v-0.3l4.3-0.9h0.1l-0.3,4.1h0.1c0.6-1,1.2-1.9,2-2.7
					c0.4-0.5,0.9-0.8,1.5-1.1c0.4-0.2,0.8-0.3,1.2-0.3c0.4,0,0.8,0.1,1.1,0.3c0.3,0.2,0.4,0.4,0.5,0.7c0,0.1,0,0.3-0.1,0.4l-0.7,1.3
					h-0.1l-0.5-0.3c-0.3-0.2-0.7-0.3-1.1-0.3c-0.7,0-1.4,0.3-1.9,0.8c-0.9,0.9-1.6,1.8-2.3,2.9l-1.8,10.3L165.6,151.7z"/>
				<path class="st0" d="M177.2,151.7l2.5-14.1l-2.4-0.7v-0.3l4.2-0.9h0.2l-0.2,3.8h0.1c0.7-0.8,1.4-1.5,2.1-2.2
					c0.5-0.5,1.1-0.9,1.8-1.2c0.6-0.3,1.2-0.4,1.9-0.4c0.9,0,1.7,0.3,2.2,1c0.6,0.8,0.8,1.8,0.7,2.8h0.1c0.8-0.9,1.5-1.6,2.1-2.2
					c0.5-0.5,1.1-0.9,1.8-1.2c0.6-0.3,1.2-0.4,1.9-0.4c1-0.1,2,0.5,2.5,1.3c0.6,1.2,0.7,2.6,0.3,3.8l-1.2,6.8
					c-0.2,0.6-0.2,1.3-0.1,1.9c0,0.3,0.3,0.6,0.6,0.5c0.9,0,1.8-0.9,2.7-2.8l0.5,0.2c-0.5,1.3-1.2,2.5-2.1,3.5
					c-0.6,0.7-1.4,1-2.2,1.1c-0.6,0-1.2-0.3-1.4-0.9c-0.3-0.9-0.3-1.8-0.1-2.7l1.4-7.8c0.2-0.8,0.1-1.6-0.1-2.4
					c-0.3-0.7-1.1-1.1-1.8-1c-0.9,0-1.8,0.4-2.5,1.1c-0.8,0.7-1.6,1.5-2.3,2.3l0,0.2l-2,10.9h-2l1.9-11.1c0.2-0.8,0.1-1.6-0.1-2.4
					c-0.3-0.7-1-1.1-1.8-1c-0.9,0-1.8,0.4-2.5,1.1c-0.8,0.7-1.6,1.5-2.3,2.3l-1.9,11.1L177.2,151.7z"/>
				<path class="st0" d="M215.5,152c-0.9,0-1.8-0.4-2.3-1.2c-0.7-1-1-2.3-0.9-3.5c0-1.4,0.3-2.8,0.7-4.1c0.5-1.4,1.1-2.6,2-3.8
					c0.8-1.1,1.7-2,2.9-2.8c1-0.7,2.2-1,3.4-1.1c0.6,0,1.1,0.1,1.7,0.3c0.5,0.2,1,0.4,1.5,0.7l0.9-0.8h0.5l-2.1,11.8
					c-0.2,0.6-0.2,1.3-0.1,1.9c0,0.3,0.3,0.6,0.6,0.5c1,0,1.9-0.9,2.7-2.8l0.5,0.2c-0.5,1.3-1.2,2.5-2.1,3.5c-0.6,0.6-1.4,1-2.2,1.1
					c-0.6,0-1.2-0.3-1.5-0.9c-0.3-0.9-0.3-1.8-0.1-2.7l0.1-0.7h-0.1c-0.9,1.2-1.9,2.3-3.1,3.2C217.7,151.6,216.6,152,215.5,152z
					 M214.3,146.6c0,2.4,0.8,3.7,2.3,3.7c0.7,0,1.3-0.2,1.9-0.6c0.7-0.4,1.3-0.9,1.8-1.5c0.6-0.6,1.1-1.2,1.6-1.9l1.4-8.2
					c-0.4-0.4-0.8-0.8-1.3-1.1c-0.5-0.3-1.1-0.4-1.7-0.4c-0.9,0-1.8,0.3-2.5,0.8c-0.8,0.6-1.4,1.4-1.9,2.3c-0.6,1-1,2.1-1.2,3.2
					C214.5,144.2,214.3,145.4,214.3,146.6L214.3,146.6z"/>
				<path class="st0" d="M229.8,151.7l2.5-14.1l-2.4-0.7v-0.3l4.2-0.9h0.2l-0.2,3.8h0.1c0.7-0.8,1.4-1.5,2.2-2.2
					c0.5-0.5,1.2-0.9,1.8-1.2c0.6-0.3,1.3-0.4,1.9-0.4c1-0.1,2,0.5,2.6,1.3c0.6,1.2,0.8,2.6,0.4,3.8l-1.2,6.8
					c-0.2,0.6-0.2,1.3-0.1,1.9c0,0.3,0.3,0.6,0.6,0.5c0.9,0,1.8-0.9,2.7-2.8l0.5,0.2c-0.4,1.3-1.1,2.5-2,3.5c-0.6,0.6-1.4,1-2.3,1.1
					c-0.6,0-1.2-0.3-1.4-0.9c-0.3-0.9-0.3-1.8-0.1-2.7l1.4-7.8c0.2-0.8,0.1-1.6-0.2-2.4c-0.4-0.7-1.1-1.1-1.9-1
					c-0.6,0-1.2,0.2-1.8,0.5c-0.6,0.4-1.2,0.8-1.7,1.3c-0.6,0.5-1.1,1-1.6,1.6l-1.9,11.1L229.8,151.7z"/>
				<path class="st0" d="M251,152c-0.9,0-1.8-0.4-2.3-1.2c-0.7-1-1-2.3-0.9-3.5c0-1.4,0.2-2.8,0.7-4.1c0.5-1.4,1.1-2.6,2-3.8
					c0.8-1.1,1.8-2,2.9-2.8c1-0.7,2.2-1,3.4-1.1c0.4,0,0.9,0.1,1.3,0.2c0.4,0.1,0.8,0.2,1.2,0.4l1.5-8.8l-2.8-0.7v-0.3l5-0.9h0.2
					l-3.9,22.1c-0.2,0.6-0.2,1.3-0.1,1.9c0,0.3,0.3,0.6,0.6,0.5c0.9,0,1.8-0.9,2.7-2.8l0.5,0.2c-0.4,1.3-1.1,2.5-2,3.5
					c-0.6,0.7-1.4,1-2.3,1.1c-0.6,0-1.2-0.3-1.4-0.9c-0.3-0.9-0.3-1.8-0.1-2.7l0.1-0.7h-0.1c-0.9,1.2-2,2.3-3.1,3.3
					C253.1,151.6,252.1,152,251,152z M249.8,146.6c-0.1,1,0.1,1.9,0.6,2.8c0.4,0.6,1,0.9,1.7,0.9c1-0.1,1.9-0.4,2.6-1.1
					c1-0.8,1.9-1.8,2.6-2.8l1.4-8.3c-0.4-0.4-0.8-0.8-1.3-1.1c-0.5-0.3-1.1-0.4-1.6-0.4c-0.9,0-1.7,0.3-2.4,0.8
					c-0.8,0.6-1.4,1.4-1.9,2.2c-0.6,1-1,2.1-1.2,3.2C250,144.1,249.8,145.4,249.8,146.6z"/>
				<path class="st0" d="M31.5,192c-0.9,0-1.8-0.4-2.3-1.2c-0.7-1-1-2.3-0.9-3.5c0-1.4,0.3-2.8,0.7-4.1c0.5-1.4,1.1-2.6,2-3.8
					c0.8-1.1,1.7-2,2.9-2.8c1-0.7,2.2-1,3.4-1.1c0.6,0,1.1,0.1,1.7,0.3c0.5,0.2,1,0.4,1.5,0.7l0.9-0.8h0.5l-2.1,11.8
					c-0.2,0.6-0.2,1.3-0.1,1.9c0,0.3,0.3,0.6,0.6,0.5c1,0,1.9-0.9,2.7-2.8l0.5,0.2c-0.5,1.3-1.2,2.5-2.1,3.5c-0.6,0.6-1.4,1-2.2,1.1
					c-0.6,0-1.2-0.3-1.5-0.9c-0.3-0.9-0.3-1.8-0.1-2.7l0.1-0.7h-0.1c-0.9,1.2-1.9,2.3-3.1,3.2C33.6,191.6,32.6,192,31.5,192z
					 M30.3,186.6c0,2.4,0.8,3.7,2.3,3.7c0.7,0,1.3-0.2,1.9-0.6c0.7-0.4,1.3-0.9,1.8-1.5c0.6-0.6,1.1-1.2,1.6-1.9l1.4-8.2
					c-0.4-0.4-0.8-0.8-1.3-1.1c-0.5-0.3-1.1-0.4-1.7-0.4c-0.9,0-1.8,0.3-2.5,0.8c-0.8,0.6-1.4,1.4-1.9,2.3c-0.6,1-1,2.1-1.2,3.2
					C30.4,184.2,30.3,185.4,30.3,186.6z"/>
				<path class="st0" d="M47.8,192c-0.6,0-1.2-0.3-1.4-0.9c-0.3-0.9-0.3-1.8-0.1-2.7l3.7-21.1l-2.6-0.7v-0.3l4.7-0.9h0.3l-4,22.1
					c-0.2,0.6-0.2,1.3-0.1,1.9c0,0.3,0.3,0.6,0.6,0.5c0.5,0,1-0.3,1.4-0.7c0.6-0.6,1-1.3,1.3-2.1l0.5,0.2c-0.5,1.3-1.2,2.5-2.1,3.5
					C49.5,191.6,48.7,192,47.8,192z"/>
				<path class="st0" d="M56.8,192c-0.6,0-1.2-0.3-1.4-0.9c-0.3-0.9-0.3-1.8-0.1-2.7l3.7-21.1l-2.6-0.7v-0.3l4.7-0.9h0.3l-4,22.1
					c-0.2,0.6-0.2,1.3-0.1,1.9c0,0.3,0.3,0.6,0.7,0.5c0.5,0,1-0.3,1.4-0.7c0.6-0.6,1-1.3,1.3-2.1l0.5,0.2c-0.5,1.3-1.2,2.5-2.1,3.5
					C58.5,191.6,57.7,192,56.8,192z"/>
				<path class="st0" d="M76.7,191.8l-2.8-14.3l-2.6-0.7v-0.3l4.2-0.9h0.1l2.2,12.7h0.1l5.6-12.4h0.4l2.6,12.7h0.1l2.4-4.6
					c0.7-1.2,1.1-2.3,1.5-3c0.3-0.6,0.5-1.3,0.5-2c0-0.3-0.1-0.7-0.2-0.9c-0.2-0.2-0.4-0.4-0.6-0.6l-0.5-0.3v-0.1l0.6-0.9
					c0.1-0.2,0.2-0.3,0.4-0.5c0.1-0.1,0.3-0.1,0.4-0.1c0.5,0,1,0.3,1.2,0.8c0.3,0.5,0.5,1.1,0.5,1.7c0,0.7-0.2,1.3-0.5,1.9
					c-0.5,1.1-1,2.2-1.7,3.2l-4.9,8.5h-0.5l-2.5-11.6l-5.7,11.6L76.7,191.8z"/>
				<path class="st0" d="M100,192c-1.5,0.1-2.9-0.5-3.9-1.6c-0.9-1.2-1.3-2.7-1.2-4.2c0-1.4,0.2-2.7,0.7-4c0.4-1.2,1.1-2.4,1.9-3.4
					c0.8-1,1.7-1.8,2.8-2.4c1-0.6,2.1-0.9,3.2-0.9c1-0.1,1.9,0.2,2.7,0.8c0.5,0.5,0.9,1.2,0.9,1.9c0,0.8-0.4,1.5-1,2.1
					c-0.9,0.8-2,1.4-3.2,1.7c-1.9,0.6-3.9,1-5.9,1.3c-0.1,0.7-0.1,1.4-0.1,2.1c-0.1,1.3,0.3,2.6,1.1,3.7c0.7,0.9,1.9,1.4,3,1.3
					c1.9,0,3.5-1.1,4.9-3.3h0.1l0.3,0.2c-0.6,1.3-1.5,2.4-2.5,3.3C102.6,191.6,101.3,192,100,192z M102.7,176.6
					c-1.3,0-2.6,0.6-3.5,1.6c-1.1,1.2-1.8,2.7-2.1,4.4c2.1-0.2,4.1-0.8,6-1.6c1.1-0.4,1.8-1.4,1.8-2.5c0-0.5-0.2-1-0.5-1.3
					C103.9,176.7,103.3,176.5,102.7,176.6z"/>
				<path class="st0" d="M111.9,192c-0.6,0-1.2-0.3-1.4-0.9c-0.3-0.9-0.3-1.8-0.1-2.7l3.7-21.1l-2.6-0.7v-0.3l4.7-0.9h0.3l-4,22.1
					c-0.2,0.6-0.2,1.3-0.1,1.9c0,0.3,0.3,0.6,0.6,0.5c0.5,0,1-0.3,1.4-0.7c0.6-0.6,1-1.3,1.3-2.1l0.5,0.2c-0.5,1.3-1.2,2.5-2.1,3.5
					C113.5,191.6,112.7,192,111.9,192z"/>
				<path class="st0" d="M120.8,192c-0.6,0-1.2-0.3-1.4-0.9c-0.3-0.9-0.3-1.8-0.1-2.7l3.7-21.1l-2.6-0.7v-0.3l4.7-0.9h0.3l-4,22.1
					c-0.2,0.6-0.2,1.3-0.1,1.9c0,0.3,0.3,0.6,0.6,0.5c0.5,0,1-0.3,1.4-0.7c0.6-0.6,1-1.3,1.3-2.1l0.5,0.2c-0.5,1.3-1.2,2.5-2.1,3.5
					C122.5,191.6,121.7,192,120.8,192z"/>
				<path class="st0" d="M129.1,191.9c-0.4,0-0.8-0.1-1.1-0.4c-0.3-0.3-0.4-0.7-0.4-1.1c0-0.5,0.2-1,0.5-1.4
					c0.3-0.4,0.9-0.7,1.4-0.6c0.4,0,0.9,0.1,1.1,0.5c0.3,0.3,0.4,0.7,0.4,1.1c0,0.5-0.2,1-0.5,1.4
					C130.1,191.7,129.6,191.9,129.1,191.9z"/>
				<path class="st0" d="M143.7,191.7l0.1-0.5l2.8-1l3.5-20.1l-2.6-1l0.1-0.5h4.7l9.6,18.5l3-17l-3.1-0.9l0.1-0.5h7.3l-0.1,0.5
					l-2.6,0.9l-3.8,21.8h-1l-10.3-19.6l-3.1,17.8l2.9,1l-0.1,0.5L143.7,191.7z"/>
				<path class="st0" d="M175.3,192c-1.6,0.1-3.1-0.6-4.1-1.8c-1-1.3-1.5-3-1.4-4.6c0-1.3,0.2-2.5,0.6-3.7c0.4-1.2,1-2.2,1.7-3.2
					c0.7-0.9,1.6-1.7,2.6-2.3c1-0.6,2.1-0.8,3.2-0.8c1.6-0.1,3.1,0.6,4.1,1.8c1,1.4,1.5,3,1.4,4.7c0,1.2-0.2,2.4-0.6,3.5
					c-0.4,1.2-0.9,2.3-1.7,3.2c-0.7,1-1.6,1.8-2.6,2.4C177.7,191.7,176.5,192,175.3,192z M175.8,191c1.1,0,2.1-0.4,2.8-1.2
					c0.9-0.9,1.5-2,1.9-3.2c0.5-1.4,0.7-3,0.7-4.5c0.1-1.4-0.2-2.8-0.9-4c-0.6-1-1.7-1.6-2.8-1.5c-1.1,0-2.1,0.4-2.9,1.2
					c-0.9,0.9-1.6,2-1.9,3.1c-0.5,1.5-0.7,3-0.7,4.5c-0.1,1.4,0.2,2.8,0.9,4.1C173.5,190.5,174.6,191.1,175.8,191z"/>
				<path class="st0" d="M197.3,192c-0.6,0-1.2-0.3-1.4-0.9c-0.3-0.9-0.3-1.8-0.1-2.7l3.7-21.1l-2.6-0.7v-0.3l4.7-0.9h0.3l-4,22.1
					c-0.2,0.6-0.2,1.3-0.1,1.9c0,0.3,0.3,0.6,0.6,0.5c0.5,0,1-0.3,1.4-0.7c0.6-0.6,1-1.3,1.3-2.1l0.5,0.2c-0.5,1.3-1.2,2.5-2.1,3.5
					C198.9,191.6,198.1,192,197.3,192z"/>
				<path class="st0" d="M209.3,192c-1.5,0.1-2.9-0.5-3.9-1.6c-0.9-1.2-1.3-2.7-1.2-4.2c0-1.4,0.2-2.7,0.7-4
					c0.4-1.2,1.1-2.4,1.9-3.4c0.8-1,1.7-1.8,2.8-2.4c1-0.6,2.1-0.9,3.2-0.9c1-0.1,1.9,0.2,2.7,0.8c0.5,0.5,0.9,1.2,0.9,1.9
					c0,0.8-0.4,1.5-1,2.1c-0.9,0.8-2,1.4-3.2,1.7c-1.9,0.6-3.9,1-5.9,1.3c-0.1,0.7-0.1,1.4-0.1,2.1c-0.1,1.3,0.3,2.6,1,3.7
					c0.7,0.9,1.9,1.4,3,1.3c1.9,0,3.5-1.1,4.9-3.3h0.1l0.3,0.2c-0.6,1.3-1.5,2.4-2.5,3.3C211.9,191.6,210.6,192,209.3,192z
					 M212.1,176.6c-1.3,0-2.6,0.6-3.5,1.6c-1.1,1.2-1.8,2.7-2.1,4.4c2.1-0.2,4.1-0.8,6-1.6c1.1-0.4,1.8-1.4,1.8-2.5
					c0-0.5-0.2-1-0.5-1.3C213.3,176.7,212.7,176.5,212.1,176.6L212.1,176.6z"/>
				<path class="st0" d="M222.2,192c-0.9,0-1.8-0.4-2.3-1.2c-0.7-1-1-2.3-0.9-3.5c0-1.4,0.3-2.8,0.7-4.1c0.5-1.4,1.1-2.6,2-3.8
					c0.8-1.1,1.7-2,2.9-2.8c1-0.7,2.2-1,3.4-1.1c0.6,0,1.1,0.1,1.7,0.3c0.5,0.2,1,0.4,1.5,0.7l0.9-0.8h0.5l-2.1,11.8
					c-0.2,0.6-0.2,1.3-0.1,1.9c0,0.3,0.3,0.6,0.6,0.5c1,0,1.9-0.9,2.7-2.8l0.5,0.2c-0.5,1.3-1.2,2.5-2.1,3.5c-0.6,0.6-1.4,1-2.2,1.1
					c-0.6,0-1.2-0.3-1.5-0.9c-0.3-0.9-0.3-1.8-0.1-2.7l0.1-0.7h-0.1c-0.9,1.2-1.9,2.3-3.1,3.2C224.3,191.6,223.3,192,222.2,192z
					 M221,186.6c0,2.4,0.8,3.7,2.3,3.7c0.7,0,1.3-0.2,1.9-0.6c0.7-0.4,1.3-0.9,1.8-1.5c0.6-0.6,1.1-1.2,1.6-1.9l1.4-8.2
					c-0.4-0.4-0.8-0.8-1.3-1.1c-0.5-0.3-1.1-0.4-1.7-0.4c-0.9,0-1.8,0.3-2.5,0.8c-0.8,0.6-1.4,1.4-1.9,2.3c-0.6,1-1,2.1-1.2,3.2
					C221.2,184.2,221,185.4,221,186.6z"/>
				<path class="st0" d="M240.7,191.8l-3-14.4l-2.6-0.6v-0.3l4.2-0.9h0.1l2.6,13.1h0.1l2.8-4.6c0.6-1,1.1-2,1.6-3
					c0.3-0.6,0.4-1.3,0.5-2c0-0.3-0.1-0.7-0.2-0.9c-0.2-0.2-0.4-0.4-0.6-0.6l-0.5-0.3v-0.1l0.6-0.9c0.1-0.2,0.2-0.3,0.4-0.5
					c0.1-0.1,0.3-0.1,0.4-0.1c0.5,0,1,0.3,1.2,0.8c0.3,0.5,0.5,1.1,0.5,1.7c0,0.7-0.2,1.3-0.5,1.9c-0.5,1.1-1.1,2.2-1.8,3.2
					l-5.3,8.5L240.7,191.8z"/>
				<path class="st0" d="M255.6,192c-1.5,0.1-2.9-0.5-3.9-1.6c-0.9-1.2-1.3-2.7-1.2-4.2c0-1.4,0.2-2.7,0.7-4
					c0.4-1.2,1.1-2.4,1.9-3.4c0.8-1,1.7-1.8,2.8-2.4c1-0.6,2.1-0.9,3.2-0.9c1-0.1,1.9,0.2,2.7,0.8c0.5,0.5,0.9,1.2,0.9,1.9
					c0,0.8-0.4,1.5-1,2.1c-0.9,0.8-2,1.4-3.2,1.7c-1.9,0.6-3.9,1-5.9,1.3c-0.1,0.7-0.1,1.4-0.1,2.1c-0.1,1.3,0.3,2.6,1.1,3.7
					c0.7,0.9,1.9,1.4,3,1.3c1.9,0,3.5-1.1,4.9-3.3h0.1l0.3,0.2c-0.6,1.3-1.5,2.4-2.5,3.3C258.2,191.6,256.9,192,255.6,192z
					 M258.4,176.6c-1.3,0-2.6,0.6-3.5,1.6c-1.1,1.2-1.8,2.7-2.1,4.4c2.1-0.2,4.1-0.8,6-1.6c1.1-0.4,1.8-1.4,1.8-2.5
					c0-0.5-0.2-1-0.5-1.3C259.6,176.7,259,176.5,258.4,176.6L258.4,176.6z"/>
				<path class="st0" d="M54.7,232c-0.9,0-1.8-0.4-2.3-1.2c-0.7-1-1-2.3-0.9-3.5c0-1.4,0.3-2.8,0.7-4.1c0.5-1.4,1.1-2.6,2-3.8
					c0.8-1.1,1.7-2,2.9-2.8c1-0.7,2.2-1,3.4-1.1c0.6,0,1.1,0.1,1.7,0.3c0.5,0.2,1,0.4,1.5,0.7l0.9-0.8h0.5L63,227.5
					c-0.2,0.6-0.2,1.3-0.1,1.9c0,0.3,0.3,0.6,0.6,0.5c1,0,1.9-0.9,2.7-2.8l0.5,0.2c-0.5,1.3-1.2,2.5-2.1,3.5c-0.6,0.6-1.4,1-2.2,1.1
					c-0.6,0-1.2-0.3-1.5-0.9c-0.3-0.9-0.3-1.8-0.1-2.7l0.1-0.7h-0.1c-0.9,1.2-1.9,2.3-3.1,3.2C56.9,231.6,55.8,232,54.7,232z
					 M53.6,226.6c0,2.4,0.8,3.7,2.3,3.7c0.7,0,1.3-0.2,1.9-0.6c0.7-0.4,1.3-0.9,1.8-1.5c0.6-0.6,1.1-1.2,1.6-1.9l1.4-8.2
					c-0.4-0.4-0.8-0.8-1.3-1.1c-0.5-0.3-1.1-0.4-1.7-0.4c-0.9,0-1.8,0.3-2.5,0.8c-0.8,0.6-1.4,1.4-1.9,2.3c-0.6,1-1,2.1-1.2,3.2
					C53.7,224.2,53.6,225.4,53.6,226.6z"/>
				<path class="st0" d="M71.1,232c-0.6,0-1.2-0.3-1.4-0.9c-0.3-0.9-0.3-1.8-0.1-2.7l3.7-21.1l-2.6-0.7v-0.3l4.7-0.9h0.3l-4,22.1
					c-0.2,0.6-0.2,1.3-0.1,1.9c0,0.3,0.3,0.6,0.6,0.5c0.5,0,1-0.3,1.4-0.7c0.6-0.6,1-1.3,1.3-2.1l0.5,0.2c-0.5,1.3-1.2,2.5-2.1,3.5
					C72.8,231.6,72,232,71.1,232z"/>
				<path class="st0" d="M80.1,232c-0.6,0-1.2-0.3-1.4-0.9c-0.3-0.9-0.3-1.8-0.1-2.7l3.7-21.1l-2.6-0.7v-0.3l4.7-0.9h0.3l-4,22.1
					c-0.2,0.6-0.2,1.3-0.1,1.9c0,0.3,0.3,0.6,0.6,0.5c0.5,0,1-0.3,1.4-0.7c0.6-0.6,1-1.3,1.3-2.1l0.5,0.2c-0.5,1.3-1.2,2.5-2.1,3.5
					C81.8,231.6,80.9,232,80.1,232z"/>
				<path class="st0" d="M92.5,232c-1.6,0.1-3.1-0.6-4.1-1.8c-1-1.3-1.5-3-1.4-4.6c0-1.3,0.2-2.5,0.6-3.7c0.4-1.2,1-2.2,1.7-3.2
					c0.7-0.9,1.6-1.7,2.6-2.3c1-0.6,2.1-0.8,3.2-0.8c1.6-0.1,3.1,0.6,4.1,1.8c1,1.4,1.5,3,1.4,4.7c0,1.2-0.2,2.4-0.6,3.5
					c-0.4,1.2-0.9,2.3-1.7,3.2c-0.7,1-1.6,1.8-2.6,2.4C94.9,231.7,93.7,232,92.5,232z M93,231c1.1,0,2.1-0.4,2.8-1.2
					c0.9-0.9,1.5-2,1.9-3.2c0.5-1.4,0.7-3,0.7-4.5c0.1-1.4-0.2-2.8-0.9-4c-0.6-1-1.7-1.6-2.8-1.5c-1.1,0-2.1,0.4-2.9,1.2
					c-0.9,0.9-1.6,2-1.9,3.1c-0.5,1.5-0.7,3-0.7,4.5c-0.1,1.4,0.2,2.8,0.9,4.1C90.7,230.5,91.8,231.1,93,231z"/>
				<path class="st0" d="M107.9,231.8l-2.8-14.3l-2.6-0.7v-0.3l4.2-0.9h0.1l2.2,12.7h0.1l5.6-12.4h0.4l2.6,12.7h0.1l2.4-4.6
					c0.7-1.2,1.1-2.3,1.5-3c0.3-0.6,0.5-1.3,0.5-2c0-0.3-0.1-0.7-0.2-0.9c-0.2-0.2-0.4-0.4-0.6-0.6l-0.5-0.3V217l0.6-0.9
					c0.1-0.2,0.2-0.3,0.4-0.5c0.1-0.1,0.3-0.1,0.4-0.1c0.5,0,1,0.3,1.2,0.8c0.3,0.5,0.5,1.1,0.5,1.7c0,0.7-0.2,1.3-0.5,1.9
					c-0.5,1.1-1,2.2-1.7,3.2l-4.9,8.5h-0.5l-2.5-11.6l-5.7,11.6L107.9,231.8z"/>
				<path class="st0" d="M131.2,232c-1.5,0.1-2.9-0.5-3.9-1.6c-0.9-1.2-1.3-2.7-1.2-4.2c0-1.4,0.2-2.7,0.7-4
					c0.4-1.2,1.1-2.4,1.9-3.4c0.8-1,1.7-1.8,2.8-2.4c1-0.6,2.1-0.9,3.2-0.9c1-0.1,1.9,0.2,2.7,0.8c0.5,0.5,0.9,1.2,0.9,1.9
					c0,0.8-0.4,1.5-1,2.1c-0.9,0.8-2,1.4-3.2,1.7c-1.9,0.6-3.9,1-5.9,1.3c-0.1,0.7-0.1,1.4-0.1,2.1c-0.1,1.3,0.3,2.6,1,3.7
					c0.7,0.9,1.9,1.4,3,1.3c1.9,0,3.5-1.1,4.9-3.3h0.1l0.3,0.2c-0.6,1.3-1.5,2.4-2.5,3.3C133.9,231.6,132.6,232,131.2,232z
					 M134,216.6c-1.3,0-2.6,0.6-3.5,1.6c-1.1,1.2-1.8,2.7-2.1,4.4c2.1-0.2,4.1-0.8,6-1.6c1.1-0.4,1.8-1.4,1.8-2.5
					c0-0.5-0.2-1-0.5-1.3C135.2,216.7,134.6,216.5,134,216.6z"/>
				<path class="st0" d="M144.1,232c-0.9,0-1.8-0.4-2.3-1.2c-0.7-1-1-2.3-0.9-3.5c0-1.4,0.2-2.8,0.7-4.1c0.5-1.4,1.1-2.6,2-3.8
					c0.8-1.1,1.8-2,2.9-2.8c1-0.7,2.2-1,3.4-1.1c0.4,0,0.9,0.1,1.3,0.2c0.4,0.1,0.8,0.2,1.2,0.4l1.5-8.8l-2.8-0.7v-0.3l5-0.9h0.2
					l-3.9,22.1c-0.2,0.6-0.2,1.3-0.1,1.9c0,0.3,0.3,0.6,0.6,0.5c0.9,0,1.8-0.9,2.7-2.8l0.5,0.2c-0.4,1.3-1.1,2.5-2,3.5
					c-0.6,0.7-1.4,1-2.3,1.1c-0.6,0-1.2-0.3-1.4-0.9c-0.3-0.9-0.3-1.8-0.1-2.7l0.1-0.7h-0.1c-0.9,1.2-2,2.3-3.1,3.3
					C146.2,231.6,145.2,232,144.1,232z M143,226.6c-0.1,1,0.1,1.9,0.6,2.8c0.4,0.6,1,0.9,1.7,0.9c1-0.1,1.9-0.4,2.6-1.1
					c1-0.8,1.9-1.8,2.6-2.8l1.4-8.3c-0.4-0.4-0.8-0.8-1.3-1.1c-0.5-0.3-1.1-0.4-1.6-0.4c-0.9,0-1.7,0.3-2.4,0.8
					c-0.8,0.6-1.4,1.4-1.9,2.2c-0.6,1-1,2.1-1.2,3.2C143.1,224.1,143,225.4,143,226.6z"/>
				<path class="st0" d="M169.4,231.7h-2.1l4.3-24.3l-2.5-0.7v-0.3l4.7-0.9h0.2l-2.5,13.9h0.1c0.7-0.8,1.4-1.5,2.2-2.2
					c0.5-0.5,1.2-0.9,1.8-1.2c0.6-0.3,1.3-0.4,1.9-0.4c1-0.1,2,0.5,2.6,1.3c0.6,1.2,0.8,2.6,0.4,3.8l-1.2,6.8
					c-0.2,0.6-0.2,1.3-0.1,1.9c0,0.3,0.3,0.6,0.6,0.5c0.9,0,1.8-0.9,2.7-2.8l0.5,0.2c-0.5,1.3-1.2,2.5-2.1,3.5
					c-0.6,0.7-1.4,1-2.2,1.1c-0.6,0-1.2-0.3-1.4-0.9c-0.3-0.9-0.3-1.8-0.1-2.7l1.4-7.8c0.2-0.8,0.1-1.6-0.2-2.4
					c-0.4-0.7-1.1-1.1-1.9-1c-1,0-1.9,0.4-2.6,1.1c-0.9,0.7-1.7,1.5-2.4,2.3L169.4,231.7z"/>
				<path class="st0" d="M190.4,232c-1.5,0.1-2.9-0.5-3.9-1.6c-0.9-1.2-1.3-2.7-1.2-4.2c0-1.4,0.2-2.7,0.7-4
					c0.4-1.2,1.1-2.4,1.9-3.4c0.8-1,1.7-1.8,2.8-2.4c1-0.6,2.1-0.9,3.2-0.9c1-0.1,1.9,0.2,2.7,0.8c0.5,0.5,0.9,1.2,0.9,1.9
					c0,0.8-0.4,1.5-1,2.1c-0.9,0.8-2,1.4-3.2,1.7c-1.9,0.6-3.9,1-5.9,1.3c-0.1,0.7-0.1,1.4-0.1,2.1c-0.1,1.3,0.3,2.6,1.1,3.7
					c0.7,0.9,1.9,1.4,3,1.3c1.9,0,3.5-1.1,4.9-3.3h0.1l0.3,0.2c-0.6,1.3-1.5,2.4-2.5,3.3C193,231.6,191.7,232,190.4,232z
					 M193.1,216.6c-1.3,0-2.6,0.6-3.5,1.6c-1.1,1.2-1.8,2.7-2.1,4.4c2.1-0.2,4.1-0.8,6-1.6c1.1-0.4,1.8-1.4,1.8-2.5
					c0-0.5-0.2-1-0.5-1.3C194.3,216.7,193.7,216.5,193.1,216.6z"/>
				<path class="st0" d="M200.7,231.7l2.5-14.1l-2.5-0.7v-0.3l4.3-0.9h0.1l-0.3,4.1h0.1c0.6-1,1.2-1.9,2-2.7
					c0.4-0.5,0.9-0.8,1.5-1.1c0.4-0.2,0.8-0.3,1.2-0.3c0.4,0,0.8,0.1,1.1,0.3c0.3,0.2,0.4,0.4,0.5,0.7c0,0.1,0,0.3-0.1,0.4l-0.7,1.3
					h-0.1l-0.5-0.3c-0.3-0.2-0.7-0.3-1.1-0.3c-0.7,0-1.4,0.3-1.9,0.8c-0.9,0.9-1.7,1.8-2.3,2.9l-1.8,10.3L200.7,231.7z"/>
				<path class="st0" d="M216.9,232c-1.5,0.1-2.9-0.5-3.9-1.6c-0.9-1.2-1.3-2.7-1.2-4.2c0-1.4,0.2-2.7,0.7-4
					c0.4-1.2,1.1-2.4,1.9-3.4c0.8-1,1.7-1.8,2.8-2.4c1-0.6,2.1-0.9,3.2-0.9c1-0.1,1.9,0.2,2.7,0.8c0.5,0.5,0.9,1.2,0.9,1.9
					c0,0.8-0.4,1.6-1,2.1c-0.9,0.8-2,1.4-3.2,1.7c-1.9,0.6-3.9,1-5.9,1.3c-0.1,0.7-0.1,1.4-0.1,2.1c-0.1,1.3,0.3,2.6,1.1,3.7
					c0.7,0.9,1.9,1.4,3,1.3c1.9,0,3.5-1.1,4.9-3.3h0.1l0.3,0.2c-0.6,1.3-1.5,2.4-2.5,3.3C219.5,231.6,218.2,232,216.9,232z
					 M219.7,216.6c-1.3,0-2.6,0.6-3.5,1.6c-1.1,1.2-1.8,2.7-2.1,4.4c2.1-0.2,4.1-0.8,6-1.6c1.1-0.4,1.8-1.4,1.8-2.5
					c0-0.5-0.2-1-0.5-1.3C220.9,216.7,220.3,216.5,219.7,216.6z"/>
				<path class="st0" d="M238.5,232c-0.9,0-1.8-0.4-2.3-1.2c-0.7-1-1-2.3-0.9-3.5c0-1.4,0.3-2.8,0.7-4.1c0.5-1.4,1.1-2.6,2-3.8
					c0.8-1.1,1.7-2,2.9-2.8c1-0.7,2.2-1,3.4-1.1c0.6,0,1.1,0.1,1.7,0.3c0.5,0.2,1,0.4,1.5,0.7l0.9-0.8h0.5l-2.1,11.8
					c-0.2,0.6-0.2,1.3-0.1,1.9c0,0.3,0.3,0.6,0.6,0.5c1,0,1.9-0.9,2.7-2.8l0.5,0.2c-0.5,1.3-1.2,2.5-2.1,3.5c-0.6,0.6-1.4,1-2.2,1.1
					c-0.6,0-1.2-0.3-1.5-0.9c-0.3-0.9-0.3-1.8-0.1-2.7l0.1-0.7h-0.1c-0.9,1.2-1.9,2.3-3.1,3.2C240.7,231.6,239.6,232,238.5,232z
					 M237.4,226.6c0,2.4,0.8,3.7,2.3,3.7c0.7,0,1.3-0.2,1.9-0.6c0.7-0.4,1.3-0.9,1.8-1.5c0.6-0.6,1.1-1.2,1.6-1.9l1.4-8.2
					c-0.4-0.4-0.8-0.8-1.3-1.1c-0.5-0.3-1.1-0.4-1.7-0.4c-0.9,0-1.8,0.3-2.5,0.8c-0.8,0.6-1.4,1.4-1.9,2.3c-0.6,1-1,2.1-1.2,3.2
					C237.5,224.2,237.4,225.4,237.4,226.6z"/>
				<path class="st0" d="M256.2,232c-0.9,0-1.8-0.1-2.6-0.5c-0.6-0.2-1.1-0.6-1.5-1.1c-0.2-0.2-0.4-0.5-0.4-0.9
					c0-0.3,0.1-0.5,0.4-0.7l0.6-0.4h0.2l0.5,0.8c0.3,0.6,0.8,1,1.4,1.3c0.5,0.3,1.1,0.4,1.8,0.4c0.9,0,1.8-0.3,2.4-0.9
					c0.6-0.6,0.9-1.4,0.9-2.3c0-0.7-0.2-1.4-0.7-2c-0.6-0.6-1.3-1.1-2-1.5c-0.9-0.5-1.7-1.2-2.4-2c-0.5-0.7-0.8-1.5-0.7-2.3
					c0-0.8,0.3-1.5,0.7-2.1c0.5-0.7,1.2-1.3,1.9-1.7c0.7-0.4,1.6-0.7,2.5-0.7c0.7,0,1.5,0.1,2.2,0.4c0.5,0.2,1,0.6,1.4,1
					c0.2,0.2,0.3,0.5,0.3,0.8c0,0.1,0,0.3-0.1,0.4c-0.1,0.1-0.1,0.2-0.3,0.3l-0.5,0.4h-0.2l-0.6-0.8c-0.3-0.4-0.7-0.8-1.1-1.1
					c-0.5-0.3-1-0.4-1.5-0.4c-0.8,0-1.5,0.3-2.1,0.8c-0.5,0.5-0.8,1.1-0.8,1.8c0,0.7,0.2,1.4,0.6,1.9c0.5,0.6,1.1,1,1.7,1.4
					c1,0.5,1.8,1.2,2.6,1.9c0.6,0.7,0.9,1.7,0.9,2.7c0,0.8-0.2,1.6-0.7,2.3c-0.5,0.8-1.1,1.4-1.9,1.8
					C258.1,231.8,257.1,232.1,256.2,232z"/>
				<path class="st0" d="M71.1,280.1c-0.5,0.1-0.9-0.3-1-0.8c0-0.1,0-0.2,0-0.2v-1.2l0.2-0.1H72c0.4,0,0.8,0,1.2-0.1
					c0.3-0.1,0.6-0.2,0.9-0.4c0.4-0.3,0.7-0.7,0.9-1.1c0.3-0.5,0.8-1.2,1.3-2l1.8-2.9L75,257.5l-2.6-0.7v-0.3l4.2-0.9h0.1l2.8,13
					h0.1l2.8-4.5c0.6-1,1.2-2,1.6-3c0.3-0.6,0.5-1.3,0.5-2c0-0.3-0.1-0.7-0.2-0.9c-0.2-0.2-0.4-0.4-0.6-0.6l-0.5-0.3v-0.1l0.6-0.9
					c0.1-0.2,0.2-0.3,0.4-0.5c0.1-0.1,0.3-0.1,0.4-0.1c0.5,0,1,0.3,1.2,0.8c0.3,0.5,0.5,1.1,0.5,1.7c0,0.7-0.2,1.3-0.5,1.9
					c-0.5,1.1-1.1,2.2-1.8,3.2l-7,11.2c-0.3,0.5-0.6,1-0.8,1.3c-0.2,0.4-0.4,0.7-0.6,1c-0.3,0.4-0.6,0.9-1,1.3
					c-0.5,0.6-1.1,1.1-1.8,1.5C72.4,279.9,71.8,280.1,71.1,280.1z"/>
				<path class="st0" d="M93.6,272c-1.5,0.1-2.9-0.5-3.9-1.6c-0.9-1.2-1.3-2.7-1.2-4.2c0-1.4,0.2-2.7,0.7-4c0.4-1.2,1.1-2.4,1.9-3.4
					c0.8-1,1.7-1.8,2.8-2.4c1-0.6,2.1-0.9,3.2-0.9c1-0.1,1.9,0.2,2.7,0.8c0.5,0.5,0.9,1.2,0.9,1.9c0,0.8-0.4,1.5-1,2.1
					c-0.9,0.8-2,1.4-3.2,1.7c-1.9,0.6-3.9,1-5.9,1.3c-0.1,0.7-0.1,1.4-0.1,2.1c-0.1,1.3,0.3,2.6,1.1,3.7c0.7,0.9,1.9,1.4,3,1.3
					c1.9,0,3.5-1.1,4.9-3.3h0.1l0.3,0.2c-0.6,1.3-1.5,2.4-2.5,3.3C96.3,271.6,95,272,93.6,272z M96.4,256.6c-1.3,0-2.6,0.6-3.5,1.6
					c-1.1,1.2-1.8,2.7-2.1,4.4c2.1-0.2,4.1-0.8,6-1.6c1.1-0.4,1.8-1.4,1.8-2.5c0-0.5-0.2-1-0.5-1.3C97.6,256.7,97,256.5,96.4,256.6z
					"/>
				<path class="st0" d="M105.5,272c-0.6,0-1.2-0.3-1.4-0.9c-0.3-0.9-0.3-1.8-0.1-2.7l3.7-21.1l-2.6-0.7v-0.3l4.7-0.9h0.3l-4,22.1
					c-0.2,0.6-0.2,1.3-0.1,1.9c0,0.3,0.3,0.6,0.6,0.5c0.5,0,1-0.3,1.4-0.7c0.6-0.6,1-1.3,1.3-2.1l0.5,0.2c-0.5,1.3-1.2,2.5-2.1,3.5
					C107.2,271.6,106.4,272,105.5,272z"/>
				<path class="st0" d="M114.5,272c-0.6,0-1.2-0.3-1.4-0.9c-0.3-0.9-0.3-1.8-0.1-2.7l3.7-21.1l-2.6-0.7v-0.3l4.7-0.9h0.3l-4,22.1
					c-0.2,0.6-0.2,1.3-0.1,1.9c0,0.3,0.3,0.6,0.6,0.5c0.5,0,1-0.3,1.4-0.7c0.6-0.6,1-1.3,1.3-2.1l0.5,0.2c-0.5,1.3-1.2,2.5-2.1,3.5
					C116.2,271.6,115.4,272,114.5,272z"/>
				<path class="st0" d="M126.9,272c-1.6,0.1-3.1-0.6-4.1-1.8c-1-1.3-1.5-3-1.4-4.6c0-1.3,0.2-2.5,0.6-3.7c0.4-1.2,1-2.2,1.7-3.2
					c0.7-0.9,1.6-1.7,2.6-2.3c1-0.6,2.1-0.8,3.2-0.8c1.6-0.1,3.1,0.6,4.1,1.8c1,1.4,1.5,3,1.4,4.7c0,1.2-0.2,2.4-0.6,3.5
					c-0.4,1.2-0.9,2.3-1.7,3.2c-0.7,1-1.6,1.8-2.6,2.4C129.3,271.7,128.1,272,126.9,272z M127.4,271c1.1,0,2.1-0.4,2.8-1.2
					c0.9-0.9,1.5-2,1.9-3.2c0.5-1.4,0.7-3,0.7-4.5c0.1-1.4-0.2-2.8-0.9-4c-0.6-1-1.7-1.6-2.8-1.5c-1.1,0-2.1,0.4-2.9,1.2
					c-0.9,0.9-1.6,2-1.9,3.1c-0.5,1.5-0.7,3-0.7,4.5c-0.1,1.4,0.2,2.8,0.9,4.1C125.1,270.5,126.2,271.1,127.4,271L127.4,271z"/>
				<path class="st0" d="M142.3,271.8l-2.8-14.3l-2.6-0.7v-0.3l4.2-0.9h0.1l2.2,12.7h0.1l5.6-12.4h0.4l2.6,12.7h0.1l2.4-4.6
					c0.7-1.2,1.1-2.3,1.5-3c0.3-0.6,0.5-1.3,0.5-2c0-0.3-0.1-0.7-0.2-0.9c-0.2-0.2-0.4-0.4-0.6-0.6l-0.5-0.3V257l0.6-0.9
					c0.1-0.2,0.2-0.3,0.4-0.5c0.1-0.1,0.3-0.1,0.4-0.1c0.5,0,1,0.3,1.2,0.8c0.3,0.5,0.5,1.1,0.5,1.7c0,0.7-0.2,1.3-0.5,1.9
					c-0.5,1.1-1,2.2-1.7,3.2l-4.9,8.5h-0.5l-2.5-11.6l-5.7,11.6L142.3,271.8z"/>
				<path class="st0" d="M164.6,280.1c-0.4,0-0.8-0.1-1.1-0.3c-0.2-0.1-0.3-0.4-0.4-0.6c0-0.3,0.1-0.5,0.2-0.7l0.4-0.8h0.1l0.6,0.3
					c0.2,0.1,0.5,0.2,0.8,0.2c0.3,0,0.5,0.1,0.8,0.1c1.1-0.1,2-0.7,2.4-1.8c0.8-1.6,1.3-3.4,1.4-5.2l2.1-14.1h-2.8v-1.3h3l0.2-1.4
					c0.2-0.9,0.5-1.8,0.9-2.7c0.5-1.1,1.2-2.1,1.9-3c0.8-1,1.7-1.8,2.7-2.4c1-0.6,2.1-1,3.2-1c0.3,0,0.7,0.1,0.9,0.2
					c0.4,0.2,0.6,0.4,0.6,0.7c0,0.2-0.1,0.4-0.2,0.6l-0.6,1h-0.1l-0.7-0.3c-0.6-0.3-1.3-0.4-2-0.4c-1.1,0-2.2,0.6-2.8,1.5
					c-0.9,1.3-1.4,2.8-1.6,4.4l-0.4,2.8h3.9v1.3h-4.1l-2,13.5c-0.2,1-0.4,1.9-0.8,2.8c-0.4,1.1-1,2.1-1.7,3.1
					c-0.6,0.9-1.4,1.8-2.3,2.5C166.5,279.7,165.6,280.1,164.6,280.1z"/>
				<path class="st0" d="M184.2,272c-1.5,0.1-2.9-0.5-3.9-1.6c-0.9-1.2-1.3-2.7-1.2-4.2c0-1.4,0.2-2.7,0.7-4
					c0.4-1.2,1.1-2.4,1.9-3.4c0.8-1,1.7-1.8,2.8-2.4c1-0.6,2.1-0.9,3.2-0.9c1-0.1,1.9,0.2,2.7,0.8c0.5,0.5,0.9,1.2,0.9,1.9
					c0,0.8-0.4,1.5-1,2.1c-0.9,0.8-2,1.4-3.2,1.7c-1.9,0.6-3.9,1-5.9,1.3c-0.1,0.7-0.1,1.4-0.1,2.1c-0.1,1.3,0.3,2.6,1.1,3.7
					c0.7,0.9,1.9,1.4,3,1.3c1.9,0,3.5-1.1,4.9-3.3h0.1l0.3,0.2c-0.6,1.3-1.5,2.4-2.5,3.3C186.9,271.6,185.6,272,184.2,272z
					 M187,256.6c-1.3,0-2.6,0.6-3.5,1.6c-1.1,1.2-1.8,2.7-2.1,4.4c2.1-0.2,4.1-0.8,6-1.6c1.1-0.4,1.8-1.4,1.8-2.5
					c0-0.5-0.2-1-0.5-1.3C188.2,256.7,187.6,256.5,187,256.6z"/>
				<path class="st0" d="M198.7,271.8l-3-14.4l-2.6-0.6v-0.3l4.2-0.9h0.1l2.6,13.1h0.1l2.8-4.6c0.6-1,1.1-2,1.6-3
					c0.3-0.6,0.4-1.3,0.5-2c0-0.3-0.1-0.7-0.2-0.9c-0.2-0.2-0.4-0.4-0.6-0.6l-0.5-0.3v-0.1l0.6-0.9c0.1-0.2,0.2-0.3,0.4-0.5
					c0.1-0.1,0.3-0.1,0.4-0.1c0.5,0,1,0.3,1.2,0.8c0.3,0.5,0.5,1.1,0.5,1.7c0,0.7-0.2,1.3-0.5,1.9c-0.5,1.1-1.1,2.2-1.8,3.2
					l-5.3,8.5L198.7,271.8z"/>
				<path class="st0" d="M213.7,272c-1.5,0.1-2.9-0.5-3.9-1.6c-0.9-1.2-1.3-2.7-1.2-4.2c0-1.4,0.2-2.7,0.7-4
					c0.4-1.2,1.1-2.4,1.9-3.4c0.8-1,1.7-1.8,2.8-2.4c1-0.6,2.1-0.9,3.2-0.9c1-0.1,1.9,0.2,2.7,0.8c0.5,0.5,0.9,1.2,0.9,1.9
					c0,0.8-0.4,1.5-1,2.1c-0.9,0.8-2,1.4-3.2,1.7c-1.9,0.6-3.9,1-5.9,1.3c-0.1,0.7-0.1,1.4-0.1,2.1c-0.1,1.3,0.3,2.6,1,3.7
					c0.7,0.9,1.9,1.4,3,1.3c1.9,0,3.5-1.1,4.9-3.3h0.1l0.3,0.2c-0.6,1.3-1.5,2.4-2.5,3.3C216.3,271.5,215,272,213.7,272z
					 M216.4,256.6c-1.3,0-2.6,0.6-3.5,1.6c-1.1,1.2-1.8,2.7-2.1,4.4c2.1-0.2,4.1-0.8,6-1.6c1.1-0.4,1.8-1.4,1.8-2.5
					c0-0.5-0.2-1-0.5-1.3C217.6,256.7,217,256.5,216.4,256.6z"/>
				<path class="st0" d="M224,271.7l2.5-14.1l-2.5-0.7v-0.3l4.3-0.9h0.1l-0.3,4.1h0.1c0.6-1,1.2-1.9,2-2.7c0.4-0.5,0.9-0.8,1.5-1.1
					c0.4-0.2,0.8-0.3,1.2-0.3c0.4,0,0.8,0.1,1.1,0.3c0.3,0.2,0.4,0.4,0.5,0.7c0,0.1,0,0.3-0.1,0.4l-0.7,1.3h-0.1l-0.5-0.3
					c-0.3-0.2-0.7-0.3-1.1-0.3c-0.7,0-1.4,0.3-1.9,0.8c-0.9,0.9-1.6,1.8-2.3,2.9l-1.8,10.3L224,271.7z"/>
				<path class="st0" d="M245.9,272c-0.6,0-1.2-0.3-1.5-0.9c-0.3-0.9-0.3-1.8-0.1-2.7l1.9-11l-2.6-0.7v-0.3l4.7-0.9h0.3l-2.1,11.9
					c-0.2,0.6-0.2,1.3-0.1,1.9c0,0.3,0.3,0.6,0.6,0.5c0.9,0,1.8-0.9,2.7-2.8l0.5,0.2c-0.5,1.3-1.2,2.5-2.1,3.5
					C247.6,271.6,246.8,272,245.9,272z M248.5,250.5c-0.4,0-0.8-0.2-1.1-0.5c-0.3-0.3-0.5-0.7-0.5-1.1c0-0.8,0.7-1.5,1.5-1.5
					c0.4,0,0.8,0.2,1.1,0.5c0.3,0.3,0.5,0.7,0.5,1.1C250.1,249.8,249.4,250.5,248.5,250.5C248.6,250.5,248.5,250.5,248.5,250.5
					L248.5,250.5z"/>
				<path class="st0" d="M256.2,272c-0.9,0-1.8-0.1-2.6-0.5c-0.6-0.2-1.1-0.6-1.5-1.1c-0.2-0.2-0.4-0.5-0.4-0.9
					c0-0.3,0.1-0.5,0.4-0.7l0.6-0.4h0.2l0.5,0.8c0.3,0.6,0.8,1,1.4,1.3c0.5,0.3,1.1,0.4,1.8,0.4c0.9,0,1.8-0.3,2.4-0.9
					c0.6-0.6,0.9-1.4,0.9-2.3c0-0.7-0.2-1.4-0.7-2c-0.6-0.6-1.3-1.1-2-1.5c-0.9-0.5-1.7-1.2-2.4-2c-0.5-0.7-0.8-1.5-0.7-2.3
					c0-0.8,0.3-1.5,0.7-2.1c0.5-0.7,1.2-1.3,1.9-1.7c0.7-0.4,1.6-0.7,2.5-0.7c0.7,0,1.5,0.1,2.2,0.4c0.5,0.2,1,0.6,1.4,1
					c0.2,0.2,0.3,0.5,0.3,0.8c0,0.1,0,0.3-0.1,0.4c-0.1,0.1-0.1,0.2-0.3,0.3l-0.5,0.4h-0.2l-0.6-0.8c-0.3-0.4-0.7-0.8-1.1-1.1
					c-0.5-0.3-1-0.4-1.5-0.4c-0.8,0-1.5,0.3-2.1,0.8c-0.5,0.5-0.8,1.1-0.8,1.8c0,0.7,0.2,1.4,0.6,1.9c0.5,0.6,1.1,1,1.7,1.4
					c1,0.5,1.8,1.2,2.6,1.9c0.6,0.7,0.9,1.7,0.9,2.7c0,0.8-0.2,1.6-0.7,2.3c-0.5,0.8-1.1,1.4-1.9,1.8
					C258.1,271.8,257.1,272.1,256.2,272z"/>
				<path class="st0" d="M0,319.7v-0.5l1.9-0.8l3.7-20.9l-2.4-0.7v-0.3l4.2-0.9h0.2l-0.3,4.2h0.1c0.9-1.2,1.9-2.2,3-3.1
					c0.8-0.7,1.9-1.1,3-1.1c0.9,0,1.8,0.5,2.3,1.3c0.7,1.1,1,2.4,0.9,3.7c0,1.4-0.2,2.9-0.7,4.2c-0.4,1.3-1.1,2.6-1.9,3.7
					c-0.7,1-1.7,1.9-2.7,2.6c-1,0.6-2.1,1-3.2,1c-1,0-2-0.3-2.8-0.7L4,318.4l2.7,0.9v0.5L0,319.7z M12.2,297.3
					c-0.7,0-1.3,0.2-1.8,0.6c-0.7,0.4-1.3,0.9-1.8,1.5c-0.6,0.6-1.1,1.2-1.6,1.9l-1.4,8.1c0.4,0.5,1,0.9,1.6,1.2
					c0.5,0.2,1.1,0.4,1.8,0.4c1.1,0,2.1-0.4,2.9-1.2c0.9-1,1.6-2.1,2-3.4c0.5-1.6,0.8-3.3,0.8-5C14.6,298.6,13.8,297.3,12.2,297.3
					L12.2,297.3z"/>
				<path class="st0" d="M20.2,311.7l2.5-14.1l-2.5-0.7v-0.3l4.3-0.9h0.1l-0.3,4.1h0.1c0.6-1,1.2-1.9,2-2.7c0.4-0.5,0.9-0.8,1.5-1.1
					c0.4-0.2,0.8-0.3,1.2-0.3c0.4,0,0.8,0.1,1.1,0.3c0.3,0.2,0.4,0.4,0.5,0.7c0,0.1,0,0.3-0.1,0.4l-0.7,1.3h-0.1l-0.5-0.3
					c-0.3-0.2-0.7-0.3-1.1-0.3c-0.7,0-1.4,0.3-1.9,0.8c-0.9,0.9-1.7,1.8-2.3,2.9l-1.8,10.3L20.2,311.7z"/>
				<path class="st0" d="M36.4,312c-1.5,0.1-2.9-0.5-3.9-1.6c-0.9-1.2-1.3-2.7-1.2-4.2c0-1.4,0.2-2.7,0.7-4c0.4-1.2,1.1-2.4,1.9-3.4
					c0.8-1,1.7-1.8,2.8-2.4c1-0.6,2.1-0.9,3.2-0.9c1-0.1,1.9,0.2,2.7,0.8c0.5,0.5,0.9,1.2,0.9,1.9c0,0.8-0.4,1.5-1,2.1
					c-0.9,0.8-2,1.4-3.2,1.7c-1.9,0.6-3.9,1-5.9,1.3c-0.1,0.7-0.1,1.4-0.1,2.1c-0.1,1.3,0.3,2.6,1,3.7c0.7,0.9,1.9,1.4,3,1.3
					c1.9,0,3.5-1.1,4.9-3.3h0.1l0.3,0.2c-0.6,1.3-1.5,2.4-2.5,3.3C39,311.6,37.7,312,36.4,312z M39.2,296.6c-1.3,0-2.6,0.6-3.5,1.6
					c-1.1,1.2-1.8,2.7-2.1,4.4c2.1-0.2,4.1-0.8,6-1.6c1.1-0.4,1.8-1.4,1.8-2.5c0-0.5-0.2-1-0.5-1.3
					C40.4,296.7,39.8,296.5,39.2,296.6z"/>
				<path class="st0" d="M50.9,311.8l-3-14.4l-2.6-0.6v-0.3l4.2-0.9h0.1l2.6,13.1h0.1l2.8-4.6c0.6-1,1.1-2,1.6-3
					c0.3-0.6,0.4-1.3,0.5-2c0-0.3-0.1-0.7-0.2-0.9c-0.2-0.2-0.4-0.4-0.6-0.6l-0.5-0.3v-0.1l0.6-0.9c0.1-0.2,0.2-0.3,0.4-0.5
					c0.1-0.1,0.3-0.1,0.4-0.1c0.5,0,1,0.3,1.2,0.8c0.3,0.5,0.5,1.1,0.5,1.7c0,0.7-0.2,1.3-0.5,1.9c-0.5,1.1-1.1,2.2-1.8,3.2
					l-5.3,8.5L50.9,311.8z"/>
				<path class="st0" d="M63.9,312c-0.9,0-1.8-0.4-2.3-1.2c-0.7-1-1-2.3-0.9-3.5c0-1.4,0.3-2.8,0.7-4.1c0.5-1.4,1.1-2.6,2-3.8
					c0.8-1.1,1.7-2,2.9-2.8c1-0.7,2.2-1,3.4-1c0.6,0,1.1,0.1,1.7,0.3c0.5,0.2,1,0.4,1.5,0.7l0.9-0.8h0.5l-2.1,11.8
					c-0.2,0.6-0.2,1.3-0.1,1.9c0,0.3,0.3,0.6,0.6,0.5c1,0,1.9-0.9,2.7-2.8l0.5,0.2c-0.5,1.3-1.2,2.5-2.1,3.5c-0.6,0.6-1.4,1-2.2,1.1
					c-0.6,0-1.2-0.3-1.5-0.9c-0.3-0.9-0.3-1.8-0.1-2.7l0.1-0.7H70c-0.9,1.2-1.9,2.3-3.1,3.2C66.1,311.6,65,312,63.9,312z
					 M62.8,306.6c0,2.4,0.8,3.7,2.3,3.7c0.7,0,1.3-0.2,1.9-0.6c0.7-0.4,1.3-0.9,1.8-1.5c0.6-0.6,1.1-1.2,1.6-1.9l1.4-8.2
					c-0.4-0.4-0.8-0.8-1.3-1c-0.5-0.3-1.1-0.4-1.7-0.4c-0.9,0-1.8,0.3-2.5,0.8c-0.8,0.6-1.4,1.4-1.9,2.3c-0.6,1-1,2.1-1.2,3.2
					C62.9,304.2,62.8,305.4,62.8,306.6z"/>
				<path class="st0" d="M80.3,312c-0.6,0-1.2-0.3-1.4-0.9c-0.3-0.9-0.3-1.8-0.1-2.7l3.7-21.1l-2.6-0.7v-0.3l4.7-0.9h0.3l-4,22.1
					c-0.2,0.6-0.2,1.3-0.1,1.9c0,0.3,0.3,0.6,0.6,0.5c0.5,0,1-0.3,1.4-0.7c0.6-0.6,1-1.3,1.3-2.1l0.5,0.2c-0.5,1.3-1.2,2.5-2.1,3.5
					C82,311.6,81.2,312,80.3,312z"/>
				<path class="st0" d="M92.3,312c-1.5,0.1-2.9-0.5-3.9-1.6c-0.9-1.2-1.3-2.7-1.2-4.2c0-1.4,0.2-2.7,0.7-4c0.4-1.2,1.1-2.4,1.9-3.4
					c0.8-1,1.7-1.8,2.8-2.4c1-0.6,2.1-0.9,3.2-0.9c1-0.1,1.9,0.2,2.7,0.8c0.5,0.5,0.9,1.2,0.9,1.9c0,0.8-0.4,1.5-1,2.1
					c-0.9,0.8-2,1.4-3.2,1.7c-1.9,0.6-3.9,1-5.9,1.3c-0.1,0.7-0.1,1.4-0.1,2.1c-0.1,1.3,0.3,2.6,1.1,3.7c0.7,0.9,1.9,1.4,3,1.3
					c1.9,0,3.5-1.1,4.9-3.3h0.1l0.3,0.2c-0.6,1.3-1.5,2.4-2.5,3.3C95,311.6,93.7,312,92.3,312z M95.1,296.6c-1.3,0-2.6,0.6-3.5,1.6
					c-1.1,1.2-1.8,2.7-2.1,4.4c2.1-0.2,4.1-0.8,6-1.6c1.1-0.4,1.8-1.4,1.8-2.5c0-0.5-0.2-1-0.5-1.3
					C96.3,296.7,95.7,296.5,95.1,296.6L95.1,296.6z"/>
				<path class="st0" d="M102.2,311.7l2.5-14.1l-2.4-0.7v-0.3l4.2-0.9h0.2l-0.2,3.8h0.1c0.7-0.8,1.4-1.5,2.2-2.2
					c0.5-0.5,1.2-0.9,1.8-1.2c0.6-0.3,1.3-0.4,1.9-0.4c1-0.1,2,0.5,2.6,1.3c0.6,1.2,0.8,2.6,0.4,3.8l-1.2,6.8
					c-0.2,0.6-0.2,1.3-0.1,1.9c0,0.3,0.3,0.6,0.6,0.5c0.9,0,1.8-0.9,2.7-2.8l0.5,0.2c-0.4,1.3-1.1,2.5-2,3.5c-0.6,0.7-1.4,1-2.3,1.1
					c-0.6,0-1.2-0.3-1.4-0.9c-0.3-0.9-0.3-1.8-0.1-2.7l1.4-7.8c0.2-0.8,0.1-1.6-0.2-2.4c-0.4-0.7-1.1-1.1-1.9-1
					c-0.6,0-1.2,0.2-1.8,0.5c-0.6,0.4-1.2,0.8-1.7,1.3c-0.6,0.5-1.1,1-1.6,1.6l-1.9,11.1L102.2,311.7z"/>
				<path class="st0" d="M123.2,312c-0.6,0-1.2-0.2-1.6-0.7c-0.4-0.5-0.6-1.2-0.5-1.9c0-0.2,0-0.4,0.1-0.6c0-0.2,0.1-0.4,0.1-0.7
					l1.9-11.1h-2.7v-0.2l3.1-1.1l2.3-3.8h0.2l-0.7,3.8h4.2v1.3h-4.5l-1.7,9.7c0,0.3-0.1,0.6-0.1,0.9c0,0.2,0,0.5-0.1,0.7
					c0,0.4,0.1,0.8,0.3,1.2c0.2,0.2,0.5,0.4,0.8,0.4c0.7-0.1,1.3-0.4,1.8-0.9c0.7-0.8,1.3-1.7,1.7-2.8l0.5,0.2
					c-0.5,1.6-1.3,3-2.4,4.2C125.2,311.5,124.2,312,123.2,312z"/>
				<path class="st0" d="M145.1,312c-1.6,0.1-3.1-0.6-4.1-1.8c-1-1.3-1.5-3-1.4-4.6c0-1.3,0.2-2.5,0.6-3.7c0.4-1.2,1-2.2,1.7-3.2
					c0.7-0.9,1.6-1.7,2.6-2.3c1-0.6,2.1-0.8,3.2-0.8c1.6-0.1,3.1,0.6,4.1,1.8c1,1.4,1.5,3,1.4,4.7c0,1.2-0.2,2.4-0.6,3.5
					c-0.4,1.2-0.9,2.3-1.7,3.2c-0.7,1-1.6,1.8-2.6,2.4C147.5,311.7,146.3,312,145.1,312z M145.6,311c1.1,0,2.1-0.4,2.8-1.2
					c0.9-0.9,1.5-2,1.9-3.2c0.5-1.4,0.7-3,0.7-4.5c0.1-1.4-0.2-2.8-0.9-4c-0.6-1-1.7-1.6-2.8-1.5c-1.1,0-2.1,0.4-2.9,1.2
					c-0.9,0.9-1.6,2-1.9,3.1c-0.5,1.5-0.7,3-0.7,4.5c-0.1,1.4,0.2,2.8,0.9,4.1C143.3,310.5,144.4,311.1,145.6,311L145.6,311z"/>
				<path class="st0" d="M156.5,311.7l2.5-14.1l-2.4-0.7v-0.3l4.2-0.9h0.2l-0.2,3.8h0.1c0.7-0.8,1.4-1.5,2.2-2.2
					c0.5-0.5,1.2-0.9,1.8-1.2c0.6-0.3,1.3-0.4,1.9-0.4c1-0.1,2,0.5,2.6,1.3c0.6,1.2,0.8,2.6,0.4,3.8l-1.2,6.8
					c-0.2,0.6-0.2,1.3-0.1,1.9c0,0.3,0.3,0.6,0.6,0.5c0.9,0,1.8-0.9,2.7-2.8l0.5,0.2c-0.4,1.3-1.1,2.5-2,3.5c-0.6,0.7-1.4,1-2.3,1.1
					c-0.6,0-1.2-0.3-1.4-0.9c-0.3-0.9-0.3-1.8-0.1-2.7l1.4-7.8c0.2-0.8,0.1-1.6-0.2-2.4c-0.4-0.7-1.1-1.1-1.9-1
					c-0.6,0-1.2,0.2-1.8,0.5c-0.6,0.4-1.2,0.8-1.7,1.3c-0.6,0.5-1.1,1-1.6,1.6l-1.9,11.1L156.5,311.7z"/>
				<path class="st0" d="M186.4,312c-0.9,0-1.8-0.1-2.6-0.5c-0.6-0.2-1.1-0.6-1.5-1.1c-0.2-0.2-0.4-0.5-0.4-0.9
					c0-0.3,0.1-0.5,0.4-0.7l0.6-0.4h0.2l0.5,0.8c0.3,0.6,0.8,1,1.4,1.3c0.5,0.3,1.1,0.4,1.8,0.4c0.9,0,1.8-0.3,2.4-0.9
					c0.6-0.6,0.9-1.4,0.9-2.3c0-0.7-0.2-1.4-0.7-2c-0.6-0.6-1.3-1.1-2-1.5c-0.9-0.5-1.7-1.2-2.4-2c-0.5-0.7-0.8-1.5-0.7-2.3
					c0-0.8,0.3-1.5,0.7-2.1c0.5-0.7,1.2-1.3,1.9-1.7c0.7-0.4,1.6-0.7,2.5-0.7c0.7,0,1.5,0.1,2.2,0.4c0.5,0.2,1,0.6,1.4,1
					c0.2,0.2,0.3,0.5,0.3,0.8c0,0.1,0,0.3-0.1,0.4c-0.1,0.1-0.1,0.2-0.3,0.3l-0.5,0.4h-0.2l-0.6-0.8c-0.3-0.4-0.7-0.8-1.1-1.1
					c-0.5-0.3-1-0.4-1.5-0.4c-0.8,0-1.5,0.3-2.1,0.8c-0.5,0.5-0.8,1.1-0.8,1.8c0,0.7,0.2,1.4,0.6,1.9c0.5,0.6,1.1,1,1.7,1.4
					c1,0.5,1.8,1.2,2.6,1.9c0.6,0.7,0.9,1.7,0.9,2.7c0,0.8-0.2,1.6-0.7,2.3C190.1,311.1,188.4,312.1,186.4,312L186.4,312z"/>
				<path class="st0" d="M198,311.7h-2.1l4.3-24.3l-2.4-0.7v-0.3l4.7-0.9h0.2l-2.4,13.9h0.1c0.7-0.8,1.4-1.5,2.2-2.2
					c0.5-0.5,1.2-0.9,1.8-1.2c0.6-0.3,1.3-0.4,1.9-0.4c1-0.1,2,0.5,2.6,1.3c0.6,1.2,0.8,2.6,0.4,3.8l-1.2,6.8
					c-0.2,0.6-0.2,1.3-0.1,1.9c0,0.3,0.3,0.6,0.6,0.5c0.9,0,1.8-0.9,2.7-2.8l0.5,0.2c-0.5,1.3-1.2,2.5-2.1,3.5
					c-0.6,0.7-1.4,1-2.2,1.1c-0.6,0-1.2-0.3-1.4-0.9c-0.3-0.9-0.3-1.8-0.1-2.7l1.4-7.8c0.2-0.8,0.1-1.6-0.2-2.4
					c-0.4-0.7-1.1-1.1-1.9-1c-1,0-1.9,0.4-2.6,1c-0.9,0.7-1.7,1.5-2.4,2.3L198,311.7z"/>
				<path class="st0" d="M219.3,312c-1.6,0.1-3.1-0.6-4.1-1.8c-1-1.3-1.5-3-1.4-4.6c0-1.3,0.2-2.5,0.6-3.7c0.4-1.2,1-2.2,1.7-3.2
					c0.7-0.9,1.6-1.7,2.6-2.3c1-0.6,2.1-0.8,3.2-0.8c1.6-0.1,3.1,0.6,4.1,1.8c1,1.4,1.5,3,1.4,4.7c0,1.2-0.2,2.4-0.6,3.5
					c-0.4,1.2-0.9,2.3-1.7,3.2c-0.7,1-1.6,1.8-2.6,2.4C221.7,311.7,220.5,312,219.3,312z M219.8,311c1.1,0,2.1-0.4,2.8-1.2
					c0.9-0.9,1.5-2,1.9-3.2c0.5-1.4,0.7-3,0.7-4.5c0.1-1.4-0.2-2.8-0.9-4c-0.6-1-1.7-1.6-2.8-1.5c-1.1,0-2.1,0.4-2.9,1.2
					c-0.9,0.9-1.6,2-1.9,3.1c-0.5,1.5-0.7,3-0.7,4.5c-0.1,1.4,0.2,2.8,0.9,4.1C217.5,310.5,218.6,311.1,219.8,311L219.8,311z"/>
				<path class="st0" d="M231.2,311.7l2.5-14.1l-2.5-0.7v-0.3l4.3-0.9h0.1l-0.3,4.1h0.1c0.6-1,1.2-1.9,2-2.7
					c0.4-0.5,0.9-0.8,1.5-1.1c0.4-0.2,0.8-0.3,1.2-0.3c0.4,0,0.8,0.1,1.1,0.3c0.3,0.2,0.4,0.4,0.5,0.7c0,0.1,0,0.3-0.1,0.4l-0.7,1.3
					h-0.1l-0.5-0.3c-0.3-0.2-0.7-0.3-1.1-0.3c-0.7,0-1.4,0.3-1.9,0.8c-0.9,0.9-1.6,1.8-2.3,2.9l-1.8,10.3L231.2,311.7z"/>
				<path class="st0" d="M247.3,312c-1.5,0.1-2.9-0.5-3.9-1.6c-0.9-1.2-1.3-2.7-1.2-4.2c0-1.4,0.2-2.7,0.7-4
					c0.4-1.2,1.1-2.4,1.9-3.4c0.8-1,1.7-1.8,2.8-2.4c1-0.6,2.1-0.9,3.2-0.9c1-0.1,1.9,0.2,2.7,0.8c0.5,0.5,0.9,1.2,0.9,1.9
					c0,0.8-0.4,1.5-1,2.1c-0.9,0.8-2,1.4-3.2,1.7c-1.9,0.6-3.9,1-5.9,1.3c-0.1,0.7-0.1,1.4-0.1,2.1c-0.1,1.3,0.3,2.6,1.1,3.7
					c0.7,0.9,1.9,1.4,3,1.3c1.9,0,3.5-1.1,4.9-3.3h0.1l0.3,0.2c-0.6,1.3-1.5,2.4-2.5,3.3C250,311.6,248.7,312,247.3,312z
					 M250.1,296.6c-1.3,0-2.6,0.6-3.5,1.6c-1.1,1.2-1.8,2.7-2.1,4.4c2.1-0.2,4.1-0.8,6-1.6c1.1-0.4,1.8-1.4,1.8-2.5
					c0-0.5-0.2-1-0.5-1.3C251.3,296.7,250.7,296.5,250.1,296.6z"/>
				<path class="st0" d="M258.2,311.9c-0.4,0-0.8-0.1-1.1-0.4c-0.3-0.3-0.4-0.7-0.4-1.1c0-0.5,0.2-1,0.5-1.4
					c0.3-0.4,0.9-0.7,1.4-0.6c0.4,0,0.9,0.1,1.1,0.5c0.3,0.3,0.4,0.7,0.4,1.1c0,0.5-0.2,1-0.5,1.4
					C259.2,311.7,258.7,311.9,258.2,311.9z"/>
			</g>
			<g class="st1">
				<path class="st0" d="M210.3,25.8v1.8h11.9V52h-24.5V27.7c0-18.5,8.2-27.7,24.5-27.7v10.3c-4.2,0.7-7.2,2.3-9.1,4.7
					S210.3,21.1,210.3,25.8z M252,25.8v1.8h11.9V52h-24.4V27.7c0-18.5,8.1-27.7,24.4-27.7v10.3C256,11.4,252,16.5,252,25.8L252,25.8
					z"/>
			</g>
		</g>
	</g>
</g>
</svg>
