<?xml version="1.0" encoding="utf-8"?>
<!-- Generator: Adobe Illustrator 25.2.1, SVG Export Plug-In . SVG Version: 6.00 Build 0)  -->
<svg version="1.1" id="Layer_1" xmlns="http://www.w3.org/2000/svg" xmlns:xlink="http://www.w3.org/1999/xlink" x="0px" y="0px"
	 width="270px" height="312px" viewBox="0 0 270 312" style="enable-background:new 0 0 270 312;" xml:space="preserve">
<style type="text/css">
	.st0{fill:#629EA5;}
	.st1{opacity:0.4;}
</style>
<g id="Layer_2_1_">
	<g id="Layer_8">
		<g>
			<g>
				<path class="st0" d="M1.5,111.9c-0.4,0-0.8-0.1-1.1-0.4c-0.3-0.3-0.4-0.7-0.4-1.1c0-0.5,0.2-1,0.5-1.4c0.3-0.4,0.9-0.6,1.4-0.6
					c0.4,0,0.8,0.1,1.1,0.5c0.3,0.3,0.4,0.7,0.4,1.1c0,0.5-0.2,1-0.5,1.4C2.6,111.7,2,111.9,1.5,111.9z M8.5,111.9
					c-0.4,0-0.8-0.1-1.1-0.4c-0.3-0.3-0.4-0.7-0.4-1.1c0-0.5,0.2-1,0.5-1.4c0.3-0.4,0.9-0.6,1.4-0.6c0.4,0,0.8,0.1,1.1,0.5
					c0.3,0.3,0.4,0.7,0.4,1.1c0,0.5-0.2,1-0.5,1.4C9.6,111.7,9,111.9,8.5,111.9z M15.5,111.9c-0.4,0-0.8-0.1-1.1-0.4
					c-0.3-0.3-0.4-0.7-0.4-1.1c0-0.5,0.2-1,0.5-1.4c0.3-0.4,0.9-0.6,1.4-0.6c0.4,0,0.8,0.1,1.1,0.5c0.3,0.3,0.4,0.7,0.4,1.1
					c0,0.5-0.2,1-0.5,1.4C16.6,111.7,16,111.9,15.5,111.9z"/>
				<path class="st0" d="M34.5,112c-0.9,0-1.8-0.4-2.3-1.2c-0.7-1-1-2.3-0.9-3.5c0-1.4,0.3-2.8,0.7-4.1c0.5-1.4,1.1-2.6,2-3.8
					c0.8-1.1,1.7-2,2.9-2.8c1-0.7,2.2-1,3.4-1c0.6,0,1.1,0.1,1.7,0.3c0.5,0.2,1,0.4,1.5,0.7l0.9-0.8h0.5l-2.1,11.8
					c-0.2,0.6-0.2,1.3-0.1,1.9c0,0.3,0.3,0.6,0.6,0.5c1,0,1.9-0.9,2.7-2.8l0.5,0.2c-0.5,1.3-1.2,2.5-2.1,3.5c-0.6,0.6-1.4,1-2.2,1.1
					c-0.6,0-1.2-0.3-1.5-0.9c-0.3-0.9-0.3-1.8-0.1-2.7l0.1-0.7h-0.1c-0.9,1.2-1.9,2.3-3.1,3.2C36.7,111.6,35.6,112,34.5,112z
					 M33.4,106.6c0,2.4,0.8,3.7,2.3,3.7c0.7,0,1.3-0.2,1.9-0.6c0.7-0.4,1.3-0.9,1.8-1.5c0.6-0.6,1.1-1.2,1.6-1.9l1.4-8.2
					c-0.4-0.4-0.8-0.8-1.3-1c-0.5-0.3-1.1-0.4-1.7-0.4c-0.9,0-1.8,0.3-2.5,0.8c-0.8,0.6-1.4,1.4-1.9,2.3c-0.6,1-1,2.1-1.2,3.2
					C33.5,104.2,33.4,105.4,33.4,106.6z"/>
				<path class="st0" d="M44.2,120.1c-0.4,0-0.8-0.1-1.1-0.3c-0.2-0.1-0.3-0.4-0.4-0.6c0-0.2,0.1-0.3,0.2-0.5l0.5-1.1h0.1l0.6,0.3
					c0.2,0.1,0.5,0.2,0.8,0.2c0.3,0,0.5,0.1,0.8,0.1c1.1-0.1,2-0.7,2.4-1.8c0.8-1.6,1.3-3.4,1.4-5.2l2.1-14.1h-2.8v-1.3h3l0.2-1.4
					c0.2-0.9,0.5-1.8,0.9-2.7c0.5-1.1,1.2-2.1,1.9-3c0.8-1,1.7-1.8,2.7-2.4c1-0.6,2.1-1,3.2-1c0.3,0,0.7,0.1,0.9,0.2
					c0.4,0.2,0.6,0.5,0.6,0.7c0,0.2-0.1,0.3-0.1,0.5l-0.6,1h-0.1l-0.7-0.3c-0.6-0.3-1.3-0.4-2-0.4c-1.1,0-2.2,0.6-2.8,1.5
					c-0.9,1.3-1.4,2.8-1.6,4.4l-0.4,2.8h8.5l2.3-3.8H65l-0.7,3.8h4.2v1.3h-4.5l-1.7,9.7c-0.2,0.8-0.2,1.7-0.1,2.5
					c0.1,0.4,0.5,0.7,0.9,0.7c0.7-0.1,1.3-0.4,1.8-0.9c0.7-0.8,1.3-1.7,1.7-2.8l0.5,0.2c-0.5,1.6-1.3,3-2.4,4.2
					c-0.7,0.8-1.7,1.2-2.7,1.2c-0.8,0.1-1.5-0.3-1.8-1c-0.4-0.9-0.4-1.8-0.2-2.8l1.9-11.1h-8.4l-2,13.5c-0.2,1-0.4,1.9-0.8,2.8
					c-0.4,1.1-1,2.1-1.7,3.1c-0.6,0.9-1.4,1.8-2.3,2.5C46.1,119.7,45.2,120.1,44.2,120.1z"/>
				<path class="st0" d="M75.1,112c-1.5,0.1-2.9-0.5-3.9-1.6c-0.9-1.2-1.3-2.7-1.2-4.2c0-1.4,0.2-2.7,0.7-4c0.4-1.2,1.1-2.4,1.9-3.4
					c0.8-1,1.7-1.8,2.8-2.4c1-0.6,2.1-0.9,3.2-0.9c1-0.1,1.9,0.2,2.7,0.8c0.5,0.5,0.9,1.2,0.9,1.9c0,0.8-0.4,1.5-1,2.1
					c-0.9,0.8-2,1.4-3.2,1.7c-1.9,0.6-3.9,1-5.9,1.3c-0.1,0.7-0.1,1.4-0.1,2.1c-0.1,1.3,0.3,2.6,1.1,3.7c0.7,0.9,1.9,1.4,3,1.3
					c1.9,0,3.5-1.1,4.9-3.3h0.1l0.3,0.2c-0.6,1.3-1.5,2.4-2.5,3.3C77.8,111.6,76.5,112,75.1,112z M77.9,96.6c-1.3,0-2.6,0.6-3.5,1.6
					c-1.1,1.2-1.8,2.7-2.1,4.4c2.1-0.2,4.1-0.8,6-1.6c1.1-0.4,1.8-1.4,1.8-2.5c0-0.5-0.2-1-0.5-1.3C79.1,96.7,78.5,96.5,77.9,96.6z"
					/>
				<path class="st0" d="M85.5,111.7L88,97.5l-2.5-0.7v-0.3l4.3-0.9H90l-0.3,4.1h0.1c0.6-1,1.2-1.9,2-2.7c0.4-0.5,0.9-0.8,1.5-1.1
					c0.4-0.2,0.8-0.3,1.2-0.3c0.4,0,0.8,0.1,1.1,0.3c0.3,0.2,0.4,0.4,0.5,0.7c0,0.1,0,0.3-0.1,0.4l-0.7,1.3h-0.1L94.6,98
					c-0.3-0.2-0.7-0.3-1.1-0.3c-0.7,0-1.4,0.3-1.9,0.8c-0.9,0.9-1.7,1.8-2.3,2.9l-1.8,10.3L85.5,111.7z"/>
				<path class="st0" d="M108.2,112c-0.6,0-1.2-0.2-1.6-0.7c-0.4-0.5-0.6-1.2-0.5-1.9c0-0.2,0-0.4,0.1-0.6c0-0.2,0.1-0.4,0.1-0.7
					l1.9-11.1h-2.7v-0.2l3.1-1.1l2.3-3.8h0.2l-0.7,3.8h4.2v1.3h-4.5l-1.7,9.7c0,0.3-0.1,0.6-0.1,0.9c0,0.2-0.1,0.5-0.1,0.7
					c0,0.4,0.1,0.8,0.3,1.2c0.2,0.2,0.5,0.4,0.8,0.3c0.7-0.1,1.3-0.4,1.8-0.9c0.7-0.8,1.3-1.7,1.7-2.8l0.5,0.2
					c-0.5,1.6-1.3,3-2.4,4.2C110.2,111.5,109.2,112,108.2,112z"/>
				<path class="st0" d="M118.2,111.7h-2.1l4.3-24.3l-2.5-0.7v-0.3l4.7-0.9h0.2l-2.5,13.9h0.1c0.7-0.8,1.4-1.5,2.2-2.2
					c0.5-0.5,1.2-0.9,1.8-1.2c0.6-0.3,1.3-0.4,1.9-0.4c1-0.1,2,0.5,2.6,1.3c0.6,1.2,0.8,2.6,0.4,3.8l-1.2,6.8
					c-0.2,0.6-0.2,1.3-0.1,1.9c0,0.3,0.3,0.6,0.6,0.5c0.9,0,1.8-0.9,2.7-2.8l0.5,0.2c-0.5,1.3-1.2,2.5-2.1,3.5
					c-0.6,0.7-1.4,1-2.2,1.1c-0.6,0-1.2-0.3-1.4-0.9c-0.3-0.9-0.3-1.8-0.1-2.7l1.4-7.8c0.2-0.8,0.1-1.6-0.2-2.4
					c-0.4-0.7-1.1-1.1-1.9-1c-1,0-1.9,0.4-2.6,1.1c-0.9,0.7-1.7,1.5-2.4,2.3L118.2,111.7z"/>
				<path class="st0" d="M139.2,112c-1.5,0.1-2.9-0.5-3.9-1.6c-0.9-1.2-1.3-2.7-1.2-4.2c0-1.4,0.2-2.7,0.7-4
					c0.4-1.2,1.1-2.4,1.9-3.4c0.8-1,1.7-1.8,2.8-2.4c1-0.6,2.1-0.9,3.2-0.9c1-0.1,1.9,0.2,2.7,0.8c0.5,0.5,0.9,1.2,0.9,1.9
					c0,0.8-0.4,1.5-1,2.1c-0.9,0.8-2,1.4-3.2,1.7c-1.9,0.6-3.9,1-5.9,1.3c-0.1,0.7-0.1,1.4-0.1,2.1c-0.1,1.3,0.3,2.6,1.1,3.7
					c0.7,0.9,1.9,1.4,3,1.3c1.9,0,3.5-1.1,4.9-3.3h0.1l0.3,0.2c-0.6,1.3-1.5,2.4-2.5,3.3C141.8,111.6,140.5,112,139.2,112z
					 M142,96.6c-1.3,0-2.6,0.6-3.5,1.6c-1.1,1.2-1.8,2.7-2.1,4.4c2.1-0.2,4.1-0.8,6-1.6c1.1-0.4,1.8-1.4,1.8-2.5
					c0-0.5-0.2-1-0.5-1.3C143.2,96.7,142.6,96.5,142,96.6L142,96.6z"/>
				<path class="st0" d="M153.3,120.1c-0.4,0-0.8-0.1-1.1-0.3c-0.2-0.1-0.3-0.4-0.4-0.6c0-0.2,0.1-0.3,0.2-0.5l0.5-1.1h0.1l0.6,0.3
					c0.2,0.1,0.5,0.2,0.8,0.2c0.3,0,0.5,0.1,0.8,0.1c1.1-0.1,2-0.7,2.4-1.8c0.8-1.6,1.3-3.4,1.4-5.2l2.1-14.1h-2.8v-1.3h3l0.2-1.4
					c0.2-1,0.5-2,1-2.9c0.5-1.1,1.2-2.1,2-3c0.8-0.9,1.8-1.7,2.9-2.3c1.1-0.6,2.3-0.9,3.5-0.9c0.6,0,1.1,0.1,1.7,0.2
					c0.4,0.1,0.9,0.3,1.3,0.5c0.2,0.1,0.4,0.2,0.6,0.3c0.2,0.1,0.3,0.3,0.2,0.6c0,0.2,0,0.3-0.1,0.4c-0.1,0.1-0.2,0.3-0.3,0.5
					l-0.4,0.5h-0.2l-0.7-0.3c-0.5-0.3-1-0.5-1.5-0.7c-0.6-0.2-1.2-0.2-1.8-0.2c-1.5-0.1-3,0.5-4,1.6c-1,1.2-1.7,2.7-1.9,4.3
					l-0.4,2.8h10.2l-2.1,11.6c-0.2,0.6-0.2,1.3-0.1,1.9c0,0.3,0.3,0.6,0.6,0.5c0.9,0,1.8-0.9,2.7-2.8l0.5,0.2
					c-0.5,1.3-1.2,2.5-2.1,3.5c-0.6,0.7-1.4,1-2.2,1.1c-0.6,0-1.2-0.3-1.5-0.9c-0.3-0.9-0.3-1.8-0.1-2.7l2-11.3h-8.2l-2,13.5
					c-0.2,1-0.4,1.9-0.8,2.8c-0.4,1.1-1,2.1-1.7,3.1c-0.6,0.9-1.4,1.8-2.3,2.5C155.2,119.7,154.3,120.1,153.3,120.1z"/>
				<path class="st0" d="M177.9,111.7l2.5-14.1l-2.5-0.7v-0.3l4.3-0.9h0.1l-0.3,4.1h0.1c0.6-1,1.2-1.9,2-2.7
					c0.4-0.5,0.9-0.8,1.5-1.1c0.4-0.2,0.8-0.3,1.2-0.3c0.4,0,0.8,0.1,1.1,0.3c0.3,0.2,0.4,0.4,0.5,0.7c0,0.1,0,0.3-0.1,0.4l-0.7,1.3
					h-0.1l-0.5-0.3c-0.3-0.2-0.7-0.3-1.1-0.3c-0.7,0-1.4,0.3-1.9,0.8c-0.9,0.9-1.7,1.8-2.3,2.9l-1.8,10.3L177.9,111.7z"/>
				<path class="st0" d="M192.4,112c-0.9,0-1.8-0.1-2.6-0.5c-0.6-0.2-1.1-0.6-1.5-1.1c-0.2-0.2-0.4-0.5-0.4-0.9c0-0.1,0-0.2,0.1-0.3
					c0.1-0.1,0.2-0.3,0.3-0.3l0.6-0.4h0.2l0.5,0.8c0.3,0.6,0.8,1,1.4,1.3c0.5,0.3,1.1,0.4,1.8,0.4c0.9,0,1.8-0.3,2.4-0.9
					c0.6-0.6,0.9-1.4,0.9-2.3c0-0.7-0.2-1.4-0.7-2c-0.6-0.6-1.3-1.1-2-1.5c-0.9-0.5-1.7-1.2-2.4-2c-0.5-0.7-0.8-1.5-0.7-2.3
					c0-0.8,0.3-1.5,0.7-2.1c0.5-0.7,1.2-1.3,1.9-1.7c0.7-0.4,1.6-0.7,2.5-0.7c0.7,0,1.5,0.1,2.2,0.4c0.5,0.2,1,0.6,1.4,1
					c0.2,0.2,0.3,0.5,0.3,0.8c0,0.3-0.1,0.5-0.4,0.7l-0.5,0.4h-0.2l-0.6-0.8c-0.3-0.4-0.7-0.8-1.1-1.1c-0.5-0.3-1-0.4-1.5-0.4
					c-0.8,0-1.5,0.3-2.1,0.8c-0.5,0.5-0.8,1.1-0.8,1.8c0,0.7,0.2,1.4,0.6,1.9c0.5,0.6,1.1,1,1.7,1.4c1,0.5,1.8,1.2,2.6,1.9
					c0.6,0.7,0.9,1.7,0.9,2.7c0,0.8-0.2,1.6-0.7,2.3C196.1,111.1,194.3,112.1,192.4,112L192.4,112z"/>
				<path class="st0" d="M204.6,112c-0.6,0-1.2-0.2-1.6-0.7c-0.4-0.5-0.6-1.2-0.5-1.9c0-0.2,0-0.4,0.1-0.6c0-0.2,0.1-0.4,0.1-0.7
					l1.9-11.1h-2.7v-0.2l3.1-1.1l2.3-3.8h0.2l-0.7,3.8h4.2v1.3h-4.5l-1.7,9.7c0,0.3-0.1,0.6-0.1,0.9c0,0.2-0.1,0.5-0.1,0.7
					c0,0.4,0.1,0.8,0.3,1.2c0.2,0.2,0.5,0.4,0.8,0.3c0.7-0.1,1.3-0.4,1.8-0.9c0.7-0.8,1.3-1.7,1.7-2.8l0.5,0.2
					c-0.5,1.6-1.3,3-2.4,4.2C206.6,111.5,205.6,112,204.6,112z"/>
				<path class="st0" d="M224.3,112c-0.9,0-1.8-0.4-2.3-1.2c-0.7-1-1-2.3-0.9-3.5c0-1.4,0.2-2.8,0.7-4.1c0.5-1.4,1.1-2.6,2-3.8
					c0.8-1.1,1.8-2,2.9-2.8c1-0.7,2.2-1,3.4-1c0.4,0,0.9,0.1,1.3,0.2c0.4,0.1,0.8,0.2,1.2,0.4l1.5-8.8l-2.8-0.7v-0.3l5-0.9h0.2
					l-3.9,22.1c-0.2,0.6-0.2,1.3-0.1,1.9c0,0.3,0.3,0.6,0.6,0.5c0.9,0,1.8-0.9,2.7-2.8l0.5,0.2c-0.4,1.3-1.1,2.5-2,3.5
					c-0.6,0.7-1.4,1-2.3,1.1c-0.6,0-1.2-0.3-1.4-0.9c-0.3-0.9-0.3-1.8-0.1-2.7l0.1-0.7h-0.1c-0.9,1.2-2,2.3-3.1,3.3
					C226.4,111.6,225.3,112,224.3,112z M223.1,106.6c-0.1,1,0.1,1.9,0.6,2.8c0.4,0.6,1,0.9,1.7,0.9c1-0.1,1.9-0.4,2.6-1.1
					c1-0.8,1.9-1.7,2.6-2.8l1.4-8.3c-0.4-0.4-0.8-0.8-1.3-1.1c-0.5-0.3-1.1-0.4-1.6-0.4c-0.9,0-1.7,0.3-2.4,0.8
					c-0.8,0.6-1.4,1.4-1.9,2.2c-0.6,1-1,2.1-1.2,3.2C223.3,104.1,223.1,105.4,223.1,106.6z"/>
				<path class="st0" d="M242,112c-0.9,0-1.8-0.4-2.3-1.2c-0.7-1-1-2.3-0.9-3.5c0-1.4,0.3-2.8,0.7-4.1c0.5-1.4,1.1-2.6,2-3.8
					c0.8-1.1,1.7-2,2.9-2.8c1-0.7,2.2-1,3.4-1c0.6,0,1.1,0.1,1.7,0.3c0.5,0.2,1,0.4,1.5,0.7l0.9-0.8h0.5l-2.1,11.8
					c-0.2,0.6-0.2,1.3-0.1,1.9c0,0.3,0.3,0.6,0.6,0.5c1,0,1.9-0.9,2.7-2.8l0.5,0.2c-0.5,1.3-1.2,2.5-2.1,3.5c-0.6,0.6-1.4,1-2.2,1.1
					c-0.6,0-1.2-0.3-1.5-0.9c-0.3-0.9-0.3-1.8-0.1-2.7l0.1-0.7H248c-0.9,1.2-1.9,2.3-3.1,3.2C244.1,111.6,243.1,112,242,112z
					 M240.8,106.6c0,2.4,0.8,3.7,2.3,3.7c0.7,0,1.3-0.2,1.9-0.6c0.7-0.4,1.3-0.9,1.8-1.5c0.6-0.6,1.1-1.2,1.6-1.9l1.4-8.2
					c-0.4-0.4-0.8-0.8-1.3-1c-0.5-0.3-1.1-0.4-1.7-0.4c-0.9,0-1.8,0.3-2.5,0.8c-0.8,0.6-1.4,1.4-1.9,2.3c-0.6,1-1,2.1-1.2,3.2
					C240.9,104.2,240.8,105.4,240.8,106.6L240.8,106.6z"/>
				<path class="st0" d="M253.7,120.1c-0.5,0.1-0.9-0.3-1-0.8c0-0.1,0-0.2,0-0.2v-1.2l0.2-0.1h1.8c0.4,0,0.8,0,1.2-0.1
					c0.3-0.1,0.6-0.2,0.9-0.4c0.4-0.3,0.7-0.7,0.9-1.1c0.3-0.5,0.8-1.2,1.3-2l1.8-2.9l-3.1-13.7l-2.6-0.7v-0.3l4.2-0.9h0.1l2.8,13
					h0.1l2.8-4.5c0.6-1,1.2-2,1.6-3c0.3-0.6,0.5-1.3,0.5-2c0-0.3-0.1-0.7-0.2-0.9c-0.2-0.2-0.4-0.4-0.6-0.6l-0.5-0.3v-0.1l0.6-0.9
					c0.1-0.2,0.2-0.3,0.4-0.5c0.1-0.1,0.3-0.1,0.4-0.1c0.5,0,1,0.3,1.2,0.8c0.3,0.5,0.5,1.1,0.5,1.7c0,0.7-0.2,1.3-0.5,1.9
					c-0.5,1.1-1.1,2.2-1.8,3.2l-7,11.2c-0.3,0.5-0.6,1-0.8,1.3c-0.2,0.4-0.4,0.7-0.6,1.1c-0.3,0.4-0.6,0.9-1,1.3
					c-0.5,0.6-1.1,1.1-1.8,1.5C254.9,119.9,254.3,120.1,253.7,120.1z"/>
				<path class="st0" d="M45.8,156.9l5.2-31.2h5.4l-0.1,0.6h-3.9l-5,29.9h3.9l-0.1,0.6L45.8,156.9z"/>
				<path class="st0" d="M58.2,152c-0.6,0-1.2-0.3-1.4-0.9c-0.3-0.9-0.3-1.8-0.1-2.7l3.7-21.1l-2.6-0.7v-0.3l4.7-0.9h0.3l-4,22.1
					c-0.2,0.6-0.2,1.3-0.1,1.9c0,0.3,0.3,0.6,0.6,0.5c0.5,0,1-0.3,1.4-0.7c0.6-0.6,1-1.3,1.3-2.1l0.5,0.2c-0.5,1.3-1.2,2.5-2.1,3.5
					C59.9,151.6,59.1,152,58.2,152z"/>
				<path class="st0" d="M70.7,152c-1.6,0.1-3.1-0.6-4.1-1.8c-1-1.3-1.5-3-1.4-4.6c0-1.3,0.2-2.5,0.6-3.7c0.4-1.2,1-2.2,1.7-3.2
					c0.7-0.9,1.6-1.7,2.6-2.3c1-0.6,2.1-0.8,3.2-0.8c1.6-0.1,3.1,0.6,4.1,1.8c1,1.4,1.5,3,1.4,4.7c0,1.2-0.2,2.4-0.6,3.5
					c-0.4,1.2-0.9,2.3-1.7,3.2c-0.7,1-1.6,1.8-2.6,2.4C73,151.7,71.8,152,70.7,152z M71.1,151c1.1,0,2.1-0.4,2.8-1.2
					c0.9-0.9,1.5-2,1.9-3.2c0.5-1.4,0.7-3,0.7-4.5c0.1-1.4-0.2-2.8-0.9-4c-0.6-1-1.7-1.6-2.8-1.5c-1.1,0-2.1,0.4-2.9,1.2
					c-0.9,0.9-1.6,2-1.9,3.1c-0.5,1.5-0.7,3-0.7,4.5c-0.1,1.4,0.2,2.8,0.9,4.1C68.9,150.5,70,151.1,71.1,151z"/>
				<path class="st0" d="M87.1,152c-1.5,0.1-2.9-0.5-3.8-1.6c-0.9-1.3-1.3-2.8-1.3-4.3c0-1.3,0.2-2.6,0.7-3.8
					c0.5-1.2,1.1-2.4,1.9-3.4c0.8-1,1.7-1.8,2.7-2.4c0.9-0.6,2-0.9,3.1-0.9c0.7,0,1.5,0.1,2.1,0.4c0.5,0.2,1,0.6,1.4,1
					c0.3,0.3,0.5,0.7,0.6,1.2c0,0.3-0.2,0.6-0.4,0.7l-0.9,0.6H93l-0.5-0.8c-0.3-0.5-0.7-1-1.2-1.5c-0.5-0.4-1.1-0.6-1.8-0.5
					c-1,0-2,0.4-2.7,1.1c-0.9,0.8-1.6,1.9-2,3c-0.5,1.4-0.8,2.9-0.8,4.3c-0.1,1.4,0.3,2.7,1,3.9c0.7,0.9,1.8,1.4,3,1.3
					c0.9,0,1.8-0.3,2.6-0.9c1-0.8,1.8-1.8,2.5-2.9h0.1l0.3,0.2c-0.6,1.4-1.5,2.6-2.6,3.7C89.8,151.5,88.5,152,87.1,152z"/>
				<path class="st0" d="M99.8,152c-0.9,0-1.8-0.4-2.3-1.2c-0.7-1-1-2.3-0.9-3.5c0-1.4,0.3-2.8,0.7-4.1c0.5-1.4,1.1-2.6,2-3.8
					c0.8-1.1,1.7-2,2.9-2.8c1-0.7,2.2-1,3.4-1c0.6,0,1.1,0.1,1.7,0.3c0.5,0.2,1,0.4,1.5,0.7l0.9-0.8h0.5l-2.1,11.8
					c-0.2,0.6-0.2,1.3-0.1,1.9c0,0.3,0.3,0.6,0.6,0.5c1,0,1.9-0.9,2.7-2.8l0.5,0.2c-0.5,1.3-1.2,2.5-2.1,3.5c-0.6,0.6-1.4,1-2.2,1.1
					c-0.6,0-1.2-0.3-1.5-0.9c-0.3-0.9-0.3-1.8-0.1-2.7l0.1-0.7h-0.1c-0.9,1.2-1.9,2.3-3.1,3.2C102,151.6,100.9,152,99.8,152z
					 M98.7,146.6c0,2.4,0.8,3.7,2.3,3.7c0.7,0,1.3-0.2,1.9-0.6c0.7-0.4,1.3-0.9,1.8-1.5c0.6-0.6,1.1-1.2,1.6-1.9l1.4-8.2
					c-0.4-0.4-0.8-0.8-1.3-1c-0.5-0.3-1.1-0.4-1.7-0.4c-0.9,0-1.8,0.3-2.5,0.8c-0.8,0.6-1.4,1.4-1.9,2.3c-0.6,1-1,2.1-1.2,3.2
					C98.8,144.2,98.7,145.4,98.7,146.6z"/>
				<path class="st0" d="M116.2,152c-0.6,0-1.2-0.3-1.4-0.9c-0.3-0.9-0.3-1.8-0.1-2.7l3.7-21.1l-2.6-0.7v-0.3l4.7-0.9h0.3l-4,22.1
					c-0.2,0.6-0.2,1.3-0.1,1.9c0,0.3,0.3,0.6,0.6,0.5c0.5,0,1-0.3,1.4-0.7c0.6-0.6,1-1.3,1.3-2.1l0.5,0.2c-0.5,1.3-1.2,2.5-2.1,3.5
					C117.9,151.6,117.1,152,116.2,152z"/>
				<path class="st0" d="M126.4,152c-0.9,0-1.8-0.1-2.6-0.5c-0.6-0.2-1.1-0.6-1.5-1.1c-0.2-0.2-0.4-0.5-0.4-0.9
					c0-0.3,0.1-0.5,0.4-0.7l0.6-0.4h0.2l0.5,0.8c0.3,0.6,0.8,1,1.4,1.3c0.5,0.3,1.1,0.4,1.8,0.4c0.9,0,1.8-0.3,2.4-0.9
					c0.6-0.6,0.9-1.4,0.9-2.3c0-0.7-0.2-1.4-0.7-2c-0.6-0.6-1.3-1.1-2-1.5c-0.9-0.5-1.7-1.2-2.4-2c-0.5-0.7-0.8-1.5-0.7-2.3
					c0-0.8,0.3-1.5,0.7-2.1c0.5-0.7,1.2-1.3,1.9-1.7c0.7-0.4,1.6-0.7,2.5-0.7c0.7,0,1.5,0.1,2.2,0.4c0.5,0.2,1,0.6,1.4,1
					c0.2,0.2,0.3,0.5,0.3,0.8c0,0.1,0,0.3-0.1,0.4c-0.1,0.1-0.2,0.2-0.3,0.3l-0.5,0.4h-0.2l-0.6-0.8c-0.3-0.4-0.7-0.8-1.1-1.1
					c-0.5-0.3-1-0.4-1.5-0.4c-0.8,0-1.5,0.3-2.1,0.8c-0.5,0.5-0.8,1.1-0.8,1.8c0,0.7,0.2,1.4,0.6,1.9c0.5,0.6,1.1,1,1.7,1.4
					c1,0.5,1.8,1.2,2.6,1.9c0.6,0.7,0.9,1.7,0.9,2.7c0,0.8-0.2,1.6-0.7,2.3c-0.5,0.8-1.1,1.4-1.9,1.8
					C128.4,151.8,127.4,152.1,126.4,152z"/>
				<path class="st0" d="M131.5,156.9l0.1-0.6h3.9l5-29.9h-3.8l0.1-0.6h5.5l-5.2,31.2H131.5z"/>
				<path class="st0" d="M157.1,151.8l-2.8-14.3l-2.6-0.7v-0.3l4.2-0.9h0.1l2.2,12.7h0.1l5.6-12.4h0.4l2.6,12.7h0.1l2.4-4.6
					c0.7-1.2,1.1-2.3,1.5-3c0.3-0.6,0.5-1.3,0.5-2c0-0.3-0.1-0.7-0.2-0.9c-0.2-0.2-0.4-0.4-0.6-0.6l-0.5-0.3V137l0.6-0.9
					c0.1-0.2,0.2-0.3,0.4-0.5c0.1-0.1,0.3-0.1,0.4-0.1c0.5,0,1,0.3,1.2,0.8c0.3,0.5,0.5,1.1,0.5,1.7c0,0.7-0.2,1.3-0.5,1.9
					c-0.5,1.1-1,2.2-1.7,3.2l-4.9,8.5h-0.5l-2.5-11.6l-5.7,11.6H157.1z"/>
				<path class="st0" d="M180.4,152c-1.5,0.1-2.9-0.5-3.9-1.6c-0.9-1.2-1.3-2.7-1.2-4.2c0-1.4,0.2-2.7,0.7-4
					c0.4-1.2,1.1-2.4,1.9-3.4c0.8-1,1.7-1.8,2.8-2.4c1-0.6,2.1-0.9,3.2-0.9c1-0.1,1.9,0.2,2.7,0.8c0.5,0.5,0.9,1.2,0.9,1.9
					c0,0.8-0.4,1.5-1,2.1c-0.9,0.8-2,1.4-3.2,1.7c-1.9,0.6-3.9,1-5.9,1.3c-0.1,0.7-0.1,1.4-0.1,2.1c-0.1,1.3,0.3,2.6,1.1,3.7
					c0.7,0.9,1.9,1.4,3,1.3c1.9,0,3.5-1.1,4.9-3.3h0.1l0.3,0.2c-0.6,1.3-1.5,2.4-2.5,3.3C183,151.6,181.7,152,180.4,152z
					 M183.1,136.6c-1.3,0-2.6,0.6-3.5,1.6c-1.1,1.2-1.8,2.7-2.1,4.4c2.1-0.2,4.1-0.8,6-1.6c1.1-0.4,1.8-1.4,1.8-2.5
					c0-0.5-0.2-1-0.5-1.3C184.3,136.7,183.7,136.5,183.1,136.6z"/>
				<path class="st0" d="M190.7,151.7l2.5-14.1l-2.5-0.7v-0.3l4.3-0.9h0.1l-0.3,4.1h0.1c0.6-1,1.2-1.9,2-2.7
					c0.4-0.5,0.9-0.8,1.5-1.1c0.4-0.2,0.8-0.3,1.2-0.3c0.4,0,0.8,0.1,1.1,0.3c0.3,0.2,0.4,0.4,0.5,0.7c0,0.1,0,0.3-0.1,0.4l-0.7,1.3
					h-0.1l-0.5-0.3c-0.3-0.2-0.7-0.3-1.1-0.3c-0.7,0-1.4,0.3-1.9,0.8c-0.9,0.9-1.7,1.8-2.3,2.9l-1.8,10.3L190.7,151.7z"/>
				<path class="st0" d="M206.9,152c-1.5,0.1-2.9-0.5-3.9-1.6c-0.9-1.2-1.3-2.7-1.2-4.2c0-1.4,0.2-2.7,0.7-4
					c0.4-1.2,1.1-2.4,1.9-3.4c0.8-1,1.7-1.8,2.8-2.4c1-0.6,2.1-0.9,3.2-0.9c1-0.1,1.9,0.2,2.7,0.8c0.5,0.5,0.9,1.2,0.9,1.9
					c0,0.8-0.4,1.5-1,2.1c-0.9,0.8-2,1.4-3.2,1.7c-1.9,0.6-3.9,1-5.9,1.3c-0.1,0.7-0.1,1.4-0.1,2.1c-0.1,1.3,0.3,2.6,1,3.7
					c0.7,0.9,1.9,1.4,3,1.3c1.9,0,3.5-1.1,4.9-3.3h0.1l0.3,0.2c-0.6,1.3-1.5,2.4-2.5,3.3C209.5,151.5,208.2,152,206.9,152z
					 M209.6,136.6c-1.3,0-2.6,0.6-3.5,1.6c-1.1,1.2-1.8,2.7-2.1,4.4c2.1-0.2,4.1-0.8,6-1.6c1.1-0.4,1.8-1.4,1.8-2.5
					c0-0.5-0.2-1-0.5-1.3C210.9,136.7,210.3,136.5,209.6,136.6z"/>
				<path class="st0" d="M225.3,151.7l2.5-14.1l-2.4-0.7v-0.3l4.2-0.9h0.2l-0.2,3.8h0.1c0.7-0.8,1.4-1.5,2.2-2.2
					c0.5-0.5,1.2-0.9,1.8-1.2c0.6-0.3,1.3-0.4,1.9-0.4c1-0.1,2,0.5,2.6,1.3c0.6,1.2,0.8,2.6,0.4,3.8l-1.2,6.8
					c-0.2,0.6-0.2,1.3-0.1,1.9c0,0.3,0.3,0.6,0.6,0.5c0.9,0,1.8-0.9,2.7-2.8l0.5,0.2c-0.4,1.3-1.1,2.5-2,3.5c-0.6,0.7-1.4,1-2.3,1.1
					c-0.6,0-1.2-0.3-1.4-0.9c-0.3-0.9-0.3-1.8-0.1-2.7l1.4-7.8c0.2-0.8,0.1-1.6-0.2-2.4c-0.4-0.7-1.1-1.1-1.9-1
					c-0.6,0-1.2,0.2-1.8,0.5c-0.6,0.4-1.2,0.8-1.7,1.3c-0.6,0.5-1.1,1-1.6,1.6l-1.9,11.1L225.3,151.7z"/>
				<path class="st0" d="M248.8,152c-1.6,0.1-3.1-0.6-4.1-1.8c-1-1.3-1.5-3-1.4-4.6c0-1.3,0.2-2.5,0.6-3.7c0.4-1.2,1-2.2,1.7-3.2
					c0.7-0.9,1.6-1.7,2.6-2.3c1-0.6,2.1-0.8,3.2-0.8c1.6-0.1,3.1,0.6,4.1,1.8c1,1.4,1.5,3,1.4,4.7c0,1.2-0.2,2.4-0.6,3.5
					c-0.4,1.2-0.9,2.3-1.7,3.2c-0.7,1-1.6,1.8-2.6,2.4C251.1,151.7,250,152,248.8,152z M249.2,151c1.1,0,2.1-0.4,2.8-1.2
					c0.9-0.9,1.5-2,1.9-3.2c0.5-1.4,0.7-3,0.7-4.5c0.1-1.4-0.2-2.8-0.9-4c-0.6-1-1.7-1.6-2.8-1.5c-1.1,0-2.1,0.4-2.9,1.2
					c-0.9,0.9-1.6,2-1.9,3.1c-0.5,1.5-0.7,3-0.7,4.5c-0.1,1.4,0.2,2.8,0.9,4.1C247,150.5,248.1,151.1,249.2,151z"/>
				<path class="st0" d="M262.8,152c-0.6,0-1.2-0.2-1.6-0.7c-0.4-0.5-0.6-1.2-0.5-1.9c0-0.2,0-0.4,0.1-0.6c0-0.2,0.1-0.4,0.1-0.7
					l1.9-11.1H260v-0.2l3.1-1.1l2.3-3.8h0.2l-0.7,3.8h4.2v1.3h-4.5l-1.7,9.7c0,0.3-0.1,0.6-0.1,0.9c0,0.2-0.1,0.5-0.1,0.7
					c0,0.4,0.1,0.8,0.3,1.2c0.2,0.2,0.5,0.4,0.8,0.4c0.7-0.1,1.3-0.4,1.8-0.9c0.7-0.8,1.3-1.7,1.7-2.8l0.5,0.2
					c-0.5,1.6-1.3,3-2.4,4.2C264.8,151.5,263.8,152,262.8,152z"/>
				<path class="st0" d="M43.9,192c-0.9,0-1.8-0.4-2.3-1.2c-0.7-1-1-2.3-0.9-3.5c0-1.4,0.3-2.8,0.7-4.1c0.5-1.4,1.1-2.6,2-3.8
					c0.8-1.1,1.7-2,2.9-2.8c1-0.7,2.2-1,3.4-1c0.6,0,1.1,0.1,1.7,0.3c0.5,0.2,1,0.4,1.5,0.7l0.9-0.8h0.5l-2.1,11.8
					c-0.2,0.6-0.2,1.3-0.1,1.9c0,0.3,0.3,0.6,0.6,0.5c1,0,1.9-0.9,2.7-2.8l0.5,0.2c-0.5,1.3-1.2,2.5-2.1,3.5c-0.6,0.6-1.4,1-2.2,1.1
					c-0.6,0-1.2-0.3-1.5-0.9c-0.3-0.9-0.3-1.8-0.1-2.7l0.1-0.7H50c-0.9,1.2-1.9,2.3-3.1,3.2C46.1,191.6,45,192,43.9,192z
					 M42.8,186.6c0,2.4,0.8,3.7,2.3,3.7c0.7,0,1.3-0.2,1.9-0.6c0.7-0.4,1.3-0.9,1.8-1.5c0.6-0.6,1.1-1.2,1.6-1.9l1.4-8.2
					c-0.4-0.4-0.8-0.8-1.3-1c-0.5-0.3-1.1-0.4-1.7-0.4c-0.9,0-1.8,0.3-2.5,0.8c-0.8,0.6-1.4,1.4-1.9,2.3c-0.6,1-1,2.1-1.2,3.2
					C42.9,184.2,42.8,185.4,42.8,186.6z"/>
				<path class="st0" d="M60.3,192c-0.6,0-1.2-0.3-1.4-0.9c-0.3-0.9-0.3-1.8-0.1-2.7l3.7-21.1l-2.6-0.7v-0.3l4.7-0.9h0.3l-4,22.1
					c-0.2,0.6-0.2,1.3-0.1,1.9c0,0.3,0.3,0.6,0.6,0.5c0.5,0,1-0.3,1.4-0.7c0.6-0.6,1-1.3,1.3-2.1l0.5,0.2c-0.5,1.3-1.2,2.5-2.1,3.5
					C62,191.6,61.2,192,60.3,192z"/>
				<path class="st0" d="M69.3,192c-0.6,0-1.2-0.3-1.4-0.9c-0.3-0.9-0.3-1.8-0.1-2.7l3.7-21.1l-2.6-0.7v-0.3l4.7-0.9h0.3l-4,22.1
					c-0.2,0.6-0.2,1.3-0.1,1.9c0,0.3,0.3,0.6,0.6,0.5c0.5,0,1-0.3,1.4-0.7c0.6-0.6,1-1.3,1.3-2.1l0.5,0.2c-0.5,1.3-1.2,2.5-2.1,3.5
					C71,191.6,70.1,192,69.3,192z"/>
				<path class="st0" d="M81.7,192c-1.6,0.1-3.1-0.6-4.1-1.8c-1-1.3-1.5-3-1.4-4.6c0-1.3,0.2-2.5,0.6-3.7c0.4-1.2,1-2.2,1.7-3.2
					c0.7-0.9,1.6-1.7,2.6-2.3c1-0.6,2.1-0.8,3.2-0.8c1.6-0.1,3.1,0.6,4.1,1.8c1,1.4,1.5,3,1.4,4.7c0,1.2-0.2,2.4-0.6,3.5
					c-0.4,1.2-0.9,2.3-1.7,3.2c-0.7,1-1.6,1.8-2.6,2.4C84.1,191.7,82.9,192,81.7,192z M82.2,191c1.1,0,2.1-0.4,2.8-1.2
					c0.9-0.9,1.5-2,1.9-3.2c0.5-1.4,0.7-3,0.7-4.5c0.1-1.4-0.2-2.8-0.9-4c-0.6-1-1.7-1.6-2.8-1.5c-1.1,0-2.1,0.4-2.9,1.2
					c-0.9,0.9-1.6,2-1.9,3.1c-0.5,1.5-0.7,3-0.7,4.5c-0.1,1.4,0.2,2.8,0.9,4.1C79.9,190.5,81,191.1,82.2,191z"/>
				<path class="st0" d="M97.1,191.8l-2.8-14.3l-2.6-0.7v-0.3l4.2-0.9h0.1l2.2,12.7h0.1l5.6-12.4h0.4l2.6,12.7h0.1l2.5-4.6
					c0.7-1.2,1.1-2.3,1.5-3c0.3-0.6,0.5-1.3,0.5-2c0-0.3-0.1-0.7-0.2-0.9c-0.2-0.2-0.4-0.4-0.6-0.6l-0.5-0.3V177l0.6-0.9
					c0.1-0.2,0.2-0.3,0.4-0.5c0.1-0.1,0.3-0.1,0.4-0.1c0.5,0,1,0.3,1.2,0.8c0.3,0.5,0.5,1.1,0.5,1.7c0,0.7-0.2,1.3-0.5,1.9
					c-0.5,1.1-1,2.2-1.7,3.2l-4.9,8.5h-0.5l-2.5-11.6l-5.7,11.6L97.1,191.8z"/>
				<path class="st0" d="M120.4,192c-1.5,0.1-2.9-0.5-3.9-1.6c-0.9-1.2-1.3-2.7-1.2-4.2c0-1.4,0.2-2.7,0.7-4
					c0.4-1.2,1.1-2.4,1.9-3.4c0.8-1,1.7-1.8,2.8-2.4c1-0.6,2.1-0.9,3.2-0.9c1-0.1,1.9,0.2,2.7,0.8c0.5,0.5,0.9,1.2,0.9,1.9
					c0,0.8-0.4,1.5-1,2.1c-0.9,0.8-2,1.4-3.2,1.7c-1.9,0.6-3.9,1-5.9,1.3c-0.1,0.7-0.1,1.4-0.1,2.1c-0.1,1.3,0.3,2.6,1.1,3.7
					c0.7,0.9,1.9,1.4,3,1.3c1.9,0,3.5-1.1,4.9-3.3h0.1l0.3,0.2c-0.6,1.3-1.5,2.4-2.5,3.3C123,191.6,121.7,192,120.4,192z
					 M123.2,176.6c-1.3,0-2.6,0.6-3.5,1.6c-1.1,1.2-1.8,2.7-2.1,4.4c2.1-0.2,4.1-0.8,6-1.6c1.1-0.4,1.8-1.4,1.8-2.5
					c0-0.5-0.2-1-0.5-1.3C124.4,176.7,123.8,176.5,123.2,176.6L123.2,176.6z"/>
				<path class="st0" d="M133.3,192c-0.9,0-1.8-0.4-2.3-1.2c-0.7-1-1-2.3-0.9-3.5c0-1.4,0.2-2.8,0.7-4.1c0.5-1.4,1.1-2.6,2-3.8
					c0.8-1.1,1.8-2,2.9-2.8c1-0.7,2.2-1,3.4-1c0.4,0,0.9,0.1,1.3,0.2c0.4,0.1,0.8,0.2,1.2,0.4l1.5-8.8l-2.8-0.7v-0.3l5-0.9h0.2
					l-3.9,22.1c-0.2,0.6-0.2,1.3-0.1,1.9c0,0.3,0.3,0.6,0.6,0.5c0.9,0,1.8-0.9,2.7-2.8l0.5,0.2c-0.4,1.3-1.1,2.5-2,3.5
					c-0.6,0.7-1.4,1-2.3,1.1c-0.6,0-1.2-0.3-1.4-0.9c-0.3-0.9-0.3-1.8-0.1-2.7l0.1-0.7h-0.1c-0.9,1.2-2,2.3-3.1,3.3
					C135.4,191.6,134.4,192,133.3,192z M132.2,186.6c-0.1,1,0.1,1.9,0.6,2.8c0.4,0.6,1,0.9,1.7,0.9c1-0.1,1.9-0.4,2.6-1.1
					c1-0.8,1.9-1.7,2.6-2.8l1.4-8.3c-0.4-0.4-0.8-0.8-1.3-1.1c-0.5-0.3-1.1-0.4-1.6-0.4c-0.9,0-1.7,0.3-2.4,0.8
					c-0.8,0.6-1.4,1.4-1.9,2.2c-0.6,1-1,2.1-1.2,3.2C132.3,184.1,132.2,185.4,132.2,186.6z"/>
				<path class="st0" d="M156.4,191.7l2.5-14.1l-2.4-0.7v-0.3l4.2-0.9h0.2l-0.2,3.8h0.1c0.7-0.8,1.4-1.5,2.2-2.2
					c0.5-0.5,1.2-0.9,1.8-1.2c0.6-0.3,1.3-0.4,1.9-0.4c1-0.1,2,0.5,2.6,1.3c0.6,1.2,0.8,2.6,0.4,3.8l-1.2,6.8
					c-0.2,0.6-0.2,1.3-0.1,1.9c0,0.3,0.3,0.6,0.6,0.5c0.9,0,1.8-0.9,2.7-2.8l0.5,0.2c-0.4,1.3-1.1,2.5-2,3.5c-0.6,0.6-1.4,1-2.3,1.1
					c-0.6,0-1.2-0.3-1.4-0.9c-0.3-0.9-0.3-1.8-0.1-2.7l1.4-7.8c0.2-0.8,0.1-1.6-0.2-2.4c-0.4-0.7-1.1-1.1-1.9-1
					c-0.6,0-1.2,0.2-1.8,0.5c-0.6,0.4-1.2,0.8-1.7,1.3c-0.6,0.5-1.1,1-1.6,1.6l-1.9,11.1L156.4,191.7z"/>
				<path class="st0" d="M179.4,192c-1.5,0.1-2.9-0.5-3.9-1.6c-0.9-1.2-1.3-2.7-1.2-4.2c0-1.4,0.2-2.7,0.7-4
					c0.4-1.2,1.1-2.4,1.9-3.4c0.8-1,1.7-1.8,2.8-2.4c1-0.6,2.1-0.9,3.2-0.9c1-0.1,1.9,0.2,2.7,0.8c0.5,0.5,0.9,1.2,0.9,1.9
					c0,0.8-0.4,1.5-1,2.1c-0.9,0.8-2,1.4-3.2,1.7c-1.9,0.6-3.9,1-5.9,1.3c-0.1,0.7-0.1,1.4-0.1,2.1c-0.1,1.3,0.3,2.6,1.1,3.7
					c0.7,0.9,1.9,1.4,3,1.3c1.9,0,3.5-1.1,4.9-3.3h0.1l0.3,0.2c-0.6,1.3-1.5,2.4-2.5,3.3C182.1,191.6,180.8,192,179.4,192z
					 M182.2,176.6c-1.3,0-2.6,0.6-3.5,1.6c-1.1,1.2-1.8,2.7-2.1,4.4c2.1-0.2,4.1-0.8,6-1.6c1.1-0.4,1.8-1.4,1.8-2.5
					c0-0.5-0.2-1-0.5-1.3C183.4,176.7,182.8,176.5,182.2,176.6z"/>
				<path class="st0" d="M192.3,192c-0.9,0-1.8-0.4-2.3-1.2c-0.7-1-1-2.3-0.9-3.5c0-1.4,0.3-2.8,0.7-4.1c0.5-1.4,1.1-2.6,2-3.8
					c0.8-1.1,1.7-2,2.9-2.8c1-0.7,2.2-1,3.4-1c0.6,0,1.1,0.1,1.7,0.3c0.5,0.2,1,0.4,1.5,0.7l0.9-0.8h0.5l-2.1,11.8
					c-0.2,0.6-0.2,1.3-0.1,1.9c0,0.3,0.3,0.6,0.6,0.5c1,0,1.9-0.9,2.7-2.8l0.5,0.2c-0.5,1.3-1.2,2.5-2.1,3.5c-0.6,0.6-1.4,1-2.2,1.1
					c-0.6,0-1.2-0.3-1.5-0.9c-0.3-0.9-0.3-1.8-0.1-2.7l0.1-0.7h-0.1c-0.9,1.2-1.9,2.3-3.1,3.2C194.5,191.6,193.4,192,192.3,192z
					 M191.1,186.6c0,2.4,0.8,3.7,2.3,3.7c0.7,0,1.3-0.2,1.9-0.6c0.7-0.4,1.3-0.9,1.8-1.5c0.6-0.6,1.1-1.2,1.6-1.9l1.4-8.2
					c-0.4-0.4-0.8-0.8-1.3-1c-0.5-0.3-1.1-0.4-1.7-0.4c-0.9,0-1.8,0.3-2.5,0.8c-0.8,0.6-1.4,1.4-1.9,2.3c-0.6,1-1,2.1-1.2,3.2
					C191.3,184.2,191.1,185.4,191.1,186.6z"/>
				<path class="st0" d="M207.1,191.7l2.5-14.1l-2.5-0.7v-0.3l4.3-0.9h0.1l-0.3,4.1h0.1c0.6-1,1.2-1.9,2-2.7
					c0.4-0.5,0.9-0.8,1.5-1.1c0.4-0.2,0.8-0.3,1.2-0.3c0.4,0,0.8,0.1,1.1,0.3c0.3,0.2,0.4,0.4,0.5,0.7c0,0.1,0,0.3-0.1,0.4l-0.7,1.3
					h-0.1l-0.5-0.3c-0.3-0.2-0.7-0.3-1.1-0.3c-0.7,0-1.4,0.3-1.9,0.8c-0.9,0.9-1.7,1.8-2.3,2.9l-1.8,10.3L207.1,191.7z"/>
				<path class="st0" d="M229.8,192c-0.6,0-1.2-0.2-1.6-0.7c-0.4-0.5-0.6-1.2-0.5-1.9c0-0.2,0-0.4,0.1-0.6c0-0.2,0.1-0.4,0.1-0.7
					l1.9-11.1H227v-0.2l3.1-1.1l2.3-3.8h0.2l-0.7,3.8h4.2v1.3h-4.5l-1.7,9.7c0,0.3-0.1,0.6-0.1,0.9c0,0.2-0.1,0.5-0.1,0.7
					c0,0.4,0.1,0.8,0.3,1.2c0.2,0.2,0.5,0.4,0.8,0.4c0.7-0.1,1.3-0.4,1.8-0.9c0.7-0.8,1.3-1.7,1.7-2.8l0.5,0.2
					c-0.5,1.6-1.3,3-2.4,4.2C231.8,191.5,230.8,192,229.8,192z"/>
				<path class="st0" d="M239.9,191.7h-2.1l4.3-24.3l-2.5-0.7v-0.3l4.7-0.9h0.2l-2.5,13.9h0.1c0.7-0.8,1.4-1.5,2.2-2.2
					c0.5-0.5,1.2-0.9,1.8-1.2c0.6-0.3,1.3-0.4,1.9-0.4c1-0.1,2,0.5,2.6,1.3c0.6,1.2,0.8,2.6,0.4,3.8l-1.2,6.8
					c-0.2,0.6-0.2,1.3-0.1,1.9c0,0.3,0.3,0.6,0.6,0.5c0.9,0,1.8-0.9,2.7-2.8l0.5,0.2c-0.5,1.3-1.2,2.5-2.1,3.5
					c-0.6,0.7-1.4,1-2.2,1.1c-0.6,0-1.2-0.3-1.4-0.9c-0.3-0.9-0.3-1.8-0.1-2.7l1.4-7.8c0.2-0.8,0.1-1.6-0.2-2.4
					c-0.4-0.7-1.1-1.1-1.9-1c-1,0-1.9,0.4-2.6,1.1c-0.9,0.7-1.7,1.5-2.4,2.3L239.9,191.7z"/>
				<path class="st0" d="M260.8,192c-1.5,0.1-2.9-0.5-3.9-1.6c-0.9-1.2-1.3-2.7-1.2-4.2c0-1.4,0.2-2.7,0.7-4
					c0.4-1.2,1.1-2.4,1.9-3.4c0.8-1,1.7-1.8,2.8-2.4c1-0.6,2.1-0.9,3.2-0.9c1-0.1,1.9,0.2,2.7,0.8c0.5,0.5,0.9,1.2,0.9,1.9
					c0,0.8-0.4,1.5-1,2.1c-0.9,0.8-2,1.4-3.2,1.7c-1.9,0.6-3.9,1-5.9,1.3c-0.1,0.7-0.1,1.4-0.1,2.1c-0.1,1.3,0.3,2.6,1,3.7
					c0.7,0.9,1.9,1.4,3,1.3c1.9,0,3.5-1.1,4.9-3.3h0.1l0.3,0.2c-0.6,1.3-1.5,2.4-2.5,3.3C263.5,191.6,262.2,192,260.8,192z
					 M263.6,176.6c-1.3,0-2.6,0.6-3.5,1.6c-1.1,1.2-1.8,2.7-2.1,4.4c2.1-0.2,4.1-0.8,6-1.6c1.1-0.4,1.8-1.4,1.8-2.5
					c0-0.5-0.2-1-0.5-1.3C264.8,176.7,264.2,176.5,263.6,176.6L263.6,176.6z"/>
				<path class="st0" d="M8.4,232c-0.6,0-1.2-0.1-1.8-0.3c-0.6-0.2-1.1-0.4-1.6-0.8l-1.3,0.9H3.4l4.3-24.5l-2.4-0.7v-0.3l4.6-0.9
					h0.2l-2.5,14.4h0.1c0.9-1.1,1.8-2.1,2.9-3.1c0.9-0.8,2-1.2,3.1-1.2c0.9,0,1.8,0.5,2.3,1.3c0.7,1.1,1,2.4,0.9,3.7
					c0,1.4-0.2,2.9-0.7,4.2c-0.4,1.3-1.1,2.6-1.9,3.7c-0.7,1-1.7,1.9-2.7,2.6C10.7,231.7,9.6,232,8.4,232z M12.6,217.3
					c-1,0.1-1.9,0.4-2.6,1.1c-1,0.8-1.9,1.7-2.7,2.8L6,229.3c0.4,0.5,1,1,1.7,1.3c0.5,0.2,1.1,0.3,1.7,0.3c1.1,0,2.1-0.4,2.8-1.2
					c1-0.9,1.7-2.1,2.1-3.4c0.5-1.6,0.8-3.4,0.8-5.1c0.1-1-0.1-2-0.6-3C14,217.7,13.4,217.3,12.6,217.3L12.6,217.3z"/>
				<path class="st0" d="M25.7,232c-1.6,0.1-3.1-0.6-4.1-1.8c-1-1.3-1.5-3-1.4-4.6c0-1.3,0.2-2.5,0.6-3.7c0.4-1.2,1-2.2,1.7-3.2
					c0.7-0.9,1.6-1.7,2.6-2.3c1-0.6,2.1-0.8,3.2-0.8c1.6-0.1,3.1,0.6,4.1,1.8c1,1.4,1.5,3,1.4,4.7c0,1.2-0.2,2.4-0.6,3.5
					c-0.4,1.2-0.9,2.3-1.7,3.2c-0.7,1-1.6,1.8-2.6,2.4C28.1,231.7,26.9,232,25.7,232z M26.2,231c1.1,0,2.1-0.4,2.8-1.2
					c0.9-0.9,1.5-2,1.9-3.2c0.5-1.4,0.7-3,0.7-4.5c0.1-1.4-0.2-2.8-0.9-4c-0.6-1-1.7-1.6-2.8-1.5c-1.1,0-2.1,0.4-2.9,1.2
					c-0.9,0.9-1.6,2-1.9,3.1c-0.5,1.5-0.7,3-0.7,4.5c-0.1,1.4,0.2,2.8,0.9,4.1C23.9,230.5,25,231.1,26.2,231z"/>
				<path class="st0" d="M40.3,232c-0.9,0-1.8-0.4-2.3-1.2c-0.7-1-1-2.3-0.9-3.5c0-1.4,0.3-2.8,0.7-4.1c0.5-1.4,1.1-2.6,2-3.8
					c0.8-1.1,1.7-2,2.9-2.8c1-0.7,2.2-1,3.4-1c0.6,0,1.1,0.1,1.7,0.3c0.5,0.2,1,0.4,1.5,0.7l0.9-0.8h0.5l-2.1,11.8
					c-0.2,0.6-0.2,1.3-0.1,1.9c0,0.3,0.3,0.6,0.6,0.5c1,0,1.9-0.9,2.7-2.8l0.5,0.2c-0.5,1.3-1.2,2.5-2.1,3.5c-0.6,0.6-1.4,1-2.2,1.1
					c-0.6,0-1.2-0.3-1.5-0.9c-0.3-0.9-0.3-1.8-0.1-2.7l0.1-0.7h-0.1c-0.9,1.2-1.9,2.3-3.1,3.2C42.4,231.6,41.4,232,40.3,232z
					 M39.1,226.6c0,2.4,0.8,3.7,2.3,3.7c0.7,0,1.3-0.2,1.9-0.6c0.7-0.4,1.3-0.9,1.8-1.5c0.6-0.6,1.1-1.2,1.6-1.9l1.4-8.2
					c-0.4-0.4-0.8-0.8-1.3-1c-0.5-0.3-1.1-0.4-1.7-0.4c-0.9,0-1.8,0.3-2.5,0.8c-0.8,0.6-1.4,1.4-1.9,2.3c-0.6,1-1,2.1-1.2,3.2
					C39.3,224.2,39.1,225.4,39.1,226.6z"/>
				<path class="st0" d="M57.5,232c-0.6,0-1.2-0.2-1.6-0.7c-0.4-0.5-0.6-1.2-0.5-1.9c0-0.2,0-0.4,0.1-0.6c0-0.2,0.1-0.4,0.1-0.7
					l1.9-11.1h-2.7v-0.2l3.1-1.1l2.3-3.8h0.2l-0.7,3.8h4.2v1.3h-4.5l-1.7,9.7c0,0.3-0.1,0.6-0.1,0.9c0,0.2-0.1,0.5-0.1,0.7
					c0,0.4,0.1,0.8,0.3,1.2c0.2,0.2,0.5,0.4,0.8,0.4c0.7-0.1,1.3-0.4,1.8-0.9c0.7-0.8,1.3-1.7,1.7-2.8l0.5,0.2
					c-0.5,1.6-1.3,3-2.4,4.2C59.5,231.5,58.5,232,57.5,232z"/>
				<path class="st0" d="M75.1,231.9c-0.4,0-0.8-0.1-1.1-0.4c-0.3-0.3-0.4-0.7-0.4-1.1c0-0.5,0.2-1,0.5-1.4c0.3-0.4,0.9-0.6,1.4-0.6
					c0.4,0,0.9,0.1,1.1,0.5c0.3,0.3,0.4,0.7,0.4,1.1c0,0.5-0.2,1-0.5,1.4C76.2,231.7,75.6,231.9,75.1,231.9z M82.1,231.9
					c-0.4,0-0.8-0.1-1.1-0.4c-0.3-0.3-0.4-0.7-0.4-1.1c0-0.5,0.2-1,0.5-1.4c0.3-0.4,0.9-0.6,1.4-0.6c0.4,0,0.9,0.1,1.1,0.5
					c0.3,0.3,0.4,0.7,0.4,1.1c0,0.5-0.2,1-0.5,1.4C83.2,231.7,82.6,231.9,82.1,231.9z M89.1,231.9c-0.4,0-0.8-0.1-1.1-0.4
					c-0.3-0.3-0.4-0.7-0.4-1.1c0-0.5,0.2-1,0.5-1.4c0.3-0.4,0.9-0.6,1.4-0.6c0.4,0,0.9,0.1,1.1,0.5c0.3,0.3,0.4,0.7,0.4,1.1
					c0,0.5-0.2,1-0.5,1.4C90.2,231.7,89.6,231.9,89.1,231.9z"/>
				<path class="st0" d="M110,232c-1.4,0.1-2.8-0.4-3.9-1.4c-0.9-0.9-1.4-2.2-1.4-3.5c0-1.6,0.5-3.1,1.5-4.3
					c1.3-1.4,2.9-2.6,4.6-3.6c-0.5-0.7-1-1.5-1.4-2.3c-0.4-0.9-0.6-1.8-0.5-2.7c0-1.1,0.3-2.2,0.8-3.1c0.5-0.9,1.3-1.6,2.2-2.1
					c1-0.5,2-0.8,3.1-0.8c1.3-0.1,2.5,0.3,3.6,1.1c0.8,0.7,1.3,1.7,1.3,2.8c0,1.4-0.6,2.6-1.6,3.5c-1.5,1.3-3.2,2.3-5,3.1
					c0.2,0.2,0.4,0.5,0.6,0.7l4.9,6.4c1.5-1.9,2.8-4.1,3.8-6.3l-3-1l0.1-0.5h7.5l-0.1,0.5l-2.8,0.9c-0.8,1.4-1.6,2.7-2.4,3.9
					c-0.7,1.1-1.6,2.2-2.4,3.3l0.4,0.5c0.7,0.9,1.4,1.8,2.3,2.5c0.7,0.6,1.6,0.9,2.5,0.9c0.8,0,1.5-0.3,2.1-0.8h0.1l0.3,0.4
					c-0.4,0.6-1,1.1-1.6,1.4c-0.6,0.3-1.3,0.5-2,0.5c-1.2,0.1-2.3-0.3-3.2-1c-0.9-0.8-1.7-1.7-2.4-2.6c-1.1,1.1-2.3,2-3.6,2.7
					C112.8,231.7,111.4,232,110,232z M107,226.3c0,1.1,0.3,2.2,1.1,3c0.8,0.8,1.9,1.3,3.1,1.2c1.1,0,2.1-0.3,3-0.7
					c1.1-0.5,2.1-1.3,2.9-2.1l-4.6-6.1l-0.7-0.9c-0.2-0.3-0.5-0.6-0.7-0.9c-1.3,0.8-2.4,1.8-3.2,3C107.3,223.9,107,225.1,107,226.3z
					 M110.8,213.4c0,0.8,0.2,1.6,0.5,2.4c0.4,0.9,0.9,1.7,1.5,2.5c1.4-0.8,2.7-1.8,3.7-3c0.7-0.9,1.1-1.9,1.1-3c0-0.8-0.2-1.5-0.7-2
					c-0.6-0.6-1.4-0.9-2.2-0.8c-1,0-2,0.4-2.7,1.1C111.2,211.2,110.8,212.3,110.8,213.4z"/>
				<path class="st0" d="M143.3,231.8l-2.8-14.3l-2.6-0.7v-0.3l4.2-0.9h0.1l2.2,12.7h0.1l5.6-12.4h0.4l2.6,12.7h0.1l2.4-4.6
					c0.7-1.2,1.1-2.3,1.5-3c0.3-0.6,0.5-1.3,0.5-2c0-0.3-0.1-0.7-0.2-0.9c-0.2-0.2-0.4-0.4-0.6-0.6l-0.5-0.3V217l0.6-0.9
					c0.1-0.2,0.2-0.3,0.4-0.5c0.1-0.1,0.3-0.1,0.4-0.1c0.5,0,1,0.3,1.2,0.8c0.3,0.5,0.5,1.1,0.5,1.7c0,0.7-0.2,1.3-0.5,1.9
					c-0.5,1.1-1,2.2-1.7,3.2l-4.9,8.5H152l-2.5-11.6l-5.7,11.6L143.3,231.8z"/>
				<path class="st0" d="M166.5,232c-1.5,0.1-2.9-0.5-3.9-1.6c-0.9-1.2-1.3-2.7-1.2-4.2c0-1.4,0.2-2.7,0.7-4
					c0.4-1.2,1.1-2.4,1.9-3.4c0.8-1,1.7-1.8,2.8-2.4c1-0.6,2.1-0.9,3.2-0.9c1-0.1,1.9,0.2,2.7,0.8c0.5,0.5,0.9,1.2,0.9,1.9
					c0,0.8-0.4,1.5-1,2.1c-0.9,0.8-2,1.4-3.2,1.7c-1.9,0.6-3.9,1-5.9,1.3c-0.1,0.7-0.1,1.4-0.1,2.1c-0.1,1.3,0.3,2.6,1.1,3.7
					c0.7,0.9,1.9,1.4,3,1.3c1.9,0,3.5-1.1,4.9-3.3h0.1l0.3,0.2c-0.6,1.3-1.5,2.4-2.5,3.3C169.2,231.6,167.9,232,166.5,232z
					 M169.3,216.6c-1.3,0-2.6,0.6-3.5,1.6c-1.1,1.2-1.8,2.7-2.1,4.4c2.1-0.2,4.1-0.8,6-1.6c1.1-0.4,1.8-1.4,1.8-2.5
					c0-0.5-0.2-1-0.5-1.3C170.5,216.7,169.9,216.5,169.3,216.6L169.3,216.6z"/>
				<path class="st0" d="M176.9,231.7l2.5-14.1l-2.5-0.7v-0.3l4.3-0.9h0.1l-0.3,4.1h0.1c0.6-1,1.2-1.9,2-2.7
					c0.4-0.5,0.9-0.8,1.5-1.1c0.4-0.2,0.8-0.3,1.2-0.3c0.4,0,0.8,0.1,1.1,0.3c0.3,0.2,0.4,0.4,0.5,0.7c0,0.1,0,0.3-0.1,0.4l-0.7,1.3
					h-0.1L186,218c-0.3-0.2-0.7-0.3-1.1-0.3c-0.7,0-1.4,0.3-1.9,0.8c-0.9,0.9-1.7,1.8-2.3,2.9l-1.8,10.3L176.9,231.7z"/>
				<path class="st0" d="M193.1,232c-1.5,0.1-2.9-0.5-3.9-1.6c-0.9-1.2-1.3-2.7-1.2-4.2c0-1.4,0.2-2.7,0.7-4
					c0.4-1.2,1.1-2.4,1.9-3.4c0.8-1,1.7-1.8,2.8-2.4c1-0.6,2.1-0.9,3.2-0.9c1-0.1,1.9,0.2,2.7,0.8c0.5,0.5,0.9,1.2,0.9,1.9
					c0,0.8-0.4,1.5-1,2.1c-0.9,0.8-2,1.4-3.2,1.7c-1.9,0.6-3.9,1-5.9,1.3c-0.1,0.7-0.1,1.4-0.1,2.1c-0.1,1.3,0.3,2.6,1.1,3.7
					c0.7,0.9,1.9,1.4,3,1.3c1.9,0,3.5-1.1,4.9-3.3h0.1l0.3,0.2c-0.6,1.3-1.5,2.4-2.5,3.3C195.7,231.6,194.4,232,193.1,232z
					 M195.8,216.6c-1.3,0-2.6,0.6-3.5,1.6c-1.1,1.2-1.8,2.7-2.1,4.4c2.1-0.2,4.1-0.8,6-1.6c1.1-0.4,1.8-1.4,1.8-2.5
					c0-0.5-0.2-1-0.5-1.3C197,216.7,196.4,216.5,195.8,216.6z"/>
				<path class="st0" d="M211.6,231.7l4.2-24.3l-2.4-0.7v-0.3l4.7-0.9h0.2l-4.6,26.2H211.6z M221.7,232c-0.6,0-1.1-0.3-1.5-0.7
					c-0.5-0.8-1-1.6-1.5-2.4l-3.3-6.1v-0.2c1.7-1.8,3.1-3.2,4.1-4.2c0.8-0.8,1.6-1.5,2.5-2.2c0.5-0.4,1.1-0.6,1.7-0.7
					c0.2,0,0.5,0,0.7,0.1c0.2,0,0.3,0.1,0.4,0.2c0.3,0.2,0.5,0.6,0.3,0.9c0,0,0,0.1,0,0.1l-0.5,1.2l-0.1,0.1l-0.5-0.2
					c-0.4-0.2-0.8-0.3-1.2-0.3c-0.4,0-0.8,0.2-1.2,0.4c-0.4,0.2-0.8,0.5-1.1,0.9l-3.3,3.1l3.4,5.9c0.3,0.6,0.7,1.2,1.1,1.7
					c0.2,0.3,0.5,0.4,0.9,0.4c0.8,0,1.6-0.9,2.4-2.8l0.5,0.2c-0.5,1.2-1.1,2.4-1.8,3.5C223.2,231.6,222.5,232,221.7,232z"/>
				<path class="st0" d="M233,232c-1.5,0.1-2.9-0.5-3.9-1.6c-0.9-1.2-1.3-2.7-1.2-4.2c0-1.4,0.2-2.7,0.7-4c0.4-1.2,1.1-2.4,1.9-3.4
					c0.8-1,1.7-1.8,2.8-2.4c1-0.6,2.1-0.9,3.2-0.9c1-0.1,1.9,0.2,2.7,0.8c0.5,0.5,0.9,1.2,0.9,1.9c0,0.8-0.4,1.5-1,2.1
					c-0.9,0.8-2,1.4-3.2,1.7c-1.9,0.6-3.9,1-5.9,1.3c-0.1,0.7-0.1,1.4-0.1,2.1c-0.1,1.3,0.3,2.6,1.1,3.7c0.7,0.9,1.9,1.4,3,1.3
					c1.9,0,3.5-1.1,4.9-3.3h0.1l0.3,0.2c-0.6,1.3-1.5,2.4-2.5,3.3C235.6,231.6,234.3,232,233,232z M235.7,216.6
					c-1.3,0-2.6,0.6-3.5,1.6c-1.1,1.2-1.8,2.7-2.1,4.4c2.1-0.2,4.1-0.8,6-1.6c1.1-0.4,1.8-1.4,1.8-2.5c0-0.5-0.2-1-0.5-1.3
					C236.9,216.7,236.3,216.5,235.7,216.6L235.7,216.6z"/>
				<path class="st0" d="M240.4,239.7v-0.5l1.9-0.8l3.7-20.9l-2.4-0.7v-0.3l4.2-0.9h0.2l-0.3,4.2h0.1c0.9-1.2,1.9-2.2,3-3.1
					c0.8-0.7,1.9-1.1,3-1.1c0.9,0,1.8,0.5,2.3,1.3c0.7,1.1,1,2.4,0.9,3.7c0,1.4-0.2,2.9-0.7,4.2c-0.4,1.3-1.1,2.6-1.9,3.7
					c-0.7,1-1.7,1.9-2.7,2.6c-1,0.6-2.1,1-3.2,1c-1,0-2-0.3-2.8-0.7l-1.2,7.1l2.7,0.9v0.5L240.4,239.7z M252.6,217.3
					c-0.7,0-1.3,0.2-1.8,0.6c-0.7,0.4-1.3,0.9-1.8,1.5c-0.6,0.6-1.1,1.2-1.6,1.9l-1.4,8.1c0.4,0.5,1,0.9,1.6,1.2
					c0.5,0.2,1.1,0.4,1.8,0.4c1.1,0,2.1-0.4,2.9-1.2c0.9-1,1.6-2.1,2-3.4c0.5-1.6,0.8-3.3,0.8-5
					C254.9,218.6,254.2,217.3,252.6,217.3L252.6,217.3z"/>
				<path class="st0" d="M262.8,232c-0.6,0-1.2-0.2-1.6-0.7c-0.4-0.5-0.6-1.2-0.5-1.9c0-0.2,0-0.4,0.1-0.6c0-0.2,0.1-0.4,0.1-0.7
					l1.9-11.1H260v-0.2l3.1-1.1l2.3-3.8h0.2l-0.7,3.8h4.2v1.3h-4.5l-1.7,9.7c0,0.3-0.1,0.6-0.1,0.9c0,0.2-0.1,0.5-0.1,0.7
					c0,0.4,0.1,0.8,0.3,1.2c0.2,0.2,0.5,0.4,0.8,0.4c0.7-0.1,1.3-0.4,1.8-0.9c0.7-0.8,1.3-1.7,1.7-2.8l0.5,0.2
					c-0.5,1.6-1.3,3-2.4,4.2C264.8,231.5,263.8,232,262.8,232z"/>
				<path class="st0" d="M25.9,272c-1.6,0.1-3.1-0.6-4.1-1.8c-1-1.3-1.5-3-1.4-4.6c0-1.3,0.2-2.5,0.6-3.7c0.4-1.2,1-2.2,1.7-3.2
					c0.7-0.9,1.6-1.7,2.6-2.3c1-0.6,2.1-0.8,3.2-0.8c1.6-0.1,3.1,0.6,4.1,1.8c1,1.4,1.5,3,1.4,4.7c0,1.2-0.2,2.4-0.6,3.5
					c-0.4,1.2-0.9,2.3-1.7,3.2c-0.7,1-1.6,1.8-2.6,2.4C28.2,271.7,27,272,25.9,272z M26.3,271c1.1,0,2.1-0.4,2.8-1.2
					c0.9-0.9,1.5-2,1.9-3.2c0.5-1.4,0.7-3,0.7-4.5c0.1-1.4-0.2-2.8-0.9-4c-0.6-1-1.7-1.6-2.8-1.5c-1.1,0-2.1,0.4-2.9,1.2
					c-0.9,0.9-1.6,2-1.9,3.1c-0.5,1.5-0.7,3-0.7,4.5c-0.1,1.4,0.2,2.8,0.9,4.1C24.1,270.5,25.2,271.1,26.3,271z"/>
				<path class="st0" d="M32.7,280.1c-0.4,0-0.8-0.1-1.1-0.3c-0.2-0.1-0.3-0.4-0.4-0.6c0-0.2,0.1-0.3,0.2-0.5l0.5-1H32l0.6,0.3
					c0.2,0.1,0.5,0.2,0.8,0.2c0.3,0,0.5,0.1,0.8,0.1c1.1-0.1,2-0.7,2.4-1.8c0.8-1.6,1.3-3.4,1.4-5.2l2.1-14.1h-2.8v-1.3h3l0.2-1.4
					c0.2-0.9,0.5-1.8,0.9-2.7c0.5-1.1,1.2-2.1,1.9-3c0.7-0.9,1.6-1.8,2.6-2.4c0.9-0.6,1.9-1,3-1c0.3,0,0.6,0.1,0.8,0.2
					c0.2,0.1,0.3,0.2,0.3,0.4c0,0.1,0,0.2-0.1,0.3c0,0.1-0.1,0.2-0.1,0.3l-0.5,1h-0.1l-0.5-0.2c-0.2-0.1-0.4-0.2-0.6-0.2
					c-0.2,0-0.4-0.1-0.7-0.1c-1.2,0-2.3,0.6-2.9,1.5c-0.9,1.3-1.5,2.8-1.6,4.4l-0.4,2.8H51l0.2-1.4c0.2-0.9,0.5-1.8,0.9-2.7
					c0.5-1.1,1.2-2.1,1.9-3c0.8-1,1.7-1.8,2.7-2.4c1-0.6,2.1-1,3.2-1c0.3,0,0.7,0.1,0.9,0.2c0.4,0.2,0.6,0.5,0.6,0.7
					c0,0.2-0.1,0.3-0.1,0.5l-0.6,1h-0.1l-0.7-0.3c-0.6-0.3-1.3-0.4-2-0.4c-1.1,0-2.2,0.6-2.8,1.5c-0.9,1.3-1.4,2.8-1.6,4.4l-0.4,2.8
					H57v1.3h-4.1l-2,13.5c-0.2,1-0.4,1.9-0.8,2.8c-0.4,1.1-1,2.1-1.7,3.1c-0.6,0.9-1.4,1.8-2.3,2.5c-0.8,0.6-1.7,1-2.7,1
					c-0.4,0-0.8-0.1-1.1-0.3c-0.2-0.1-0.3-0.4-0.3-0.6c0-0.2,0.1-0.3,0.2-0.5l0.5-1h0.1l0.6,0.3c0.2,0.1,0.5,0.2,0.8,0.2
					c0.3,0,0.5,0.1,0.8,0.1c1.1-0.1,2-0.7,2.4-1.8c0.8-1.6,1.3-3.4,1.4-5.2l2.1-14.1h-8.7l-2,13.5c-0.2,1-0.4,1.9-0.8,2.8
					c-0.4,1.1-1,2.1-1.7,3.1c-0.6,0.9-1.4,1.8-2.3,2.5C34.6,279.7,33.7,280.1,32.7,280.1z"/>
				<path class="st0" d="M71.5,271.8l-2.8-14.3l-2.6-0.7v-0.3l4.2-0.9h0.1l2.2,12.7h0.1l5.6-12.4h0.4l2.6,12.7h0.1l2.4-4.6
					c0.7-1.2,1.1-2.3,1.5-3c0.3-0.6,0.5-1.3,0.5-2c0-0.3-0.1-0.7-0.2-0.9c-0.2-0.2-0.4-0.4-0.6-0.6l-0.5-0.3V257l0.6-0.9
					c0.1-0.2,0.2-0.3,0.4-0.5c0.1-0.1,0.3-0.1,0.4-0.1c0.5,0,1,0.3,1.2,0.8c0.3,0.5,0.5,1.1,0.5,1.7c0,0.7-0.2,1.3-0.5,1.9
					c-0.5,1.1-1,2.2-1.7,3.2l-4.9,8.5h-0.5l-2.5-11.6L72,271.8H71.5z"/>
				<path class="st0" d="M92.1,272c-0.6,0-1.2-0.3-1.5-0.9c-0.3-0.9-0.3-1.8-0.1-2.7l1.9-11l-2.6-0.7v-0.3l4.7-0.9h0.3l-2.1,11.9
					c-0.2,0.6-0.2,1.3-0.1,1.9c0,0.3,0.3,0.6,0.6,0.5c0.9,0,1.8-0.9,2.7-2.8l0.5,0.2c-0.5,1.3-1.2,2.5-2.1,3.5
					C93.8,271.6,93,272,92.1,272z M94.7,250.5c-0.4,0-0.8-0.2-1.1-0.5c-0.3-0.3-0.5-0.7-0.5-1.1c0-0.8,0.7-1.5,1.5-1.5
					c0.4,0,0.8,0.2,1.1,0.5c0.3,0.3,0.5,0.7,0.5,1.1C96.3,249.8,95.6,250.5,94.7,250.5C94.8,250.5,94.8,250.5,94.7,250.5L94.7,250.5
					z"/>
				<path class="st0" d="M102,272c-0.6,0-1.2-0.2-1.6-0.7c-0.4-0.5-0.6-1.2-0.5-1.9c0-0.2,0-0.4,0.1-0.6c0-0.2,0.1-0.4,0.1-0.7
					l1.9-11.1h-2.7v-0.2l3.1-1.1l2.3-3.8h0.2l-0.7,3.8h4.2v1.3h-4.5l-1.7,9.7c0,0.3-0.1,0.6-0.1,0.9c0,0.2,0,0.5-0.1,0.7
					c0,0.4,0.1,0.8,0.3,1.2c0.2,0.2,0.5,0.4,0.8,0.4c0.7-0.1,1.3-0.4,1.8-0.9c0.7-0.8,1.3-1.7,1.7-2.8l0.5,0.2
					c-0.5,1.6-1.3,3-2.4,4.2C104,271.5,103,272,102,272z"/>
				<path class="st0" d="M112,271.7H110l4.3-24.3l-2.4-0.7v-0.3l4.7-0.9h0.2l-2.4,13.9h0.1c0.7-0.8,1.4-1.5,2.2-2.2
					c0.5-0.5,1.2-0.9,1.8-1.2c0.6-0.3,1.3-0.4,1.9-0.4c1-0.1,2,0.5,2.6,1.3c0.6,1.2,0.8,2.6,0.4,3.8l-1.2,6.8
					c-0.2,0.6-0.2,1.3-0.1,1.9c0,0.3,0.3,0.6,0.6,0.5c0.9,0,1.8-0.9,2.7-2.8l0.5,0.2c-0.5,1.3-1.2,2.5-2.1,3.5
					c-0.6,0.7-1.4,1-2.2,1.1c-0.6,0-1.2-0.3-1.4-0.9c-0.3-0.9-0.3-1.8-0.1-2.7l1.4-7.8c0.2-0.8,0.1-1.6-0.2-2.4
					c-0.4-0.7-1.1-1.1-1.9-1c-1,0-1.9,0.4-2.6,1c-0.9,0.7-1.7,1.5-2.4,2.3L112,271.7z"/>
				<path class="st0" d="M139.8,272c-0.9,0-1.8-0.4-2.3-1.2c-0.7-1-1-2.3-0.9-3.5c0-1.4,0.3-2.8,0.7-4.1c0.5-1.4,1.1-2.6,2-3.8
					c0.8-1.1,1.7-2,2.9-2.8c1-0.7,2.2-1,3.4-1c0.6,0,1.1,0.1,1.7,0.3c0.5,0.2,1,0.4,1.5,0.7l0.9-0.8h0.5l-2.1,11.8
					c-0.2,0.6-0.2,1.3-0.1,1.9c0,0.3,0.3,0.6,0.6,0.5c1,0,1.9-0.9,2.7-2.8l0.5,0.2c-0.5,1.3-1.2,2.5-2.1,3.5c-0.6,0.6-1.4,1-2.2,1.1
					c-0.6,0-1.2-0.3-1.5-0.9c-0.3-0.9-0.3-1.8-0.1-2.7l0.1-0.7h-0.1c-0.9,1.2-1.9,2.3-3.1,3.2C142,271.6,140.9,272,139.8,272z
					 M138.7,266.6c0,2.4,0.8,3.7,2.3,3.7c0.7,0,1.3-0.2,1.9-0.6c0.7-0.4,1.3-0.9,1.8-1.5c0.6-0.6,1.1-1.2,1.6-1.9l1.4-8.2
					c-0.4-0.4-0.8-0.8-1.3-1c-0.5-0.3-1.1-0.4-1.7-0.4c-0.9,0-1.8,0.3-2.5,0.8c-0.8,0.6-1.4,1.4-1.9,2.3c-0.6,1-1,2.1-1.2,3.2
					C138.8,264.2,138.7,265.4,138.7,266.6L138.7,266.6z"/>
				<path class="st0" d="M163.2,271.7l2.5-14.1l-2.5-0.7v-0.3l4.3-0.9h0.1l-0.3,4.1h0.1c0.6-1,1.2-1.9,2-2.7
					c0.4-0.5,0.9-0.8,1.5-1.1c0.4-0.2,0.8-0.3,1.2-0.3c0.4,0,0.8,0.1,1.1,0.3c0.3,0.2,0.4,0.4,0.5,0.7c0,0.1,0,0.3-0.1,0.4l-0.7,1.3
					h-0.1l-0.5-0.3c-0.3-0.2-0.7-0.3-1.1-0.3c-0.7,0-1.4,0.3-1.9,0.8c-0.9,0.9-1.6,1.8-2.3,2.9l-1.8,10.3L163.2,271.7z"/>
				<path class="st0" d="M179.4,272c-1.5,0.1-2.9-0.5-3.9-1.6c-0.9-1.2-1.3-2.7-1.2-4.2c0-1.4,0.2-2.7,0.7-4
					c0.4-1.2,1.1-2.4,1.9-3.4c0.8-1,1.7-1.8,2.8-2.4c1-0.6,2.1-0.9,3.2-0.9c1-0.1,1.9,0.2,2.7,0.8c0.5,0.5,0.9,1.2,0.9,1.9
					c0,0.8-0.4,1.5-1,2.1c-0.9,0.8-2,1.4-3.2,1.7c-1.9,0.6-3.9,1-5.9,1.3c-0.1,0.7-0.1,1.4-0.1,2.1c-0.1,1.3,0.3,2.6,1.1,3.7
					c0.7,0.9,1.9,1.4,3,1.3c1.9,0,3.5-1.1,4.9-3.3h0.1l0.3,0.2c-0.6,1.3-1.5,2.4-2.5,3.3C182.1,271.6,180.8,272,179.4,272z
					 M182.2,256.6c-1.3,0-2.6,0.6-3.5,1.6c-1.1,1.2-1.8,2.7-2.1,4.4c2.1-0.2,4.1-0.8,6-1.6c1.1-0.4,1.8-1.4,1.8-2.5
					c0-0.5-0.2-1-0.5-1.3C183.4,256.7,182.8,256.5,182.2,256.6z"/>
				<path class="st0" d="M193.9,271.8l-3-14.4l-2.6-0.6v-0.3l4.2-0.9h0.1l2.6,13.1h0.1l2.8-4.6c0.6-1,1.1-2,1.6-3
					c0.3-0.6,0.4-1.3,0.5-2c0-0.3-0.1-0.7-0.2-0.9c-0.2-0.2-0.4-0.4-0.6-0.6l-0.5-0.3v-0.1l0.6-0.9c0.1-0.2,0.2-0.3,0.4-0.5
					c0.1-0.1,0.3-0.1,0.4-0.1c0.5,0,1,0.3,1.2,0.8c0.3,0.5,0.5,1.1,0.5,1.7c0,0.7-0.2,1.3-0.5,1.9c-0.5,1.1-1.1,2.2-1.8,3.2
					l-5.3,8.5L193.9,271.8z"/>
				<path class="st0" d="M209.3,272c-1.6,0.1-3.1-0.6-4.1-1.8c-1-1.3-1.5-3-1.4-4.6c0-1.3,0.2-2.5,0.6-3.7c0.4-1.2,1-2.2,1.7-3.2
					c0.7-0.9,1.6-1.7,2.6-2.3c1-0.6,2.1-0.8,3.2-0.8c1.6-0.1,3.1,0.6,4.1,1.8c1,1.4,1.5,3,1.4,4.7c0,1.2-0.2,2.4-0.6,3.5
					c-0.4,1.2-0.9,2.3-1.7,3.2c-0.7,1-1.6,1.8-2.6,2.4C211.6,271.7,210.4,272,209.3,272z M209.7,271c1.1,0,2.1-0.4,2.8-1.2
					c0.9-0.9,1.5-2,1.9-3.2c0.5-1.4,0.7-3,0.7-4.5c0.1-1.4-0.2-2.8-0.9-4c-0.6-1-1.7-1.6-2.8-1.5c-1.1,0-2.1,0.4-2.9,1.2
					c-0.9,0.9-1.6,2-1.9,3.1c-0.5,1.5-0.7,3-0.7,4.5c-0.1,1.4,0.2,2.8,0.9,4.1C207.5,270.5,208.6,271.1,209.7,271z"/>
				<path class="st0" d="M222.6,272c-0.6,0-1.2-0.3-1.4-0.9c-0.3-0.9-0.3-1.8-0.1-2.7l3.7-21.1l-2.6-0.7v-0.3l4.7-0.9h0.3l-4,22.1
					c-0.2,0.6-0.2,1.3-0.1,1.9c0,0.3,0.3,0.6,0.6,0.5c0.5,0,1-0.3,1.4-0.7c0.6-0.6,1-1.3,1.3-2.1l0.5,0.2c-0.5,1.3-1.2,2.5-2.1,3.5
					C224.3,271.6,223.5,272,222.6,272z"/>
				<path class="st0" d="M234.2,271.8l-3-14.4l-2.6-0.6v-0.3l4.2-0.9h0.1l2.6,13.1h0.1l2.8-4.6c0.6-1,1.1-2,1.6-3
					c0.3-0.6,0.4-1.3,0.5-2c0-0.3-0.1-0.7-0.2-0.9c-0.2-0.2-0.4-0.4-0.6-0.6l-0.5-0.3v-0.1l0.6-0.9c0.1-0.2,0.2-0.3,0.4-0.5
					c0.1-0.1,0.3-0.1,0.4-0.1c0.5,0,1,0.3,1.2,0.8c0.3,0.5,0.5,1.1,0.5,1.7c0,0.7-0.2,1.3-0.5,1.9c-0.5,1.1-1.1,2.2-1.8,3.2
					l-5.3,8.5L234.2,271.8z"/>
				<path class="st0" d="M249.1,272c-1.5,0.1-2.9-0.5-3.9-1.6c-0.9-1.2-1.3-2.7-1.2-4.2c0-1.4,0.2-2.7,0.7-4
					c0.4-1.2,1.1-2.4,1.9-3.4c0.8-1,1.7-1.8,2.8-2.4c1-0.6,2.1-0.9,3.2-0.9c1-0.1,1.9,0.2,2.7,0.8c0.5,0.5,0.9,1.2,0.9,1.9
					c0,0.8-0.4,1.5-1,2.1c-0.9,0.8-2,1.4-3.2,1.7c-1.9,0.6-3.9,1-5.9,1.3c-0.1,0.7-0.1,1.4-0.1,2.1c-0.1,1.3,0.3,2.6,1,3.7
					c0.7,0.9,1.9,1.4,3,1.3c1.9,0,3.5-1.1,4.9-3.3h0.1l0.3,0.2c-0.6,1.3-1.5,2.4-2.5,3.3C251.8,271.6,250.5,272,249.1,272z
					 M251.9,256.6c-1.3,0-2.6,0.6-3.5,1.6c-1.1,1.2-1.8,2.7-2.1,4.4c2.1-0.2,4.1-0.8,6-1.6c1.1-0.4,1.8-1.4,1.8-2.5
					c0-0.5-0.2-1-0.5-1.3C253.1,256.7,252.5,256.5,251.9,256.6L251.9,256.6z"/>
				<path class="st0" d="M259.5,271.7l2.5-14.1l-2.5-0.7v-0.3l4.3-0.9h0.1l-0.3,4.1h0.1c0.6-1,1.2-1.9,2-2.7
					c0.4-0.5,0.9-0.8,1.5-1.1c0.4-0.2,0.8-0.3,1.2-0.3c0.4,0,0.8,0.1,1.1,0.3c0.3,0.2,0.4,0.4,0.5,0.7c0,0.1,0,0.3-0.1,0.4l-0.7,1.3
					h-0.1l-0.5-0.3c-0.3-0.2-0.7-0.3-1.1-0.3c-0.7,0-1.4,0.3-1.9,0.8c-0.9,0.9-1.6,1.8-2.3,2.9l-1.8,10.3L259.5,271.7z"/>
				<path class="st0" d="M79.1,312c-0.9,0-1.8-0.1-2.6-0.5c-0.6-0.2-1.1-0.6-1.5-1.1c-0.2-0.2-0.4-0.5-0.4-0.9
					c0-0.3,0.1-0.5,0.4-0.7l0.6-0.4h0.2l0.5,0.8c0.3,0.6,0.8,1,1.4,1.3c0.5,0.3,1.1,0.4,1.8,0.4c0.9,0,1.8-0.3,2.4-0.9
					c0.6-0.6,0.9-1.4,0.9-2.3c0-0.7-0.2-1.4-0.7-2c-0.6-0.6-1.3-1.1-2-1.5c-0.9-0.5-1.7-1.2-2.4-2c-0.5-0.7-0.8-1.5-0.7-2.3
					c0-0.8,0.3-1.5,0.7-2.1c0.5-0.7,1.2-1.3,1.9-1.7c0.7-0.4,1.6-0.7,2.5-0.7c0.7,0,1.5,0.1,2.2,0.4c0.5,0.2,1,0.6,1.4,1
					c0.2,0.2,0.3,0.5,0.3,0.8c0,0.1,0,0.3-0.1,0.4c-0.1,0.1-0.1,0.2-0.3,0.3l-0.5,0.4h-0.2l-0.6-0.8c-0.3-0.4-0.7-0.8-1.1-1.1
					c-0.5-0.3-1-0.4-1.5-0.4c-0.8,0-1.5,0.3-2.1,0.8c-0.5,0.5-0.8,1.1-0.8,1.8c0,0.7,0.2,1.4,0.6,1.9c0.5,0.6,1.1,1,1.7,1.4
					c1,0.5,1.8,1.2,2.6,1.9c0.6,0.7,0.9,1.7,0.9,2.7c0,0.8-0.2,1.6-0.7,2.3C82.8,311.1,81,312.1,79.1,312L79.1,312z"/>
				<path class="st0" d="M90.6,311.7h-2.1l4.3-24.3l-2.4-0.7v-0.3l4.7-0.9h0.2l-2.4,13.9h0.1c0.7-0.8,1.4-1.5,2.2-2.2
					c0.5-0.5,1.2-0.9,1.8-1.2c0.6-0.3,1.3-0.4,1.9-0.4c1-0.1,2,0.5,2.6,1.3c0.6,1.2,0.8,2.6,0.4,3.8l-1.2,6.8
					c-0.2,0.6-0.2,1.3-0.1,1.9c0,0.3,0.3,0.6,0.6,0.5c0.9,0,1.8-0.9,2.7-2.8l0.5,0.2c-0.5,1.3-1.2,2.5-2.1,3.5
					c-0.6,0.7-1.4,1-2.2,1.1c-0.6,0-1.2-0.3-1.4-0.9c-0.3-0.9-0.3-1.8-0.1-2.7l1.4-7.8c0.2-0.8,0.1-1.6-0.2-2.4
					c-0.4-0.7-1.1-1.1-1.9-1c-1,0-1.9,0.4-2.6,1c-0.9,0.7-1.7,1.5-2.4,2.3L90.6,311.7z"/>
				<path class="st0" d="M112,312c-1.6,0.1-3.1-0.6-4.1-1.8c-1-1.3-1.5-3-1.4-4.6c0-1.3,0.2-2.5,0.6-3.7c0.4-1.2,1-2.2,1.7-3.2
					c0.7-0.9,1.6-1.7,2.6-2.3c1-0.6,2.1-0.8,3.2-0.8c1.6-0.1,3.1,0.6,4.1,1.8c1,1.4,1.5,3,1.4,4.7c0,1.2-0.2,2.4-0.6,3.5
					c-0.4,1.2-0.9,2.3-1.7,3.2c-0.7,1-1.6,1.8-2.6,2.4C114.3,311.7,113.1,312,112,312z M112.4,311c1.1,0,2.1-0.4,2.8-1.2
					c0.9-0.9,1.5-2,1.9-3.2c0.5-1.4,0.7-3,0.7-4.5c0.1-1.4-0.2-2.8-0.9-4c-0.6-1-1.7-1.6-2.8-1.5c-1.1,0-2.1,0.4-2.9,1.2
					c-0.9,0.9-1.6,2-1.9,3.1c-0.5,1.5-0.7,3-0.7,4.5c-0.1,1.4,0.2,2.8,0.9,4.1C110.2,310.5,111.3,311.1,112.4,311z"/>
				<path class="st0" d="M126,312c-0.6,0-1.2-0.2-1.6-0.7c-0.4-0.5-0.6-1.2-0.5-1.9c0-0.2,0-0.4,0.1-0.6c0-0.2,0.1-0.4,0.1-0.7
					l1.9-11.1h-2.7v-0.2l3.1-1.1l2.3-3.8h0.2l-0.7,3.8h4.2v1.3H128l-1.7,9.7c0,0.3-0.1,0.6-0.1,0.9c0,0.2,0,0.5-0.1,0.7
					c0,0.4,0.1,0.8,0.3,1.2c0.2,0.2,0.5,0.4,0.8,0.4c0.7-0.1,1.3-0.4,1.8-0.9c0.7-0.8,1.3-1.7,1.7-2.8l0.5,0.2
					c-0.5,1.6-1.3,3-2.4,4.2C128,311.5,127,312,126,312z"/>
				<path class="st0" d="M148,312c-1.6,0.1-3.1-0.6-4.1-1.8c-1-1.3-1.5-3-1.4-4.6c0-1.3,0.2-2.5,0.6-3.7c0.4-1.2,1-2.2,1.7-3.2
					c0.7-0.9,1.6-1.7,2.6-2.3c1-0.6,2.1-0.8,3.2-0.8c1.6-0.1,3.1,0.6,4.1,1.8c1,1.4,1.5,3,1.4,4.7c0,1.2-0.2,2.4-0.6,3.5
					c-0.4,1.2-0.9,2.3-1.7,3.2c-0.7,1-1.6,1.8-2.6,2.4C150.3,311.7,149.2,312,148,312z M148.4,311c1.1,0,2.1-0.4,2.8-1.2
					c0.9-0.9,1.5-2,1.9-3.2c0.5-1.4,0.7-3,0.7-4.5c0.1-1.4-0.2-2.8-0.9-4c-0.6-1-1.7-1.6-2.8-1.5c-1.1,0-2.1,0.4-2.9,1.2
					c-0.9,0.9-1.6,2-1.9,3.1c-0.5,1.5-0.7,3-0.7,4.5c-0.1,1.4,0.2,2.8,0.9,4.1C146.2,310.5,147.3,311.1,148.4,311z"/>
				<path class="st0" d="M159.8,311.7l2.5-14.1l-2.5-0.7v-0.3l4.3-0.9h0.1l-0.3,4.1h0.1c0.6-1,1.2-1.9,2-2.7
					c0.4-0.5,0.9-0.8,1.5-1.1c0.4-0.2,0.8-0.3,1.2-0.3c0.4,0,0.8,0.1,1.1,0.3c0.3,0.2,0.4,0.4,0.5,0.7c0,0.1,0,0.3-0.1,0.4l-0.7,1.3
					h-0.1l-0.5-0.3c-0.3-0.2-0.7-0.3-1.1-0.3c-0.7,0-1.4,0.3-1.9,0.8c-0.9,0.9-1.7,1.8-2.3,2.9l-1.8,10.3L159.8,311.7z"/>
				<path class="st0" d="M182.5,312c-0.6,0-1.2-0.2-1.6-0.7c-0.4-0.5-0.6-1.2-0.5-1.9c0-0.2,0-0.4,0.1-0.6c0-0.2,0.1-0.4,0.1-0.7
					l1.9-11.1h-2.7v-0.2l3.1-1.1l2.3-3.8h0.2l-0.7,3.8h4.2v1.3h-4.5l-1.7,9.7c0,0.3-0.1,0.6-0.1,0.9c0,0.2,0,0.5-0.1,0.7
					c0,0.4,0.1,0.8,0.3,1.2c0.2,0.2,0.5,0.4,0.8,0.4c0.7-0.1,1.3-0.4,1.8-0.9c0.7-0.8,1.3-1.7,1.7-2.8l0.5,0.2
					c-0.5,1.6-1.3,3-2.4,4.2C184.5,311.5,183.5,312,182.5,312z"/>
				<path class="st0" d="M194.7,311.8l-2.8-14.3l-2.6-0.7v-0.3l4.2-0.9h0.1l2.2,12.7h0.1l5.6-12.4h0.4l2.6,12.7h0.1l2.5-4.6
					c0.7-1.2,1.1-2.3,1.5-3c0.3-0.6,0.5-1.3,0.5-2c0-0.3-0.1-0.7-0.2-0.9c-0.2-0.2-0.4-0.4-0.6-0.6l-0.5-0.3V297l0.6-0.9
					c0.1-0.2,0.2-0.3,0.4-0.5c0.1-0.1,0.3-0.1,0.4-0.1c0.5,0,1,0.3,1.2,0.8c0.3,0.5,0.5,1.1,0.5,1.7c0,0.7-0.2,1.3-0.5,1.9
					c-0.5,1.1-1,2.2-1.7,3.2l-4.9,8.5h-0.5l-2.5-11.6l-5.7,11.6L194.7,311.8z"/>
				<path class="st0" d="M218.4,312c-1.6,0.1-3.1-0.6-4.1-1.8c-1-1.3-1.5-3-1.4-4.6c0-1.3,0.2-2.5,0.6-3.7c0.4-1.2,1-2.2,1.7-3.2
					c0.7-0.9,1.6-1.7,2.6-2.3c1-0.6,2.1-0.8,3.2-0.8c1.6-0.1,3.1,0.6,4.1,1.8c1,1.4,1.5,3,1.4,4.7c0,1.2-0.2,2.4-0.6,3.5
					c-0.4,1.2-0.9,2.3-1.7,3.2c-0.7,1-1.6,1.8-2.6,2.4C220.7,311.7,219.6,312,218.4,312z M218.9,311c1.1,0,2.1-0.4,2.8-1.2
					c0.9-0.9,1.5-2,1.9-3.2c0.5-1.4,0.7-3,0.7-4.5c0.1-1.4-0.2-2.8-0.9-4c-0.6-1-1.7-1.6-2.8-1.5c-1.1,0-2.1,0.4-2.9,1.2
					c-0.9,0.9-1.6,2-1.9,3.1c-0.5,1.5-0.7,3-0.7,4.5c-0.1,1.4,0.2,2.8,0.9,4.1C216.6,310.5,217.7,311.1,218.9,311L218.9,311z"/>
				<path class="st0" d="M239.5,311.9c-0.4,0-0.8-0.1-1.1-0.4c-0.3-0.3-0.4-0.7-0.4-1.1c0-0.5,0.2-1,0.5-1.4
					c0.3-0.4,0.9-0.6,1.4-0.6c0.4,0,0.8,0.1,1.1,0.5c0.3,0.3,0.4,0.7,0.4,1.1c0,0.5-0.2,1-0.5,1.4
					C240.5,311.7,240,311.9,239.5,311.9z M246.5,311.9c-0.4,0-0.8-0.1-1.1-0.4c-0.3-0.3-0.4-0.7-0.4-1.1c0-0.5,0.2-1,0.5-1.4
					c0.3-0.4,0.9-0.6,1.4-0.6c0.4,0,0.8,0.1,1.1,0.5c0.3,0.3,0.4,0.7,0.4,1.1c0,0.5-0.2,1-0.5,1.4
					C247.5,311.7,247,311.9,246.5,311.9z M253.5,311.9c-0.4,0-0.8-0.1-1.1-0.4c-0.3-0.3-0.4-0.7-0.4-1.1c0-0.5,0.2-1,0.5-1.4
					c0.3-0.4,0.9-0.6,1.4-0.6c0.4,0,0.8,0.1,1.1,0.5c0.3,0.3,0.4,0.7,0.4,1.1c0,0.5-0.2,1-0.5,1.4
					C254.5,311.7,254,311.9,253.5,311.9z"/>
				<path class="st0" d="M257.9,293.9v-0.6c1-0.2,1.9-0.7,2.7-1.4c0.6-0.6,0.9-1.4,0.9-2.2c0-0.3-0.1-0.7-0.2-1
					c-0.2-0.3-0.5-0.6-0.8-0.8l-0.9-0.6v-0.4l0.4-0.8c0.1-0.2,0.3-0.4,0.5-0.6c0.1-0.1,0.3-0.1,0.5-0.1c0.1,0,0.2,0,0.3,0
					c0.1,0,0.3,0.1,0.4,0.2c0.5,0.3,0.9,0.7,1.2,1.2c0.3,0.5,0.4,1.1,0.4,1.8c0,0.7-0.2,1.4-0.6,2c-0.4,0.8-1.1,1.5-1.8,2
					C260,293.3,259,293.7,257.9,293.9z M264.1,293.9v-0.6c1-0.2,1.9-0.7,2.7-1.4c0.6-0.6,0.9-1.4,0.9-2.2c0-0.3-0.1-0.7-0.2-1
					c-0.2-0.3-0.5-0.6-0.8-0.8l-0.9-0.6v-0.4l0.4-0.8c0.1-0.2,0.3-0.4,0.5-0.6c0.1-0.1,0.3-0.1,0.5-0.1c0.1,0,0.2,0,0.3,0
					c0.1,0,0.3,0.1,0.4,0.2c0.5,0.3,0.9,0.7,1.2,1.2c0.3,0.5,0.4,1.1,0.4,1.8c0,0.7-0.2,1.4-0.6,2c-0.4,0.8-1.1,1.5-1.8,2
					C266.1,293.3,265.1,293.7,264.1,293.9z"/>
			</g>
			<g class="st1">
				<path class="st0" d="M215.5,25.8v1.8h11.9V52h-24.5V27.7c0-18.5,8.2-27.7,24.5-27.7v10.3c-4.2,0.7-7.2,2.3-9.1,4.7
					S215.5,21.1,215.5,25.8z M257.2,25.8v1.8h11.9V52h-24.4V27.7c0-18.5,8.1-27.7,24.4-27.7v10.3C261.2,11.4,257.2,16.5,257.2,25.8z
					"/>
			</g>
		</g>
	</g>
</g>
</svg>
