<svg xmlns="http://www.w3.org/2000/svg" viewBox="0 0 261.029 392.032">
  <defs>
    <style>
      .cls-1 {
        fill: #a2c0cc;
      }

      .cls-2 {
        opacity: 0.4;
      }

      .cls-3 {
        fill: #7b8d9e;
      }
    </style>
  </defs>
  <g id="Layer_2" data-name="Layer 2">
    <g id="Layer_1-2" data-name="Layer 1">
      <g>
        <g>
          <path class="cls-1" d="M31.709,111.682l.141-.525,2.694-.98,4.2-20.054-2.729-1.051.139-.489h5.46l4.515,19.425L56.944,88.583h5.285l-.1.524-2.87,1.016-2.449,20.054,2.1.98-.1.525H51.729l.14-.525,2.556-.944,2.415-18.55L45.534,111.857H44.52L39.935,91.663l-3.71,18.55,2.45.944-.106.525Z"/>
          <path class="cls-1" d="M69.37,112.032a4.911,4.911,0,0,1-4.131-1.8,7.344,7.344,0,0,1-1.4-4.638,11.057,11.057,0,0,1,.63-3.709,11.306,11.306,0,0,1,1.732-3.2,8.583,8.583,0,0,1,2.608-2.256,6.486,6.486,0,0,1,3.219-.84,4.907,4.907,0,0,1,4.13,1.8,7.4,7.4,0,0,1,1.4,4.673,11.168,11.168,0,0,1-.578,3.483,11.322,11.322,0,0,1-1.663,3.237,8.717,8.717,0,0,1-2.59,2.362A6.448,6.448,0,0,1,69.37,112.032Zm.454-1.05a3.918,3.918,0,0,0,2.835-1.207,8.229,8.229,0,0,0,1.926-3.237,13.693,13.693,0,0,0,.7-4.481,7.916,7.916,0,0,0-.857-3.99,3.009,3.009,0,0,0-2.818-1.47,4.064,4.064,0,0,0-2.852,1.156,7.671,7.671,0,0,0-1.943,3.149,13.606,13.606,0,0,0-.7,4.516,8.066,8.066,0,0,0,.875,4.059A3.028,3.028,0,0,0,69.824,110.982Z"/>
          <path class="cls-1" d="M84,112.032a6.1,6.1,0,0,1-2.625-.472,4.056,4.056,0,0,1-1.471-1.1,1.484,1.484,0,0,1-.384-.875.78.78,0,0,1,.384-.665l.6-.42h.21l.455.8a3.26,3.26,0,0,0,1.364,1.331,3.87,3.87,0,0,0,1.75.419,3.337,3.337,0,0,0,2.415-.875,3.011,3.011,0,0,0,.91-2.275,2.816,2.816,0,0,0-.682-2,8.78,8.78,0,0,0-2.012-1.5,9.279,9.279,0,0,1-2.432-1.96,3.668,3.668,0,0,1-.718-2.345A3.616,3.616,0,0,1,82.5,97.98,6.009,6.009,0,0,1,84.4,96.264a4.841,4.841,0,0,1,2.468-.681,5.279,5.279,0,0,1,2.152.384,4.12,4.12,0,0,1,1.417,1.015,1.481,1.481,0,0,1,.316.806.878.878,0,0,1-.088.367.9.9,0,0,1-.263.332l-.524.386h-.21l-.63-.841a3.923,3.923,0,0,0-1.138-1.1,2.849,2.849,0,0,0-1.487-.367,2.7,2.7,0,0,0-2.065.822,2.626,2.626,0,0,0-.77,1.838,2.925,2.925,0,0,0,.612,1.908,6.467,6.467,0,0,0,1.733,1.418,12.162,12.162,0,0,1,2.625,1.924,3.7,3.7,0,0,1,.875,2.661,4.361,4.361,0,0,1-.7,2.344,5.5,5.5,0,0,1-1.925,1.838A5.443,5.443,0,0,1,84,112.032Z"/>
          <path class="cls-1" d="M96.18,112.032a1.977,1.977,0,0,1-1.628-.665,2.905,2.905,0,0,1-.542-1.89,3.435,3.435,0,0,1,.052-.559q.052-.315.087-.665l1.925-11.061h-2.66v-.245l3.08-1.085,2.311-3.779h.245l-.665,3.849h4.234v1.26H98.14l-1.681,9.7c-.047.328-.087.63-.122.911a6,6,0,0,0-.053.734,2.037,2.037,0,0,0,.263,1.19.919.919,0,0,0,.787.35,2.647,2.647,0,0,0,1.785-.944,8.662,8.662,0,0,0,1.715-2.766l.49.21a11.384,11.384,0,0,1-2.432,4.218A3.946,3.946,0,0,1,96.18,112.032Z"/>
          <path class="cls-1" d="M118.16,112.032a4.911,4.911,0,0,1-4.131-1.8,7.344,7.344,0,0,1-1.4-4.638,11.057,11.057,0,0,1,.63-3.709,11.306,11.306,0,0,1,1.732-3.2,8.583,8.583,0,0,1,2.608-2.256,6.489,6.489,0,0,1,3.219-.84,4.907,4.907,0,0,1,4.13,1.8,7.4,7.4,0,0,1,1.4,4.673,11.168,11.168,0,0,1-.578,3.483,11.322,11.322,0,0,1-1.663,3.237,8.726,8.726,0,0,1-2.589,2.362A6.454,6.454,0,0,1,118.16,112.032Zm.454-1.05a3.916,3.916,0,0,0,2.835-1.207,8.229,8.229,0,0,0,1.926-3.237,13.693,13.693,0,0,0,.7-4.481,7.916,7.916,0,0,0-.857-3.99A3.008,3.008,0,0,0,120.4,96.6a4.064,4.064,0,0,0-2.852,1.156A7.671,7.671,0,0,0,115.6,100.9a13.606,13.606,0,0,0-.7,4.516,8.066,8.066,0,0,0,.875,4.059A3.028,3.028,0,0,0,118.614,110.982Z"/>
          <path class="cls-1" d="M124.985,120.083a1.719,1.719,0,0,1-1.12-.3.826.826,0,0,1-.35-.612,1.883,1.883,0,0,1,.245-.736l.385-.8h.14l.56.314a2.7,2.7,0,0,0,.753.245,4.75,4.75,0,0,0,.822.07,2.773,2.773,0,0,0,2.415-1.75,16.1,16.1,0,0,0,1.435-5.179l2.135-14.141H129.57v-1.26h3.01l.21-1.4a9.856,9.856,0,0,1,.91-2.694,15.618,15.618,0,0,1,1.907-3.011,10.993,10.993,0,0,1,2.678-2.432,5.875,5.875,0,0,1,3.22-.963,1.624,1.624,0,0,1,.945.245q.6.315.595.665a1.053,1.053,0,0,1-.175.56l-.56,1.016h-.14l-.665-.281a5.082,5.082,0,0,0-2-.384,3.4,3.4,0,0,0-2.835,1.5,9.929,9.929,0,0,0-1.575,4.375l-.42,2.8h3.885v1.26H134.47l-2.03,13.545a12.362,12.362,0,0,1-.823,2.783,16.874,16.874,0,0,1-1.662,3.1,10.667,10.667,0,0,1-2.275,2.485A4.308,4.308,0,0,1,124.985,120.083Z"/>
          <path class="cls-1" d="M151.516,112.032a1.977,1.977,0,0,1-1.628-.665,2.905,2.905,0,0,1-.542-1.89,3.539,3.539,0,0,1,.051-.559q.054-.315.088-.665l1.925-11.061h-2.66v-.245l3.08-1.085,2.311-3.779h.245l-.665,3.849h4.234v1.26h-4.479l-1.681,9.7c-.047.328-.087.63-.122.911a6,6,0,0,0-.053.734,2.037,2.037,0,0,0,.263,1.19.919.919,0,0,0,.787.35,2.649,2.649,0,0,0,1.785-.944,8.662,8.662,0,0,0,1.715-2.766l.49.21a11.384,11.384,0,0,1-2.432,4.218A3.946,3.946,0,0,1,151.516,112.032Z"/>
          <path class="cls-1" d="M161.6,111.682H159.53l4.271-24.29-2.45-.735v-.279l4.655-.946h.21l-2.45,13.93h.069a29.387,29.387,0,0,1,2.2-2.187,7.23,7.23,0,0,1,1.838-1.208,4.86,4.86,0,0,1,1.942-.384,2.849,2.849,0,0,1,2.573,1.346,5.314,5.314,0,0,1,.4,3.833l-1.226,6.755a5.789,5.789,0,0,0-.122,1.943.613.613,0,0,0,.648.543q1.4,0,2.66-2.766l.454.176a10.664,10.664,0,0,1-2.064,3.534,3.181,3.181,0,0,1-2.241,1.085,1.469,1.469,0,0,1-1.434-.857,4.706,4.706,0,0,1-.106-2.712l1.365-7.84a4.033,4.033,0,0,0-.209-2.4,1.894,1.894,0,0,0-1.925-1,4.182,4.182,0,0,0-2.608,1.05,21.421,21.421,0,0,0-2.432,2.275Z"/>
          <path class="cls-1" d="M182.561,112.032a4.578,4.578,0,0,1-3.868-1.609,6.628,6.628,0,0,1-1.242-4.165,11.435,11.435,0,0,1,.7-3.973,11.764,11.764,0,0,1,1.925-3.412,10.08,10.08,0,0,1,2.765-2.4,6.329,6.329,0,0,1,3.22-.892,3.764,3.764,0,0,1,2.695.84,2.562,2.562,0,0,1,.875,1.889,2.911,2.911,0,0,1-.962,2.083,8.312,8.312,0,0,1-3.168,1.715,33.394,33.394,0,0,1-5.915,1.277,15.005,15.005,0,0,0-.14,2.065,5.7,5.7,0,0,0,1.05,3.676,3.652,3.652,0,0,0,3.01,1.3q2.8,0,4.9-3.255h.07l.28.21a9.6,9.6,0,0,1-2.537,3.29A5.551,5.551,0,0,1,182.561,112.032Zm2.765-15.47a4.634,4.634,0,0,0-3.5,1.628,9.124,9.124,0,0,0-2.1,4.358,22.518,22.518,0,0,0,6.02-1.558,2.769,2.769,0,0,0,1.785-2.538,1.829,1.829,0,0,0-.543-1.347A2.262,2.262,0,0,0,185.326,96.562Z"/>
          <path class="cls-1" d="M206.36,112.032a5.859,5.859,0,0,1-1.819-.3,6.05,6.05,0,0,1-1.61-.788l-1.33.91h-.246l4.306-24.5-2.415-.7v-.279l4.619-.946h.21l-2.519,14.385h.139a21.239,21.239,0,0,1,2.906-3.062,4.728,4.728,0,0,1,3.115-1.172,2.734,2.734,0,0,1,2.327,1.259,6.4,6.4,0,0,1,.893,3.71,12.938,12.938,0,0,1-.7,4.218,13.667,13.667,0,0,1-1.907,3.693,10.012,10.012,0,0,1-2.747,2.607A5.987,5.987,0,0,1,206.36,112.032Zm4.2-14.7a4.239,4.239,0,0,0-2.59,1.085,15.886,15.886,0,0,0-2.66,2.764l-1.4,8.12a4.647,4.647,0,0,0,1.662,1.278,4.416,4.416,0,0,0,1.662.333,4.073,4.073,0,0,0,2.8-1.191,8.194,8.194,0,0,0,2.065-3.36,15.316,15.316,0,0,0,.77-5.109,6.052,6.052,0,0,0-.56-2.976A1.888,1.888,0,0,0,210.561,97.333Z"/>
          <path class="cls-1" d="M223.651,112.032a4.907,4.907,0,0,1-4.13-1.8,7.339,7.339,0,0,1-1.4-4.638,11.057,11.057,0,0,1,.63-3.709,11.306,11.306,0,0,1,1.732-3.2,8.583,8.583,0,0,1,2.608-2.256,6.49,6.49,0,0,1,3.22-.84,4.906,4.906,0,0,1,4.129,1.8,7.4,7.4,0,0,1,1.4,4.673,11.2,11.2,0,0,1-.577,3.483,11.372,11.372,0,0,1-1.663,3.237,8.729,8.729,0,0,1-2.59,2.362A6.452,6.452,0,0,1,223.651,112.032Zm.454-1.05a3.916,3.916,0,0,0,2.835-1.207,8.229,8.229,0,0,0,1.926-3.237,13.693,13.693,0,0,0,.7-4.481,7.916,7.916,0,0,0-.857-3.99,3.007,3.007,0,0,0-2.817-1.47,4.065,4.065,0,0,0-2.853,1.156A7.659,7.659,0,0,0,221.1,100.9a13.58,13.58,0,0,0-.7,4.516,8.066,8.066,0,0,0,.875,4.059A3.026,3.026,0,0,0,224.105,110.982Z"/>
          <path class="cls-1" d="M232.506,120.083a.9.9,0,0,1-1.015-1.016v-1.154l.175-.141h1.75a6.879,6.879,0,0,0,1.208-.087,1.959,1.959,0,0,0,.893-.437,5.591,5.591,0,0,0,.926-1.085q.507-.735,1.279-2.03l1.784-2.941-3.08-13.72-2.555-.665v-.28l4.235-.944h.14l2.765,12.984h.14l2.765-4.515a21.517,21.517,0,0,0,1.61-3.027,5.6,5.6,0,0,0,.491-2.013,1.616,1.616,0,0,0-.246-.945,2.239,2.239,0,0,0-.629-.595l-.526-.28v-.14l.56-.91a1.474,1.474,0,0,1,.368-.455.778.778,0,0,1,.437-.1,1.464,1.464,0,0,1,1.243.787,3.134,3.134,0,0,1,.507,1.732,5.3,5.3,0,0,1-.49,1.943,24.678,24.678,0,0,1-1.75,3.2l-7,11.2q-.491.805-.8,1.33c-.21.351-.427.7-.648,1.05a11.693,11.693,0,0,1-.963,1.261,5.956,5.956,0,0,1-1.767,1.5A3.849,3.849,0,0,1,232.506,120.083Z"/>
          <path class="cls-1" d="M252.807,112.032a6.1,6.1,0,0,1-2.625-.472,4.047,4.047,0,0,1-1.471-1.1,1.486,1.486,0,0,1-.385-.875.877.877,0,0,1,.07-.316.859.859,0,0,1,.315-.349l.6-.42h.21l.455.8a3.249,3.249,0,0,0,1.364,1.331,3.864,3.864,0,0,0,1.75.419,3.337,3.337,0,0,0,2.415-.875,3.015,3.015,0,0,0,.91-2.275,2.816,2.816,0,0,0-.682-2,8.8,8.8,0,0,0-2.012-1.5,9.287,9.287,0,0,1-2.433-1.96,3.674,3.674,0,0,1-.718-2.345,3.618,3.618,0,0,1,.736-2.117,6.009,6.009,0,0,1,1.907-1.716,4.836,4.836,0,0,1,2.468-.681,5.279,5.279,0,0,1,2.152.384,4.13,4.13,0,0,1,1.417,1.015,1.481,1.481,0,0,1,.316.806.929.929,0,0,1-.351.7l-.524.386h-.21l-.63-.841a3.935,3.935,0,0,0-1.138-1.1,2.849,2.849,0,0,0-1.487-.367,2.7,2.7,0,0,0-2.066.822,2.629,2.629,0,0,0-.769,1.838A2.925,2.925,0,0,0,253,101.13a6.445,6.445,0,0,0,1.732,1.418,12.162,12.162,0,0,1,2.625,1.924,3.7,3.7,0,0,1,.875,2.661,4.353,4.353,0,0,1-.7,2.344,5.486,5.486,0,0,1-4.724,2.555Z"/>
          <path class="cls-1" d="M52.675,156.932l5.215-31.15h5.424l-.1.631H59.325L54.354,156.3h3.885l-.139.63Z"/>
          <path class="cls-1" d="M62.37,151.682l2.484-14.139-2.415-.736v-.28l4.2-.944h.174l-.244,3.779h.105a29.2,29.2,0,0,1,2.2-2.187,7.2,7.2,0,0,1,1.838-1.208,4.857,4.857,0,0,1,1.942-.384,2.849,2.849,0,0,1,2.572,1.346,5.314,5.314,0,0,1,.4,3.833l-1.225,6.755a5.77,5.77,0,0,0-.123,1.943.614.614,0,0,0,.648.543q1.4,0,2.66-2.766l.455.176A10.086,10.086,0,0,1,76,150.947a3.234,3.234,0,0,1-2.257,1.085,1.47,1.47,0,0,1-1.435-.857,4.716,4.716,0,0,1-.105-2.712l1.365-7.84a4.04,4.04,0,0,0-.21-2.4,1.892,1.892,0,0,0-1.925-1,3.466,3.466,0,0,0-1.75.508,9.961,9.961,0,0,0-1.715,1.277q-.84.771-1.61,1.576l-1.925,11.094Z"/>
          <path class="cls-1" d="M85.82,152.032a4.911,4.911,0,0,1-4.131-1.8,7.344,7.344,0,0,1-1.4-4.638,11.057,11.057,0,0,1,.63-3.709,11.306,11.306,0,0,1,1.732-3.2,8.583,8.583,0,0,1,2.608-2.256,6.489,6.489,0,0,1,3.219-.84,4.907,4.907,0,0,1,4.13,1.8,7.4,7.4,0,0,1,1.4,4.673,11.2,11.2,0,0,1-.577,3.483,11.372,11.372,0,0,1-1.663,3.237,8.729,8.729,0,0,1-2.59,2.362A6.452,6.452,0,0,1,85.82,152.032Zm.454-1.05a3.916,3.916,0,0,0,2.835-1.207,8.229,8.229,0,0,0,1.926-3.237,13.693,13.693,0,0,0,.7-4.481,7.916,7.916,0,0,0-.857-3.99,3.007,3.007,0,0,0-2.817-1.47,4.065,4.065,0,0,0-2.853,1.156,7.659,7.659,0,0,0-1.942,3.149,13.579,13.579,0,0,0-.7,4.516,8.066,8.066,0,0,0,.875,4.059A3.028,3.028,0,0,0,86.274,150.982Z"/>
          <path class="cls-1" d="M101.221,151.788l-2.766-14.316-2.555-.665v-.28l4.236-.944h.139l2.241,12.705h.139l5.566-12.356h.384l2.625,12.705h.14l2.45-4.585q.981-1.854,1.47-3.044a5.456,5.456,0,0,0,.49-2,1.624,1.624,0,0,0-.245-.945,2.2,2.2,0,0,0-.63-.595l-.524-.28v-.14l.559-.91a1.336,1.336,0,0,1,.385-.455.8.8,0,0,1,.42-.1,1.443,1.443,0,0,1,1.208.8,3.169,3.169,0,0,1,.508,1.715,5.312,5.312,0,0,1-.473,1.925,29.149,29.149,0,0,1-1.663,3.221l-4.9,8.54h-.49L107.415,140.2l-5.67,11.586Z"/>
          <path class="cls-1" d="M115.359,156.932l.106-.63h3.885l4.969-29.889H120.47l.105-.631h5.46l-5.216,31.15Z"/>
          <path class="cls-1" d="M140.91,151.788l-2.765-14.316-2.555-.665v-.28l4.235-.944h.14l2.24,12.705h.14l5.565-12.356h.385l2.625,12.705h.14l2.45-4.585q.98-1.854,1.469-3.044a5.44,5.44,0,0,0,.491-2,1.624,1.624,0,0,0-.245-.945,2.2,2.2,0,0,0-.63-.595l-.525-.28v-.14l.56-.91a1.325,1.325,0,0,1,.385-.455.8.8,0,0,1,.42-.1,1.444,1.444,0,0,1,1.208.8,3.177,3.177,0,0,1,.507,1.715,5.329,5.329,0,0,1-.472,1.925,29.327,29.327,0,0,1-1.663,3.221l-4.9,8.54h-.49L147.1,140.2l-5.669,11.586Z"/>
          <path class="cls-1" d="M164.184,152.032a4.58,4.58,0,0,1-3.868-1.609,6.628,6.628,0,0,1-1.242-4.165,11.435,11.435,0,0,1,.7-3.973,11.764,11.764,0,0,1,1.925-3.412,10.094,10.094,0,0,1,2.765-2.4,6.329,6.329,0,0,1,3.22-.892,3.764,3.764,0,0,1,2.695.84,2.562,2.562,0,0,1,.875,1.889,2.911,2.911,0,0,1-.962,2.083,8.312,8.312,0,0,1-3.168,1.715,33.394,33.394,0,0,1-5.915,1.277,15.005,15.005,0,0,0-.14,2.065,5.7,5.7,0,0,0,1.05,3.676,3.652,3.652,0,0,0,3.01,1.3q2.8,0,4.9-3.255h.07l.28.21a9.6,9.6,0,0,1-2.537,3.29A5.551,5.551,0,0,1,164.184,152.032Zm2.765-15.47a4.634,4.634,0,0,0-3.5,1.628,9.124,9.124,0,0,0-2.1,4.358,22.518,22.518,0,0,0,6.02-1.558,2.769,2.769,0,0,0,1.785-2.538,1.829,1.829,0,0,0-.543-1.347A2.262,2.262,0,0,0,166.949,136.562Z"/>
          <path class="cls-1" d="M174.544,151.682l2.519-14.139-2.485-.736v-.28l4.306-.944h.139l-.28,4.059h.141a16.87,16.87,0,0,1,2-2.677,4.885,4.885,0,0,1,1.47-1.121,3.041,3.041,0,0,1,1.155-.261,1.859,1.859,0,0,1,1.085.314.9.9,0,0,1,.455.736.917.917,0,0,1-.106.419l-.665,1.26h-.139l-.455-.28a1.86,1.86,0,0,0-1.085-.315,2.9,2.9,0,0,0-1.891.77,13.724,13.724,0,0,0-2.274,2.905l-1.821,10.29Z"/>
          <path class="cls-1" d="M190.714,152.032a4.576,4.576,0,0,1-3.867-1.609,6.628,6.628,0,0,1-1.243-4.165,11.413,11.413,0,0,1,.7-3.973,11.761,11.761,0,0,1,1.924-3.412,10.094,10.094,0,0,1,2.765-2.4,6.334,6.334,0,0,1,3.22-.892,3.762,3.762,0,0,1,2.695.84,2.562,2.562,0,0,1,.875,1.889,2.911,2.911,0,0,1-.962,2.083,8.3,8.3,0,0,1-3.168,1.715,33.374,33.374,0,0,1-5.915,1.277,15.164,15.164,0,0,0-.139,2.065,5.7,5.7,0,0,0,1.049,3.676,3.655,3.655,0,0,0,3.01,1.3q2.8,0,4.9-3.255h.069l.28.21a9.591,9.591,0,0,1-2.537,3.29A5.551,5.551,0,0,1,190.714,152.032Zm2.765-15.47a4.634,4.634,0,0,0-3.5,1.628,9.134,9.134,0,0,0-2.1,4.358,22.518,22.518,0,0,0,6.02-1.558,2.77,2.77,0,0,0,1.786-2.538,1.833,1.833,0,0,0-.543-1.347A2.265,2.265,0,0,0,193.479,136.562Z"/>
          <path class="cls-1" d="M212.449,152.032a6.106,6.106,0,0,1-2.625-.472,4.051,4.051,0,0,1-1.47-1.1,1.486,1.486,0,0,1-.385-.875.778.778,0,0,1,.385-.665l.595-.42h.21l.455.8a3.257,3.257,0,0,0,1.365,1.331,3.864,3.864,0,0,0,1.75.419,3.34,3.34,0,0,0,2.415-.875,3.015,3.015,0,0,0,.91-2.275,2.817,2.817,0,0,0-.683-1.995,8.78,8.78,0,0,0-2.012-1.505,9.279,9.279,0,0,1-2.432-1.96,3.668,3.668,0,0,1-.718-2.345,3.616,3.616,0,0,1,.735-2.117,6.013,6.013,0,0,1,1.908-1.716,4.835,4.835,0,0,1,2.467-.681,5.284,5.284,0,0,1,2.153.384,4.13,4.13,0,0,1,1.417,1.015,1.478,1.478,0,0,1,.315.806.878.878,0,0,1-.088.367.889.889,0,0,1-.262.332l-.525.386h-.21l-.63-.841a3.92,3.92,0,0,0-1.137-1.1,2.855,2.855,0,0,0-1.488-.367,2.7,2.7,0,0,0-2.065.822,2.626,2.626,0,0,0-.77,1.838,2.92,2.92,0,0,0,.613,1.908,6.445,6.445,0,0,0,1.732,1.418A12.162,12.162,0,0,1,217,144.472a3.7,3.7,0,0,1,.875,2.661,4.353,4.353,0,0,1-.7,2.344,5.5,5.5,0,0,1-1.925,1.838A5.44,5.44,0,0,1,212.449,152.032Z"/>
          <path class="cls-1" d="M223.858,152.032a1.505,1.505,0,0,1-1.452-.857,4.458,4.458,0,0,1-.088-2.712l1.925-10.955-2.59-.7v-.28l4.726-.944h.279l-2.135,11.934a5.789,5.789,0,0,0-.122,1.943.613.613,0,0,0,.648.543q1.4,0,2.66-2.766l.455.176a10.681,10.681,0,0,1-2.065,3.534A3.181,3.181,0,0,1,223.858,152.032Zm2.625-21.524a1.479,1.479,0,0,1-1.085-.456,1.52,1.52,0,0,1-.455-1.12,1.554,1.554,0,0,1,1.54-1.54,1.53,1.53,0,0,1,1.121.455,1.488,1.488,0,0,1,.455,1.085,1.556,1.556,0,0,1-1.576,1.576Z"/>
          <path class="cls-1" d="M235.9,152.032a4.545,4.545,0,0,1-3.815-1.609,6.861,6.861,0,0,1-1.26-4.34,10.485,10.485,0,0,1,.718-3.816,12.616,12.616,0,0,1,1.942-3.378,10.2,10.2,0,0,1,2.73-2.414,5.968,5.968,0,0,1,3.08-.892,4.753,4.753,0,0,1,2.135.42,4.431,4.431,0,0,1,1.365,1.014,1.786,1.786,0,0,1,.595,1.156.824.824,0,0,1-.42.7l-.945.594h-.21l-.455-.77a6.186,6.186,0,0,0-1.19-1.452,2.658,2.658,0,0,0-1.785-.543,4.1,4.1,0,0,0-2.747,1.12,7.818,7.818,0,0,0-2.048,3.045,11.592,11.592,0,0,0-.77,4.341,6.254,6.254,0,0,0,1.033,3.867,3.5,3.5,0,0,0,2.957,1.348,4.418,4.418,0,0,0,2.573-.875,9.609,9.609,0,0,0,2.467-2.871h.07l.28.21a11.877,11.877,0,0,1-2.642,3.675A5.236,5.236,0,0,1,235.9,152.032Z"/>
          <path class="cls-1" d="M245.732,151.682l4.236-24.29-2.45-.735v-.279l4.655-.946h.21l-4.62,26.25Zm10.01.35a1.728,1.728,0,0,1-1.452-.717,20.459,20.459,0,0,1-1.452-2.4l-3.325-6.056v-.175q2.554-2.694,4.112-4.235a21.482,21.482,0,0,1,2.5-2.2,3.067,3.067,0,0,1,1.715-.665,2.758,2.758,0,0,1,.682.069,1.191,1.191,0,0,1,.438.21.671.671,0,0,1,.245.98L258.683,138l-.14.069-.455-.21a2.255,2.255,0,0,0-1.191-.28,2.279,2.279,0,0,0-1.172.4,7.377,7.377,0,0,0-1.137.858l-3.29,3.149,3.359,5.88a9.846,9.846,0,0,0,1.1,1.7,1.193,1.193,0,0,0,.892.438q1.19,0,2.415-2.766l.491.176a15.377,15.377,0,0,1-1.838,3.465A2.516,2.516,0,0,1,255.742,152.032Z"/>
          <path class="cls-1" d="M10.187,192.032a2.852,2.852,0,0,1-2.328-1.172,5.536,5.536,0,0,1-.927-3.482,12.4,12.4,0,0,1,.735-4.148,15.123,15.123,0,0,1,1.978-3.815,10.607,10.607,0,0,1,2.87-2.782,6.187,6.187,0,0,1,3.412-1.05,5.467,5.467,0,0,1,1.662.261,5.823,5.823,0,0,1,1.453.683l.944-.769h.526l-2.066,11.759a5.789,5.789,0,0,0-.122,1.943.6.6,0,0,0,.613.543q1.435,0,2.7-2.766l.455.176A10.439,10.439,0,0,1,20,190.947a3.206,3.206,0,0,1-2.222,1.085,1.506,1.506,0,0,1-1.453-.857,4.452,4.452,0,0,1-.087-2.712l.14-.736h-.106a18.062,18.062,0,0,1-3.08,3.2A4.866,4.866,0,0,1,10.187,192.032Zm-1.155-5.425q0,3.675,2.275,3.675a3.6,3.6,0,0,0,1.889-.577,9.048,9.048,0,0,0,1.8-1.47,21.728,21.728,0,0,0,1.628-1.908l1.4-8.19a5.032,5.032,0,0,0-1.277-1.049,3.408,3.408,0,0,0-1.7-.386,3.968,3.968,0,0,0-2.468.841,7.279,7.279,0,0,0-1.907,2.274A12.336,12.336,0,0,0,9.452,183,15.391,15.391,0,0,0,9.032,186.607Z"/>
          <path class="cls-1" d="M24.537,191.682l2.484-14.139-2.415-.736v-.28l4.2-.944h.174l-.244,3.779h.105a29.2,29.2,0,0,1,2.205-2.187,7.2,7.2,0,0,1,1.838-1.208,4.857,4.857,0,0,1,1.942-.384,2.849,2.849,0,0,1,2.572,1.346,5.319,5.319,0,0,1,.4,3.833l-1.225,6.755a5.77,5.77,0,0,0-.123,1.943A.614.614,0,0,0,37.1,190q1.4,0,2.66-2.766l.455.176a10.086,10.086,0,0,1-2.048,3.534,3.234,3.234,0,0,1-2.257,1.085,1.47,1.47,0,0,1-1.435-.857,4.716,4.716,0,0,1-.1-2.712l1.365-7.84a4.04,4.04,0,0,0-.21-2.4,1.892,1.892,0,0,0-1.925-1,3.466,3.466,0,0,0-1.75.508,9.961,9.961,0,0,0-1.715,1.277q-.84.771-1.61,1.576L26.6,191.682Z"/>
          <path class="cls-1" d="M45.677,192.032a2.8,2.8,0,0,1-2.31-1.172,5.61,5.61,0,0,1-.91-3.482,12.65,12.65,0,0,1,.718-4.148,14.435,14.435,0,0,1,1.976-3.815,10.976,10.976,0,0,1,2.87-2.782,6.112,6.112,0,0,1,3.4-1.05,5.331,5.331,0,0,1,1.277.157,5.668,5.668,0,0,1,1.207.437l1.54-8.82-2.8-.7v-.279l5-.946h.176l-3.885,22.085a5.77,5.77,0,0,0-.123,1.943.614.614,0,0,0,.648.543q1.4,0,2.66-2.766l.455.176a10.07,10.07,0,0,1-2.048,3.534,3.236,3.236,0,0,1-2.258,1.085,1.47,1.47,0,0,1-1.434-.857,4.714,4.714,0,0,1-.106-2.712l.141-.736h-.1a16.94,16.94,0,0,1-3.15,3.255A4.932,4.932,0,0,1,45.677,192.032Zm-1.156-5.425a5.091,5.091,0,0,0,.6,2.8,1.946,1.946,0,0,0,1.715.875,4.237,4.237,0,0,0,2.625-1.1,15.469,15.469,0,0,0,2.625-2.782l1.435-8.26a5.654,5.654,0,0,0-1.33-1.067,3.368,3.368,0,0,0-1.645-.368,3.981,3.981,0,0,0-2.433.823,7.125,7.125,0,0,0-1.907,2.239,12.522,12.522,0,0,0-1.243,3.186A15.15,15.15,0,0,0,44.521,186.607Z"/>
          <path class="cls-1" d="M73.117,191.788l-2.765-14.316-2.555-.665v-.28l4.235-.944h.14l2.24,12.705h.14l5.565-12.356H80.5l2.625,12.705h.14l2.45-4.585q.98-1.854,1.47-3.044a5.456,5.456,0,0,0,.49-2,1.624,1.624,0,0,0-.245-.945,2.2,2.2,0,0,0-.63-.595l-.525-.28v-.14l.56-.91a1.325,1.325,0,0,1,.385-.455.8.8,0,0,1,.42-.1,1.444,1.444,0,0,1,1.208.8,3.168,3.168,0,0,1,.507,1.715,5.329,5.329,0,0,1-.472,1.925,29.327,29.327,0,0,1-1.663,3.221l-4.9,8.54h-.49L79.312,180.2l-5.67,11.586Z"/>
          <path class="cls-1" d="M96.391,192.032a4.58,4.58,0,0,1-3.868-1.609,6.628,6.628,0,0,1-1.242-4.165,11.435,11.435,0,0,1,.7-3.973,11.764,11.764,0,0,1,1.925-3.412,10.094,10.094,0,0,1,2.765-2.4,6.329,6.329,0,0,1,3.22-.892,3.764,3.764,0,0,1,2.695.84,2.562,2.562,0,0,1,.875,1.889,2.911,2.911,0,0,1-.962,2.083,8.312,8.312,0,0,1-3.168,1.715,33.394,33.394,0,0,1-5.915,1.277,15.005,15.005,0,0,0-.14,2.065,5.7,5.7,0,0,0,1.05,3.676,3.652,3.652,0,0,0,3.01,1.3q2.8,0,4.9-3.255h.07l.28.21a9.6,9.6,0,0,1-2.537,3.29A5.551,5.551,0,0,1,96.391,192.032Zm2.765-15.47a4.634,4.634,0,0,0-3.5,1.628,9.124,9.124,0,0,0-2.1,4.358,22.518,22.518,0,0,0,6.02-1.558,2.769,2.769,0,0,0,1.785-2.538,1.829,1.829,0,0,0-.543-1.347A2.262,2.262,0,0,0,99.156,176.562Z"/>
          <path class="cls-1" d="M106.751,191.682l2.52-14.139-2.486-.736v-.28l4.306-.944h.139l-.28,4.059h.141a16.87,16.87,0,0,1,2-2.677,4.9,4.9,0,0,1,1.47-1.121,3.041,3.041,0,0,1,1.155-.261,1.859,1.859,0,0,1,1.085.314.9.9,0,0,1,.455.736.928.928,0,0,1-.105.419l-.666,1.26h-.139l-.455-.28a1.86,1.86,0,0,0-1.085-.315,2.9,2.9,0,0,0-1.891.77,13.724,13.724,0,0,0-2.274,2.905l-1.821,10.29Z"/>
          <path class="cls-1" d="M122.921,192.032a4.576,4.576,0,0,1-3.867-1.609,6.628,6.628,0,0,1-1.242-4.165,11.412,11.412,0,0,1,.7-3.973,11.741,11.741,0,0,1,1.925-3.412,10.076,10.076,0,0,1,2.764-2.4,6.334,6.334,0,0,1,3.22-.892,3.762,3.762,0,0,1,2.7.84,2.562,2.562,0,0,1,.875,1.889,2.911,2.911,0,0,1-.962,2.083,8.3,8.3,0,0,1-3.168,1.715,33.374,33.374,0,0,1-5.915,1.277,15.164,15.164,0,0,0-.139,2.065,5.7,5.7,0,0,0,1.049,3.676,3.655,3.655,0,0,0,3.01,1.3q2.8,0,4.9-3.255h.069l.28.21a9.591,9.591,0,0,1-2.537,3.29A5.551,5.551,0,0,1,122.921,192.032Zm2.766-15.47a4.631,4.631,0,0,0-3.5,1.628,9.125,9.125,0,0,0-2.1,4.358,22.518,22.518,0,0,0,6.02-1.558,2.77,2.77,0,0,0,1.786-2.538,1.833,1.833,0,0,0-.543-1.347A2.264,2.264,0,0,0,125.687,176.562Z"/>
          <path class="cls-1" d="M145.986,191.788l-3.01-14.351-2.555-.63v-.28l4.235-.944h.14l2.555,13.09h.14l2.835-4.621a21.712,21.712,0,0,0,1.558-3.027,5.79,5.79,0,0,0,.472-2.013,1.624,1.624,0,0,0-.245-.945,2.229,2.229,0,0,0-.63-.595l-.525-.28v-.14l.56-.91a1.474,1.474,0,0,1,.368-.455.778.778,0,0,1,.437-.1,1.482,1.482,0,0,1,1.225.8,3.09,3.09,0,0,1,.525,1.715,5.151,5.151,0,0,1-.508,1.943,26.72,26.72,0,0,1-1.767,3.2l-5.32,8.54Z"/>
          <path class="cls-1" d="M161.351,192.032a4.908,4.908,0,0,1-4.131-1.8,7.339,7.339,0,0,1-1.4-4.638,11.057,11.057,0,0,1,.63-3.709,11.283,11.283,0,0,1,1.733-3.2,8.568,8.568,0,0,1,2.607-2.256,6.49,6.49,0,0,1,3.22-.84,4.91,4.91,0,0,1,4.13,1.8,7.406,7.406,0,0,1,1.4,4.673,11.167,11.167,0,0,1-.577,3.483,11.372,11.372,0,0,1-1.663,3.237,8.729,8.729,0,0,1-2.59,2.362A6.451,6.451,0,0,1,161.351,192.032Zm.454-1.05a3.92,3.92,0,0,0,2.835-1.207,8.228,8.228,0,0,0,1.925-3.237,13.693,13.693,0,0,0,.7-4.481,7.916,7.916,0,0,0-.858-3.99,3.007,3.007,0,0,0-2.817-1.47,4.067,4.067,0,0,0-2.853,1.156,7.67,7.67,0,0,0-1.942,3.149,13.58,13.58,0,0,0-.7,4.516,8.066,8.066,0,0,0,.875,4.059A3.027,3.027,0,0,0,161.805,190.982Z"/>
          <path class="cls-1" d="M172.69,191.682l2.485-14.139-2.415-.736v-.28l4.2-.944h.175l-.244,3.779h.1a30.065,30.065,0,0,1,2.135-2.187,7.069,7.069,0,0,1,1.75-1.208,4.5,4.5,0,0,1,1.891-.384,2.689,2.689,0,0,1,2.222.979,4.174,4.174,0,0,1,.717,2.835h.141q1.224-1.365,2.134-2.2a6.9,6.9,0,0,1,1.75-1.225,4.5,4.5,0,0,1,1.89-.384,2.657,2.657,0,0,1,2.468,1.346,5.612,5.612,0,0,1,.332,3.833l-1.225,6.755a5.789,5.789,0,0,0-.122,1.943.613.613,0,0,0,.648.543q1.4,0,2.659-2.766l.455.176a10.647,10.647,0,0,1-2.065,3.534,3.178,3.178,0,0,1-2.24,1.085,1.468,1.468,0,0,1-1.434-.857,4.706,4.706,0,0,1-.106-2.712l1.365-7.84a4.489,4.489,0,0,0-.139-2.4,1.723,1.723,0,0,0-1.821-1,3.822,3.822,0,0,0-2.52,1.068,25.117,25.117,0,0,0-2.31,2.293l-.035.174-1.96,10.92h-2.03l1.926-11.059a4.487,4.487,0,0,0-.141-2.4,1.69,1.69,0,0,0-1.785-1,3.824,3.824,0,0,0-2.52,1.068q-1.226,1.068-2.344,2.257l-1.926,11.13Z"/>
          <path class="cls-1" d="M201.354,192.032a1.505,1.505,0,0,1-1.452-.857,4.458,4.458,0,0,1-.088-2.712l1.925-10.955-2.59-.7v-.28l4.726-.944h.279l-2.134,11.934a5.77,5.77,0,0,0-.123,1.943.613.613,0,0,0,.648.543q1.4,0,2.66-2.766l.455.176a10.681,10.681,0,0,1-2.065,3.534A3.181,3.181,0,0,1,201.354,192.032Zm2.625-21.524a1.477,1.477,0,0,1-1.084-.456,1.517,1.517,0,0,1-.456-1.12,1.555,1.555,0,0,1,1.54-1.54,1.53,1.53,0,0,1,1.121.455,1.488,1.488,0,0,1,.455,1.085,1.556,1.556,0,0,1-1.576,1.576Z"/>
          <path class="cls-1" d="M211.189,192.032a1.976,1.976,0,0,1-1.627-.665,2.905,2.905,0,0,1-.542-1.89,3.539,3.539,0,0,1,.051-.559c.035-.21.065-.432.088-.665l1.925-11.061h-2.66v-.245l3.08-1.085,2.31-3.779h.246l-.665,3.849h4.234v1.26h-4.48l-1.68,9.695c-.047.328-.087.63-.122.911a6,6,0,0,0-.053.734,2.037,2.037,0,0,0,.263,1.19.918.918,0,0,0,.787.35,2.649,2.649,0,0,0,1.785-.944,8.662,8.662,0,0,0,1.715-2.766l.49.21a11.384,11.384,0,0,1-2.433,4.218A3.944,3.944,0,0,1,211.189,192.032Z"/>
          <path class="cls-1" d="M221.689,192.032a1.505,1.505,0,0,1-1.452-.857,4.458,4.458,0,0,1-.088-2.712l1.925-10.955-2.59-.7v-.28l4.726-.944h.279l-2.135,11.934a5.789,5.789,0,0,0-.122,1.943.613.613,0,0,0,.648.543q1.4,0,2.66-2.766l.455.176a10.681,10.681,0,0,1-2.065,3.534A3.181,3.181,0,0,1,221.689,192.032Zm2.625-21.524a1.481,1.481,0,0,1-1.085-.456,1.52,1.52,0,0,1-.455-1.12,1.554,1.554,0,0,1,1.54-1.54,1.53,1.53,0,0,1,1.121.455,1.488,1.488,0,0,1,.455,1.085,1.556,1.556,0,0,1-1.576,1.576Z"/>
          <path class="cls-1" d="M228.654,191.682l2.485-14.139-2.415-.736v-.28l4.2-.944h.175l-.245,3.779h.1a29.2,29.2,0,0,1,2.2-2.187A7.2,7.2,0,0,1,237,175.967a4.86,4.86,0,0,1,1.942-.384,2.851,2.851,0,0,1,2.573,1.346,5.319,5.319,0,0,1,.4,3.833l-1.225,6.755a5.77,5.77,0,0,0-.123,1.943.614.614,0,0,0,.648.543q1.4,0,2.66-2.766l.455.176a10.086,10.086,0,0,1-2.048,3.534,3.234,3.234,0,0,1-2.257,1.085,1.471,1.471,0,0,1-1.435-.857,4.716,4.716,0,0,1-.1-2.712l1.365-7.84a4.04,4.04,0,0,0-.209-2.4,1.894,1.894,0,0,0-1.926-1,3.466,3.466,0,0,0-1.75.508,9.961,9.961,0,0,0-1.715,1.277q-.84.771-1.609,1.576l-1.926,11.094Z"/>
          <path class="cls-1" d="M252.1,186.327a4.855,4.855,0,0,1-1.785-.315q-2.029.912-2.03,2.415a1.488,1.488,0,0,0,.7,1.331,5.482,5.482,0,0,0,1.82.7q1.121.245,2.38.471a14.99,14.99,0,0,1,2.38.631,4.733,4.733,0,0,1,1.82,1.119,2.716,2.716,0,0,1,.7,1.978,4.546,4.546,0,0,1-.893,2.713,6.057,6.057,0,0,1-2.572,1.977,10.084,10.084,0,0,1-4.06.736,8.61,8.61,0,0,1-4.323-.91,2.8,2.8,0,0,1-1.557-2.521,4.559,4.559,0,0,1,.3-1.715,5.207,5.207,0,0,1,.858-1.4l2.52-1.681v-.1a4.025,4.025,0,0,1-1.453-.963,2.325,2.325,0,0,1-.577-1.662,2.291,2.291,0,0,1,.28-1.156,5.386,5.386,0,0,1,.735-.98l2.24-1.19v-.139a3.508,3.508,0,0,1-1.365-1.524,4.792,4.792,0,0,1-.455-2.082,6.246,6.246,0,0,1,.84-3.15,6.966,6.966,0,0,1,2.257-2.4,5.733,5.733,0,0,1,3.2-.926,5.229,5.229,0,0,1,1.89.349h5.075v1.225h-3.22l-.175.141a4.286,4.286,0,0,1,.77,2.66,6.163,6.163,0,0,1-.788,2.939,6.84,6.84,0,0,1-2.222,2.45A5.689,5.689,0,0,1,252.1,186.327Zm-5.425,9.8a2.742,2.742,0,0,0,1.19,2.38,5.23,5.23,0,0,0,3.08.839,5.8,5.8,0,0,0,3.867-1.172A3.451,3.451,0,0,0,256.2,195.5a2.055,2.055,0,0,0-.682-1.663,4.4,4.4,0,0,0-1.786-.858q-1.1-.279-2.327-.472a20.222,20.222,0,0,1-2.345-.507,4.891,4.891,0,0,0-1.872,1.942A5.033,5.033,0,0,0,246.679,196.128Zm5.95-10.781a2.814,2.814,0,0,0,1.907-.717,4.828,4.828,0,0,0,1.295-1.908,6.857,6.857,0,0,0,.473-2.554,4.487,4.487,0,0,0-.7-2.678,2.354,2.354,0,0,0-2.03-.963,2.93,2.93,0,0,0-2,.735,4.779,4.779,0,0,0-1.3,1.908,6.944,6.944,0,0,0-.455,2.538,4.866,4.866,0,0,0,.648,2.572A2.316,2.316,0,0,0,252.629,185.347Z"/>
          <path class="cls-1" d="M71.223,232.032A2.849,2.849,0,0,1,68.9,230.86a5.53,5.53,0,0,1-.928-3.482,12.4,12.4,0,0,1,.735-4.148,15.155,15.155,0,0,1,1.978-3.815,10.607,10.607,0,0,1,2.87-2.782,6.187,6.187,0,0,1,3.412-1.05,5.467,5.467,0,0,1,1.662.261,5.823,5.823,0,0,1,1.453.683l.944-.769h.526l-2.066,11.759a5.789,5.789,0,0,0-.122,1.943.6.6,0,0,0,.613.543q1.436,0,2.7-2.766l.455.176a10.439,10.439,0,0,1-2.083,3.534,3.206,3.206,0,0,1-2.222,1.085,1.507,1.507,0,0,1-1.453-.857,4.452,4.452,0,0,1-.087-2.712l.14-.736h-.106a18.062,18.062,0,0,1-3.08,3.2A4.866,4.866,0,0,1,71.223,232.032Zm-1.155-5.425q0,3.675,2.275,3.675a3.592,3.592,0,0,0,1.889-.577,9.048,9.048,0,0,0,1.8-1.47,21.728,21.728,0,0,0,1.628-1.908l1.4-8.19a5.032,5.032,0,0,0-1.277-1.049,3.408,3.408,0,0,0-1.7-.386,3.968,3.968,0,0,0-2.468.841,7.279,7.279,0,0,0-1.907,2.274A12.373,12.373,0,0,0,70.488,223,15.391,15.391,0,0,0,70.068,226.607Z"/>
          <path class="cls-1" d="M85.573,231.682l2.485-14.139-2.415-.736v-.28l4.2-.944h.175l-.245,3.779h.105a29.2,29.2,0,0,1,2.2-2.187,7.2,7.2,0,0,1,1.838-1.208,4.86,4.86,0,0,1,1.942-.384,2.851,2.851,0,0,1,2.573,1.346,5.319,5.319,0,0,1,.4,3.833l-1.225,6.755a5.77,5.77,0,0,0-.123,1.943.614.614,0,0,0,.648.543q1.4,0,2.66-2.766l.455.176a10.086,10.086,0,0,1-2.048,3.534,3.234,3.234,0,0,1-2.257,1.085,1.47,1.47,0,0,1-1.435-.857,4.716,4.716,0,0,1-.105-2.712l1.365-7.84a4.032,4.032,0,0,0-.21-2.4,1.892,1.892,0,0,0-1.925-1,3.466,3.466,0,0,0-1.75.508,9.961,9.961,0,0,0-1.715,1.277q-.84.771-1.61,1.576l-1.925,11.094Z"/>
          <path class="cls-1" d="M101.043,240.083a.9.9,0,0,1-1.015-1.016v-1.154l.175-.141h1.75a6.879,6.879,0,0,0,1.208-.087,1.954,1.954,0,0,0,.893-.437,5.556,5.556,0,0,0,.926-1.085q.507-.735,1.279-2.03l1.784-2.941-3.08-13.72-2.555-.665v-.28l4.236-.944h.139l2.765,12.984h.14l2.765-4.515a21.517,21.517,0,0,0,1.61-3.027,5.6,5.6,0,0,0,.491-2.013,1.624,1.624,0,0,0-.245-.945,2.229,2.229,0,0,0-.63-.595l-.526-.28v-.14l.56-.91a1.5,1.5,0,0,1,.368-.455.782.782,0,0,1,.438-.1,1.463,1.463,0,0,1,1.242.787,3.135,3.135,0,0,1,.508,1.732,5.309,5.309,0,0,1-.491,1.943,24.678,24.678,0,0,1-1.75,3.2l-7,11.2q-.491.805-.8,1.33c-.21.351-.427.7-.648,1.05a11.563,11.563,0,0,1-.963,1.261,5.956,5.956,0,0,1-1.767,1.5A3.846,3.846,0,0,1,101.043,240.083Z"/>
          <path class="cls-1" d="M122.813,231.788l-2.765-14.316-2.555-.665v-.28l4.236-.944h.139l2.24,12.705h.14l5.565-12.356h.385l2.625,12.705h.14l2.45-4.585q.979-1.854,1.47-3.044a5.456,5.456,0,0,0,.49-2,1.624,1.624,0,0,0-.245-.945,2.2,2.2,0,0,0-.63-.595l-.524-.28v-.14l.559-.91a1.336,1.336,0,0,1,.385-.455.8.8,0,0,1,.42-.1,1.443,1.443,0,0,1,1.208.8,3.169,3.169,0,0,1,.508,1.715,5.312,5.312,0,0,1-.473,1.925,29.149,29.149,0,0,1-1.663,3.221l-4.9,8.54h-.491l-2.52-11.586-5.67,11.586Z"/>
          <path class="cls-1" d="M143.008,231.682h-2.066l4.271-24.29-2.45-.735v-.279l4.655-.946h.21l-2.45,13.93h.069a29.387,29.387,0,0,1,2.2-2.187,7.23,7.23,0,0,1,1.838-1.208,4.86,4.86,0,0,1,1.942-.384,2.849,2.849,0,0,1,2.573,1.346,5.314,5.314,0,0,1,.4,3.833l-1.226,6.755a5.789,5.789,0,0,0-.122,1.943.613.613,0,0,0,.648.543q1.4,0,2.66-2.766l.454.176a10.664,10.664,0,0,1-2.064,3.534,3.181,3.181,0,0,1-2.241,1.085,1.469,1.469,0,0,1-1.434-.857,4.714,4.714,0,0,1-.106-2.712l1.366-7.84a4.04,4.04,0,0,0-.21-2.4,1.894,1.894,0,0,0-1.925-1,4.184,4.184,0,0,0-2.608,1.05,21.421,21.421,0,0,0-2.432,2.275Z"/>
          <path class="cls-1" d="M163.972,232.032a4.58,4.58,0,0,1-3.868-1.609,6.628,6.628,0,0,1-1.242-4.165,11.435,11.435,0,0,1,.7-3.973,11.764,11.764,0,0,1,1.925-3.412,10.094,10.094,0,0,1,2.765-2.4,6.331,6.331,0,0,1,3.22-.892,3.762,3.762,0,0,1,2.695.84,2.562,2.562,0,0,1,.875,1.889,2.911,2.911,0,0,1-.962,2.083,8.3,8.3,0,0,1-3.168,1.715A33.394,33.394,0,0,1,161,223.387a15.005,15.005,0,0,0-.14,2.065,5.7,5.7,0,0,0,1.05,3.676,3.652,3.652,0,0,0,3.01,1.3q2.8,0,4.9-3.255h.07l.28.21a9.591,9.591,0,0,1-2.537,3.29A5.551,5.551,0,0,1,163.972,232.032Zm2.765-15.47a4.634,4.634,0,0,0-3.5,1.628,9.124,9.124,0,0,0-2.1,4.358,22.518,22.518,0,0,0,6.02-1.558,2.769,2.769,0,0,0,1.785-2.538,1.829,1.829,0,0,0-.543-1.347A2.262,2.262,0,0,0,166.737,216.562Z"/>
          <path class="cls-1" d="M174.332,231.682l2.52-14.139-2.486-.736v-.28l4.306-.944h.14l-.281,4.059h.141a16.87,16.87,0,0,1,2-2.677,4.9,4.9,0,0,1,1.47-1.121,3.041,3.041,0,0,1,1.155-.261,1.859,1.859,0,0,1,1.085.314.9.9,0,0,1,.455.736.928.928,0,0,1-.1.419l-.665,1.26h-.14l-.455-.28a1.86,1.86,0,0,0-1.085-.315,2.906,2.906,0,0,0-1.891.77,13.724,13.724,0,0,0-2.274,2.905l-1.821,10.29Z"/>
          <path class="cls-1" d="M190.5,232.032a4.576,4.576,0,0,1-3.867-1.609,6.628,6.628,0,0,1-1.242-4.165,11.412,11.412,0,0,1,.7-3.973,11.741,11.741,0,0,1,1.925-3.412,10.076,10.076,0,0,1,2.764-2.4,6.334,6.334,0,0,1,3.22-.892,3.762,3.762,0,0,1,2.695.84,2.562,2.562,0,0,1,.875,1.889,2.911,2.911,0,0,1-.962,2.083,8.3,8.3,0,0,1-3.168,1.715,33.374,33.374,0,0,1-5.915,1.277,15.164,15.164,0,0,0-.139,2.065,5.694,5.694,0,0,0,1.05,3.676,3.651,3.651,0,0,0,3.009,1.3q2.8,0,4.9-3.255h.069l.28.21a9.591,9.591,0,0,1-2.537,3.29A5.551,5.551,0,0,1,190.5,232.032Zm2.766-15.47a4.634,4.634,0,0,0-3.5,1.628,9.125,9.125,0,0,0-2.1,4.358,22.538,22.538,0,0,0,6.021-1.558,2.771,2.771,0,0,0,1.785-2.538,1.833,1.833,0,0,0-.543-1.347A2.264,2.264,0,0,0,193.268,216.562Z"/>
          <path class="cls-1" d="M212.132,232.032a2.849,2.849,0,0,1-2.327-1.172,5.536,5.536,0,0,1-.928-3.482,12.4,12.4,0,0,1,.735-4.148,15.188,15.188,0,0,1,1.978-3.815,10.607,10.607,0,0,1,2.87-2.782,6.19,6.19,0,0,1,3.412-1.05,5.462,5.462,0,0,1,1.662.261,5.823,5.823,0,0,1,1.453.683l.945-.769h.525l-2.065,11.759a5.789,5.789,0,0,0-.122,1.943.594.594,0,0,0,.612.543q1.435,0,2.695-2.766l.455.176a10.423,10.423,0,0,1-2.083,3.534,3.2,3.2,0,0,1-2.221,1.085,1.507,1.507,0,0,1-1.454-.857,4.446,4.446,0,0,1-.086-2.712l.139-.736h-.1a18.1,18.1,0,0,1-3.08,3.2A4.866,4.866,0,0,1,212.132,232.032Zm-1.154-5.425q0,3.675,2.274,3.675a3.6,3.6,0,0,0,1.89-.577,9.071,9.071,0,0,0,1.8-1.47,21.391,21.391,0,0,0,1.628-1.908l1.4-8.19a5.053,5.053,0,0,0-1.278-1.049,3.408,3.408,0,0,0-1.7-.386,3.97,3.97,0,0,0-2.468.841,7.279,7.279,0,0,0-1.907,2.274A12.373,12.373,0,0,0,211.4,223,15.391,15.391,0,0,0,210.978,226.607Z"/>
          <path class="cls-1" d="M226.482,231.682l2.485-14.139-2.415-.736v-.28l4.2-.944h.175l-.244,3.779h.1a29.2,29.2,0,0,1,2.2-2.187,7.2,7.2,0,0,1,1.838-1.208,4.86,4.86,0,0,1,1.942-.384,2.851,2.851,0,0,1,2.573,1.346,5.319,5.319,0,0,1,.4,3.833l-1.225,6.755a5.77,5.77,0,0,0-.123,1.943.614.614,0,0,0,.648.543q1.4,0,2.66-2.766l.455.176a10.07,10.07,0,0,1-2.048,3.534,3.234,3.234,0,0,1-2.257,1.085,1.471,1.471,0,0,1-1.435-.857,4.725,4.725,0,0,1-.1-2.712l1.366-7.84a4.048,4.048,0,0,0-.21-2.4,1.894,1.894,0,0,0-1.926-1,3.466,3.466,0,0,0-1.75.508,10,10,0,0,0-1.715,1.277q-.84.771-1.609,1.576l-1.926,11.094Z"/>
          <path class="cls-1" d="M247.622,232.032a2.8,2.8,0,0,1-2.31-1.172,5.61,5.61,0,0,1-.91-3.482,12.677,12.677,0,0,1,.718-4.148,14.438,14.438,0,0,1,1.977-3.815,10.976,10.976,0,0,1,2.87-2.782,6.107,6.107,0,0,1,3.395-1.05,5.345,5.345,0,0,1,1.278.157,5.688,5.688,0,0,1,1.207.437l1.54-8.82-2.8-.7v-.279l5-.946h.176l-3.886,22.085a5.789,5.789,0,0,0-.122,1.943.613.613,0,0,0,.647.543q1.4,0,2.66-2.766l.455.176a10.071,10.071,0,0,1-2.047,3.534,3.239,3.239,0,0,1-2.258,1.085,1.47,1.47,0,0,1-1.435-.857,4.716,4.716,0,0,1-.105-2.712l.14-.736h-.105a16.91,16.91,0,0,1-3.15,3.255A4.932,4.932,0,0,1,247.622,232.032Zm-1.155-5.425a5.092,5.092,0,0,0,.595,2.8,1.946,1.946,0,0,0,1.715.875,4.237,4.237,0,0,0,2.625-1.1,15.434,15.434,0,0,0,2.625-2.782l1.435-8.26a5.634,5.634,0,0,0-1.33-1.067,3.366,3.366,0,0,0-1.645-.368,3.978,3.978,0,0,0-2.432.823,7.128,7.128,0,0,0-1.908,2.239,12.522,12.522,0,0,0-1.243,3.186A15.149,15.149,0,0,0,246.467,226.607Z"/>
          <path class="cls-1" d="M17.115,272.032a4.576,4.576,0,0,1-3.867-1.609,6.628,6.628,0,0,1-1.242-4.165,11.412,11.412,0,0,1,.7-3.973,11.741,11.741,0,0,1,1.925-3.412,10.065,10.065,0,0,1,2.765-2.4,6.328,6.328,0,0,1,3.219-.892,3.765,3.765,0,0,1,2.7.84,2.562,2.562,0,0,1,.875,1.889,2.915,2.915,0,0,1-.962,2.083,8.32,8.32,0,0,1-3.168,1.715,33.415,33.415,0,0,1-5.915,1.277,15.005,15.005,0,0,0-.14,2.065,5.7,5.7,0,0,0,1.05,3.676,3.652,3.652,0,0,0,3.01,1.3q2.8,0,4.9-3.255h.069l.281.21a9.606,9.606,0,0,1-2.538,3.29A5.549,5.549,0,0,1,17.115,272.032Zm2.766-15.47a4.634,4.634,0,0,0-3.5,1.628,9.134,9.134,0,0,0-2.1,4.358A22.527,22.527,0,0,0,20.3,260.99a2.771,2.771,0,0,0,1.785-2.538,1.833,1.833,0,0,0-.543-1.347A2.262,2.262,0,0,0,19.881,256.562Z"/>
          <path class="cls-1" d="M31.605,271.788,28.6,257.437l-2.555-.63v-.28l4.235-.944h.14l2.555,13.09h.14l2.835-4.621a21.6,21.6,0,0,0,1.558-3.027,5.8,5.8,0,0,0,.473-2.013,1.616,1.616,0,0,0-.246-.945,2.239,2.239,0,0,0-.629-.6l-.526-.28v-.14l.56-.91a1.474,1.474,0,0,1,.368-.455.778.778,0,0,1,.437-.1,1.482,1.482,0,0,1,1.225.8,3.082,3.082,0,0,1,.525,1.715,5.146,5.146,0,0,1-.507,1.943,26.9,26.9,0,0,1-1.768,3.2l-5.32,8.54Z"/>
          <path class="cls-1" d="M46.55,272.032a4.576,4.576,0,0,1-3.867-1.609,6.622,6.622,0,0,1-1.243-4.165,11.413,11.413,0,0,1,.7-3.973,11.738,11.738,0,0,1,1.924-3.412,10.094,10.094,0,0,1,2.765-2.4,6.331,6.331,0,0,1,3.22-.892,3.762,3.762,0,0,1,2.7.84,2.562,2.562,0,0,1,.875,1.889,2.911,2.911,0,0,1-.962,2.083,8.3,8.3,0,0,1-3.168,1.715,33.374,33.374,0,0,1-5.915,1.277,15.006,15.006,0,0,0-.139,2.065,5.7,5.7,0,0,0,1.049,3.676,3.653,3.653,0,0,0,3.01,1.3q2.8,0,4.9-3.255h.069l.28.21a9.591,9.591,0,0,1-2.537,3.29A5.551,5.551,0,0,1,46.55,272.032Zm2.765-15.47a4.634,4.634,0,0,0-3.5,1.628,9.134,9.134,0,0,0-2.1,4.358,22.518,22.518,0,0,0,6.02-1.558,2.77,2.77,0,0,0,1.786-2.538,1.833,1.833,0,0,0-.543-1.347A2.265,2.265,0,0,0,49.315,256.562Z"/>
          <path class="cls-1" d="M56.91,271.682l2.52-14.139-2.486-.736v-.28l4.306-.944h.14l-.281,4.059h.141a16.994,16.994,0,0,1,1.995-2.677,4.9,4.9,0,0,1,1.47-1.121,3.045,3.045,0,0,1,1.155-.261,1.859,1.859,0,0,1,1.085.314.9.9,0,0,1,.455.736.928.928,0,0,1-.1.419l-.665,1.26H66.5l-.455-.28a1.86,1.86,0,0,0-1.085-.315,2.906,2.906,0,0,0-1.891.77,13.724,13.724,0,0,0-2.274,2.9l-1.82,10.29Z"/>
          <path class="cls-1" d="M66.569,280.083a.9.9,0,0,1-1.014-1.016v-1.154l.174-.141h1.75a6.892,6.892,0,0,0,1.209-.087,1.951,1.951,0,0,0,.892-.437,5.59,5.59,0,0,0,.927-1.085q.507-.735,1.278-2.03l1.784-2.941-3.08-13.72-2.554-.665v-.28l4.235-.944h.14l2.764,12.984h.141l2.764-4.515a21.435,21.435,0,0,0,1.611-3.027,5.612,5.612,0,0,0,.49-2.013,1.624,1.624,0,0,0-.245-.945,2.229,2.229,0,0,0-.63-.6l-.525-.28v-.14l.559-.91a1.5,1.5,0,0,1,.368-.455.782.782,0,0,1,.438-.1,1.463,1.463,0,0,1,1.242.787A3.135,3.135,0,0,1,81.8,258.1a5.3,5.3,0,0,1-.49,1.943,24.678,24.678,0,0,1-1.75,3.2l-7,11.2q-.491.805-.805,1.33c-.21.351-.427.7-.647,1.05a11.693,11.693,0,0,1-.963,1.261,5.971,5.971,0,0,1-1.768,1.5A3.846,3.846,0,0,1,66.569,280.083Z"/>
          <path class="cls-1" d="M88.339,271.788l-2.766-14.316-2.554-.665v-.28l4.235-.944h.14l2.24,12.705h.139l5.566-12.356h.385l2.625,12.705h.139l2.45-4.585q.981-1.854,1.47-3.044a5.456,5.456,0,0,0,.49-2,1.624,1.624,0,0,0-.245-.945,2.2,2.2,0,0,0-.63-.6l-.524-.28v-.14l.56-.91a1.324,1.324,0,0,1,.384-.455.805.805,0,0,1,.42-.1,1.443,1.443,0,0,1,1.208.8,3.169,3.169,0,0,1,.508,1.715,5.312,5.312,0,0,1-.473,1.925,29.149,29.149,0,0,1-1.663,3.221l-4.9,8.54h-.49L94.533,260.2l-5.67,11.586Z"/>
          <path class="cls-1" d="M108.533,271.682h-2.065l4.27-24.29-2.45-.735v-.279l4.655-.946h.21l-2.45,13.93h.069a29.376,29.376,0,0,1,2.206-2.187,7.226,7.226,0,0,1,1.837-1.208,4.865,4.865,0,0,1,1.943-.384,2.848,2.848,0,0,1,2.572,1.346,5.314,5.314,0,0,1,.4,3.833l-1.225,6.755a5.789,5.789,0,0,0-.122,1.943.612.612,0,0,0,.647.543q1.4,0,2.66-2.766l.454.176a10.647,10.647,0,0,1-2.064,3.534,3.181,3.181,0,0,1-2.24,1.085,1.47,1.47,0,0,1-1.435-.857,4.716,4.716,0,0,1-.105-2.712l1.365-7.84a4.032,4.032,0,0,0-.21-2.4,1.893,1.893,0,0,0-1.925-1,4.182,4.182,0,0,0-2.607,1.05,21.43,21.43,0,0,0-2.433,2.275Z"/>
          <path class="cls-1" d="M129.5,272.032a4.576,4.576,0,0,1-3.867-1.609,6.628,6.628,0,0,1-1.242-4.165,11.412,11.412,0,0,1,.7-3.973,11.741,11.741,0,0,1,1.925-3.412,10.076,10.076,0,0,1,2.764-2.4,6.334,6.334,0,0,1,3.22-.892,3.762,3.762,0,0,1,2.695.84,2.562,2.562,0,0,1,.875,1.889,2.911,2.911,0,0,1-.962,2.083,8.3,8.3,0,0,1-3.168,1.715,33.374,33.374,0,0,1-5.915,1.277,15.164,15.164,0,0,0-.139,2.065,5.694,5.694,0,0,0,1.05,3.676,3.651,3.651,0,0,0,3.009,1.3q2.8,0,4.9-3.255h.069l.28.21a9.591,9.591,0,0,1-2.537,3.29A5.549,5.549,0,0,1,129.5,272.032Zm2.766-15.47a4.634,4.634,0,0,0-3.5,1.628,9.134,9.134,0,0,0-2.1,4.358,22.538,22.538,0,0,0,6.021-1.558,2.771,2.771,0,0,0,1.785-2.538,1.833,1.833,0,0,0-.543-1.347A2.264,2.264,0,0,0,132.265,256.562Z"/>
          <path class="cls-1" d="M139.859,271.682l2.52-14.139-2.485-.736v-.28l4.305-.944h.14l-.28,4.059h.14a16.994,16.994,0,0,1,1.995-2.677,4.9,4.9,0,0,1,1.47-1.121,3.045,3.045,0,0,1,1.155-.261,1.857,1.857,0,0,1,1.085.314.9.9,0,0,1,.455.736.928.928,0,0,1-.105.419l-.665,1.26h-.14l-.455-.28a1.86,1.86,0,0,0-1.085-.315,2.9,2.9,0,0,0-1.89.77,13.688,13.688,0,0,0-2.275,2.9l-1.82,10.29Z"/>
          <path class="cls-1" d="M156.028,272.032a4.576,4.576,0,0,1-3.867-1.609,6.628,6.628,0,0,1-1.242-4.165,11.412,11.412,0,0,1,.7-3.973,11.764,11.764,0,0,1,1.925-3.412,10.065,10.065,0,0,1,2.765-2.4,6.328,6.328,0,0,1,3.219-.892,3.765,3.765,0,0,1,2.7.84,2.562,2.562,0,0,1,.875,1.889,2.915,2.915,0,0,1-.962,2.083,8.32,8.32,0,0,1-3.168,1.715,33.415,33.415,0,0,1-5.915,1.277,15.005,15.005,0,0,0-.14,2.065,5.7,5.7,0,0,0,1.05,3.676,3.652,3.652,0,0,0,3.01,1.3q2.8,0,4.9-3.255h.069l.281.21a9.615,9.615,0,0,1-2.537,3.29A5.551,5.551,0,0,1,156.028,272.032Zm2.766-15.47a4.634,4.634,0,0,0-3.5,1.628,9.134,9.134,0,0,0-2.1,4.358,22.527,22.527,0,0,0,6.021-1.558A2.771,2.771,0,0,0,161,258.452a1.833,1.833,0,0,0-.543-1.347A2.262,2.262,0,0,0,158.794,256.562Z"/>
          <path class="cls-1" d="M163.8,278.157v-.56a8.114,8.114,0,0,0,2.59-1.977,3.416,3.416,0,0,0,.77-2.117,2.729,2.729,0,0,0-.28-1.295,2.4,2.4,0,0,0-.8-.875l-.91-.6v-.279l.595-.841q.455-.7.91-.7a1.522,1.522,0,0,1,.734.279,3.61,3.61,0,0,1,1.611,3.08,4.751,4.751,0,0,1-1.278,3.133A11.809,11.809,0,0,1,163.8,278.157Z"/>
          <path class="cls-1" d="M184.693,272.032a1.505,1.505,0,0,1-1.452-.857,4.458,4.458,0,0,1-.088-2.712l1.925-10.955-2.59-.7v-.28l4.726-.944h.279l-2.135,11.934a5.789,5.789,0,0,0-.122,1.943.613.613,0,0,0,.648.543q1.4,0,2.66-2.766l.455.176a10.681,10.681,0,0,1-2.065,3.534A3.181,3.181,0,0,1,184.693,272.032Zm2.625-21.524a1.479,1.479,0,0,1-1.085-.456,1.52,1.52,0,0,1-.455-1.12,1.554,1.554,0,0,1,1.54-1.54,1.526,1.526,0,0,1,1.12.455,1.485,1.485,0,0,1,.456,1.085,1.557,1.557,0,0,1-1.576,1.576Z"/>
          <path class="cls-1" d="M191.658,271.682l2.485-14.139-2.415-.736v-.28l4.2-.944h.175l-.245,3.779h.1a29.2,29.2,0,0,1,2.205-2.187,7.2,7.2,0,0,1,1.838-1.208,4.86,4.86,0,0,1,1.942-.384,2.851,2.851,0,0,1,2.573,1.346,5.319,5.319,0,0,1,.4,3.833l-1.225,6.755a5.77,5.77,0,0,0-.123,1.943.614.614,0,0,0,.648.543q1.4,0,2.66-2.766l.455.176a10.086,10.086,0,0,1-2.048,3.534,3.234,3.234,0,0,1-2.257,1.085,1.47,1.47,0,0,1-1.435-.857,4.716,4.716,0,0,1-.105-2.712l1.365-7.84a4.032,4.032,0,0,0-.21-2.4,1.892,1.892,0,0,0-1.925-1,3.466,3.466,0,0,0-1.75.508,9.961,9.961,0,0,0-1.715,1.277q-.84.771-1.61,1.576l-1.925,11.094Z"/>
          <path class="cls-1" d="M221.2,272.032a1.98,1.98,0,0,1-1.628-.665,2.911,2.911,0,0,1-.542-1.89,3.551,3.551,0,0,1,.052-.559c.035-.21.065-.432.088-.665l1.925-11.061h-2.66v-.245l3.08-1.085,2.31-3.779h.245l-.665,3.849h4.235v1.26h-4.48l-1.68,9.695c-.047.328-.087.63-.123.911a5.983,5.983,0,0,0-.052.734,2.046,2.046,0,0,0,.262,1.19.921.921,0,0,0,.788.35,2.649,2.649,0,0,0,1.785-.944,8.662,8.662,0,0,0,1.715-2.766l.49.21a11.384,11.384,0,0,1-2.433,4.218A3.944,3.944,0,0,1,221.2,272.032Z"/>
          <path class="cls-1" d="M231.278,271.682h-2.065l4.27-24.29-2.45-.735v-.279l4.655-.946h.21l-2.45,13.93h.07a29.2,29.2,0,0,1,2.205-2.187,7.23,7.23,0,0,1,1.838-1.208,4.857,4.857,0,0,1,1.942-.384,2.848,2.848,0,0,1,2.572,1.346,5.318,5.318,0,0,1,.4,3.833l-1.226,6.755a5.789,5.789,0,0,0-.122,1.943.612.612,0,0,0,.647.543q1.4,0,2.66-2.766l.455.176a10.664,10.664,0,0,1-2.065,3.534,3.181,3.181,0,0,1-2.24,1.085,1.47,1.47,0,0,1-1.435-.857,4.716,4.716,0,0,1-.1-2.712l1.365-7.84a4.032,4.032,0,0,0-.21-2.4,1.893,1.893,0,0,0-1.925-1,4.182,4.182,0,0,0-2.607,1.05,21.43,21.43,0,0,0-2.433,2.275Z"/>
          <path class="cls-1" d="M252.242,272.032a4.576,4.576,0,0,1-3.867-1.609,6.628,6.628,0,0,1-1.242-4.165,11.412,11.412,0,0,1,.7-3.973,11.741,11.741,0,0,1,1.925-3.412,10.076,10.076,0,0,1,2.764-2.4,6.334,6.334,0,0,1,3.22-.892,3.766,3.766,0,0,1,2.7.84,2.561,2.561,0,0,1,.874,1.889,2.913,2.913,0,0,1-.961,2.083,8.32,8.32,0,0,1-3.168,1.715,33.415,33.415,0,0,1-5.915,1.277,15.005,15.005,0,0,0-.14,2.065,5.7,5.7,0,0,0,1.05,3.676,3.652,3.652,0,0,0,3.01,1.3q2.8,0,4.9-3.255h.069l.281.21a9.606,9.606,0,0,1-2.538,3.29A5.549,5.549,0,0,1,252.242,272.032Zm2.766-15.47a4.634,4.634,0,0,0-3.5,1.628,9.134,9.134,0,0,0-2.1,4.358,22.538,22.538,0,0,0,6.021-1.558,2.771,2.771,0,0,0,1.785-2.538,1.833,1.833,0,0,0-.543-1.347A2.262,2.262,0,0,0,255.008,256.562Z"/>
          <path class="cls-1" d="M15.926,312.032a4.576,4.576,0,0,1-3.867-1.609,6.622,6.622,0,0,1-1.243-4.165,11.413,11.413,0,0,1,.7-3.973,11.738,11.738,0,0,1,1.924-3.412,10.094,10.094,0,0,1,2.765-2.4,6.331,6.331,0,0,1,3.22-.892,3.762,3.762,0,0,1,2.7.84A2.562,2.562,0,0,1,23,298.312a2.911,2.911,0,0,1-.962,2.083,8.3,8.3,0,0,1-3.168,1.715,33.394,33.394,0,0,1-5.915,1.277,15.006,15.006,0,0,0-.139,2.065,5.7,5.7,0,0,0,1.049,3.676,3.653,3.653,0,0,0,3.01,1.3q2.8,0,4.9-3.255h.07l.28.21a9.591,9.591,0,0,1-2.537,3.29A5.551,5.551,0,0,1,15.926,312.032Zm2.765-15.47a4.634,4.634,0,0,0-3.5,1.628,9.134,9.134,0,0,0-2.1,4.358,22.518,22.518,0,0,0,6.02-1.558,2.769,2.769,0,0,0,1.785-2.538,1.832,1.832,0,0,0-.542-1.347A2.265,2.265,0,0,0,18.691,296.562Z"/>
          <path class="cls-1" d="M28.806,312.032a2.849,2.849,0,0,1-2.327-1.172,5.53,5.53,0,0,1-.928-3.482,12.4,12.4,0,0,1,.735-4.148,15.155,15.155,0,0,1,1.978-3.815,10.607,10.607,0,0,1,2.87-2.782,6.187,6.187,0,0,1,3.412-1.05,5.467,5.467,0,0,1,1.662.261,5.823,5.823,0,0,1,1.453.683l.944-.769h.526l-2.066,11.759a5.789,5.789,0,0,0-.122,1.943.6.6,0,0,0,.613.543q1.436,0,2.7-2.766l.455.176a10.439,10.439,0,0,1-2.083,3.534,3.206,3.206,0,0,1-2.222,1.085,1.507,1.507,0,0,1-1.453-.857,4.452,4.452,0,0,1-.087-2.712l.14-.736h-.1a18.1,18.1,0,0,1-3.081,3.2A4.866,4.866,0,0,1,28.806,312.032Zm-1.155-5.425q0,3.675,2.275,3.675a3.592,3.592,0,0,0,1.889-.577,9.048,9.048,0,0,0,1.8-1.47,21.728,21.728,0,0,0,1.628-1.908l1.4-8.19a5.053,5.053,0,0,0-1.278-1.049,3.408,3.408,0,0,0-1.7-.386,3.968,3.968,0,0,0-2.468.841,7.279,7.279,0,0,0-1.907,2.274A12.373,12.373,0,0,0,28.071,303,15.391,15.391,0,0,0,27.651,306.607Z"/>
          <path class="cls-1" d="M46.026,312.032a1.98,1.98,0,0,1-1.628-.665,2.911,2.911,0,0,1-.542-1.89,3.551,3.551,0,0,1,.052-.559c.035-.21.065-.432.088-.665l1.925-11.061h-2.66v-.245l3.08-1.085,2.31-3.779H48.9l-.665,3.849h4.235v1.26h-4.48l-1.68,9.695c-.047.328-.087.63-.122.911a5.81,5.81,0,0,0-.053.734,2.037,2.037,0,0,0,.263,1.19.918.918,0,0,0,.787.35,2.649,2.649,0,0,0,1.785-.944,8.662,8.662,0,0,0,1.715-2.766l.49.21a11.384,11.384,0,0,1-2.433,4.218A3.944,3.944,0,0,1,46.026,312.032Z"/>
          <path class="cls-1" d="M56.526,312.032a1.505,1.505,0,0,1-1.452-.857,4.458,4.458,0,0,1-.088-2.712l1.925-10.955-2.59-.7v-.28l4.726-.944h.279l-2.135,11.934a5.789,5.789,0,0,0-.122,1.943.613.613,0,0,0,.648.543q1.4,0,2.66-2.766l.455.176a10.681,10.681,0,0,1-2.065,3.534A3.181,3.181,0,0,1,56.526,312.032Zm2.625-21.524a1.479,1.479,0,0,1-1.085-.456,1.52,1.52,0,0,1-.455-1.12,1.554,1.554,0,0,1,1.54-1.54,1.526,1.526,0,0,1,1.12.455,1.485,1.485,0,0,1,.456,1.085,1.557,1.557,0,0,1-1.576,1.576Z"/>
          <path class="cls-1" d="M63.491,311.682l2.485-14.139-2.415-.736v-.28l4.2-.944h.175l-.245,3.779H67.8a29.2,29.2,0,0,1,2.2-2.187,7.2,7.2,0,0,1,1.838-1.208,4.86,4.86,0,0,1,1.942-.384,2.851,2.851,0,0,1,2.573,1.346,5.319,5.319,0,0,1,.4,3.833l-1.225,6.755a5.77,5.77,0,0,0-.123,1.943.614.614,0,0,0,.648.543q1.4,0,2.66-2.766l.455.176a10.086,10.086,0,0,1-2.048,3.534,3.234,3.234,0,0,1-2.257,1.085,1.47,1.47,0,0,1-1.435-.857,4.716,4.716,0,0,1-.105-2.712l1.365-7.84a4.032,4.032,0,0,0-.21-2.4,1.892,1.892,0,0,0-1.925-1,3.466,3.466,0,0,0-1.75.508,9.961,9.961,0,0,0-1.715,1.277q-.84.771-1.61,1.576l-1.925,11.094Z"/>
          <path class="cls-1" d="M86.941,306.327a4.855,4.855,0,0,1-1.785-.315q-2.03.912-2.03,2.415a1.488,1.488,0,0,0,.7,1.331,5.473,5.473,0,0,0,1.82.7q1.121.244,2.38.471a14.99,14.99,0,0,1,2.38.631,4.733,4.733,0,0,1,1.82,1.119,2.716,2.716,0,0,1,.7,1.978,4.546,4.546,0,0,1-.893,2.713,6.063,6.063,0,0,1-2.572,1.977,10.084,10.084,0,0,1-4.06.736,8.61,8.61,0,0,1-4.323-.91,2.8,2.8,0,0,1-1.557-2.521,4.559,4.559,0,0,1,.3-1.715,5.207,5.207,0,0,1,.858-1.4l2.52-1.681v-.1a4.025,4.025,0,0,1-1.453-.963,2.325,2.325,0,0,1-.577-1.662,2.291,2.291,0,0,1,.28-1.156,5.386,5.386,0,0,1,.735-.98l2.24-1.19v-.139a3.5,3.5,0,0,1-1.365-1.524,4.792,4.792,0,0,1-.455-2.082,6.246,6.246,0,0,1,.84-3.15,6.966,6.966,0,0,1,2.257-2.4,5.733,5.733,0,0,1,3.2-.926,5.229,5.229,0,0,1,1.89.349h5.075v1.225h-3.22l-.175.141a4.286,4.286,0,0,1,.77,2.66,6.163,6.163,0,0,1-.788,2.939,6.834,6.834,0,0,1-2.223,2.45A5.686,5.686,0,0,1,86.941,306.327Zm-5.425,9.8a2.742,2.742,0,0,0,1.19,2.38,5.23,5.23,0,0,0,3.08.839,5.8,5.8,0,0,0,3.867-1.172,3.451,3.451,0,0,0,1.383-2.677,2.055,2.055,0,0,0-.682-1.663,4.406,4.406,0,0,0-1.786-.858q-1.1-.279-2.327-.472A20.222,20.222,0,0,1,83.9,312a4.9,4.9,0,0,0-1.873,1.942A5.046,5.046,0,0,0,81.516,316.128Zm5.95-10.781a2.815,2.815,0,0,0,1.907-.717,4.828,4.828,0,0,0,1.3-1.908,6.857,6.857,0,0,0,.473-2.554,4.487,4.487,0,0,0-.7-2.678,2.354,2.354,0,0,0-2.03-.963,2.93,2.93,0,0,0-2,.735,4.769,4.769,0,0,0-1.3,1.908,6.944,6.944,0,0,0-.455,2.538,4.875,4.875,0,0,0,.647,2.572A2.319,2.319,0,0,0,87.466,305.347Z"/>
          <path class="cls-1" d="M109.2,312.032a2.647,2.647,0,0,1-2.135-.909,3.962,3.962,0,0,1-.77-2.625,5.916,5.916,0,0,1,.053-.788c.035-.268.075-.554.122-.858l1.68-9.309-2.45-.736v-.28l4.585-.944h.21l-1.925,11.2-.123.735a3.727,3.727,0,0,0-.051.6,2.689,2.689,0,0,0,.472,1.628,1.8,1.8,0,0,0,1.557.647,3.78,3.78,0,0,0,2.485-1.067,25.117,25.117,0,0,0,2.31-2.293l1.68-9.484-2.45-.736v-.28l4.62-.944h.21l-2.1,11.934a5.644,5.644,0,0,0-.123,1.925.619.619,0,0,0,.647.561,1.991,1.991,0,0,0,1.365-.7,6.692,6.692,0,0,0,1.3-2.065l.49.176a10.423,10.423,0,0,1-2.083,3.534,3.2,3.2,0,0,1-2.222,1.085,1.5,1.5,0,0,1-1.452-.875,4.55,4.55,0,0,1-.122-2.694l.034-.175h-.14a19.775,19.775,0,0,1-2.974,2.887A4.5,4.5,0,0,1,109.2,312.032Z"/>
          <path class="cls-1" d="M125.966,312.032a1.977,1.977,0,0,1-1.628-.665,2.911,2.911,0,0,1-.542-1.89,3.435,3.435,0,0,1,.052-.559q.052-.315.088-.665l1.924-11.061H123.2v-.245l3.08-1.085,2.311-3.779h.245l-.665,3.849h4.234v1.26h-4.479l-1.681,9.695c-.047.328-.087.63-.122.911a6,6,0,0,0-.053.734,2.037,2.037,0,0,0,.263,1.19.92.92,0,0,0,.787.35,2.647,2.647,0,0,0,1.785-.944,8.662,8.662,0,0,0,1.715-2.766l.49.21a11.384,11.384,0,0,1-2.432,4.218A3.946,3.946,0,0,1,125.966,312.032Z"/>
          <path class="cls-1" d="M138.95,312.032a4.576,4.576,0,0,1-3.867-1.609,6.628,6.628,0,0,1-1.242-4.165,11.412,11.412,0,0,1,.7-3.973,11.741,11.741,0,0,1,1.925-3.412,10.076,10.076,0,0,1,2.764-2.4,6.334,6.334,0,0,1,3.22-.892,3.766,3.766,0,0,1,2.7.84,2.562,2.562,0,0,1,.875,1.889,2.915,2.915,0,0,1-.962,2.083,8.32,8.32,0,0,1-3.168,1.715,33.415,33.415,0,0,1-5.915,1.277,15.005,15.005,0,0,0-.14,2.065,5.7,5.7,0,0,0,1.05,3.676,3.652,3.652,0,0,0,3.01,1.3q2.8,0,4.9-3.255h.069l.281.21a9.606,9.606,0,0,1-2.538,3.29A5.549,5.549,0,0,1,138.95,312.032Zm2.766-15.47a4.634,4.634,0,0,0-3.5,1.628,9.134,9.134,0,0,0-2.1,4.358,22.538,22.538,0,0,0,6.021-1.558,2.771,2.771,0,0,0,1.785-2.538,1.833,1.833,0,0,0-.543-1.347A2.262,2.262,0,0,0,141.716,296.562Z"/>
          <path class="cls-1" d="M148.82,311.682l2.485-14.139-2.415-.736v-.28l4.2-.944h.175l-.244,3.779h.1a29.2,29.2,0,0,1,2.205-2.187,7.2,7.2,0,0,1,1.838-1.208,4.86,4.86,0,0,1,1.942-.384,2.851,2.851,0,0,1,2.573,1.346,5.319,5.319,0,0,1,.4,3.833l-1.225,6.755a5.77,5.77,0,0,0-.123,1.943.614.614,0,0,0,.648.543q1.4,0,2.66-2.766l.455.176a10.07,10.07,0,0,1-2.048,3.534,3.234,3.234,0,0,1-2.257,1.085,1.471,1.471,0,0,1-1.435-.857,4.716,4.716,0,0,1-.1-2.712l1.366-7.84a4.048,4.048,0,0,0-.21-2.4,1.894,1.894,0,0,0-1.926-1,3.466,3.466,0,0,0-1.75.508,9.961,9.961,0,0,0-1.715,1.277q-.84.771-1.609,1.576l-1.926,11.094Z"/>
          <path class="cls-1" d="M170.205,312.032a6.1,6.1,0,0,1-2.625-.472,4.065,4.065,0,0,1-1.471-1.1,1.49,1.49,0,0,1-.384-.875.78.78,0,0,1,.384-.665l.6-.42h.21l.455.8a3.26,3.26,0,0,0,1.364,1.331,3.87,3.87,0,0,0,1.75.419,3.337,3.337,0,0,0,2.415-.875,3.012,3.012,0,0,0,.911-2.275,2.817,2.817,0,0,0-.683-2,8.78,8.78,0,0,0-2.012-1.5,9.279,9.279,0,0,1-2.432-1.96,3.668,3.668,0,0,1-.718-2.345,3.616,3.616,0,0,1,.735-2.117,6.009,6.009,0,0,1,1.907-1.716,4.841,4.841,0,0,1,2.468-.681,5.284,5.284,0,0,1,2.153.384,4.139,4.139,0,0,1,1.417,1.015,1.486,1.486,0,0,1,.315.806.878.878,0,0,1-.088.367.892.892,0,0,1-.263.332l-.524.386h-.21l-.63-.841a3.911,3.911,0,0,0-1.138-1.1,2.849,2.849,0,0,0-1.487-.367,2.7,2.7,0,0,0-2.065.822,2.626,2.626,0,0,0-.77,1.838,2.925,2.925,0,0,0,.612,1.908,6.467,6.467,0,0,0,1.733,1.418,12.162,12.162,0,0,1,2.625,1.924,3.7,3.7,0,0,1,.875,2.661,4.361,4.361,0,0,1-.7,2.344,5.5,5.5,0,0,1-1.925,1.838A5.44,5.44,0,0,1,170.205,312.032Z"/>
          <path class="cls-1" d="M181.614,312.032a1.505,1.505,0,0,1-1.452-.857,4.458,4.458,0,0,1-.088-2.712L182,297.508l-2.59-.7v-.28l4.726-.944h.279l-2.135,11.934a5.789,5.789,0,0,0-.122,1.943.613.613,0,0,0,.648.543q1.4,0,2.66-2.766l.455.176a10.663,10.663,0,0,1-2.066,3.534A3.178,3.178,0,0,1,181.614,312.032Zm2.625-21.524a1.479,1.479,0,0,1-1.085-.456,1.52,1.52,0,0,1-.455-1.12,1.554,1.554,0,0,1,1.54-1.54,1.526,1.526,0,0,1,1.12.455,1.484,1.484,0,0,1,.455,1.085,1.556,1.556,0,0,1-1.575,1.576Z"/>
          <path class="cls-1" d="M190.609,312.032a1.47,1.47,0,0,1-1.435-.857,4.716,4.716,0,0,1-.105-2.712l3.744-21.106-2.589-.7v-.279l4.69-.946h.315l-3.956,22.085a5.789,5.789,0,0,0-.122,1.943.613.613,0,0,0,.648.543,1.993,1.993,0,0,0,1.365-.7,6.692,6.692,0,0,0,1.3-2.065l.49.176a10.439,10.439,0,0,1-2.083,3.534A3.234,3.234,0,0,1,190.609,312.032Z"/>
          <path class="cls-1" d="M200.829,312.032a6.1,6.1,0,0,1-2.625-.472,4.065,4.065,0,0,1-1.471-1.1,1.49,1.49,0,0,1-.384-.875.78.78,0,0,1,.384-.665l.6-.42h.21l.455.8a3.26,3.26,0,0,0,1.364,1.331,3.87,3.87,0,0,0,1.75.419,3.337,3.337,0,0,0,2.415-.875,3.012,3.012,0,0,0,.911-2.275,2.817,2.817,0,0,0-.683-2,8.78,8.78,0,0,0-2.012-1.5,9.279,9.279,0,0,1-2.432-1.96,3.668,3.668,0,0,1-.718-2.345,3.616,3.616,0,0,1,.735-2.117,6.009,6.009,0,0,1,1.907-1.716,4.841,4.841,0,0,1,2.468-.681,5.284,5.284,0,0,1,2.153.384,4.13,4.13,0,0,1,1.417,1.015,1.478,1.478,0,0,1,.315.806.929.929,0,0,1-.351.7l-.524.386h-.21l-.63-.841a3.911,3.911,0,0,0-1.138-1.1,2.849,2.849,0,0,0-1.487-.367,2.7,2.7,0,0,0-2.065.822,2.626,2.626,0,0,0-.77,1.838,2.925,2.925,0,0,0,.612,1.908,6.467,6.467,0,0,0,1.733,1.418,12.162,12.162,0,0,1,2.625,1.924,3.7,3.7,0,0,1,.875,2.661,4.353,4.353,0,0,1-.7,2.344,5.5,5.5,0,0,1-1.925,1.838A5.44,5.44,0,0,1,200.829,312.032Z"/>
          <path class="cls-1" d="M208.354,318.157v-.56a8.109,8.109,0,0,0,2.589-1.977,3.412,3.412,0,0,0,.771-2.117,2.729,2.729,0,0,0-.28-1.295,2.4,2.4,0,0,0-.805-.875l-.91-.6v-.279l.594-.841q.455-.7.911-.7a1.526,1.526,0,0,1,.734.279,3.611,3.611,0,0,1,1.61,3.08,4.749,4.749,0,0,1-1.277,3.133A11.82,11.82,0,0,1,208.354,318.157Z"/>
          <path class="cls-1" d="M232.679,312.032a4.908,4.908,0,0,1-4.131-1.8,7.339,7.339,0,0,1-1.4-4.638,11.057,11.057,0,0,1,.63-3.709,11.283,11.283,0,0,1,1.733-3.2,8.568,8.568,0,0,1,2.607-2.256,6.49,6.49,0,0,1,3.22-.84,4.91,4.91,0,0,1,4.13,1.8,7.406,7.406,0,0,1,1.4,4.673,11.167,11.167,0,0,1-.577,3.483,11.347,11.347,0,0,1-1.663,3.237,8.729,8.729,0,0,1-2.59,2.362A6.451,6.451,0,0,1,232.679,312.032Zm.454-1.05a3.92,3.92,0,0,0,2.835-1.207,8.241,8.241,0,0,0,1.926-3.237,13.72,13.72,0,0,0,.7-4.481,7.905,7.905,0,0,0-.858-3.99,3.006,3.006,0,0,0-2.817-1.47,4.068,4.068,0,0,0-2.853,1.156,7.67,7.67,0,0,0-1.942,3.149,13.58,13.58,0,0,0-.7,4.516,8.066,8.066,0,0,0,.875,4.059A3.027,3.027,0,0,0,233.133,310.982Z"/>
          <path class="cls-1" d="M244.019,311.682l2.484-14.139-2.415-.736v-.28l4.2-.944h.175l-.244,3.779h.1a29.2,29.2,0,0,1,2.2-2.187,7.212,7.212,0,0,1,1.838-1.208,4.862,4.862,0,0,1,1.943-.384,2.85,2.85,0,0,1,2.572,1.346,5.319,5.319,0,0,1,.4,3.833l-1.224,6.755a5.77,5.77,0,0,0-.123,1.943.613.613,0,0,0,.647.543q1.4,0,2.66-2.766l.455.176a10.07,10.07,0,0,1-2.048,3.534,3.233,3.233,0,0,1-2.256,1.085,1.472,1.472,0,0,1-1.436-.857,4.727,4.727,0,0,1-.1-2.712l1.365-7.84a4.04,4.04,0,0,0-.21-2.4,1.894,1.894,0,0,0-1.926-1,3.466,3.466,0,0,0-1.75.508,10,10,0,0,0-1.715,1.277q-.839.771-1.609,1.576l-1.926,11.094Z"/>
          <path class="cls-1" d="M44.135,352.032a1.977,1.977,0,0,1-1.628-.665,2.911,2.911,0,0,1-.542-1.89,3.435,3.435,0,0,1,.052-.559q.052-.315.087-.665l1.925-11.061h-2.66v-.245l3.08-1.085,2.311-3.779h.245l-.665,3.849h4.234v1.26H46.1l-1.681,9.695c-.047.328-.087.63-.122.911a6,6,0,0,0-.053.734,2.037,2.037,0,0,0,.263,1.19.919.919,0,0,0,.787.35,2.647,2.647,0,0,0,1.785-.944,8.662,8.662,0,0,0,1.715-2.766l.49.21a11.384,11.384,0,0,1-2.432,4.218A3.946,3.946,0,0,1,44.135,352.032Z"/>
          <path class="cls-1" d="M54.215,351.682H52.149l4.271-24.29-2.45-.735v-.279l4.655-.946h.21l-2.45,13.93h.069a29.387,29.387,0,0,1,2.2-2.187,7.23,7.23,0,0,1,1.838-1.208,4.86,4.86,0,0,1,1.942-.384,2.849,2.849,0,0,1,2.573,1.346,5.314,5.314,0,0,1,.4,3.833l-1.226,6.755a5.789,5.789,0,0,0-.122,1.943.613.613,0,0,0,.648.543q1.4,0,2.66-2.766l.454.176a10.664,10.664,0,0,1-2.064,3.534,3.181,3.181,0,0,1-2.241,1.085,1.469,1.469,0,0,1-1.434-.857,4.714,4.714,0,0,1-.106-2.712l1.366-7.84a4.04,4.04,0,0,0-.21-2.4,1.894,1.894,0,0,0-1.925-1,4.184,4.184,0,0,0-2.608,1.05,21.421,21.421,0,0,0-2.432,2.275Z"/>
          <path class="cls-1" d="M75.179,352.032a4.576,4.576,0,0,1-3.867-1.609,6.622,6.622,0,0,1-1.243-4.165,11.413,11.413,0,0,1,.7-3.973,11.738,11.738,0,0,1,1.924-3.412,10.094,10.094,0,0,1,2.765-2.4,6.331,6.331,0,0,1,3.22-.892,3.762,3.762,0,0,1,2.695.84,2.562,2.562,0,0,1,.875,1.889,2.911,2.911,0,0,1-.962,2.083,8.3,8.3,0,0,1-3.168,1.715,33.394,33.394,0,0,1-5.915,1.277,15.005,15.005,0,0,0-.14,2.065,5.7,5.7,0,0,0,1.05,3.676,3.652,3.652,0,0,0,3.01,1.3q2.8,0,4.9-3.255h.07l.28.21a9.591,9.591,0,0,1-2.537,3.29A5.551,5.551,0,0,1,75.179,352.032Zm2.765-15.47a4.634,4.634,0,0,0-3.5,1.628,9.124,9.124,0,0,0-2.1,4.358,22.518,22.518,0,0,0,6.02-1.558,2.769,2.769,0,0,0,1.785-2.538,1.829,1.829,0,0,0-.543-1.347A2.262,2.262,0,0,0,77.944,336.562Z"/>
          <path class="cls-1" d="M89.284,360.083a1.717,1.717,0,0,1-1.12-.3.827.827,0,0,1-.351-.612,1.368,1.368,0,0,1,.176-.491l.454-1.049h.141l.56.314a2.708,2.708,0,0,0,.752.245,4.761,4.761,0,0,0,.823.07,2.773,2.773,0,0,0,2.415-1.75,16.072,16.072,0,0,0,1.434-5.179L96.7,337.192H93.869v-1.26h3.01l.21-1.4a9.539,9.539,0,0,1,.928-2.73,14.908,14.908,0,0,1,1.96-2.992,11.045,11.045,0,0,1,2.8-2.415,6.617,6.617,0,0,1,3.483-.963,7.2,7.2,0,0,1,1.575.158,9.452,9.452,0,0,1,1.33.4l1.54-.56h.315l-3.956,22.085a5.789,5.789,0,0,0-.122,1.943.613.613,0,0,0,.648.543,2,2,0,0,0,1.365-.7,6.711,6.711,0,0,0,1.3-2.065l.49.176a10.439,10.439,0,0,1-2.083,3.534,3.236,3.236,0,0,1-2.258,1.085,1.47,1.47,0,0,1-1.434-.857,4.714,4.714,0,0,1-.106-2.712l3.676-20.651a8.228,8.228,0,0,0-1.488-.542,7.039,7.039,0,0,0-1.733-.193,5.117,5.117,0,0,0-4.077,1.628,8.519,8.519,0,0,0-1.838,4.428l-.419,2.8h3.885v1.26H98.769l-2.03,13.545a12.362,12.362,0,0,1-.823,2.783,16.935,16.935,0,0,1-1.662,3.1,10.688,10.688,0,0,1-2.275,2.485A4.308,4.308,0,0,1,89.284,360.083Z"/>
          <path class="cls-1" d="M118.859,352.032a4.907,4.907,0,0,1-4.13-1.8,7.339,7.339,0,0,1-1.4-4.638,11.057,11.057,0,0,1,.63-3.709,11.306,11.306,0,0,1,1.732-3.2,8.583,8.583,0,0,1,2.608-2.256,6.49,6.49,0,0,1,3.22-.84,4.906,4.906,0,0,1,4.129,1.8,7.4,7.4,0,0,1,1.4,4.673,11.2,11.2,0,0,1-.577,3.483,11.372,11.372,0,0,1-1.663,3.237,8.729,8.729,0,0,1-2.59,2.362A6.452,6.452,0,0,1,118.859,352.032Zm.454-1.05a3.916,3.916,0,0,0,2.835-1.207,8.229,8.229,0,0,0,1.926-3.237,13.693,13.693,0,0,0,.7-4.481,7.916,7.916,0,0,0-.857-3.99,3.007,3.007,0,0,0-2.817-1.47,4.065,4.065,0,0,0-2.853,1.156A7.67,7.67,0,0,0,116.3,340.9a13.58,13.58,0,0,0-.7,4.516,8.066,8.066,0,0,0,.875,4.059A3.026,3.026,0,0,0,119.313,350.982Z"/>
          <path class="cls-1" d="M135.765,352.032a4.908,4.908,0,0,1-4.131-1.8,7.339,7.339,0,0,1-1.4-4.638,11.057,11.057,0,0,1,.63-3.709,11.283,11.283,0,0,1,1.733-3.2,8.568,8.568,0,0,1,2.607-2.256,6.49,6.49,0,0,1,3.22-.84,4.91,4.91,0,0,1,4.13,1.8,7.406,7.406,0,0,1,1.4,4.673,11.167,11.167,0,0,1-.577,3.483,11.347,11.347,0,0,1-1.663,3.237,8.729,8.729,0,0,1-2.59,2.362A6.451,6.451,0,0,1,135.765,352.032Zm.454-1.05a3.92,3.92,0,0,0,2.835-1.207,8.228,8.228,0,0,0,1.925-3.237,13.693,13.693,0,0,0,.7-4.481,7.905,7.905,0,0,0-.858-3.99A3.006,3.006,0,0,0,138,336.6a4.067,4.067,0,0,0-2.853,1.156,7.67,7.67,0,0,0-1.942,3.149,13.58,13.58,0,0,0-.7,4.516,8.066,8.066,0,0,0,.875,4.059A3.027,3.027,0,0,0,136.219,350.982Z"/>
          <path class="cls-1" d="M147.6,351.682l2.519-14.139-2.485-.736v-.28l4.306-.944h.139l-.28,4.059h.141a16.87,16.87,0,0,1,2-2.677,4.883,4.883,0,0,1,1.469-1.121,3.045,3.045,0,0,1,1.156-.261,1.859,1.859,0,0,1,1.085.314.9.9,0,0,1,.455.736.917.917,0,0,1-.106.419l-.665,1.26h-.139l-.456-.28a1.857,1.857,0,0,0-1.084-.315,2.9,2.9,0,0,0-1.891.77,13.721,13.721,0,0,0-2.275,2.9l-1.82,10.29Z"/>
          <path class="cls-1" d="M156,358.157v-.56a8.114,8.114,0,0,0,2.59-1.977,3.41,3.41,0,0,0,.77-2.117,2.717,2.717,0,0,0-.28-1.295,2.4,2.4,0,0,0-.8-.875l-.911-.6v-.279l.595-.841q.454-.7.91-.7a1.525,1.525,0,0,1,.735.279,3.611,3.611,0,0,1,1.61,3.08,4.754,4.754,0,0,1-1.277,3.133A11.815,11.815,0,0,1,156,358.157Z"/>
          <path class="cls-1" d="M180.32,352.032a4.911,4.911,0,0,1-4.131-1.8,7.344,7.344,0,0,1-1.4-4.638,11.057,11.057,0,0,1,.63-3.709,11.306,11.306,0,0,1,1.732-3.2,8.583,8.583,0,0,1,2.608-2.256,6.489,6.489,0,0,1,3.219-.84,4.907,4.907,0,0,1,4.13,1.8,7.4,7.4,0,0,1,1.4,4.673,11.2,11.2,0,0,1-.577,3.483,11.372,11.372,0,0,1-1.663,3.237,8.729,8.729,0,0,1-2.59,2.362A6.452,6.452,0,0,1,180.32,352.032Zm.454-1.05a3.916,3.916,0,0,0,2.835-1.207,8.229,8.229,0,0,0,1.926-3.237,13.693,13.693,0,0,0,.7-4.481,7.916,7.916,0,0,0-.857-3.99,3.007,3.007,0,0,0-2.817-1.47,4.065,4.065,0,0,0-2.853,1.156,7.659,7.659,0,0,0-1.942,3.149,13.579,13.579,0,0,0-.7,4.516,8.066,8.066,0,0,0,.875,4.059A3.028,3.028,0,0,0,180.774,350.982Z"/>
          <path class="cls-1" d="M191.66,351.682l2.485-14.139-2.416-.736v-.28l4.2-.944h.174l-.244,3.779h.1a29.2,29.2,0,0,1,2.2-2.187,7.2,7.2,0,0,1,1.838-1.208,4.86,4.86,0,0,1,1.942-.384,2.849,2.849,0,0,1,2.572,1.346,5.314,5.314,0,0,1,.4,3.833l-1.225,6.755a5.77,5.77,0,0,0-.123,1.943.614.614,0,0,0,.648.543q1.4,0,2.66-2.766l.455.176a10.086,10.086,0,0,1-2.048,3.534,3.234,3.234,0,0,1-2.257,1.085,1.47,1.47,0,0,1-1.435-.857,4.716,4.716,0,0,1-.1-2.712l1.365-7.84a4.04,4.04,0,0,0-.21-2.4,1.892,1.892,0,0,0-1.925-1,3.466,3.466,0,0,0-1.75.508,9.961,9.961,0,0,0-1.715,1.277q-.84.771-1.61,1.576l-1.925,11.094Z"/>
          <path class="cls-1" d="M221.2,352.032a1.98,1.98,0,0,1-1.628-.665,2.911,2.911,0,0,1-.542-1.89,3.551,3.551,0,0,1,.052-.559q.053-.315.088-.665l1.925-11.061h-2.66v-.245l3.08-1.085,2.31-3.779h.245l-.665,3.849h4.235v1.26h-4.48l-1.681,9.695c-.046.328-.086.63-.122.911a5.983,5.983,0,0,0-.052.734,2.046,2.046,0,0,0,.262,1.19.92.92,0,0,0,.787.35,2.649,2.649,0,0,0,1.786-.944,8.644,8.644,0,0,0,1.714-2.766l.491.21a11.384,11.384,0,0,1-2.433,4.218A3.944,3.944,0,0,1,221.2,352.032Z"/>
          <path class="cls-1" d="M231.28,351.682h-2.065l4.27-24.29-2.45-.735v-.279l4.655-.946h.21l-2.45,13.93h.07a29.2,29.2,0,0,1,2.2-2.187,7.226,7.226,0,0,1,1.837-1.208,4.865,4.865,0,0,1,1.943-.384,2.848,2.848,0,0,1,2.572,1.346,5.314,5.314,0,0,1,.4,3.833l-1.225,6.755a5.789,5.789,0,0,0-.122,1.943.612.612,0,0,0,.647.543q1.4,0,2.66-2.766l.455.176a10.664,10.664,0,0,1-2.065,3.534,3.181,3.181,0,0,1-2.24,1.085,1.47,1.47,0,0,1-1.435-.857,4.716,4.716,0,0,1-.1-2.712l1.365-7.84a4.032,4.032,0,0,0-.21-2.4,1.893,1.893,0,0,0-1.925-1,4.182,4.182,0,0,0-2.607,1.05,21.43,21.43,0,0,0-2.433,2.275Z"/>
          <path class="cls-1" d="M252.245,352.032a4.576,4.576,0,0,1-3.867-1.609,6.628,6.628,0,0,1-1.242-4.165,11.412,11.412,0,0,1,.7-3.973,11.741,11.741,0,0,1,1.925-3.412,10.076,10.076,0,0,1,2.764-2.4,6.334,6.334,0,0,1,3.22-.892,3.762,3.762,0,0,1,2.695.84,2.562,2.562,0,0,1,.875,1.889,2.913,2.913,0,0,1-.961,2.083,8.32,8.32,0,0,1-3.168,1.715,33.415,33.415,0,0,1-5.915,1.277,15.005,15.005,0,0,0-.14,2.065,5.694,5.694,0,0,0,1.05,3.676,3.651,3.651,0,0,0,3.009,1.3q2.8,0,4.9-3.255h.069l.28.21a9.591,9.591,0,0,1-2.537,3.29A5.549,5.549,0,0,1,252.245,352.032Zm2.766-15.47a4.634,4.634,0,0,0-3.5,1.628,9.134,9.134,0,0,0-2.1,4.358,22.538,22.538,0,0,0,6.021-1.558,2.771,2.771,0,0,0,1.785-2.538,1.833,1.833,0,0,0-.543-1.347A2.262,2.262,0,0,0,255.011,336.562Z"/>
          <path class="cls-1" d="M4.48,392.032a6.106,6.106,0,0,1-2.625-.472,4.051,4.051,0,0,1-1.47-1.1A1.486,1.486,0,0,1,0,389.583a.856.856,0,0,1,.07-.316.859.859,0,0,1,.315-.349l.6-.42h.21l.456.8a3.249,3.249,0,0,0,1.364,1.331,3.864,3.864,0,0,0,1.75.419,3.339,3.339,0,0,0,2.415-.875,3.015,3.015,0,0,0,.91-2.275,2.817,2.817,0,0,0-.683-2,8.794,8.794,0,0,0-2.011-1.5,9.287,9.287,0,0,1-2.433-1.96A3.668,3.668,0,0,1,2.24,380.1a3.611,3.611,0,0,1,.736-2.117,6.009,6.009,0,0,1,1.907-1.716,4.836,4.836,0,0,1,2.468-.681,5.279,5.279,0,0,1,2.152.384,4.13,4.13,0,0,1,1.417,1.015,1.478,1.478,0,0,1,.315.806.878.878,0,0,1-.088.367.889.889,0,0,1-.262.332l-.525.386h-.21l-.629-.841a3.935,3.935,0,0,0-1.138-1.1,2.849,2.849,0,0,0-1.487-.367,2.7,2.7,0,0,0-2.066.822,2.625,2.625,0,0,0-.769,1.838,2.925,2.925,0,0,0,.612,1.908,6.445,6.445,0,0,0,1.732,1.418,12.162,12.162,0,0,1,2.625,1.924,3.7,3.7,0,0,1,.875,2.661,4.353,4.353,0,0,1-.7,2.344,5.486,5.486,0,0,1-4.725,2.555Z"/>
          <path class="cls-1" d="M18.725,392.032a4.58,4.58,0,0,1-3.868-1.609,6.628,6.628,0,0,1-1.242-4.165,11.435,11.435,0,0,1,.7-3.973,11.764,11.764,0,0,1,1.925-3.412,10.094,10.094,0,0,1,2.765-2.4,6.329,6.329,0,0,1,3.22-.892,3.764,3.764,0,0,1,2.7.84,2.562,2.562,0,0,1,.875,1.889,2.911,2.911,0,0,1-.962,2.083,8.312,8.312,0,0,1-3.168,1.715,33.394,33.394,0,0,1-5.915,1.277,15.005,15.005,0,0,0-.14,2.065,5.7,5.7,0,0,0,1.05,3.676,3.652,3.652,0,0,0,3.01,1.3q2.8,0,4.9-3.255h.07l.28.21a9.6,9.6,0,0,1-2.537,3.29A5.551,5.551,0,0,1,18.725,392.032Zm2.765-15.47a4.634,4.634,0,0,0-3.5,1.628,9.124,9.124,0,0,0-2.1,4.358,22.518,22.518,0,0,0,6.02-1.558,2.769,2.769,0,0,0,1.785-2.538,1.829,1.829,0,0,0-.543-1.347A2.262,2.262,0,0,0,21.49,376.562Z"/>
          <path class="cls-1" d="M31.6,392.032a2.851,2.851,0,0,1-2.327-1.172,5.536,5.536,0,0,1-.927-3.482,12.4,12.4,0,0,1,.735-4.148,15.152,15.152,0,0,1,1.977-3.815,10.625,10.625,0,0,1,2.871-2.782,6.187,6.187,0,0,1,3.412-1.05,5.467,5.467,0,0,1,1.662.261,5.823,5.823,0,0,1,1.453.683l.944-.769h.526l-2.066,11.759a5.789,5.789,0,0,0-.122,1.943.594.594,0,0,0,.612.543q1.437,0,2.7-2.766l.455.176a10.439,10.439,0,0,1-2.083,3.534,3.206,3.206,0,0,1-2.222,1.085,1.506,1.506,0,0,1-1.453-.857,4.452,4.452,0,0,1-.087-2.712l.14-.736h-.106a18.062,18.062,0,0,1-3.08,3.2A4.866,4.866,0,0,1,31.6,392.032Zm-1.154-5.425q0,3.675,2.275,3.675a3.6,3.6,0,0,0,1.889-.577,9.048,9.048,0,0,0,1.8-1.47,21.728,21.728,0,0,0,1.628-1.908l1.4-8.19a5.032,5.032,0,0,0-1.277-1.049,3.411,3.411,0,0,0-1.7-.386,3.968,3.968,0,0,0-2.468.841,7.279,7.279,0,0,0-1.907,2.274A12.336,12.336,0,0,0,30.87,383,15.391,15.391,0,0,0,30.45,386.607Z"/>
          <path class="cls-1" d="M48.825,392.032a1.98,1.98,0,0,1-1.628-.665,2.911,2.911,0,0,1-.542-1.89,3.551,3.551,0,0,1,.052-.559q.052-.315.088-.665l1.925-11.061H46.06v-.245l3.08-1.085,2.31-3.779H51.7l-.665,3.849h4.235v1.26h-4.48L49.1,386.887c-.046.328-.086.63-.122.911a5.983,5.983,0,0,0-.052.734,2.046,2.046,0,0,0,.262,1.19.92.92,0,0,0,.787.35,2.649,2.649,0,0,0,1.786-.944,8.644,8.644,0,0,0,1.714-2.766l.491.21a11.384,11.384,0,0,1-2.433,4.218A3.944,3.944,0,0,1,48.825,392.032Z"/>
          <path class="cls-1" d="M59.99,392.032a6.106,6.106,0,0,1-2.625-.472,4.051,4.051,0,0,1-1.47-1.1,1.486,1.486,0,0,1-.385-.875.778.778,0,0,1,.385-.665l.595-.42h.21l.455.8a3.257,3.257,0,0,0,1.365,1.331,3.864,3.864,0,0,0,1.75.419,3.34,3.34,0,0,0,2.415-.875,3.015,3.015,0,0,0,.91-2.275,2.817,2.817,0,0,0-.683-2,8.78,8.78,0,0,0-2.012-1.5,9.279,9.279,0,0,1-2.432-1.96,3.668,3.668,0,0,1-.718-2.345,3.616,3.616,0,0,1,.735-2.117,6.013,6.013,0,0,1,1.908-1.716,4.835,4.835,0,0,1,2.467-.681,5.284,5.284,0,0,1,2.153.384,4.13,4.13,0,0,1,1.417,1.015,1.478,1.478,0,0,1,.315.806.878.878,0,0,1-.088.367.889.889,0,0,1-.262.332l-.525.386h-.21l-.63-.841a3.92,3.92,0,0,0-1.137-1.1,2.855,2.855,0,0,0-1.488-.367,2.7,2.7,0,0,0-2.065.822,2.626,2.626,0,0,0-.77,1.838,2.92,2.92,0,0,0,.613,1.908,6.445,6.445,0,0,0,1.732,1.418,12.162,12.162,0,0,1,2.625,1.924,3.7,3.7,0,0,1,.875,2.661,4.353,4.353,0,0,1-.7,2.344,5.5,5.5,0,0,1-1.925,1.838A5.44,5.44,0,0,1,59.99,392.032Z"/>
          <path class="cls-1" d="M81.06,392.032a2.852,2.852,0,0,1-2.328-1.172,5.536,5.536,0,0,1-.927-3.482,12.4,12.4,0,0,1,.735-4.148,15.123,15.123,0,0,1,1.978-3.815,10.607,10.607,0,0,1,2.87-2.782,6.187,6.187,0,0,1,3.412-1.05,5.467,5.467,0,0,1,1.662.261,5.823,5.823,0,0,1,1.453.683l.944-.769h.526l-2.066,11.759a5.789,5.789,0,0,0-.122,1.943.6.6,0,0,0,.613.543q1.435,0,2.695-2.766l.455.176a10.439,10.439,0,0,1-2.083,3.534,3.206,3.206,0,0,1-2.222,1.085,1.507,1.507,0,0,1-1.453-.857,4.452,4.452,0,0,1-.087-2.712l.14-.736h-.106a18.062,18.062,0,0,1-3.08,3.2A4.866,4.866,0,0,1,81.06,392.032Zm-1.155-5.425q0,3.675,2.275,3.675a3.6,3.6,0,0,0,1.889-.577,9.048,9.048,0,0,0,1.8-1.47,21.728,21.728,0,0,0,1.628-1.908l1.4-8.19a5.032,5.032,0,0,0-1.277-1.049,3.408,3.408,0,0,0-1.7-.386,3.968,3.968,0,0,0-2.468.841,7.279,7.279,0,0,0-1.907,2.274A12.336,12.336,0,0,0,80.325,383,15.391,15.391,0,0,0,79.905,386.607Z"/>
          <path class="cls-1" d="M95.41,391.682,97.9,377.543l-2.416-.736v-.28l4.2-.944h.174l-.244,3.779h.105a29.2,29.2,0,0,1,2.2-2.187,7.2,7.2,0,0,1,1.838-1.208,4.86,4.86,0,0,1,1.942-.384,2.849,2.849,0,0,1,2.572,1.346,5.314,5.314,0,0,1,.4,3.833l-1.225,6.755a5.77,5.77,0,0,0-.123,1.943.614.614,0,0,0,.648.543q1.4,0,2.66-2.766l.455.176a10.086,10.086,0,0,1-2.048,3.534,3.234,3.234,0,0,1-2.257,1.085,1.47,1.47,0,0,1-1.435-.857,4.716,4.716,0,0,1-.1-2.712l1.365-7.84a4.04,4.04,0,0,0-.21-2.4,1.892,1.892,0,0,0-1.925-1,3.466,3.466,0,0,0-1.75.508,9.961,9.961,0,0,0-1.715,1.277q-.84.771-1.61,1.576l-1.925,11.094Z"/>
          <path class="cls-1" d="M116.551,392.032a2.8,2.8,0,0,1-2.31-1.172,5.61,5.61,0,0,1-.91-3.482,12.65,12.65,0,0,1,.718-4.148,14.435,14.435,0,0,1,1.976-3.815,10.964,10.964,0,0,1,2.871-2.782,6.107,6.107,0,0,1,3.395-1.05,5.331,5.331,0,0,1,1.277.157,5.668,5.668,0,0,1,1.207.437l1.54-8.82-2.8-.7v-.279l5-.946h.175l-3.885,22.085a5.77,5.77,0,0,0-.123,1.943.614.614,0,0,0,.648.543q1.4,0,2.66-2.766l.455.176a10.07,10.07,0,0,1-2.048,3.534,3.235,3.235,0,0,1-2.257,1.085,1.47,1.47,0,0,1-1.435-.857,4.723,4.723,0,0,1-.106-2.712l.141-.736h-.1a16.94,16.94,0,0,1-3.15,3.255A4.932,4.932,0,0,1,116.551,392.032Zm-1.155-5.425a5.092,5.092,0,0,0,.595,2.8,1.946,1.946,0,0,0,1.715.875,4.237,4.237,0,0,0,2.625-1.1,15.469,15.469,0,0,0,2.625-2.782l1.435-8.26a5.654,5.654,0,0,0-1.33-1.067,3.368,3.368,0,0,0-1.645-.368,3.981,3.981,0,0,0-2.433.823,7.125,7.125,0,0,0-1.907,2.239,12.522,12.522,0,0,0-1.243,3.186A15.149,15.149,0,0,0,115.4,386.607Z"/>
          <path class="cls-1" d="M142.486,392.032a1.98,1.98,0,0,1-1.628-.665,2.911,2.911,0,0,1-.542-1.89,3.551,3.551,0,0,1,.052-.559c.035-.21.065-.432.088-.665l1.925-11.061h-2.66v-.245l3.08-1.085,2.31-3.779h.245l-.665,3.849h4.235v1.26h-4.48l-1.68,9.695c-.047.328-.087.63-.122.911a5.81,5.81,0,0,0-.053.734,2.037,2.037,0,0,0,.263,1.19.918.918,0,0,0,.787.35,2.649,2.649,0,0,0,1.785-.944,8.662,8.662,0,0,0,1.715-2.766l.49.21a11.384,11.384,0,0,1-2.433,4.218A3.944,3.944,0,0,1,142.486,392.032Z"/>
          <path class="cls-1" d="M153.546,392.032a2.849,2.849,0,0,1-2.327-1.172,5.536,5.536,0,0,1-.928-3.482,12.4,12.4,0,0,1,.735-4.148A15.188,15.188,0,0,1,153,379.415a10.607,10.607,0,0,1,2.87-2.782,6.19,6.19,0,0,1,3.412-1.05,5.462,5.462,0,0,1,1.662.261,5.823,5.823,0,0,1,1.453.683l.945-.769h.525l-2.065,11.759a5.789,5.789,0,0,0-.122,1.943.594.594,0,0,0,.612.543q1.435,0,2.7-2.766l.455.176a10.423,10.423,0,0,1-2.083,3.534,3.2,3.2,0,0,1-2.221,1.085,1.507,1.507,0,0,1-1.454-.857,4.446,4.446,0,0,1-.086-2.712l.139-.736h-.105a18.1,18.1,0,0,1-3.08,3.2A4.866,4.866,0,0,1,153.546,392.032Zm-1.154-5.425q0,3.675,2.274,3.675a3.6,3.6,0,0,0,1.89-.577,9.043,9.043,0,0,0,1.8-1.47,21.391,21.391,0,0,0,1.628-1.908l1.4-8.19a5.053,5.053,0,0,0-1.278-1.049,3.408,3.408,0,0,0-1.7-.386,3.97,3.97,0,0,0-2.468.841,7.279,7.279,0,0,0-1.907,2.274A12.335,12.335,0,0,0,152.812,383,15.338,15.338,0,0,0,152.392,386.607Z"/>
          <path class="cls-1" d="M173.076,392.032a5.859,5.859,0,0,1-1.819-.3,6.057,6.057,0,0,1-1.611-.788l-1.33.91h-.245l4.306-24.5-2.415-.7v-.279l4.619-.946h.21l-2.52,14.385h.14a21.292,21.292,0,0,1,2.905-3.062,4.732,4.732,0,0,1,3.116-1.172,2.734,2.734,0,0,1,2.327,1.259,6.405,6.405,0,0,1,.892,3.71,12.937,12.937,0,0,1-.7,4.218,13.7,13.7,0,0,1-1.907,3.693,10.012,10.012,0,0,1-2.747,2.607A5.987,5.987,0,0,1,173.076,392.032Zm4.2-14.7a4.239,4.239,0,0,0-2.589,1.085,15.889,15.889,0,0,0-2.661,2.764l-1.4,8.12a4.647,4.647,0,0,0,1.662,1.278,4.416,4.416,0,0,0,1.662.333,4.073,4.073,0,0,0,2.8-1.191,8.183,8.183,0,0,0,2.064-3.36,15.289,15.289,0,0,0,.771-5.109,6.05,6.05,0,0,0-.561-2.976A1.888,1.888,0,0,0,177.276,377.333Z"/>
          <path class="cls-1" d="M186.832,392.032a1.472,1.472,0,0,1-1.436-.857,4.718,4.718,0,0,1-.1-2.712l3.744-21.106-2.59-.7v-.279l4.691-.946h.314L187.5,387.517a5.789,5.789,0,0,0-.122,1.943.613.613,0,0,0,.647.543,1.993,1.993,0,0,0,1.366-.7,6.711,6.711,0,0,0,1.295-2.065l.49.176a10.456,10.456,0,0,1-2.083,3.534A3.235,3.235,0,0,1,186.832,392.032Z"/>
          <path class="cls-1" d="M198.871,392.032A4.576,4.576,0,0,1,195,390.423a6.628,6.628,0,0,1-1.242-4.165,11.412,11.412,0,0,1,.7-3.973,11.741,11.741,0,0,1,1.925-3.412,10.076,10.076,0,0,1,2.764-2.4,6.334,6.334,0,0,1,3.22-.892,3.762,3.762,0,0,1,2.695.84,2.562,2.562,0,0,1,.875,1.889,2.911,2.911,0,0,1-.962,2.083,8.307,8.307,0,0,1-3.167,1.715,33.408,33.408,0,0,1-5.916,1.277,15.164,15.164,0,0,0-.139,2.065,5.694,5.694,0,0,0,1.05,3.676,3.651,3.651,0,0,0,3.009,1.3q2.8,0,4.9-3.255h.069l.28.21a9.591,9.591,0,0,1-2.537,3.29A5.549,5.549,0,0,1,198.871,392.032Zm2.766-15.47a4.634,4.634,0,0,0-3.5,1.628,9.134,9.134,0,0,0-2.1,4.358,22.538,22.538,0,0,0,6.021-1.558,2.771,2.771,0,0,0,1.785-2.538,1.833,1.833,0,0,0-.543-1.347A2.262,2.262,0,0,0,201.637,376.562Z"/>
          <path class="cls-1" d="M211.856,392.032a6.106,6.106,0,0,1-2.625-.472,4.051,4.051,0,0,1-1.47-1.1,1.486,1.486,0,0,1-.385-.875.778.778,0,0,1,.385-.665l.595-.42h.21l.455.8a3.257,3.257,0,0,0,1.365,1.331,3.864,3.864,0,0,0,1.75.419,3.339,3.339,0,0,0,2.415-.875,3.015,3.015,0,0,0,.91-2.275,2.817,2.817,0,0,0-.683-2,8.794,8.794,0,0,0-2.011-1.5,9.287,9.287,0,0,1-2.433-1.96,3.668,3.668,0,0,1-.718-2.345,3.611,3.611,0,0,1,.736-2.117,6.009,6.009,0,0,1,1.907-1.716,4.836,4.836,0,0,1,2.468-.681,5.279,5.279,0,0,1,2.152.384,4.13,4.13,0,0,1,1.417,1.015,1.478,1.478,0,0,1,.315.806.878.878,0,0,1-.088.367.889.889,0,0,1-.262.332l-.525.386h-.21l-.63-.841a3.92,3.92,0,0,0-1.137-1.1,2.852,2.852,0,0,0-1.488-.367,2.7,2.7,0,0,0-2.065.822,2.625,2.625,0,0,0-.769,1.838,2.925,2.925,0,0,0,.612,1.908,6.445,6.445,0,0,0,1.732,1.418,12.162,12.162,0,0,1,2.625,1.924,3.7,3.7,0,0,1,.875,2.661,4.353,4.353,0,0,1-.7,2.344,5.486,5.486,0,0,1-4.725,2.555Z"/>
          <path class="cls-1" d="M230.9,391.857a1.4,1.4,0,0,1-1.137-.437,1.707,1.707,0,0,1-.368-1.138,2.13,2.13,0,0,1,.525-1.4,1.729,1.729,0,0,1,1.4-.63,1.372,1.372,0,0,1,1.137.455,1.721,1.721,0,0,1,.368,1.119,2.113,2.113,0,0,1-.525,1.418A1.752,1.752,0,0,1,230.9,391.857Zm7,0a1.4,1.4,0,0,1-1.137-.437,1.707,1.707,0,0,1-.368-1.138,2.13,2.13,0,0,1,.525-1.4,1.729,1.729,0,0,1,1.4-.63,1.372,1.372,0,0,1,1.137.455,1.721,1.721,0,0,1,.368,1.119,2.113,2.113,0,0,1-.525,1.418A1.752,1.752,0,0,1,237.9,391.857Zm7,0a1.4,1.4,0,0,1-1.137-.437,1.707,1.707,0,0,1-.368-1.138,2.13,2.13,0,0,1,.525-1.4,1.729,1.729,0,0,1,1.4-.63,1.372,1.372,0,0,1,1.137.455,1.721,1.721,0,0,1,.368,1.119,2.113,2.113,0,0,1-.525,1.418A1.752,1.752,0,0,1,244.9,391.857Z"/>
          <path class="cls-1" d="M249.376,373.937v-.63a5.746,5.746,0,0,0,2.66-1.4,3.02,3.02,0,0,0,.945-2.2,2.041,2.041,0,0,0-.245-.98,2.4,2.4,0,0,0-.84-.839l-.945-.63V366.9l.42-.769a1.489,1.489,0,0,1,.49-.561.984.984,0,0,1,.491-.14,1.8,1.8,0,0,1,.349.035,1.532,1.532,0,0,1,.42.175,3.974,3.974,0,0,1,1.191,1.225,3.494,3.494,0,0,1,.384,1.75,4.253,4.253,0,0,1-.594,2.03,6.462,6.462,0,0,1-1.786,2A7.368,7.368,0,0,1,249.376,373.937Zm6.125,0v-.63a5.746,5.746,0,0,0,2.66-1.4,3.02,3.02,0,0,0,.945-2.2,2.041,2.041,0,0,0-.245-.98,2.4,2.4,0,0,0-.84-.839l-.945-.63V366.9l.42-.769a1.489,1.489,0,0,1,.49-.561.981.981,0,0,1,.491-.14,1.8,1.8,0,0,1,.349.035,1.532,1.532,0,0,1,.42.175,3.974,3.974,0,0,1,1.191,1.225,3.494,3.494,0,0,1,.384,1.75,4.253,4.253,0,0,1-.594,2.03,6.462,6.462,0,0,1-1.786,2A7.368,7.368,0,0,1,255.5,373.937Z"/>
        </g>
        <g class="cls-2">
          <path class="cls-3" d="M206.95,25.78v1.75h11.877V52.021H194.336V27.714Q194.336,0,218.827,0V10.312q-6.261,1.014-9.069,4.741T206.95,25.78Zm41.709,0v1.75h11.878V52.021h-24.4V27.714Q236.137,0,260.537,0V10.312Q248.659,11.878,248.659,25.78Z"/>
        </g>
      </g>
    </g>
  </g>
</svg>
