<?xml version="1.0" encoding="utf-8"?>
<!-- Generator: Adobe Illustrator 25.2.1, SVG Export Plug-In . SVG Version: 6.00 Build 0)  -->
<svg version="1.1" id="Layer_1" xmlns="http://www.w3.org/2000/svg" xmlns:xlink="http://www.w3.org/1999/xlink" x="0px" y="0px"
	 width="275.6px" height="360.1px" viewBox="0 0 275.6 360.1" style="enable-background:new 0 0 275.6 360.1;" xml:space="preserve"
	>
<style type="text/css">
	.st0{fill:#629EA5;}
	.st1{opacity:0.4;}
</style>
<g id="Layer_2_1_">
	<g id="Layer_8">
		<g>
			<g>
				<path class="st0" d="M75.6,111.7l0.1-0.5l2.6-1l3.6-20.1l-2.4-0.9l0.1-0.5H87l-0.1,0.5l-2.7,0.9l-3.6,20.1l2.5,1l-0.1,0.5H75.6z
					"/>
				<path class="st0" d="M100.8,112c-0.9,0-1.8-0.1-2.6-0.5c-0.6-0.2-1.1-0.6-1.5-1.1c-0.2-0.2-0.4-0.5-0.4-0.9
					c0-0.3,0.1-0.5,0.4-0.7l0.6-0.4h0.2l0.5,0.8c0.3,0.6,0.8,1,1.4,1.3c0.5,0.3,1.1,0.4,1.8,0.4c0.9,0,1.8-0.3,2.4-0.9
					s0.9-1.4,0.9-2.3c0-0.7-0.2-1.4-0.7-2c-0.6-0.6-1.3-1.1-2-1.5c-0.9-0.5-1.7-1.2-2.4-2c-0.5-0.7-0.8-1.5-0.7-2.3
					c0-0.8,0.3-1.5,0.7-2.1c0.5-0.7,1.2-1.3,1.9-1.7c0.7-0.4,1.6-0.7,2.5-0.7c0.7,0,1.5,0.1,2.2,0.4c0.5,0.2,1,0.6,1.4,1
					c0.2,0.2,0.3,0.5,0.3,0.8c0,0.1,0,0.3-0.1,0.4s-0.1,0.2-0.3,0.3l-0.5,0.4h-0.2l-0.6-0.8c-0.3-0.4-0.7-0.8-1.1-1.1
					c-0.5-0.3-1-0.4-1.5-0.4c-0.8,0-1.5,0.3-2.1,0.8c-0.5,0.5-0.8,1.1-0.8,1.8c0,0.7,0.2,1.4,0.6,1.9c0.5,0.6,1.1,1,1.7,1.4
					c1,0.5,1.8,1.2,2.6,1.9c0.6,0.7,0.9,1.7,0.9,2.7c0,0.8-0.2,1.6-0.7,2.3c-0.5,0.8-1.1,1.4-1.9,1.8
					C102.8,111.8,101.8,112.1,100.8,112z"/>
				<path class="st0" d="M113.2,112c-0.9,0-1.8-0.4-2.3-1.2c-0.7-1-1-2.3-0.9-3.5c0-1.4,0.3-2.8,0.7-4.1c0.5-1.4,1.1-2.6,2-3.8
					c0.8-1.1,1.7-2,2.9-2.8c1-0.7,2.2-1,3.4-1c0.6,0,1.1,0.1,1.7,0.3c0.5,0.2,1,0.4,1.5,0.7l0.9-0.8h0.5l-2.1,11.8
					c-0.2,0.6-0.2,1.3-0.1,1.9c0,0.3,0.3,0.6,0.6,0.5c1,0,1.9-0.9,2.7-2.8l0.5,0.2c-0.5,1.3-1.2,2.5-2.1,3.5c-0.6,0.6-1.4,1-2.2,1.1
					c-0.6,0-1.2-0.3-1.5-0.9c-0.3-0.9-0.3-1.8-0.1-2.7l0.1-0.7h-0.1c-0.9,1.2-1.9,2.3-3.1,3.2C115.3,111.6,114.3,112,113.2,112z
					 M112,106.6c0,2.5,0.8,3.7,2.3,3.7c0.7,0,1.3-0.2,1.9-0.6c0.7-0.4,1.3-0.9,1.8-1.5c0.6-0.6,1.1-1.2,1.6-1.9l1.4-8.2
					c-0.4-0.4-0.8-0.8-1.3-1c-0.5-0.3-1.1-0.4-1.7-0.4c-0.9,0-1.8,0.3-2.5,0.8c-0.8,0.6-1.4,1.4-1.9,2.3c-0.6,1-1,2.1-1.2,3.2
					C112.1,104.2,112,105.4,112,106.6z"/>
				<path class="st0" d="M131.4,111.8l-2.8-14.3l-2.6-0.7v-0.3l4.2-0.9h0.1l2.2,12.7h0.1l5.6-12.4h0.4l2.6,12.7h0.1l2.4-4.6
					c0.7-1.2,1.1-2.3,1.5-3c0.3-0.6,0.5-1.3,0.5-2c0-0.3-0.1-0.7-0.2-0.9c-0.2-0.2-0.4-0.4-0.6-0.6l-0.5-0.3V97l0.6-0.9
					c0.1-0.2,0.2-0.3,0.4-0.5c0.1-0.1,0.3-0.1,0.4-0.1c0.5,0,1,0.3,1.2,0.8c0.3,0.5,0.5,1.1,0.5,1.7c0,0.7-0.2,1.3-0.5,1.9
					c-0.5,1.1-1,2.2-1.7,3.2l-4.9,8.5h-0.5l-2.5-11.6l-5.7,11.6L131.4,111.8z"/>
				<path class="st0" d="M160.8,112c-0.6,0-1.2-0.2-1.6-0.7c-0.4-0.5-0.6-1.2-0.5-1.9c0-0.2,0-0.4,0.1-0.6c0-0.2,0.1-0.4,0.1-0.7
					l1.9-11.1h-2.7v-0.2l3.1-1.1l2.3-3.8h0.2l-0.7,3.8h4.2V97h-4.5l-1.7,9.7c0,0.3-0.1,0.6-0.1,0.9c0,0.2,0,0.5-0.1,0.7
					c0,0.4,0.1,0.8,0.3,1.2c0.2,0.2,0.5,0.4,0.8,0.3c0.7-0.1,1.3-0.4,1.8-0.9c0.7-0.8,1.3-1.7,1.7-2.8l0.5,0.2
					c-0.5,1.6-1.3,3-2.4,4.2C162.8,111.5,161.9,112,160.8,112z"/>
				<path class="st0" d="M170.9,111.7h-2.1l4.3-24.3l-2.4-0.7v-0.3l4.7-0.9h0.2l-2.4,13.9h0.1c0.7-0.8,1.4-1.5,2.2-2.2
					c0.5-0.5,1.2-0.9,1.8-1.2c0.6-0.3,1.3-0.4,1.9-0.4c1-0.1,2,0.5,2.6,1.3c0.6,1.2,0.8,2.6,0.4,3.8l-1.2,6.8
					c-0.2,0.6-0.2,1.3-0.1,1.9c0,0.3,0.3,0.6,0.6,0.5c0.9,0,1.8-0.9,2.7-2.8l0.5,0.2c-0.5,1.3-1.2,2.5-2.1,3.5
					c-0.6,0.7-1.4,1-2.2,1.1c-0.6,0-1.2-0.3-1.4-0.9c-0.3-0.9-0.3-1.8-0.1-2.7l1.4-7.8c0.2-0.8,0.1-1.6-0.2-2.4
					c-0.4-0.7-1.1-1.1-1.9-1c-1,0-1.9,0.4-2.6,1.1c-0.9,0.7-1.7,1.5-2.4,2.3L170.9,111.7z"/>
				<path class="st0" d="M191.9,112c-1.5,0.1-2.9-0.5-3.9-1.6c-0.9-1.2-1.3-2.7-1.2-4.2c0-1.4,0.2-2.7,0.7-4
					c0.4-1.2,1.1-2.4,1.9-3.4c0.8-1,1.7-1.8,2.8-2.4c1-0.6,2.1-0.9,3.2-0.9c1-0.1,1.9,0.2,2.7,0.8c0.5,0.5,0.9,1.2,0.9,1.9
					c0,0.8-0.4,1.5-1,2.1c-0.9,0.8-2,1.4-3.2,1.7c-1.9,0.6-3.9,1-5.9,1.3c-0.1,0.7-0.1,1.4-0.1,2.1c-0.1,1.3,0.3,2.6,1.1,3.7
					c0.7,0.9,1.9,1.4,3,1.3c1.9,0,3.5-1.1,4.9-3.3h0.1l0.3,0.2c-0.6,1.3-1.5,2.4-2.5,3.3C194.5,111.6,193.2,112,191.9,112z
					 M194.6,96.6c-1.3,0-2.6,0.6-3.5,1.6c-1.1,1.2-1.8,2.7-2.1,4.4c2.1-0.2,4.1-0.8,6-1.6c1.1-0.4,1.8-1.4,1.8-2.5
					c0-0.5-0.2-1-0.5-1.3C195.8,96.7,195.2,96.5,194.6,96.6z"/>
				<path class="st0" d="M210.3,111.7l2.5-14.1l-2.4-0.7v-0.3l4.2-0.9h0.2l-0.2,3.8h0.1c0.7-0.8,1.4-1.5,2.1-2.2
					c0.5-0.5,1.1-0.9,1.8-1.2c0.6-0.3,1.2-0.4,1.9-0.4c0.9,0,1.7,0.3,2.2,1c0.6,0.8,0.8,1.8,0.7,2.8h0.1c0.8-0.9,1.5-1.6,2.1-2.2
					c0.5-0.5,1.1-0.9,1.8-1.2c0.6-0.3,1.2-0.4,1.9-0.4c1-0.1,2,0.5,2.5,1.3c0.6,1.2,0.7,2.6,0.3,3.8l-1.2,6.8
					c-0.2,0.6-0.2,1.3-0.1,1.9c0,0.3,0.3,0.6,0.6,0.5c0.9,0,1.8-0.9,2.7-2.8l0.5,0.2c-0.5,1.3-1.2,2.5-2.1,3.5
					c-0.6,0.7-1.4,1-2.2,1.1c-0.6,0-1.2-0.3-1.4-0.9c-0.3-0.9-0.3-1.8-0.1-2.7l1.4-7.8c0.2-0.8,0.1-1.6-0.1-2.4
					c-0.3-0.7-1.1-1.1-1.8-1c-0.9,0-1.8,0.4-2.5,1.1c-0.8,0.7-1.6,1.5-2.3,2.3v0.2l-2,10.9h-2l1.9-11.1c0.2-0.8,0.1-1.6-0.1-2.4
					c-0.3-0.7-1-1.1-1.8-1c-0.9,0-1.8,0.4-2.5,1.1c-0.8,0.7-1.6,1.5-2.3,2.3l-1.9,11.1L210.3,111.7z"/>
				<path class="st0" d="M242.2,112c-1.6,0.1-3.1-0.6-4.1-1.8c-1-1.3-1.5-3-1.4-4.6c0-1.3,0.2-2.5,0.6-3.7c0.4-1.2,1-2.2,1.7-3.2
					c0.7-0.9,1.6-1.7,2.6-2.3c1-0.6,2.1-0.8,3.2-0.8c1.6-0.1,3.1,0.6,4.1,1.8c1,1.4,1.5,3,1.4,4.7c0,1.2-0.2,2.4-0.6,3.5
					c-0.4,1.2-0.9,2.3-1.7,3.2c-0.7,1-1.6,1.8-2.6,2.4C244.6,111.7,243.4,112,242.2,112z M242.7,111c1.1,0,2.1-0.4,2.8-1.2
					c0.9-0.9,1.5-2,1.9-3.2c0.5-1.4,0.7-3,0.7-4.5c0.1-1.4-0.2-2.8-0.9-4c-0.6-1-1.7-1.6-2.8-1.5c-1.1,0-2.1,0.4-2.9,1.2
					c-0.9,0.9-1.6,2-1.9,3.1c-0.5,1.5-0.7,3-0.7,4.5c-0.1,1.4,0.2,2.8,0.9,4.1C240.4,110.5,241.5,111.1,242.7,111z"/>
				<path class="st0" d="M256.9,112c-0.9,0-1.8-0.1-2.6-0.5c-0.6-0.2-1.1-0.6-1.5-1.1c-0.2-0.2-0.4-0.5-0.4-0.9
					c0-0.3,0.1-0.5,0.4-0.7l0.6-0.4h0.2l0.5,0.8c0.3,0.6,0.8,1,1.4,1.3c0.5,0.3,1.1,0.4,1.7,0.4c0.9,0,1.8-0.3,2.4-0.9
					s0.9-1.4,0.9-2.3c0-0.7-0.2-1.4-0.7-2c-0.6-0.6-1.3-1.1-2-1.5c-0.9-0.5-1.7-1.2-2.4-2c-0.5-0.7-0.8-1.5-0.7-2.3
					c0-0.8,0.3-1.5,0.7-2.1c0.5-0.7,1.2-1.3,1.9-1.7c0.7-0.4,1.6-0.7,2.5-0.7c0.7,0,1.5,0.1,2.2,0.4c0.5,0.2,1,0.6,1.4,1
					c0.2,0.2,0.3,0.5,0.3,0.8c0,0.1,0,0.3-0.1,0.4s-0.1,0.2-0.3,0.3l-0.5,0.4h-0.2l-0.6-0.8c-0.3-0.4-0.7-0.8-1.1-1.1
					c-0.5-0.3-1-0.4-1.5-0.4c-0.8,0-1.5,0.3-2.1,0.8c-0.5,0.5-0.8,1.1-0.8,1.8c0,0.7,0.2,1.4,0.6,1.9c0.5,0.6,1.1,1,1.7,1.4
					c1,0.5,1.8,1.2,2.6,1.9c0.6,0.7,0.9,1.7,0.9,2.7c0,0.8-0.2,1.6-0.7,2.3C260.6,111.1,258.8,112.1,256.9,112L256.9,112z"/>
				<path class="st0" d="M269,112c-0.6,0-1.2-0.2-1.6-0.7s-0.6-1.2-0.5-1.9c0-0.2,0-0.4,0.1-0.6c0-0.2,0.1-0.4,0.1-0.7L269,97h-2.7
					v-0.2l3.1-1.1l2.3-3.8h0.2l-0.7,3.8h4.2V97H271l-1.7,9.7c0,0.3-0.1,0.6-0.1,0.9c0,0.2,0,0.5-0.1,0.7c0,0.4,0.1,0.8,0.3,1.2
					c0.2,0.2,0.5,0.4,0.8,0.3c0.7-0.1,1.3-0.4,1.8-0.9c0.7-0.8,1.3-1.7,1.7-2.8l0.5,0.2c-0.5,1.6-1.3,3-2.4,4.2
					C271,111.5,270.1,112,269,112z"/>
				<path class="st0" d="M62.8,152c-0.6,0-1.2-0.1-1.8-0.3s-1.1-0.4-1.6-0.8l-1.3,0.9h-0.2l4.3-24.5l-2.4-0.7v-0.3l4.6-0.9h0.2
					L62,139.8h0.1c0.9-1.1,1.8-2.1,2.9-3.1c0.9-0.8,2-1.2,3.1-1.2c0.9,0,1.8,0.5,2.3,1.3c0.7,1.1,1,2.4,0.9,3.7
					c0,1.4-0.2,2.9-0.7,4.2c-0.4,1.3-1.1,2.6-1.9,3.7c-0.7,1-1.7,1.9-2.7,2.6C65.1,151.7,64,152,62.8,152z M67,137.3
					c-1,0.1-1.9,0.4-2.6,1.1c-1,0.8-1.9,1.7-2.7,2.8l-1.4,8.1c0.4,0.5,1,1,1.7,1.3c0.5,0.2,1.1,0.3,1.7,0.3c1.1,0,2.1-0.4,2.8-1.2
					c1-0.9,1.7-2.1,2.1-3.4c0.5-1.6,0.8-3.4,0.8-5.1c0.1-1-0.1-2-0.6-3C68.4,137.7,67.7,137.3,67,137.3L67,137.3z"/>
				<path class="st0" d="M79.7,152c-1.5,0.1-2.9-0.5-3.9-1.6c-0.9-1.2-1.3-2.7-1.2-4.2c0-1.4,0.2-2.7,0.7-4c0.4-1.2,1.1-2.4,1.9-3.4
					s1.7-1.8,2.8-2.4c1-0.6,2.1-0.9,3.2-0.9c1-0.1,1.9,0.2,2.7,0.8c0.5,0.5,0.9,1.2,0.9,1.9c0,0.8-0.4,1.6-1,2.1
					c-0.9,0.8-2,1.4-3.2,1.7c-1.9,0.6-3.9,1-5.9,1.3c-0.1,0.7-0.1,1.4-0.1,2.1c-0.1,1.3,0.3,2.6,1.1,3.7c0.7,0.9,1.9,1.4,3,1.3
					c1.9,0,3.5-1.1,4.9-3.3h0.1l0.3,0.2c-0.6,1.3-1.5,2.4-2.5,3.3C82.3,151.6,81,152,79.7,152z M82.5,136.6c-1.3,0-2.6,0.6-3.5,1.6
					c-1.1,1.2-1.8,2.7-2.1,4.4c2.1-0.2,4.1-0.8,6-1.6c1.1-0.4,1.8-1.4,1.8-2.5c0-0.5-0.2-1-0.5-1.3
					C83.7,136.7,83.1,136.5,82.5,136.6z"/>
				<path class="st0" d="M92.6,152c-0.9,0-1.8-0.4-2.3-1.2c-0.7-1-1-2.3-0.9-3.5c0-1.4,0.3-2.8,0.7-4.1c0.5-1.4,1.1-2.6,2-3.8
					c0.8-1.1,1.7-2,2.9-2.8c1-0.7,2.2-1,3.4-1c0.6,0,1.1,0.1,1.7,0.3c0.5,0.2,1,0.4,1.5,0.7l0.9-0.8h0.5l-2.1,11.8
					c-0.2,0.6-0.2,1.3-0.1,1.9c0,0.3,0.3,0.6,0.6,0.5c1,0,1.9-0.9,2.7-2.8l0.5,0.2c-0.5,1.3-1.2,2.5-2.1,3.5c-0.6,0.6-1.4,1-2.2,1.1
					c-0.6,0-1.2-0.3-1.5-0.9c-0.3-0.9-0.3-1.8-0.1-2.7l0.1-0.7h-0.1c-0.9,1.2-1.9,2.3-3.1,3.2C94.7,151.6,93.7,152,92.6,152z
					 M91.4,146.6c0,2.4,0.8,3.7,2.3,3.7c0.7,0,1.3-0.2,1.9-0.6c0.7-0.4,1.3-0.9,1.8-1.5c0.6-0.6,1.1-1.2,1.6-1.9l1.4-8.2
					c-0.4-0.4-0.8-0.8-1.3-1c-0.5-0.3-1.1-0.4-1.7-0.4c-0.9,0-1.8,0.3-2.5,0.8c-0.8,0.6-1.4,1.4-1.9,2.3c-0.6,1-1,2.1-1.2,3.2
					C91.6,144.2,91.4,145.4,91.4,146.6z"/>
				<path class="st0" d="M110.4,152c-0.8,0-1.6-0.3-2.1-0.9c-0.6-0.8-0.8-1.7-0.8-2.6c0-0.3,0-0.5,0.1-0.8c0-0.3,0.1-0.6,0.1-0.9
					l1.7-9.3l-2.4-0.7v-0.3l4.6-0.9h0.2l-1.9,11.2l-0.1,0.7c0,0.2-0.1,0.4-0.1,0.6c0,0.6,0.1,1.2,0.5,1.6c0.4,0.5,1,0.7,1.6,0.6
					c0.9,0,1.8-0.4,2.5-1.1c0.8-0.7,1.6-1.5,2.3-2.3l1.7-9.5l-2.4-0.7v-0.3l4.6-0.9h0.2l-2.1,11.9c-0.2,0.6-0.2,1.3-0.1,1.9
					c0,0.3,0.3,0.6,0.6,0.6c0.5,0,1-0.3,1.4-0.7c0.6-0.6,1-1.3,1.3-2.1l0.5,0.2c-0.5,1.3-1.2,2.5-2.1,3.5c-0.6,0.6-1.4,1-2.2,1.1
					c-0.6,0-1.2-0.3-1.5-0.9c-0.3-0.9-0.4-1.8-0.1-2.7v-0.2h-0.1c-0.9,1.1-1.9,2-3,2.9C112.3,151.7,111.4,152,110.4,152z"/>
				<path class="st0" d="M127.2,152c-0.6,0-1.2-0.2-1.6-0.7s-0.6-1.2-0.5-1.9c0-0.2,0-0.4,0.1-0.6c0-0.2,0.1-0.4,0.1-0.7l1.9-11.1
					h-2.7v-0.2l3.1-1.1l2.3-3.8h0.2l-0.7,3.8h4.2v1.3h-4.5l-1.7,9.7c0,0.3-0.1,0.6-0.1,0.9c0,0.2-0.1,0.5-0.1,0.7
					c0,0.4,0.1,0.8,0.3,1.2c0.2,0.2,0.5,0.4,0.8,0.4c0.7-0.1,1.3-0.4,1.8-0.9c0.7-0.8,1.3-1.7,1.7-2.8l0.5,0.2
					c-0.5,1.6-1.3,3-2.4,4.2C129.2,151.5,128.2,152,127.2,152z"/>
				<path class="st0" d="M137.7,152c-0.6,0-1.2-0.3-1.5-0.9c-0.3-0.9-0.3-1.8-0.1-2.7l1.9-11l-2.6-0.7v-0.3l4.7-0.9h0.3l-2.1,11.9
					c-0.2,0.6-0.2,1.3-0.1,1.9c0,0.3,0.3,0.6,0.6,0.5c0.9,0,1.8-0.9,2.7-2.8l0.5,0.2c-0.5,1.3-1.2,2.5-2.1,3.5
					C139.4,151.6,138.6,152,137.7,152z M140.3,130.5c-0.4,0-0.8-0.2-1.1-0.5s-0.5-0.7-0.5-1.1c0-0.8,0.7-1.5,1.5-1.5
					c0.4,0,0.8,0.2,1.1,0.5s0.5,0.7,0.5,1.1C141.9,129.8,141.2,130.5,140.3,130.5L140.3,130.5z"/>
				<path class="st0" d="M140.3,160.1c-0.4,0-0.8-0.1-1.1-0.3c-0.2-0.1-0.3-0.4-0.4-0.6c0-0.3,0.1-0.5,0.2-0.7l0.4-0.8h0.1l0.6,0.3
					c0.2,0.1,0.5,0.2,0.8,0.2s0.5,0.1,0.8,0.1c1.1-0.1,2-0.7,2.4-1.8c0.8-1.6,1.3-3.4,1.4-5.2l2.1-14.1h-2.8v-1.3h3l0.2-1.4
					c0.2-0.9,0.5-1.8,0.9-2.7c0.5-1.1,1.2-2.1,1.9-3c0.8-1,1.7-1.8,2.7-2.4s2.1-1,3.2-1c0.3,0,0.7,0.1,0.9,0.2
					c0.4,0.2,0.6,0.4,0.6,0.7c0,0.2-0.1,0.4-0.2,0.6l-0.6,1h-0.1l-0.7-0.3c-0.6-0.3-1.3-0.4-2-0.4c-1.1,0-2.2,0.6-2.8,1.5
					c-0.9,1.3-1.4,2.8-1.6,4.4l-0.4,2.8h3.9v1.3h-4.1l-2,13.5c-0.2,1-0.4,1.9-0.8,2.8c-0.4,1.1-1,2.1-1.7,3.1
					c-0.6,0.9-1.4,1.8-2.3,2.5C142.2,159.7,141.3,160.1,140.3,160.1z"/>
				<path class="st0" d="M159.1,152c-0.8,0-1.6-0.3-2.1-0.9c-0.6-0.8-0.8-1.7-0.8-2.6c0-0.3,0-0.5,0.1-0.8c0-0.3,0.1-0.6,0.1-0.9
					l1.7-9.3l-2.4-0.7v-0.3l4.6-0.9h0.2l-1.9,11.2l-0.1,0.7c0,0.2,0,0.4-0.1,0.6c0,0.6,0.1,1.2,0.5,1.6c0.4,0.5,1,0.7,1.6,0.6
					c0.9,0,1.8-0.4,2.5-1.1c0.8-0.7,1.6-1.5,2.3-2.3l1.7-9.5l-2.4-0.7v-0.3l4.6-0.9h0.2l-2.1,11.9c-0.2,0.6-0.2,1.3-0.1,1.9
					c0,0.3,0.3,0.6,0.6,0.6c0.5,0,1-0.3,1.4-0.7c0.6-0.6,1-1.3,1.3-2.1l0.5,0.2c-0.5,1.3-1.2,2.5-2.1,3.5c-0.6,0.6-1.4,1-2.2,1.1
					c-0.6,0-1.2-0.3-1.5-0.9c-0.3-0.9-0.4-1.8-0.1-2.7v-0.2H165c-0.9,1.1-1.9,2-3,2.9C161,151.7,160,152,159.1,152z"/>
				<path class="st0" d="M175,152c-0.6,0-1.2-0.3-1.4-0.9c-0.3-0.9-0.3-1.8-0.1-2.7l3.7-21.1l-2.6-0.7v-0.3l4.7-0.9h0.3l-4,22.1
					c-0.2,0.6-0.2,1.3-0.1,1.9c0,0.3,0.3,0.6,0.6,0.5c0.5,0,1-0.3,1.4-0.7c0.6-0.6,1-1.3,1.3-2.1l0.5,0.2c-0.5,1.3-1.2,2.5-2.1,3.5
					C176.7,151.6,175.9,152,175,152z"/>
				<path class="st0" d="M193.8,152c-0.9,0-1.8-0.1-2.6-0.5c-0.6-0.2-1.1-0.6-1.5-1.1c-0.2-0.2-0.4-0.5-0.4-0.9
					c0-0.3,0.1-0.5,0.4-0.7l0.6-0.4h0.2l0.5,0.8c0.3,0.6,0.8,1,1.4,1.3c0.5,0.3,1.1,0.4,1.8,0.4c0.9,0,1.8-0.3,2.4-0.9
					c0.6-0.6,0.9-1.4,0.9-2.3c0-0.7-0.2-1.4-0.7-2c-0.6-0.6-1.3-1.1-2-1.5c-0.9-0.5-1.7-1.2-2.4-2c-0.5-0.7-0.8-1.5-0.7-2.3
					c0-0.8,0.3-1.5,0.7-2.1c0.5-0.7,1.2-1.3,1.9-1.7s1.6-0.7,2.5-0.7c0.7,0,1.5,0.1,2.2,0.4c0.5,0.2,1,0.6,1.4,1
					c0.2,0.2,0.3,0.5,0.3,0.8c0,0.1,0,0.3-0.1,0.4c-0.1,0.1-0.2,0.2-0.3,0.3l-0.5,0.4h-0.2l-0.6-0.8c-0.3-0.4-0.7-0.8-1.1-1.1
					c-0.5-0.3-1-0.4-1.5-0.4c-0.8,0-1.5,0.3-2.1,0.8c-0.5,0.5-0.8,1.1-0.8,1.8s0.2,1.4,0.6,1.9c0.5,0.6,1.1,1,1.7,1.4
					c1,0.5,1.8,1.2,2.6,1.9c0.6,0.7,0.9,1.7,0.9,2.7c0,0.8-0.2,1.6-0.7,2.3c-0.5,0.8-1.1,1.4-1.9,1.8
					C195.7,151.8,194.8,152.1,193.8,152z"/>
				<path class="st0" d="M206.8,152c-0.8,0-1.6-0.3-2.1-0.9c-0.6-0.8-0.8-1.7-0.8-2.6c0-0.3,0-0.5,0.1-0.8c0-0.3,0.1-0.6,0.1-0.9
					l1.7-9.3l-2.5-0.7v-0.3l4.6-0.9h0.2l-1.9,11.2l-0.1,0.7c0,0.2,0,0.4-0.1,0.6c0,0.6,0.1,1.2,0.5,1.6c0.4,0.5,1,0.7,1.6,0.6
					c0.9,0,1.8-0.4,2.5-1.1c0.8-0.7,1.6-1.5,2.3-2.3l1.7-9.5l-2.5-0.7v-0.3l4.6-0.9h0.2l-2.1,11.9c-0.2,0.6-0.2,1.3-0.1,1.9
					c0,0.3,0.3,0.6,0.6,0.6c0.5,0,1-0.3,1.4-0.7c0.6-0.6,1-1.3,1.3-2.1l0.5,0.2c-0.5,1.3-1.2,2.5-2.1,3.5c-0.6,0.6-1.4,1-2.2,1.1
					c-0.6,0-1.2-0.3-1.5-0.9c-0.3-0.9-0.4-1.8-0.1-2.7v-0.2h-0.1c-0.9,1.1-1.9,2-3,2.9C208.7,151.7,207.7,152,206.8,152z"/>
				<path class="st0" d="M220.7,151.7l2.5-14.1l-2.4-0.7v-0.3l4.2-0.9h0.2l-0.2,3.8h0.1c0.7-0.8,1.4-1.5,2.2-2.2
					c0.5-0.5,1.2-0.9,1.8-1.2s1.3-0.4,1.9-0.4c1-0.1,2,0.5,2.6,1.3c0.6,1.2,0.7,2.6,0.4,3.8l-1.2,6.8c-0.2,0.6-0.2,1.3-0.1,1.9
					c0,0.3,0.3,0.6,0.6,0.5c0.9,0,1.8-0.9,2.7-2.8l0.5,0.2c-0.4,1.3-1.1,2.5-2,3.5c-0.6,0.6-1.4,1-2.3,1.1c-0.6,0-1.2-0.3-1.4-0.9
					c-0.3-0.9-0.3-1.8-0.1-2.7l1.4-7.8c0.2-0.8,0.1-1.6-0.2-2.4c-0.4-0.7-1.1-1.1-1.9-1c-0.6,0-1.2,0.2-1.8,0.5
					c-0.6,0.4-1.2,0.8-1.7,1.3c-0.6,0.5-1.1,1-1.6,1.6l-1.9,11.1L220.7,151.7z"/>
				<path class="st0" d="M242.1,152c-0.9,0-1.8-0.1-2.6-0.5c-0.6-0.2-1.1-0.6-1.5-1.1c-0.2-0.2-0.4-0.5-0.4-0.9c0-0.1,0-0.2,0.1-0.3
					s0.2-0.3,0.3-0.3l0.6-0.4h0.2l0.5,0.8c0.3,0.6,0.8,1,1.4,1.3c0.5,0.3,1.1,0.4,1.8,0.4c0.9,0,1.8-0.3,2.4-0.9
					c0.6-0.6,0.9-1.4,0.9-2.3c0-0.7-0.2-1.4-0.7-2c-0.6-0.6-1.3-1.1-2-1.5c-0.9-0.5-1.7-1.2-2.4-2c-0.5-0.7-0.8-1.5-0.7-2.3
					c0-0.8,0.3-1.5,0.7-2.1c0.5-0.7,1.2-1.3,1.9-1.7s1.6-0.7,2.5-0.7c0.7,0,1.5,0.1,2.2,0.4c0.5,0.2,1,0.6,1.4,1
					c0.2,0.2,0.3,0.5,0.3,0.8c0,0.1,0,0.3-0.1,0.4c-0.1,0.1-0.2,0.2-0.3,0.3l-0.5,0.4h-0.2l-0.6-0.8c-0.3-0.4-0.7-0.8-1.1-1.1
					c-0.5-0.3-1-0.4-1.5-0.4c-0.8,0-1.5,0.3-2.1,0.8c-0.5,0.5-0.8,1.1-0.8,1.8s0.2,1.4,0.6,1.9c0.5,0.6,1.1,1,1.7,1.4
					c1,0.5,1.8,1.2,2.6,1.9c0.6,0.7,0.9,1.7,0.9,2.7c0,0.8-0.2,1.6-0.7,2.3C245.8,151.1,244,152.1,242.1,152L242.1,152z"/>
				<path class="st0" d="M256.3,152c-1.5,0.1-2.9-0.5-3.9-1.6c-0.9-1.2-1.3-2.7-1.2-4.2c0-1.4,0.2-2.7,0.7-4
					c0.4-1.2,1.1-2.4,1.9-3.4c0.8-1,1.7-1.8,2.8-2.4c1-0.6,2.1-0.9,3.2-0.9c1-0.1,1.9,0.2,2.7,0.8c0.5,0.5,0.9,1.2,0.9,1.9
					c0,0.8-0.4,1.5-1,2.1c-0.9,0.8-2,1.4-3.2,1.7c-1.9,0.6-3.9,1-5.9,1.3c-0.1,0.7-0.1,1.4-0.1,2.1c-0.1,1.3,0.3,2.6,1.1,3.7
					c0.7,0.9,1.9,1.4,3,1.3c1.9,0,3.5-1.1,4.9-3.3h0.1l0.3,0.2c-0.6,1.3-1.5,2.4-2.5,3.3C258.9,151.6,257.6,152,256.3,152z
					 M259.1,136.6c-1.3,0-2.6,0.6-3.5,1.6c-1.1,1.2-1.8,2.7-2.1,4.4c2.1-0.2,4.1-0.8,6-1.6c1.1-0.4,1.8-1.4,1.8-2.5
					c0-0.5-0.2-1-0.5-1.3C260.3,136.7,259.7,136.5,259.1,136.6L259.1,136.6z"/>
				<path class="st0" d="M269,152c-0.6,0-1.2-0.2-1.6-0.7s-0.6-1.2-0.5-1.9c0-0.2,0-0.4,0.1-0.6c0-0.2,0.1-0.4,0.1-0.7L269,137h-2.7
					v-0.2l3.1-1.1l2.3-3.8h0.2l-0.7,3.8h4.2v1.3H271l-1.7,9.7c0,0.3-0.1,0.6-0.1,0.9c0,0.2-0.1,0.5-0.1,0.7c0,0.4,0.1,0.8,0.3,1.2
					c0.2,0.2,0.5,0.4,0.8,0.4c0.7-0.1,1.3-0.4,1.8-0.9c0.7-0.8,1.3-1.7,1.7-2.8l0.5,0.2c-0.5,1.6-1.3,3-2.4,4.2
					C271,151.5,270.1,152,269,152z"/>
				<path class="st0" d="M21,192c-0.6,0-1.2-0.2-1.6-0.7s-0.6-1.2-0.5-1.9c0-0.2,0-0.4,0.1-0.6c0-0.2,0.1-0.4,0.1-0.7L21,177h-2.7
					v-0.2l3.1-1.1l2.3-3.8h0.2l-0.7,3.8h4.2v1.3H23l-1.7,9.7c0,0.3-0.1,0.6-0.1,0.9c0,0.2,0,0.5-0.1,0.7c0,0.4,0.1,0.8,0.3,1.2
					c0.2,0.2,0.5,0.4,0.8,0.4c0.7-0.1,1.3-0.4,1.8-0.9c0.7-0.8,1.3-1.7,1.7-2.8l0.5,0.2c-0.5,1.6-1.3,3-2.4,4.2
					C23,191.5,22.1,192,21,192z"/>
				<path class="st0" d="M34.4,192c-1.6,0.1-3.1-0.6-4.1-1.8c-1-1.3-1.5-3-1.4-4.6c0-1.3,0.2-2.5,0.6-3.7s1-2.2,1.7-3.2
					c0.7-0.9,1.6-1.7,2.6-2.3s2.1-0.8,3.2-0.8c1.6-0.1,3.1,0.6,4.1,1.8c1,1.4,1.5,3,1.4,4.7c0,1.2-0.2,2.4-0.6,3.5
					c-0.4,1.2-0.9,2.3-1.7,3.2c-0.7,1-1.6,1.8-2.6,2.4C36.8,191.7,35.6,192,34.4,192z M34.9,191c1.1,0,2.1-0.4,2.8-1.2
					c0.9-0.9,1.5-2,1.9-3.2c0.5-1.4,0.7-3,0.7-4.5c0.1-1.4-0.2-2.8-0.9-4c-0.6-1-1.7-1.6-2.8-1.5c-1.1,0-2.1,0.4-2.9,1.2
					c-0.9,0.9-1.6,2-1.9,3.1c-0.5,1.5-0.7,3-0.7,4.5c-0.1,1.4,0.2,2.8,0.9,4.1C32.6,190.5,33.7,191.1,34.9,191z"/>
				<path class="st0" d="M45.8,191.7l2.5-14.1l-2.4-0.7v-0.3l4.2-0.9h0.2l-0.2,3.8h0.1c0.7-0.8,1.4-1.5,2.2-2.2
					c0.5-0.5,1.2-0.9,1.8-1.2s1.3-0.4,1.9-0.4c1-0.1,2,0.5,2.6,1.3c0.6,1.2,0.8,2.6,0.4,3.8l-1.2,6.8c-0.2,0.6-0.2,1.3-0.1,1.9
					c0,0.3,0.3,0.6,0.6,0.5c0.9,0,1.8-0.9,2.7-2.8l0.5,0.2c-0.4,1.3-1.1,2.5-2,3.5c-0.6,0.7-1.4,1-2.3,1.1c-0.6,0-1.2-0.3-1.4-0.9
					c-0.3-0.9-0.3-1.8-0.1-2.7l1.4-7.8c0.2-0.8,0.1-1.6-0.2-2.4c-0.4-0.7-1.1-1.1-1.9-1c-0.6,0-1.2,0.2-1.8,0.5
					c-0.6,0.4-1.2,0.8-1.7,1.3c-0.6,0.5-1.1,1-1.6,1.6l-1.9,11.1L45.8,191.7z"/>
				<path class="st0" d="M66,192c-0.6,0-1.2-0.3-1.5-0.9c-0.3-0.9-0.3-1.8-0.1-2.7l1.9-11l-2.6-0.7v-0.3l4.7-0.9h0.3l-2.1,11.9
					c-0.2,0.6-0.2,1.3-0.1,1.9c0,0.3,0.3,0.6,0.6,0.5c0.9,0,1.8-0.9,2.7-2.8l0.5,0.2c-0.5,1.3-1.2,2.5-2.1,3.5
					C67.6,191.6,66.8,192,66,192z M68.6,170.5c-0.4,0-0.8-0.2-1.1-0.5c-0.3-0.3-0.5-0.7-0.5-1.1c0-0.8,0.7-1.5,1.5-1.5
					c0.4,0,0.8,0.2,1.1,0.5c0.3,0.3,0.5,0.7,0.5,1.1C70.2,169.8,69.5,170.5,68.6,170.5L68.6,170.5L68.6,170.5z"/>
				<path class="st0" d="M78.5,186.3c-0.6,0-1.2-0.1-1.8-0.3c-1.4,0.6-2,1.4-2,2.4c0,0.5,0.2,1,0.7,1.3c0.6,0.3,1.2,0.6,1.8,0.7
					c0.7,0.2,1.5,0.3,2.4,0.5c0.8,0.1,1.6,0.4,2.4,0.6c0.7,0.2,1.3,0.6,1.8,1.1s0.7,1.3,0.7,2c0,1-0.3,1.9-0.9,2.7
					c-0.7,0.9-1.6,1.6-2.6,2c-1.3,0.5-2.7,0.8-4.1,0.7c-1.5,0.1-3-0.2-4.3-0.9c-1-0.5-1.6-1.5-1.6-2.5c0-0.6,0.1-1.2,0.3-1.7
					c0.2-0.5,0.5-1,0.9-1.4l2.5-1.7v-0.1c-0.5-0.2-1-0.5-1.5-1c-0.4-0.5-0.6-1.1-0.6-1.7c0-0.4,0.1-0.8,0.3-1.2
					c0.2-0.4,0.5-0.7,0.7-1l2.2-1.2v-0.1c-0.6-0.4-1.1-0.9-1.4-1.5c-0.3-0.7-0.5-1.4-0.5-2.1c0-1.1,0.3-2.2,0.8-3.1
					c0.5-1,1.3-1.8,2.3-2.4c1-0.6,2.1-0.9,3.2-0.9c0.6,0,1.3,0.1,1.9,0.3h5.1v1.2H84l-0.2,0.1c0.5,0.8,0.8,1.7,0.8,2.7
					s-0.3,2-0.8,2.9c-0.5,1-1.3,1.8-2.2,2.4C80.8,186,79.6,186.3,78.5,186.3z M73,196.1c0,0.9,0.4,1.8,1.2,2.4
					c0.9,0.6,2,0.9,3.1,0.8c1.4,0.1,2.8-0.3,3.9-1.2c0.8-0.6,1.4-1.6,1.4-2.7c0-0.6-0.2-1.2-0.7-1.7c-0.5-0.4-1.1-0.7-1.8-0.9
					c-0.7-0.2-1.5-0.3-2.3-0.5c-0.8-0.1-1.6-0.3-2.3-0.5c-0.8,0.5-1.4,1.1-1.9,1.9C73.2,194.6,73,195.4,73,196.1L73,196.1z
					 M79,185.3c0.7,0,1.4-0.2,1.9-0.7c0.6-0.5,1-1.2,1.3-1.9c0.3-0.8,0.5-1.7,0.5-2.6c0.1-0.9-0.2-1.9-0.7-2.7c-0.5-0.6-1.2-1-2-1
					c-0.7,0-1.4,0.2-2,0.7s-1,1.2-1.3,1.9c-0.3,0.8-0.5,1.7-0.5,2.5c0,0.9,0.2,1.8,0.6,2.6C77.3,185,78.1,185.4,79,185.3L79,185.3z"
					/>
				<path class="st0" d="M90.7,191.7h-2.1l4.3-24.3l-2.4-0.7v-0.3l4.7-0.9h0.2L93,179.4h0.1c0.7-0.8,1.4-1.5,2.2-2.2
					c0.5-0.5,1.2-0.9,1.8-1.2c0.6-0.3,1.3-0.4,1.9-0.4c1-0.1,2,0.5,2.6,1.3c0.6,1.2,0.8,2.6,0.4,3.8l-1.2,6.8
					c-0.2,0.6-0.2,1.3-0.1,1.9c0,0.3,0.3,0.6,0.6,0.5c0.9,0,1.8-0.9,2.7-2.8l0.5,0.2c-0.5,1.3-1.2,2.5-2.1,3.5
					c-0.6,0.7-1.4,1-2.2,1.1c-0.6,0-1.2-0.3-1.4-0.9c-0.3-0.9-0.3-1.8-0.1-2.7l1.4-7.8c0.2-0.8,0.1-1.6-0.2-2.4
					c-0.4-0.7-1.1-1.1-1.9-1c-1,0-1.9,0.4-2.6,1.1c-0.9,0.7-1.7,1.5-2.4,2.3L90.7,191.7z"/>
				<path class="st0" d="M109.6,192c-0.6,0-1.2-0.2-1.6-0.7s-0.6-1.2-0.5-1.9c0-0.2,0-0.4,0.1-0.6c0-0.2,0.1-0.4,0.1-0.7l1.9-11.1
					h-2.7v-0.2l3.1-1.1l2.3-3.8h0.2l-0.7,3.8h4.2v1.3h-4.5l-1.7,9.7c0,0.3-0.1,0.6-0.1,0.9c0,0.2,0,0.5-0.1,0.7
					c0,0.4,0.1,0.8,0.3,1.2c0.2,0.2,0.5,0.4,0.8,0.4c0.7-0.1,1.3-0.4,1.8-0.9c0.7-0.8,1.3-1.7,1.7-2.8l0.5,0.2
					c-0.5,1.6-1.3,3-2.4,4.2C111.6,191.5,110.6,192,109.6,192z"/>
				<path class="st0" d="M128.9,192c-0.6,0-1.2-0.2-1.6-0.7s-0.6-1.2-0.5-1.9c0-0.2,0-0.4,0.1-0.6c0-0.2,0.1-0.4,0.1-0.7l1.9-11.1
					h-2.7v-0.2l3.1-1.1l2.3-3.8h0.2l-0.7,3.8h4.2v1.3h-4.5l-1.7,9.7c0,0.3-0.1,0.6-0.1,0.9c0,0.2-0.1,0.5-0.1,0.7
					c0,0.4,0.1,0.8,0.3,1.2c0.2,0.2,0.5,0.4,0.8,0.4c0.7-0.1,1.3-0.4,1.8-0.9c0.7-0.8,1.3-1.7,1.7-2.8l0.5,0.2
					c-0.5,1.6-1.3,3-2.4,4.2C130.9,191.5,129.9,192,128.9,192z"/>
				<path class="st0" d="M139,191.7h-2.1l4.3-24.3l-2.4-0.7v-0.3l4.7-0.9h0.2l-2.5,13.9h0.1c0.7-0.8,1.4-1.5,2.2-2.2
					c0.5-0.5,1.2-0.9,1.8-1.2s1.3-0.4,1.9-0.4c1-0.1,2,0.5,2.6,1.3c0.6,1.2,0.8,2.6,0.4,3.8l-1.2,6.8c-0.2,0.6-0.2,1.3-0.1,1.9
					c0,0.3,0.3,0.6,0.6,0.5c0.9,0,1.8-0.9,2.7-2.8l0.5,0.2c-0.5,1.3-1.2,2.5-2.1,3.5c-0.6,0.7-1.4,1-2.2,1.1c-0.6,0-1.2-0.3-1.4-0.9
					c-0.3-0.9-0.3-1.8-0.1-2.7l1.4-7.8c0.2-0.8,0.1-1.6-0.2-2.4c-0.4-0.7-1.1-1.1-1.9-1c-1,0-1.9,0.4-2.6,1.1
					c-0.9,0.7-1.7,1.5-2.4,2.3L139,191.7z"/>
				<path class="st0" d="M158,192c-0.9,0-1.8-0.4-2.3-1.2c-0.7-1-1-2.3-0.9-3.5c0-1.4,0.3-2.8,0.7-4.1c0.5-1.4,1.1-2.6,2-3.8
					c0.8-1.1,1.7-2,2.9-2.8c1-0.7,2.2-1,3.4-1c0.6,0,1.1,0.1,1.7,0.3c0.5,0.2,1,0.4,1.5,0.7l0.9-0.8h0.5l-2.1,11.8
					c-0.2,0.6-0.2,1.3-0.1,1.9c0,0.3,0.3,0.6,0.6,0.5c1,0,1.9-0.9,2.7-2.8l0.5,0.2c-0.5,1.3-1.2,2.5-2.1,3.5c-0.6,0.6-1.4,1-2.2,1.1
					c-0.6,0-1.2-0.3-1.5-0.9c-0.3-0.9-0.3-1.8-0.1-2.7l0.1-0.7h-0.1c-0.9,1.2-1.9,2.3-3.1,3.2C160.2,191.6,159.1,192,158,192z
					 M156.9,186.6c0,2.4,0.8,3.7,2.3,3.7c0.7,0,1.3-0.2,1.9-0.6c0.7-0.4,1.3-0.9,1.8-1.5c0.6-0.6,1.1-1.2,1.6-1.9l1.4-8.2
					c-0.4-0.4-0.8-0.8-1.3-1c-0.5-0.3-1.1-0.4-1.7-0.4c-0.9,0-1.8,0.3-2.5,0.8c-0.8,0.6-1.4,1.4-1.9,2.3c-0.6,1-1,2.1-1.2,3.2
					C157,184.2,156.9,185.4,156.9,186.6L156.9,186.6z"/>
				<path class="st0" d="M175.2,192c-0.6,0-1.2-0.2-1.6-0.7c-0.4-0.5-0.6-1.2-0.5-1.9c0-0.2,0-0.4,0.1-0.6c0-0.2,0.1-0.4,0.1-0.7
					l1.9-11.1h-2.7v-0.2l3.1-1.1l2.3-3.8h0.2l-0.7,3.8h4.2v1.3h-4.5l-1.7,9.7c0,0.3-0.1,0.6-0.1,0.9c0,0.2,0,0.5-0.1,0.7
					c0,0.4,0.1,0.8,0.3,1.2c0.2,0.2,0.5,0.4,0.8,0.4c0.7-0.1,1.3-0.4,1.8-0.9c0.7-0.8,1.3-1.7,1.7-2.8l0.5,0.2
					c-0.5,1.6-1.3,3-2.4,4.2C177.2,191.5,176.3,192,175.2,192z"/>
				<path class="st0" d="M190.4,191.7l0.1-0.5l2.6-1l3.6-20.1l-2.4-0.9l0.1-0.5h7.5l-0.1,0.5l-2.7,0.9l-3.6,20.1l2.5,1l-0.1,0.5
					H190.4z"/>
				<path class="st0" d="M214.6,191.7h-2.1l4.3-24.3l-2.4-0.7v-0.3l4.7-0.9h0.2l-2.4,13.9h0.1c0.7-0.8,1.4-1.5,2.2-2.2
					c0.5-0.5,1.2-0.9,1.8-1.2s1.3-0.4,1.9-0.4c1-0.1,2,0.5,2.6,1.3c0.6,1.2,0.8,2.6,0.4,3.8l-1.2,6.8c-0.2,0.6-0.2,1.3-0.1,1.9
					c0,0.3,0.3,0.6,0.6,0.5c0.9,0,1.8-0.9,2.7-2.8l0.5,0.2c-0.5,1.3-1.2,2.5-2.1,3.5c-0.6,0.7-1.4,1-2.2,1.1c-0.6,0-1.2-0.3-1.4-0.9
					c-0.3-0.9-0.3-1.8-0.1-2.7l1.4-7.8c0.2-0.8,0.1-1.6-0.2-2.4c-0.4-0.7-1.1-1.1-1.9-1c-1,0-1.9,0.4-2.6,1.1
					c-0.9,0.7-1.7,1.5-2.4,2.3L214.6,191.7z"/>
				<path class="st0" d="M233.6,192c-0.9,0-1.8-0.4-2.3-1.2c-0.7-1-1-2.3-0.9-3.5c0-1.4,0.3-2.8,0.7-4.1c0.5-1.4,1.1-2.6,2-3.8
					c0.8-1.1,1.7-2,2.9-2.8c1-0.7,2.2-1,3.4-1c0.6,0,1.1,0.1,1.7,0.3c0.5,0.2,1,0.4,1.5,0.7l0.9-0.8h0.5l-2.1,11.8
					c-0.2,0.6-0.2,1.3-0.1,1.9c0,0.3,0.3,0.6,0.6,0.5c1,0,1.9-0.9,2.7-2.8l0.5,0.2c-0.5,1.3-1.2,2.5-2.1,3.5c-0.6,0.6-1.4,1-2.2,1.1
					c-0.6,0-1.2-0.3-1.5-0.9c-0.3-0.9-0.3-1.8-0.1-2.7l0.1-0.7h-0.1c-0.9,1.2-1.9,2.3-3.1,3.2C235.8,191.6,234.7,192,233.6,192z
					 M232.5,186.6c0,2.4,0.8,3.7,2.3,3.7c0.7,0,1.3-0.2,1.9-0.6c0.7-0.4,1.3-0.9,1.8-1.5c0.6-0.6,1.1-1.2,1.6-1.9l1.4-8.2
					c-0.4-0.4-0.8-0.8-1.3-1c-0.5-0.3-1.1-0.4-1.7-0.4c-0.9,0-1.8,0.3-2.5,0.8c-0.8,0.6-1.4,1.4-1.9,2.3c-0.6,1-1,2.1-1.2,3.2
					C232.6,184.2,232.5,185.4,232.5,186.6L232.5,186.6z"/>
				<path class="st0" d="M252.1,191.8l-3-14.4l-2.6-0.6v-0.3l4.2-0.9h0.1l2.6,13.1h0.1l2.8-4.6c0.6-1,1.1-2,1.6-3
					c0.3-0.6,0.4-1.3,0.5-2c0-0.3-0.1-0.7-0.2-0.9c-0.2-0.2-0.4-0.4-0.6-0.6l-0.5-0.3v-0.1l0.6-0.9c0.1-0.2,0.2-0.3,0.4-0.5
					c0.1-0.1,0.3-0.1,0.4-0.1c0.5,0,1,0.3,1.2,0.8c0.3,0.5,0.5,1.1,0.5,1.7c0,0.7-0.2,1.3-0.5,1.9c-0.5,1.1-1.1,2.2-1.8,3.2
					l-5.3,8.5L252.1,191.8z"/>
				<path class="st0" d="M267,192c-1.5,0.1-2.9-0.5-3.9-1.6c-0.9-1.2-1.3-2.7-1.2-4.2c0-1.4,0.2-2.7,0.7-4c0.4-1.2,1.1-2.4,1.9-3.4
					s1.7-1.8,2.8-2.4c1-0.6,2.1-0.9,3.2-0.9c1-0.1,1.9,0.2,2.7,0.8c0.5,0.5,0.9,1.2,0.9,1.9c0,0.8-0.4,1.5-1,2.1
					c-0.9,0.8-2,1.4-3.2,1.7c-1.9,0.6-3.9,1-5.9,1.3c-0.1,0.7-0.1,1.4-0.1,2.1c-0.1,1.3,0.3,2.6,1,3.7c0.7,0.9,1.9,1.4,3,1.3
					c1.9,0,3.5-1.1,4.9-3.3h0.1l0.3,0.2c-0.6,1.3-1.5,2.4-2.5,3.3C269.7,191.6,268.4,192,267,192z M269.8,176.6
					c-1.3,0-2.6,0.6-3.5,1.6c-1.1,1.2-1.8,2.7-2.1,4.4c2.1-0.2,4.1-0.8,6-1.6c1.1-0.4,1.8-1.4,1.8-2.5c0-0.5-0.2-1-0.5-1.3
					C271,176.7,270.4,176.5,269.8,176.6L269.8,176.6z"/>
				<path class="st0" d="M11.7,232c-1.5,0.1-2.9-0.5-3.9-1.6c-0.9-1.2-1.3-2.7-1.2-4.2c0-1.4,0.2-2.7,0.7-4c0.4-1.2,1.1-2.4,1.9-3.4
					c0.8-1,1.7-1.8,2.8-2.4c1-0.6,2.1-0.9,3.2-0.9c1-0.1,1.9,0.2,2.7,0.8c0.5,0.5,0.9,1.2,0.9,1.9c0,0.8-0.4,1.5-1,2.1
					c-0.9,0.8-2,1.4-3.2,1.7c-1.9,0.6-3.9,1-5.9,1.3c-0.1,0.7-0.1,1.4-0.1,2.1c-0.1,1.3,0.3,2.6,1.1,3.7c0.7,0.9,1.9,1.4,3,1.3
					c1.9,0,3.5-1.1,4.9-3.3h0.1l0.3,0.2c-0.6,1.3-1.5,2.4-2.5,3.3C14.4,231.6,13.1,232,11.7,232z M14.5,216.6
					c-1.3,0-2.6,0.6-3.5,1.6c-1.1,1.2-1.8,2.7-2.1,4.4c2.1-0.2,4.1-0.8,6-1.6c1.1-0.4,1.8-1.4,1.8-2.5c0-0.5-0.2-1-0.5-1.3
					C15.7,216.7,15.1,216.5,14.5,216.6z"/>
				<path class="st0" d="M26.2,231.8l-3-14.4l-2.6-0.6v-0.3l4.2-0.9H25l2.6,13.1h0.1l2.8-4.6c0.6-1,1.1-2,1.6-3
					c0.3-0.6,0.4-1.3,0.5-2c0-0.3-0.1-0.7-0.2-0.9c-0.2-0.2-0.4-0.4-0.6-0.6l-0.5-0.3v-0.1l0.6-0.9c0.1-0.2,0.2-0.3,0.4-0.5
					c0.1-0.1,0.3-0.1,0.4-0.1c0.5,0,1,0.3,1.2,0.8c0.3,0.5,0.5,1.1,0.5,1.7c0,0.7-0.2,1.3-0.5,1.9c-0.5,1.1-1.1,2.2-1.8,3.2
					l-5.3,8.5L26.2,231.8z"/>
				<path class="st0" d="M41.2,232c-1.5,0.1-2.9-0.5-3.9-1.6c-0.9-1.2-1.3-2.7-1.2-4.2c0-1.4,0.2-2.7,0.7-4c0.4-1.2,1.1-2.4,1.9-3.4
					c0.8-1,1.7-1.8,2.8-2.4c1-0.6,2.1-0.9,3.2-0.9c1-0.1,1.9,0.2,2.7,0.8c0.5,0.5,0.9,1.2,0.9,1.9c0,0.8-0.4,1.5-1,2.1
					c-0.9,0.8-2,1.4-3.2,1.7c-1.9,0.6-3.9,1-5.9,1.3c-0.1,0.7-0.1,1.4-0.1,2.1c-0.1,1.3,0.3,2.6,1,3.7c0.7,0.9,1.9,1.4,3,1.3
					c1.9,0,3.5-1.1,4.9-3.3h0.1l0.3,0.2c-0.6,1.3-1.5,2.4-2.5,3.3C43.8,231.6,42.5,232,41.2,232z M43.9,216.6
					c-1.3,0-2.6,0.6-3.5,1.6c-1.1,1.2-1.8,2.7-2.1,4.4c2.1-0.2,4.1-0.8,6-1.6c1.1-0.4,1.8-1.4,1.8-2.5c0-0.5-0.2-1-0.5-1.3
					C45.1,216.7,44.5,216.5,43.9,216.6z"/>
				<path class="st0" d="M51.5,231.7l2.5-14.1l-2.5-0.7v-0.3l4.3-0.9H56l-0.3,4.1h0.1c0.6-1,1.2-1.9,2-2.7c0.4-0.5,0.9-0.8,1.5-1.1
					c0.4-0.2,0.8-0.3,1.2-0.3s0.8,0.1,1.1,0.3s0.4,0.4,0.5,0.7c0,0.1,0,0.3-0.1,0.4l-0.7,1.3h-0.1l-0.5-0.3
					c-0.3-0.2-0.7-0.3-1.1-0.3c-0.7,0-1.4,0.3-1.9,0.8c-0.9,0.9-1.7,1.8-2.3,2.9l-1.8,10.3L51.5,231.7L51.5,231.7z"/>
				<path class="st0" d="M74.6,232c-0.9,0-1.8-0.1-2.6-0.5c-0.6-0.2-1.1-0.6-1.5-1.1c-0.2-0.2-0.4-0.5-0.4-0.9
					c0-0.3,0.1-0.5,0.4-0.7l0.6-0.4h0.2l0.5,0.8c0.3,0.6,0.8,1,1.4,1.3c0.5,0.3,1.1,0.4,1.8,0.4c0.9,0,1.8-0.3,2.4-0.9
					c0.6-0.6,0.9-1.4,0.9-2.3c0-0.7-0.2-1.4-0.7-2c-0.6-0.6-1.3-1.1-2-1.5c-0.9-0.5-1.7-1.2-2.4-2c-0.5-0.7-0.8-1.5-0.7-2.3
					c0-0.8,0.3-1.5,0.7-2.1c0.5-0.7,1.2-1.3,1.9-1.7c0.7-0.4,1.6-0.7,2.5-0.7c0.7,0,1.5,0.1,2.2,0.4c0.5,0.2,1,0.6,1.4,1
					c0.2,0.2,0.3,0.5,0.3,0.8c0,0.1,0,0.3-0.1,0.4c-0.1,0.1-0.2,0.2-0.3,0.3l-0.5,0.4h-0.2l-0.6-0.8c-0.3-0.4-0.7-0.8-1.1-1.1
					c-0.5-0.3-1-0.4-1.5-0.4c-0.8,0-1.5,0.3-2.1,0.8c-0.5,0.5-0.8,1.1-0.8,1.8s0.2,1.4,0.6,1.9c0.5,0.6,1.1,1,1.7,1.4
					c1,0.5,1.8,1.2,2.6,1.9c0.6,0.7,0.9,1.7,0.9,2.7c0,0.8-0.2,1.6-0.7,2.3c-0.5,0.8-1.1,1.4-1.9,1.8
					C76.5,231.8,75.6,232.1,74.6,232z"/>
				<path class="st0" d="M88.8,232c-1.5,0.1-2.9-0.5-3.9-1.6c-0.9-1.2-1.3-2.7-1.2-4.2c0-1.4,0.2-2.7,0.7-4c0.4-1.2,1.1-2.4,1.9-3.4
					s1.7-1.8,2.8-2.4c1-0.6,2.1-0.9,3.2-0.9c1-0.1,1.9,0.2,2.7,0.8c0.5,0.5,0.9,1.2,0.9,1.9c0,0.8-0.4,1.5-1,2.1
					c-0.9,0.8-2,1.4-3.2,1.7c-1.9,0.6-3.9,1-5.9,1.3c-0.1,0.7-0.1,1.4-0.1,2.1c-0.1,1.3,0.3,2.6,1.1,3.7c0.7,0.9,1.9,1.4,3,1.3
					c1.9,0,3.5-1.1,4.9-3.3h0.1l0.3,0.2c-0.6,1.3-1.5,2.4-2.5,3.3C91.5,231.6,90.2,232,88.8,232z M91.6,216.6
					c-1.3,0-2.6,0.6-3.5,1.6c-1.1,1.2-1.8,2.7-2.1,4.4c2.1-0.2,4.1-0.8,6-1.6c1.1-0.4,1.8-1.4,1.8-2.5c0-0.5-0.2-1-0.5-1.3
					C92.8,216.7,92.2,216.5,91.6,216.6z"/>
				<path class="st0" d="M103.6,232c-1.5,0.1-2.9-0.5-3.9-1.6c-0.9-1.2-1.3-2.7-1.2-4.2c0-1.4,0.2-2.7,0.7-4
					c0.4-1.2,1.1-2.4,1.9-3.4s1.7-1.8,2.8-2.4c1-0.6,2.1-0.9,3.2-0.9c1-0.1,1.9,0.2,2.7,0.8c0.5,0.5,0.9,1.2,0.9,1.9
					c0,0.8-0.4,1.5-1,2.1c-0.9,0.8-2,1.4-3.2,1.7c-1.9,0.6-3.9,1-5.9,1.3c-0.1,0.7-0.1,1.4-0.1,2.1c-0.1,1.3,0.3,2.6,1,3.7
					c0.7,0.9,1.9,1.4,3,1.3c1.9,0,3.5-1.1,4.9-3.3h0.1l0.3,0.2c-0.6,1.3-1.5,2.4-2.5,3.3C106.3,231.6,105,232,103.6,232z
					 M106.4,216.6c-1.3,0-2.6,0.6-3.5,1.6c-1.1,1.2-1.8,2.7-2.1,4.4c2.1-0.2,4.1-0.8,6-1.6c1.1-0.4,1.8-1.4,1.8-2.5
					c0-0.5-0.2-1-0.5-1.3C107.6,216.7,107,216.5,106.4,216.6L106.4,216.6z"/>
				<path class="st0" d="M113.5,231.7l2.5-14.1l-2.4-0.7v-0.3l4.2-0.9h0.2l-0.2,3.8h0.1c0.7-0.8,1.4-1.5,2.2-2.2
					c0.5-0.5,1.2-0.9,1.8-1.2c0.6-0.3,1.3-0.4,1.9-0.4c1-0.1,2,0.5,2.6,1.3c0.6,1.2,0.8,2.6,0.4,3.8l-1.2,6.8
					c-0.2,0.6-0.2,1.3-0.1,1.9c0,0.3,0.3,0.6,0.6,0.5c0.9,0,1.8-0.9,2.7-2.8l0.5,0.2c-0.4,1.3-1.1,2.5-2,3.5c-0.6,0.6-1.4,1-2.3,1.1
					c-0.6,0-1.2-0.3-1.4-0.9c-0.3-0.9-0.3-1.8-0.1-2.7l1.4-7.8c0.2-0.8,0.1-1.6-0.2-2.4c-0.4-0.7-1.1-1.1-1.9-1
					c-0.6,0-1.2,0.2-1.8,0.5c-0.6,0.4-1.2,0.8-1.7,1.3c-0.6,0.5-1.1,1-1.6,1.6l-1.9,11.1L113.5,231.7z"/>
				<path class="st0" d="M142.3,232c-0.6,0-1.2-0.3-1.5-0.9c-0.3-0.9-0.3-1.8-0.1-2.7l1.9-11l-2.6-0.7v-0.3l4.7-0.9h0.3l-2.1,11.9
					c-0.2,0.6-0.2,1.3-0.1,1.9c0,0.3,0.3,0.6,0.6,0.5c0.9,0,1.8-0.9,2.7-2.8l0.5,0.2c-0.5,1.3-1.2,2.5-2.1,3.5
					C143.9,231.6,143.1,232,142.3,232z M144.9,210.5c-0.4,0-0.8-0.2-1.1-0.5s-0.5-0.7-0.5-1.1c0-0.8,0.7-1.5,1.5-1.5
					c0.4,0,0.8,0.2,1.1,0.5s0.5,0.7,0.5,1.1C146.5,209.8,145.8,210.5,144.9,210.5L144.9,210.5L144.9,210.5z"/>
				<path class="st0" d="M149.2,231.7l2.5-14.1l-2.4-0.7v-0.3l4.2-0.9h0.2l-0.2,3.8h0.1c0.7-0.8,1.4-1.5,2.2-2.2
					c0.5-0.5,1.2-0.9,1.8-1.2s1.3-0.4,1.9-0.4c1-0.1,2,0.5,2.6,1.3c0.6,1.2,0.8,2.6,0.4,3.8l-1.2,6.8c-0.2,0.6-0.2,1.3-0.1,1.9
					c0,0.3,0.3,0.6,0.6,0.5c0.9,0,1.8-0.9,2.7-2.8l0.5,0.2c-0.4,1.3-1.1,2.5-2,3.5c-0.6,0.7-1.4,1-2.3,1.1c-0.6,0-1.2-0.3-1.4-0.9
					c-0.3-0.9-0.3-1.8-0.1-2.7l1.4-7.8c0.2-0.8,0.1-1.6-0.2-2.4c-0.4-0.7-1.1-1.1-1.9-1c-0.6,0-1.2,0.2-1.8,0.5
					c-0.6,0.4-1.2,0.8-1.7,1.3c-0.6,0.5-1.1,1-1.6,1.6l-1.9,11.1L149.2,231.7L149.2,231.7z"/>
				<path class="st0" d="M175.9,231.7l2.5-14.1l-2.4-0.7v-0.3l4.2-0.9h0.2l-0.2,3.8h0.1c0.7-0.8,1.4-1.5,2.1-2.2
					c0.5-0.5,1.1-0.9,1.8-1.2c0.6-0.3,1.2-0.4,1.9-0.4c0.9,0,1.7,0.3,2.2,1c0.6,0.8,0.8,1.8,0.7,2.8h0.1c0.8-0.9,1.5-1.6,2.1-2.2
					c0.5-0.5,1.1-0.9,1.8-1.2c0.6-0.3,1.2-0.4,1.9-0.4c1-0.1,2,0.5,2.5,1.3c0.6,1.2,0.7,2.6,0.3,3.8l-1.2,6.8
					c-0.2,0.6-0.2,1.3-0.1,1.9c0,0.3,0.3,0.6,0.6,0.5c0.9,0,1.8-0.9,2.7-2.8l0.5,0.2c-0.5,1.3-1.2,2.5-2.1,3.5
					c-0.6,0.7-1.4,1-2.2,1.1c-0.6,0-1.2-0.3-1.4-0.9c-0.3-0.9-0.3-1.8-0.1-2.7l1.4-7.8c0.2-0.8,0.1-1.6-0.1-2.4
					c-0.3-0.7-1.1-1.1-1.8-1c-0.9,0-1.8,0.4-2.5,1.1c-0.8,0.7-1.6,1.5-2.3,2.3v0.2l-2,10.9h-2l1.9-11.1c0.2-0.8,0.1-1.6-0.1-2.4
					c-0.3-0.7-1-1.1-1.8-1c-0.9,0-1.8,0.4-2.5,1.1c-0.8,0.7-1.6,1.5-2.3,2.3l-1.9,11.1L175.9,231.7z"/>
				<path class="st0" d="M199.8,240.1c-0.5,0.1-0.9-0.3-1-0.8c0-0.1,0-0.2,0-0.2v-1.2l0.2-0.1h1.8c0.4,0,0.8,0,1.2-0.1
					c0.3-0.1,0.6-0.2,0.9-0.4c0.4-0.3,0.7-0.7,0.9-1.1c0.3-0.5,0.8-1.2,1.3-2l1.8-2.9l-3.1-13.7l-2.6-0.7v-0.3l4.2-0.9h0.1l2.8,13
					h0.1l2.8-4.5c0.6-1,1.2-2,1.6-3c0.3-0.6,0.5-1.3,0.5-2c0-0.3-0.1-0.7-0.2-0.9c-0.2-0.2-0.4-0.4-0.6-0.6l-0.5-0.3v-0.1l0.6-0.9
					c0.1-0.2,0.2-0.3,0.4-0.5c0.1-0.1,0.3-0.1,0.4-0.1c0.5,0,1,0.3,1.2,0.8c0.3,0.5,0.5,1.1,0.5,1.7c0,0.7-0.2,1.3-0.5,1.9
					c-0.5,1.1-1.1,2.2-1.8,3.2l-7,11.2c-0.3,0.5-0.6,1-0.8,1.3c-0.2,0.4-0.4,0.7-0.6,1.1c-0.3,0.4-0.6,0.9-1,1.3
					c-0.5,0.6-1.1,1.1-1.8,1.5C201.1,239.9,200.5,240.1,199.8,240.1z"/>
				<path class="st0" d="M227.5,232c-0.6,0-1.2-0.3-1.4-0.9c-0.3-0.9-0.3-1.8-0.1-2.7l3.7-21.1l-2.6-0.7v-0.3l4.7-0.9h0.3l-4,22.1
					c-0.2,0.6-0.2,1.3-0.1,1.9c0,0.3,0.3,0.6,0.6,0.5c0.5,0,1-0.3,1.4-0.7c0.6-0.6,1-1.3,1.3-2.1l0.5,0.2c-0.5,1.3-1.2,2.5-2.1,3.5
					C229.1,231.6,228.3,232,227.5,232z"/>
				<path class="st0" d="M236.5,232c-0.6,0-1.2-0.3-1.5-0.9c-0.3-0.9-0.3-1.8-0.1-2.7l1.9-11l-2.6-0.7v-0.3l4.7-0.9h0.3l-2.1,11.9
					c-0.2,0.6-0.2,1.3-0.1,1.9c0,0.3,0.3,0.6,0.6,0.5c0.9,0,1.8-0.9,2.7-2.8l0.5,0.2c-0.5,1.3-1.2,2.5-2.1,3.5
					C238.2,231.6,237.4,232,236.5,232z M239.1,210.5c-0.4,0-0.8-0.2-1.1-0.5s-0.5-0.7-0.5-1.1c0-0.8,0.7-1.5,1.5-1.5
					c0.4,0,0.8,0.2,1.1,0.5s0.5,0.7,0.5,1.1C240.7,209.8,240,210.5,239.1,210.5L239.1,210.5L239.1,210.5z"/>
				<path class="st0" d="M239.1,240.1c-0.4,0-0.8-0.1-1.1-0.3c-0.2-0.1-0.3-0.4-0.4-0.6c0-0.3,0.1-0.5,0.2-0.7l0.4-0.8h0.1l0.6,0.3
					c0.2,0.1,0.5,0.2,0.8,0.2s0.5,0.1,0.8,0.1c1.1-0.1,2-0.7,2.4-1.8c0.8-1.6,1.3-3.4,1.4-5.2l2.1-14.1h-2.8v-1.3h3l0.2-1.4
					c0.2-0.9,0.5-1.8,0.9-2.7c0.5-1.1,1.2-2.1,1.9-3c0.8-1,1.7-1.8,2.7-2.4c1-0.6,2.1-1,3.2-1c0.3,0,0.7,0.1,0.9,0.2
					c0.4,0.2,0.6,0.4,0.6,0.7c0,0.2-0.1,0.4-0.2,0.6l-0.6,1h-0.1l-0.7-0.3c-0.6-0.3-1.3-0.4-2-0.4c-1.1,0-2.2,0.6-2.8,1.5
					c-0.9,1.3-1.4,2.8-1.6,4.4l-0.4,2.8h3.9v1.3h-4.1l-2,13.5c-0.2,1-0.4,1.9-0.8,2.8c-0.4,1.1-1,2.1-1.7,3.1
					c-0.6,0.9-1.4,1.8-2.3,2.5C241.1,239.7,240.1,240.1,239.1,240.1z"/>
				<path class="st0" d="M258.8,232c-1.5,0.1-2.9-0.5-3.9-1.6c-0.9-1.2-1.3-2.7-1.2-4.2c0-1.4,0.2-2.7,0.7-4
					c0.4-1.2,1.1-2.4,1.9-3.4s1.7-1.8,2.8-2.4c1-0.6,2.1-0.9,3.2-0.9c1-0.1,1.9,0.2,2.7,0.8c0.5,0.5,0.9,1.2,0.9,1.9
					c0,0.8-0.4,1.5-1,2.1c-0.9,0.8-2,1.4-3.2,1.7c-1.9,0.6-3.9,1-5.9,1.3c-0.1,0.7-0.1,1.4-0.1,2.1c-0.1,1.3,0.3,2.6,1,3.7
					c0.7,0.9,1.9,1.4,3,1.3c1.9,0,3.5-1.1,4.9-3.3h0.1l0.3,0.2c-0.6,1.3-1.5,2.4-2.5,3.3C261.4,231.6,260.1,232,258.8,232z
					 M261.6,216.6c-1.3,0-2.6,0.6-3.5,1.6c-1.1,1.2-1.8,2.7-2.1,4.4c2.1-0.2,4.1-0.8,6-1.6c1.1-0.4,1.8-1.4,1.8-2.5
					c0-0.5-0.2-1-0.5-1.3C262.8,216.7,262.2,216.5,261.6,216.6z"/>
				<path class="st0" d="M269.6,231.9c-0.4,0-0.8-0.1-1.1-0.4c-0.3-0.3-0.4-0.7-0.4-1.1c0-0.5,0.2-1,0.5-1.4s0.9-0.6,1.4-0.6
					c0.4,0,0.8,0.1,1.1,0.5c0.3,0.3,0.4,0.7,0.4,1.1c0,0.5-0.2,1-0.5,1.4C270.7,231.7,270.2,231.9,269.6,231.9z"/>
				<path class="st0" d="M0,271.7l0.1-0.5l2.6-1l3.6-20.1l-2.5-0.9l0.1-0.5h7.5l-0.1,0.5l-2.7,0.9L5,270.2l2.5,1l-0.1,0.5H0z"/>
				<path class="st0" d="M15.5,272c-0.6,0-1.2-0.2-1.6-0.7c-0.4-0.5-0.6-1.2-0.5-1.9c0-0.2,0-0.4,0.1-0.6c0-0.2,0.1-0.4,0.1-0.7
					l1.9-11.1h-2.7v-0.2l3.1-1.1l2.3-3.8h0.2l-0.7,3.8H22v1.3h-4.5l-1.7,9.7c0,0.3-0.1,0.6-0.1,0.9c0,0.2,0,0.5-0.1,0.7
					c0,0.4,0.1,0.8,0.3,1.2c0.2,0.2,0.5,0.4,0.8,0.4c0.7-0.1,1.3-0.4,1.8-0.9c0.7-0.8,1.3-1.7,1.7-2.8l0.5,0.2
					c-0.5,1.6-1.3,3-2.4,4.2C17.5,271.5,16.6,272,15.5,272z"/>
				<path class="st0" d="M36.4,271.8l-2.8-14.3l-2.6-0.7v-0.3l4.2-0.9h0.1l2.2,12.7h0.1l5.6-12.4h0.4l2.6,12.7h0.1L49,264
					c0.7-1.2,1.1-2.3,1.5-3c0.3-0.6,0.5-1.3,0.5-2c0-0.3-0.1-0.7-0.2-0.9c-0.2-0.2-0.4-0.4-0.6-0.6l-0.5-0.3V257l0.6-0.9
					c0.1-0.2,0.2-0.3,0.4-0.5c0.1-0.1,0.3-0.1,0.4-0.1c0.5,0,1,0.3,1.2,0.8c0.3,0.5,0.5,1.1,0.5,1.7c0,0.7-0.2,1.3-0.5,1.9
					c-0.5,1.1-1,2.2-1.7,3.2l-4.9,8.5h-0.5L42.7,260L37,271.6L36.4,271.8z"/>
				<path class="st0" d="M57.7,272c-0.9,0-1.8-0.4-2.3-1.2c-0.7-1-1-2.3-0.9-3.5c0-1.4,0.3-2.8,0.7-4.1c0.5-1.4,1.1-2.6,2-3.8
					c0.8-1.1,1.7-2,2.9-2.8c1-0.7,2.2-1,3.4-1c0.6,0,1.1,0.1,1.7,0.3c0.5,0.2,1,0.4,1.5,0.7l0.9-0.8H68l-2,11.7
					c-0.2,0.6-0.2,1.3-0.1,1.9c0,0.3,0.3,0.6,0.6,0.5c1,0,1.9-0.9,2.7-2.8l0.5,0.2c-0.5,1.3-1.2,2.5-2.1,3.5c-0.6,0.6-1.4,1-2.2,1.1
					c-0.6,0-1.2-0.3-1.5-0.9c-0.3-0.9-0.3-1.8-0.1-2.7l0.1-0.7h-0.1c-0.9,1.2-1.9,2.3-3.1,3.2C59.9,271.6,58.8,272,57.7,272z
					 M56.6,266.6c0,2.4,0.8,3.7,2.3,3.7c0.7,0,1.3-0.2,1.9-0.6c0.7-0.4,1.3-0.9,1.8-1.5c0.6-0.6,1.1-1.2,1.6-1.9l1.4-8.2
					c-0.4-0.4-0.8-0.8-1.3-1c-0.5-0.3-1.1-0.4-1.7-0.4c-0.9,0-1.8,0.3-2.5,0.8c-0.8,0.6-1.4,1.4-1.9,2.3c-0.6,1-1,2.1-1.2,3.2
					C56.7,264.2,56.6,265.4,56.6,266.6z"/>
				<path class="st0" d="M75.4,272c-0.9,0-1.8-0.1-2.6-0.5c-0.6-0.2-1.1-0.6-1.5-1.1c-0.2-0.2-0.4-0.5-0.4-0.9
					c0-0.3,0.1-0.5,0.4-0.7l0.6-0.4h0.2l0.5,0.8c0.3,0.6,0.8,1,1.4,1.3c0.5,0.3,1.1,0.4,1.8,0.4c0.9,0,1.8-0.3,2.4-0.9
					s0.9-1.4,0.9-2.3c0-0.7-0.2-1.4-0.7-2c-0.6-0.6-1.3-1.1-2-1.5c-0.9-0.5-1.7-1.2-2.4-2c-0.5-0.7-0.8-1.5-0.7-2.3
					c0-0.8,0.3-1.5,0.7-2.1c0.5-0.7,1.2-1.3,1.9-1.7c0.7-0.4,1.6-0.7,2.5-0.7c0.7,0,1.5,0.1,2.2,0.4c0.5,0.2,1,0.6,1.4,1
					c0.2,0.2,0.3,0.5,0.3,0.8c0,0.1,0,0.3-0.1,0.4s-0.2,0.2-0.3,0.3l-0.5,0.4H81l-0.6-0.8c-0.3-0.4-0.7-0.8-1.1-1.1
					c-0.5-0.3-1-0.4-1.5-0.4c-0.8,0-1.5,0.3-2.1,0.8c-0.5,0.5-0.8,1.1-0.8,1.8c0,0.7,0.2,1.4,0.6,1.9c0.5,0.6,1.1,1,1.7,1.4
					c1,0.5,1.8,1.2,2.6,1.9c0.6,0.7,0.9,1.7,0.9,2.7c0,0.8-0.2,1.6-0.7,2.3C79.1,271.1,77.3,272.1,75.4,272L75.4,272z"/>
				<path class="st0" d="M96.4,272c-0.9,0-1.8-0.4-2.3-1.2c-0.7-1-1-2.3-0.9-3.5c0-1.4,0.3-2.8,0.7-4.1c0.5-1.4,1.1-2.6,2-3.8
					c0.8-1.1,1.7-2,2.9-2.8c1-0.7,2.2-1,3.4-1c0.6,0,1.1,0.1,1.7,0.3c0.5,0.2,1,0.4,1.5,0.7l0.9-0.8h0.5l-2.1,11.8
					c-0.2,0.6-0.2,1.3-0.1,1.9c0,0.3,0.3,0.6,0.6,0.5c1,0,1.9-0.9,2.7-2.8l0.5,0.2c-0.5,1.3-1.2,2.5-2.1,3.5c-0.6,0.6-1.4,1-2.2,1.1
					c-0.6,0-1.2-0.3-1.5-0.9c-0.3-0.9-0.3-1.8-0.1-2.7l0.1-0.7h-0.1c-0.9,1.2-1.9,2.3-3.1,3.2C98.6,271.6,97.5,272,96.4,272z
					 M95.3,266.6c0,2.4,0.8,3.7,2.3,3.7c0.7,0,1.3-0.2,1.9-0.6c0.7-0.4,1.3-0.9,1.8-1.5c0.6-0.6,1.1-1.2,1.6-1.9l1.4-8.2
					c-0.4-0.4-0.8-0.8-1.3-1c-0.5-0.3-1.1-0.4-1.7-0.4c-0.9,0-1.8,0.3-2.5,0.8c-0.8,0.6-1.4,1.4-1.9,2.3c-0.6,1-1,2.1-1.2,3.2
					C95.4,264.2,95.3,265.4,95.3,266.6z"/>
				<path class="st0" d="M119.8,271.7l2.5-14.1l-2.5-0.7v-0.3l4.3-0.9h0.1l-0.3,4.1h0.1c0.6-1,1.2-1.9,2-2.7
					c0.4-0.5,0.9-0.8,1.5-1.1c0.4-0.2,0.8-0.3,1.2-0.3s0.8,0.1,1.1,0.3c0.3,0.2,0.4,0.4,0.5,0.7c0,0.1,0,0.3-0.1,0.4l-0.7,1.3h-0.1
					L129,258c-0.3-0.2-0.7-0.3-1.1-0.3c-0.7,0-1.4,0.3-1.9,0.8c-0.9,0.9-1.6,1.8-2.3,2.9l-1.8,10.3L119.8,271.7z"/>
				<path class="st0" d="M136,272c-1.5,0.1-2.9-0.5-3.9-1.6c-0.9-1.2-1.3-2.7-1.2-4.2c0-1.4,0.2-2.7,0.7-4c0.4-1.2,1.1-2.4,1.9-3.4
					c0.8-1,1.7-1.8,2.8-2.4c1-0.6,2.1-0.9,3.2-0.9c1-0.1,1.9,0.2,2.7,0.8c0.5,0.5,0.9,1.2,0.9,1.9c0,0.8-0.4,1.5-1,2.1
					c-0.9,0.8-2,1.4-3.2,1.7c-1.9,0.6-3.9,1-5.9,1.3c-0.1,0.7-0.1,1.4-0.1,2.1c-0.1,1.3,0.3,2.6,1,3.7c0.7,0.9,1.9,1.4,3,1.3
					c1.9,0,3.5-1.1,4.9-3.3h0.1l0.3,0.2c-0.6,1.3-1.5,2.4-2.5,3.3C138.7,271.6,137.4,272,136,272z M138.8,256.6
					c-1.3,0-2.6,0.6-3.5,1.6c-1.1,1.2-1.8,2.7-2.1,4.4c2.1-0.2,4.1-0.8,6-1.6c1.1-0.4,1.8-1.4,1.8-2.5c0-0.5-0.2-1-0.5-1.3
					C140,256.7,139.4,256.5,138.8,256.6z"/>
				<path class="st0" d="M148.9,272c-0.9,0-1.8-0.4-2.3-1.2c-0.7-1-1-2.3-0.9-3.5c0-1.4,0.3-2.8,0.7-4.1c0.5-1.4,1.1-2.6,2-3.8
					c0.8-1.1,1.7-2,2.9-2.8c1-0.7,2.2-1,3.4-1c0.6,0,1.1,0.1,1.7,0.3c0.5,0.2,1,0.4,1.5,0.7l0.9-0.8h0.5l-2.1,11.8
					c-0.2,0.6-0.2,1.3-0.1,1.9c0,0.3,0.3,0.6,0.6,0.5c1,0,1.9-0.9,2.7-2.8l0.5,0.2c-0.5,1.3-1.2,2.5-2.1,3.5c-0.6,0.6-1.4,1-2.2,1.1
					c-0.6,0-1.2-0.3-1.5-0.9c-0.3-0.9-0.3-1.8-0.1-2.7l0.1-0.7H155c-0.9,1.2-1.9,2.3-3.1,3.2C151.1,271.6,150,272,148.9,272z
					 M147.7,266.6c0,2.4,0.8,3.7,2.3,3.7c0.7,0,1.3-0.2,1.9-0.6c0.7-0.4,1.3-0.9,1.8-1.5c0.6-0.6,1.1-1.2,1.6-1.9l1.4-8.2
					c-0.4-0.4-0.8-0.8-1.3-1c-0.5-0.3-1.1-0.4-1.7-0.4c-0.9,0-1.8,0.3-2.5,0.8c-0.8,0.6-1.4,1.4-1.9,2.3c-0.6,1-1,2.1-1.2,3.2
					C147.9,264.2,147.7,265.4,147.7,266.6L147.7,266.6z"/>
				<path class="st0" d="M165.3,272c-0.6,0-1.2-0.3-1.4-0.9c-0.3-0.9-0.3-1.8-0.1-2.7l3.7-21.1l-2.6-0.7v-0.3l4.7-0.9h0.3l-4,22.1
					c-0.2,0.6-0.2,1.3-0.1,1.9c0,0.3,0.3,0.6,0.6,0.5c0.5,0,1-0.3,1.4-0.7c0.6-0.6,1-1.3,1.3-2.1l0.5,0.2c-0.5,1.3-1.2,2.5-2.1,3.5
					C167,271.6,166.1,272,165.3,272z"/>
				<path class="st0" d="M178.3,279.7v-0.5l1.9-0.8l3.7-20.9l-2.4-0.7v-0.3l4.2-0.9h0.2l-0.3,4.2h0.1c0.9-1.2,1.9-2.2,3-3.1
					c0.8-0.7,1.9-1.1,3-1.1c0.9,0,1.8,0.5,2.3,1.3c0.7,1.1,1,2.4,0.9,3.7c0,1.4-0.2,2.9-0.7,4.2c-0.4,1.3-1.1,2.6-1.9,3.7
					c-0.7,1-1.7,1.9-2.7,2.6c-1,0.6-2.1,1-3.2,1c-1,0-2-0.3-2.8-0.7l-1.2,7.1l2.7,0.9v0.5L178.3,279.7z M190.6,257.3
					c-0.7,0-1.3,0.2-1.8,0.6c-0.7,0.4-1.3,0.9-1.8,1.5c-0.6,0.6-1.1,1.2-1.6,1.9l-1.4,8.1c0.4,0.5,1,0.9,1.6,1.2
					c0.5,0.2,1.1,0.4,1.8,0.4c1.1,0,2.1-0.4,2.9-1.2c0.9-1,1.6-2.1,2-3.4c0.5-1.6,0.8-3.3,0.8-5
					C192.9,258.6,192.1,257.3,190.6,257.3L190.6,257.3z"/>
				<path class="st0" d="M200.3,272c-0.6,0-1.2-0.3-1.5-0.9c-0.3-0.9-0.3-1.8-0.1-2.7l1.9-11l-2.6-0.7v-0.3l4.7-0.9h0.3l-2.1,11.9
					c-0.2,0.6-0.2,1.3-0.1,1.9c0,0.3,0.3,0.6,0.6,0.5c0.9,0,1.8-0.9,2.7-2.8l0.5,0.2c-0.5,1.3-1.2,2.5-2.1,3.5
					C202,271.6,201.2,272,200.3,272z M203,250.5c-0.4,0-0.8-0.2-1.1-0.5s-0.5-0.7-0.5-1.1c0-0.8,0.7-1.5,1.5-1.5
					c0.4,0,0.8,0.2,1.1,0.5s0.5,0.7,0.5,1.1C204.6,249.8,203.9,250.5,203,250.5L203,250.5L203,250.5z"/>
				<path class="st0" d="M212.4,272c-1.5,0.1-2.9-0.5-3.8-1.6c-0.9-1.3-1.3-2.8-1.3-4.3c0-1.3,0.2-2.6,0.7-3.8
					c0.5-1.2,1.1-2.4,1.9-3.4c0.8-1,1.7-1.8,2.7-2.4c0.9-0.6,2-0.9,3.1-0.9c0.7,0,1.5,0.1,2.1,0.4c0.5,0.2,1,0.6,1.4,1
					c0.3,0.3,0.5,0.7,0.6,1.2c0,0.3-0.2,0.6-0.4,0.7l-0.9,0.6h-0.2l-0.5-0.8c-0.3-0.5-0.7-1-1.2-1.5c-0.5-0.4-1.1-0.6-1.8-0.5
					c-1,0-2,0.4-2.7,1.1c-0.9,0.8-1.6,1.9-2,3c-0.5,1.4-0.8,2.9-0.8,4.3c-0.1,1.4,0.3,2.7,1,3.9c0.7,0.9,1.8,1.4,3,1.3
					c0.9,0,1.8-0.3,2.6-0.9c1-0.8,1.8-1.8,2.5-2.9h0.1l0.3,0.2c-0.6,1.4-1.5,2.6-2.6,3.7C215.1,271.5,213.7,272,212.4,272z"/>
				<path class="st0" d="M224.9,272c-0.6,0-1.2-0.2-1.6-0.7c-0.4-0.5-0.6-1.2-0.5-1.9c0-0.2,0-0.4,0.1-0.6c0-0.2,0.1-0.4,0.1-0.7
					l1.9-11.1h-2.7v-0.2l3.1-1.1l2.3-3.8h0.2l-0.7,3.8h4.2v1.3h-4.5l-1.7,9.7c0,0.3-0.1,0.6-0.1,0.9c0,0.2-0.1,0.5-0.1,0.7
					c0,0.4,0.1,0.8,0.3,1.2c0.2,0.2,0.5,0.4,0.8,0.4c0.7-0.1,1.3-0.4,1.8-0.9c0.7-0.8,1.3-1.7,1.7-2.8l0.5,0.2
					c-0.5,1.6-1.3,3-2.4,4.2C226.9,271.5,226,272,224.9,272z"/>
				<path class="st0" d="M236.5,272c-0.8,0-1.6-0.3-2.1-0.9c-0.6-0.8-0.8-1.7-0.8-2.6c0-0.3,0-0.5,0.1-0.8c0-0.3,0.1-0.6,0.1-0.9
					l1.7-9.3l-2.4-0.7v-0.3l4.6-0.9h0.2l-1.9,11.2l-0.1,0.7c0,0.2-0.1,0.4-0.1,0.6c0,0.6,0.1,1.2,0.5,1.6c0.4,0.5,1,0.7,1.6,0.6
					c0.9,0,1.8-0.4,2.5-1.1c0.8-0.7,1.6-1.5,2.3-2.3l1.7-9.5l-2.4-0.7v-0.3l4.6-0.9h0.2l-2.1,11.9c-0.2,0.6-0.2,1.3-0.1,1.9
					c0,0.3,0.3,0.6,0.7,0.6c0.5,0,1-0.3,1.4-0.7c0.6-0.6,1-1.3,1.3-2.1l0.5,0.2c-0.5,1.3-1.2,2.5-2.1,3.5c-0.6,0.6-1.4,1-2.2,1.1
					c-0.6,0-1.2-0.3-1.5-0.9c-0.3-0.9-0.4-1.8-0.1-2.7v-0.2h-0.1c-0.9,1.1-1.9,2-3,2.9C238.4,271.7,237.5,272,236.5,272z"/>
				<path class="st0" d="M250.9,271.7l2.5-14.1l-2.5-0.7v-0.3l4.3-0.9h0.1l-0.3,4.1h0.1c0.6-1,1.2-1.9,2-2.7
					c0.4-0.5,0.9-0.8,1.5-1.1c0.4-0.2,0.8-0.3,1.2-0.3c0.4,0,0.8,0.1,1.1,0.3c0.3,0.2,0.4,0.4,0.5,0.7c0,0.1,0,0.3-0.1,0.4l-0.7,1.3
					h-0.1L260,258c-0.3-0.2-0.7-0.3-1.1-0.3c-0.7,0-1.4,0.3-1.9,0.8c-0.9,0.9-1.6,1.8-2.3,2.9l-1.8,10.3L250.9,271.7z"/>
				<path class="st0" d="M267,272c-1.5,0.1-2.9-0.5-3.9-1.6c-0.9-1.2-1.3-2.7-1.2-4.2c0-1.4,0.2-2.7,0.7-4c0.4-1.2,1.1-2.4,1.9-3.4
					s1.7-1.8,2.8-2.4c1-0.6,2.1-0.9,3.2-0.9c1-0.1,1.9,0.2,2.7,0.8c0.5,0.5,0.9,1.2,0.9,1.9c0,0.8-0.4,1.5-1,2.1
					c-0.9,0.8-2,1.4-3.2,1.7c-1.9,0.6-3.9,1-5.9,1.3c-0.1,0.7-0.1,1.4-0.1,2.1c-0.1,1.3,0.3,2.6,1,3.7c0.7,0.9,1.9,1.4,3,1.3
					c1.9,0,3.5-1.1,4.9-3.3h0.1l0.3,0.2c-0.6,1.3-1.5,2.4-2.5,3.3C269.7,271.6,268.4,272,267,272z M269.8,256.6
					c-1.3,0-2.6,0.6-3.5,1.6c-1.1,1.2-1.8,2.7-2.1,4.4c2.1-0.2,4.1-0.8,6-1.6c1.1-0.4,1.8-1.4,1.8-2.5c0-0.5-0.2-1-0.5-1.3
					C271,256.7,270.4,256.5,269.8,256.6L269.8,256.6z"/>
				<path class="st0" d="M32.1,316.9l5.2-31.1h5.4l-0.1,0.6h-3.9l-5,29.9h3.9l-0.1,0.6H32.1z"/>
				<path class="st0" d="M44.4,312c-0.9,0-1.8-0.4-2.3-1.2c-0.7-1-1-2.3-0.9-3.5c0-1.4,0.3-2.8,0.7-4.1c0.5-1.4,1.1-2.6,2-3.8
					c0.8-1.1,1.7-2,2.9-2.8c1-0.7,2.2-1,3.4-1c0.6,0,1.1,0.1,1.7,0.3c0.5,0.2,1,0.4,1.5,0.7l0.9-0.8h0.5l-2.1,11.8
					c-0.2,0.6-0.2,1.3-0.1,1.9c0,0.3,0.3,0.6,0.6,0.5c1,0,1.9-0.9,2.7-2.8l0.5,0.2c-0.5,1.3-1.2,2.5-2.1,3.5c-0.6,0.6-1.4,1-2.2,1.1
					c-0.6,0-1.2-0.3-1.5-0.9c-0.3-0.9-0.3-1.8-0.1-2.7l0.1-0.7h-0.1c-0.9,1.2-1.9,2.3-3.1,3.2C46.5,311.6,45.5,312,44.4,312z
					 M43.2,306.6c0,2.4,0.8,3.7,2.3,3.7c0.7,0,1.3-0.2,1.9-0.6c0.7-0.4,1.3-0.9,1.8-1.5c0.6-0.6,1.1-1.2,1.6-1.9l1.4-8.2
					c-0.4-0.4-0.8-0.8-1.3-1c-0.5-0.3-1.1-0.4-1.7-0.4c-0.9,0-1.8,0.3-2.5,0.8c-0.8,0.6-1.4,1.4-1.9,2.3c-0.6,1-1,2.1-1.2,3.2
					C43.4,304.2,43.2,305.4,43.2,306.6z"/>
				<path class="st0" d="M58.7,311.7l2.5-14.1l-2.4-0.7v-0.3l4.2-0.9h0.2l-0.2,3.8l0,0c0.7-0.8,1.4-1.5,2.2-2.2
					c0.5-0.5,1.2-0.9,1.8-1.2c0.6-0.3,1.3-0.4,1.9-0.4c1-0.1,2,0.5,2.6,1.3c0.6,1.2,0.8,2.6,0.4,3.8l-1.2,6.8
					c-0.2,0.6-0.2,1.3-0.1,1.9c0,0.3,0.3,0.6,0.6,0.5c0.9,0,1.8-0.9,2.7-2.8l0.5,0.2c-0.4,1.3-1.1,2.5-2,3.5c-0.6,0.6-1.4,1-2.3,1.1
					c-0.6,0-1.2-0.3-1.4-0.9c-0.3-0.9-0.3-1.8-0.1-2.7l1.4-7.8c0.2-0.8,0.1-1.6-0.2-2.4c-0.4-0.7-1.1-1.1-1.9-1
					c-0.6,0-1.2,0.2-1.8,0.5c-0.6,0.4-1.2,0.8-1.7,1.3c-0.6,0.5-1.1,1-1.6,1.6l-1.9,11.1L58.7,311.7z"/>
				<path class="st0" d="M79.9,312c-0.9,0-1.8-0.4-2.3-1.2c-0.7-1-1-2.3-0.9-3.5c0-1.4,0.2-2.8,0.7-4.1c0.5-1.4,1.1-2.6,2-3.8
					c0.8-1.1,1.8-2,2.9-2.8c1-0.7,2.2-1,3.4-1c0.4,0,0.9,0.1,1.3,0.2s0.8,0.2,1.2,0.4l1.5-8.8l-2.8-0.7v-0.3l5-0.9H92l-3.9,22.1
					c-0.2,0.6-0.2,1.3-0.1,1.9c0,0.3,0.3,0.6,0.6,0.5c0.9,0,1.8-0.9,2.7-2.8l0.5,0.2c-0.4,1.3-1.1,2.5-2,3.5c-0.6,0.6-1.4,1-2.3,1.1
					c-0.6,0-1.2-0.3-1.4-0.9c-0.3-0.9-0.3-1.8-0.1-2.7l0.1-0.7H86c-0.9,1.2-2,2.3-3.1,3.3C82,311.6,80.9,312,79.9,312z M78.7,306.6
					c-0.1,1,0.1,1.9,0.6,2.8c0.4,0.6,1,0.9,1.7,0.9c1-0.1,1.9-0.4,2.6-1.1c1-0.8,1.9-1.7,2.6-2.8l1.4-8.3c-0.4-0.4-0.8-0.8-1.3-1.1
					c-0.5-0.3-1.1-0.4-1.6-0.4c-0.9,0-1.7,0.3-2.4,0.8c-0.8,0.6-1.4,1.4-1.9,2.2c-0.6,1-1,2.1-1.2,3.2
					C78.9,304.1,78.7,305.4,78.7,306.6z"/>
				<path class="st0" d="M90.5,316.9l0.1-0.6h3.9l5-29.9h-3.8l0.1-0.6h5.5L96,316.9H90.5z"/>
				<path class="st0" d="M110.4,311.7l0.1-0.5l2.6-1l3.6-20.1l-2.5-0.9l0.1-0.5h7.5l-0.1,0.5l-2.7,0.9l-3.6,20.1l2.5,1l-0.1,0.5
					H110.4z"/>
				<path class="st0" d="M136.7,311.8l-2.8-14.3l-2.6-0.7v-0.3l4.2-0.9h0.1l2.2,12.7h0.1l5.6-12.4h0.4l2.6,12.7h0.1l2.4-4.6
					c0.7-1.2,1.1-2.3,1.5-3c0.3-0.6,0.5-1.3,0.5-2c0-0.3-0.1-0.7-0.2-0.9c-0.2-0.2-0.4-0.4-0.6-0.6l-0.5-0.3V297l0.6-0.9
					c0.1-0.2,0.2-0.3,0.4-0.5c0.1-0.1,0.3-0.1,0.4-0.1c0.5,0,1,0.3,1.2,0.8c0.3,0.5,0.5,1.1,0.5,1.7c0,0.7-0.2,1.3-0.5,1.9
					c-0.5,1.1-1,2.2-1.7,3.2l-4.9,8.5h-0.5l-2.5-11.6l-5.7,11.6L136.7,311.8z"/>
				<path class="st0" d="M158.1,312c-0.9,0-1.8-0.4-2.3-1.2c-0.7-1-1-2.3-0.9-3.5c0-1.4,0.3-2.8,0.7-4.1c0.5-1.4,1.1-2.6,2-3.8
					c0.8-1.1,1.7-2,2.9-2.8c1-0.7,2.2-1,3.4-1c0.6,0,1.1,0.1,1.7,0.3c0.5,0.2,1,0.4,1.5,0.7l0.9-0.8h0.5l-2.1,11.8
					c-0.2,0.6-0.2,1.3-0.1,1.9c0,0.3,0.3,0.6,0.6,0.5c1,0,1.9-0.9,2.7-2.8l0.5,0.2c-0.5,1.3-1.2,2.5-2.1,3.5c-0.6,0.6-1.4,1-2.2,1.1
					c-0.6,0-1.2-0.3-1.5-0.9c-0.3-0.9-0.3-1.8-0.1-2.7l0.1-0.7h-0.1c-0.9,1.2-1.9,2.3-3.1,3.2C160.3,311.6,159.2,312,158.1,312z
					 M156.9,306.6c0,2.4,0.8,3.7,2.3,3.7c0.7,0,1.3-0.2,1.9-0.6c0.7-0.4,1.3-0.9,1.8-1.5c0.6-0.6,1.1-1.2,1.6-1.9l1.4-8.2
					c-0.4-0.4-0.8-0.8-1.3-1c-0.5-0.3-1.1-0.4-1.7-0.4c-0.9,0-1.8,0.3-2.5,0.8c-0.8,0.6-1.4,1.4-1.9,2.3c-0.6,1-1,2.1-1.2,3.2
					C157.1,304.2,156.9,305.4,156.9,306.6z"/>
				<path class="st0" d="M175.3,312c-0.6,0-1.2-0.2-1.6-0.7c-0.4-0.5-0.6-1.2-0.5-1.9c0-0.2,0-0.4,0.1-0.6c0-0.2,0.1-0.4,0.1-0.7
					l1.9-11.1h-2.7v-0.2l3.1-1.1l2.3-3.8h0.2l-0.7,3.8h4.2v1.3h-4.5l-1.7,9.7c0,0.3-0.1,0.6-0.1,0.9c0,0.2-0.1,0.5-0.1,0.7
					c0,0.4,0.1,0.8,0.3,1.2c0.2,0.2,0.5,0.4,0.8,0.4c0.7-0.1,1.3-0.4,1.8-0.9c0.7-0.8,1.3-1.7,1.7-2.8l0.5,0.2
					c-0.5,1.6-1.3,3-2.4,4.2C177.3,311.5,176.3,312,175.3,312z"/>
				<path class="st0" d="M188.3,312c-1.5,0.1-2.9-0.5-3.8-1.6c-0.9-1.3-1.3-2.8-1.3-4.3c0-1.3,0.2-2.6,0.7-3.8
					c0.5-1.2,1.1-2.4,1.9-3.4c0.8-1,1.7-1.8,2.7-2.4c0.9-0.6,2-0.9,3.1-0.9c0.7,0,1.5,0.1,2.1,0.4c0.5,0.2,1,0.6,1.4,1
					c0.3,0.3,0.5,0.7,0.6,1.2c0,0.3-0.2,0.6-0.4,0.7l-0.9,0.6h-0.2l-0.5-0.8c-0.3-0.5-0.7-1-1.2-1.5c-0.5-0.4-1.1-0.6-1.8-0.5
					c-1,0-2,0.4-2.7,1.1c-0.9,0.8-1.6,1.9-2,3c-0.5,1.4-0.8,2.9-0.8,4.3c-0.1,1.4,0.3,2.7,1,3.9c0.7,0.9,1.8,1.4,3,1.3
					c0.9,0,1.8-0.3,2.6-0.9c1-0.8,1.8-1.8,2.5-2.9h0.1l0.3,0.2c-0.6,1.4-1.5,2.6-2.6,3.7C190.9,311.5,189.6,312,188.3,312z"/>
				<path class="st0" d="M200.2,311.7h-2.1l4.3-24.3l-2.4-0.7v-0.3l4.7-0.9h0.2l-2.4,13.9h0.1c0.7-0.8,1.4-1.5,2.2-2.2
					c0.5-0.5,1.2-0.9,1.8-1.2c0.6-0.3,1.3-0.4,1.9-0.4c1-0.1,2,0.5,2.6,1.3c0.6,1.2,0.8,2.6,0.4,3.8l-1.2,6.8
					c-0.2,0.6-0.2,1.3-0.1,1.9c0,0.3,0.3,0.6,0.6,0.5c0.9,0,1.8-0.9,2.7-2.8l0.5,0.2c-0.5,1.3-1.2,2.5-2.1,3.5
					c-0.6,0.7-1.4,1-2.2,1.1c-0.6,0-1.2-0.3-1.4-0.9c-0.3-0.9-0.3-1.8-0.1-2.7l1.4-7.8c0.2-0.8,0.1-1.6-0.2-2.4
					c-0.4-0.7-1.1-1.1-1.9-1c-1,0-1.9,0.4-2.6,1c-0.9,0.7-1.7,1.5-2.4,2.3L200.2,311.7z"/>
				<path class="st0" d="M221.1,312c-1.5,0.1-2.9-0.5-3.9-1.6c-0.9-1.2-1.3-2.7-1.2-4.2c0-1.4,0.2-2.7,0.7-4
					c0.4-1.2,1.1-2.4,1.9-3.4c0.8-1,1.7-1.8,2.8-2.4c1-0.6,2.1-0.9,3.2-0.9c1-0.1,1.9,0.2,2.7,0.8c0.5,0.5,0.9,1.2,0.9,1.9
					c0,0.8-0.4,1.5-1,2.1c-0.9,0.8-2,1.4-3.2,1.7c-1.9,0.6-3.9,1-5.9,1.3c-0.1,0.7-0.1,1.4-0.1,2.1c-0.1,1.3,0.3,2.6,1.1,3.7
					c0.7,0.9,1.9,1.4,3,1.3c1.9,0,3.5-1.1,4.9-3.3h0.1l0.3,0.2c-0.6,1.3-1.5,2.4-2.5,3.3C223.8,311.6,222.5,312,221.1,312z
					 M223.9,296.6c-1.3,0-2.6,0.6-3.5,1.6c-1.1,1.2-1.8,2.7-2.1,4.4c2.1-0.2,4.1-0.8,6-1.6c1.1-0.4,1.8-1.4,1.8-2.5
					c0-0.5-0.2-1-0.5-1.3C225.1,296.7,224.5,296.5,223.9,296.6L223.9,296.6z"/>
				<path class="st0" d="M234,312c-0.9,0-1.8-0.4-2.3-1.2c-0.7-1-1-2.3-0.9-3.5c0-1.4,0.2-2.8,0.7-4.1c0.5-1.4,1.1-2.6,2-3.8
					c0.8-1.1,1.8-2,2.9-2.8c1-0.7,2.2-1,3.4-1c0.4,0,0.9,0.1,1.3,0.2c0.4,0.1,0.8,0.2,1.2,0.4l1.5-8.8l-2.8-0.7v-0.3l5-0.9h0.2
					l-3.9,22.1c-0.2,0.6-0.2,1.3-0.1,1.9c0,0.3,0.3,0.6,0.6,0.5c0.9,0,1.8-0.9,2.7-2.8l0.5,0.2c-0.4,1.3-1.1,2.5-2,3.5
					c-0.6,0.6-1.4,1-2.3,1.1c-0.6,0-1.2-0.3-1.4-0.9c-0.3-0.9-0.3-1.8-0.1-2.7l0.1-0.7h-0.1c-0.9,1.2-2,2.3-3.1,3.3
					C236.1,311.6,235.1,312,234,312z M232.9,306.6c-0.1,1,0.1,1.9,0.6,2.8c0.4,0.6,1,0.9,1.7,0.9c1-0.1,1.9-0.4,2.6-1.1
					c1-0.8,1.9-1.7,2.6-2.8l1.4-8.3c-0.4-0.4-0.8-0.8-1.3-1.1c-0.5-0.3-1.1-0.4-1.6-0.4c-0.9,0-1.7,0.3-2.4,0.8
					c-0.8,0.6-1.4,1.4-1.9,2.2c-0.6,1-1,2.1-1.2,3.2C233,304.1,232.9,305.4,232.9,306.6z"/>
				<path class="st0" d="M259.2,312c-0.6,0-1.2-0.3-1.5-0.9c-0.3-0.9-0.3-1.8-0.1-2.7l1.9-11l-2.6-0.7v-0.3l4.7-0.9h0.3l-2.1,11.9
					c-0.2,0.6-0.2,1.3-0.1,1.9c0,0.3,0.3,0.6,0.6,0.5c0.9,0,1.8-0.9,2.7-2.8l0.5,0.2c-0.5,1.3-1.2,2.5-2.1,3.5
					C260.9,311.6,260.1,312,259.2,312z M261.8,290.5c-0.4,0-0.8-0.2-1.1-0.5c-0.3-0.3-0.5-0.7-0.5-1.1c0-0.8,0.7-1.5,1.5-1.5
					c0.4,0,0.8,0.2,1.1,0.5c0.3,0.3,0.5,0.7,0.5,1.1C263.4,289.8,262.7,290.5,261.8,290.5C261.9,290.5,261.8,290.5,261.8,290.5z"/>
				<path class="st0" d="M269,312c-0.6,0-1.2-0.2-1.6-0.7s-0.6-1.2-0.5-1.9c0-0.2,0-0.4,0.1-0.6c0-0.2,0.1-0.4,0.1-0.7L269,297h-2.7
					v-0.2l3.1-1.1l2.3-3.8h0.2l-0.7,3.8h4.2v1.3H271l-1.7,9.7c0,0.3-0.1,0.6-0.1,0.9c0,0.2,0,0.5-0.1,0.7c0,0.4,0.1,0.8,0.3,1.2
					c0.2,0.2,0.5,0.4,0.8,0.4c0.7-0.1,1.3-0.4,1.8-0.9c0.7-0.8,1.3-1.7,1.7-2.8l0.5,0.2c-0.5,1.6-1.3,3-2.4,4.2
					C271,311.5,270.1,312,269,312z"/>
				<path class="st0" d="M11.4,360.1c-0.4,0-0.8-0.1-1.1-0.3c-0.2-0.1-0.3-0.4-0.4-0.6c0-0.3,0.1-0.5,0.2-0.7l0.4-0.8h0.1l0.6,0.3
					c0.2,0.1,0.5,0.2,0.8,0.2s0.5,0.1,0.8,0.1c1.1-0.1,2-0.7,2.4-1.8c0.8-1.6,1.3-3.4,1.4-5.2l2.1-14.1H16v-1.3h3l0.2-1.4
					c0.2-0.9,0.5-1.8,0.9-2.7c0.5-1.1,1.2-2.1,1.9-3c0.8-1,1.7-1.8,2.7-2.4s2.1-1,3.2-1c0.3,0,0.7,0.1,0.9,0.2
					c0.4,0.2,0.6,0.4,0.6,0.7c0,0.2-0.1,0.4-0.2,0.6l-0.6,1h-0.1l-0.7-0.3c-0.6-0.3-1.3-0.4-2-0.4c-1.1,0-2.2,0.6-2.8,1.5
					c-0.9,1.3-1.4,2.8-1.6,4.4l-0.4,2.8h4v1.3h-4.1l-2,13.6c-0.2,1-0.4,1.9-0.8,2.8c-0.4,1.1-1,2.1-1.7,3.1
					c-0.6,0.9-1.4,1.8-2.3,2.5C13.4,359.7,12.4,360.1,11.4,360.1z"/>
				<path class="st0" d="M31.5,352c-1.6,0.1-3.1-0.6-4.1-1.8c-1-1.3-1.5-3-1.4-4.6c0-1.3,0.2-2.5,0.6-3.7s1-2.2,1.7-3.2
					c0.7-0.9,1.6-1.7,2.6-2.3c1-0.6,2.1-0.8,3.2-0.8c1.6-0.1,3.1,0.6,4.1,1.8c1,1.4,1.5,3,1.4,4.7c0,1.2-0.2,2.4-0.6,3.5
					c-0.4,1.2-0.9,2.3-1.7,3.2c-0.7,1-1.6,1.8-2.6,2.4C33.9,351.7,32.7,352,31.5,352z M32,351c1.1,0,2.1-0.4,2.8-1.2
					c0.9-0.9,1.5-2,1.9-3.2c0.5-1.4,0.7-3,0.7-4.5c0.1-1.4-0.2-2.8-0.9-4c-0.6-1-1.7-1.6-2.8-1.5c-1.1,0-2.1,0.4-2.9,1.2
					c-0.9,0.9-1.6,2-1.9,3.1c-0.5,1.5-0.7,3-0.7,4.5c-0.1,1.4,0.2,2.8,0.9,4.1C29.7,350.5,30.8,351.1,32,351z"/>
				<path class="st0" d="M43.4,351.7l2.5-14.1l-2.5-0.7v-0.3l4.3-0.9h0.1l-0.3,4.1h0.1c0.6-1,1.2-1.9,2-2.7c0.4-0.5,0.9-0.8,1.5-1.1
					c0.4-0.2,0.8-0.3,1.2-0.3s0.8,0.1,1.1,0.3c0.3,0.2,0.4,0.4,0.5,0.7c0,0.1,0,0.3-0.1,0.4l-0.7,1.3H53l-0.5-0.3
					c-0.3-0.2-0.7-0.3-1.1-0.3c-0.7,0-1.4,0.3-1.9,0.8c-0.9,0.9-1.7,1.8-2.3,2.9l-1.8,10.3L43.4,351.7z"/>
				<path class="st0" d="M66.3,352c-0.9,0-1.8-0.4-2.3-1.2c-0.7-1-1-2.3-0.9-3.5c0-1.4,0.3-2.8,0.7-4.1c0.5-1.4,1.1-2.6,2-3.8
					c0.8-1.1,1.7-2,2.9-2.8c1-0.7,2.2-1,3.4-1c0.6,0,1.1,0.1,1.7,0.3c0.5,0.2,1,0.4,1.5,0.7l0.9-0.8h0.5l-2.1,11.8
					c-0.2,0.6-0.2,1.3-0.1,1.9c0,0.3,0.3,0.6,0.6,0.5c1,0,1.9-0.9,2.7-2.8l0.5,0.2c-0.5,1.3-1.2,2.5-2.1,3.5c-0.6,0.6-1.4,1-2.2,1.1
					c-0.6,0-1.2-0.3-1.5-0.9c-0.3-0.9-0.3-1.8-0.1-2.7l0.1-0.7h-0.1c-0.9,1.2-1.9,2.3-3.1,3.2C68.5,351.6,67.4,352,66.3,352z
					 M65.2,346.6c0,2.4,0.8,3.7,2.3,3.7c0.7,0,1.3-0.2,1.9-0.6c0.7-0.4,1.3-0.9,1.8-1.5c0.6-0.6,1.1-1.2,1.6-1.9l1.4-8.2
					c-0.4-0.4-0.8-0.8-1.3-1c-0.5-0.3-1.1-0.4-1.7-0.4c-0.9,0-1.8,0.3-2.5,0.8c-0.8,0.6-1.4,1.4-1.9,2.3c-0.6,1-1,2.1-1.2,3.2
					C65.3,344.2,65.2,345.4,65.2,346.6z"/>
				<path class="st0" d="M85.9,352c-0.6,0-1.2-0.1-1.8-0.3c-0.6-0.2-1.1-0.4-1.6-0.8l-1.3,0.9H81l4.3-24.5l-2.4-0.7v-0.3l4.6-0.9
					h0.2L85,339.8h0.1c0.9-1.1,1.8-2.1,2.9-3.1c0.9-0.8,2-1.2,3.1-1.2c0.9,0,1.8,0.5,2.3,1.3c0.7,1.1,1,2.4,0.9,3.7
					c0,1.4-0.2,2.9-0.7,4.2c-0.4,1.3-1.1,2.6-1.9,3.7c-0.7,1-1.7,1.9-2.7,2.6C88.1,351.7,87,352,85.9,352z M90.1,337.3
					c-1,0.1-1.9,0.4-2.6,1.1c-1,0.8-1.9,1.7-2.7,2.8l-1.4,8.1c0.4,0.5,1,1,1.7,1.3c0.5,0.2,1.1,0.3,1.7,0.3c1.1,0,2.1-0.4,2.8-1.2
					c1-0.9,1.7-2.1,2.1-3.4c0.5-1.6,0.8-3.4,0.8-5.1c0.1-1-0.1-2-0.6-3C91.4,337.7,90.8,337.3,90.1,337.3L90.1,337.3z"/>
				<path class="st0" d="M103.1,352c-1.6,0.1-3.1-0.6-4.1-1.8c-1-1.3-1.5-3-1.4-4.6c0-1.3,0.2-2.5,0.6-3.7s1-2.2,1.7-3.2
					c0.7-0.9,1.6-1.7,2.6-2.3c1-0.6,2.1-0.8,3.2-0.8c1.6-0.1,3.1,0.6,4.1,1.8c1,1.4,1.5,3,1.4,4.7c0,1.2-0.2,2.4-0.6,3.5
					c-0.4,1.2-0.9,2.3-1.7,3.2c-0.7,1-1.6,1.8-2.6,2.4C105.5,351.7,104.3,352,103.1,352z M103.6,351c1.1,0,2.1-0.4,2.8-1.2
					c0.9-0.9,1.5-2,1.9-3.2c0.5-1.4,0.7-3,0.7-4.5c0.1-1.4-0.2-2.8-0.9-4c-0.6-1-1.7-1.6-2.8-1.5c-1.1,0-2.1,0.4-2.9,1.2
					c-0.9,0.9-1.6,2-1.9,3.1c-0.5,1.5-0.7,3-0.7,4.5c-0.1,1.4,0.2,2.8,0.9,4.1C101.3,350.5,102.4,351.1,103.6,351L103.6,351z"/>
				<path class="st0" d="M118,352c-0.8,0-1.6-0.3-2.1-0.9c-0.6-0.8-0.8-1.7-0.8-2.6c0-0.3,0-0.5,0.1-0.8c0-0.3,0.1-0.6,0.1-0.9
					l1.7-9.3l-2.5-0.7v-0.3l4.6-0.9h0.2l-1.9,11.2l-0.1,0.7c0,0.2-0.1,0.4-0.1,0.6c0,0.6,0.1,1.2,0.5,1.6c0.4,0.5,1,0.7,1.6,0.6
					c0.9,0,1.8-0.4,2.5-1.1c0.8-0.7,1.6-1.5,2.3-2.3l1.7-9.5l-2.5-0.7v-0.3l4.6-0.9h0.2l-2.1,11.9c-0.2,0.6-0.2,1.3-0.1,1.9
					c0,0.3,0.3,0.6,0.6,0.6c0.5,0,1-0.3,1.4-0.7c0.6-0.6,1-1.3,1.3-2.1l0.5,0.2c-0.5,1.3-1.2,2.5-2.1,3.5c-0.6,0.6-1.4,1-2.2,1.1
					c-0.6,0-1.2-0.3-1.5-0.9c-0.3-0.9-0.4-1.8-0.1-2.7v-0.2h-0.1c-0.9,1.1-1.9,2-3,2.9C119.9,351.7,118.9,352,118,352z"/>
				<path class="st0" d="M134.7,352c-0.6,0-1.2-0.2-1.6-0.7c-0.4-0.5-0.6-1.2-0.5-1.9c0-0.2,0-0.4,0.1-0.6c0-0.2,0.1-0.4,0.1-0.7
					l1.9-11.1H132v-0.2l3.1-1.1l2.3-3.8h0.2l-0.7,3.8h4.2v1.3h-4.5l-1.7,9.7c0,0.3-0.1,0.6-0.1,0.9c0,0.2,0,0.5-0.1,0.7
					c0,0.4,0.1,0.8,0.3,1.2c0.2,0.2,0.5,0.4,0.8,0.4c0.7-0.1,1.3-0.4,1.8-0.9c0.7-0.8,1.3-1.7,1.7-2.8l0.5,0.2
					c-0.5,1.6-1.3,3-2.4,4.2C136.8,351.5,135.8,352,134.7,352z"/>
				<path class="st0" d="M154.4,352c-0.9,0-1.8-0.4-2.3-1.2c-0.7-1-1-2.3-0.9-3.5c0-1.4,0.3-2.8,0.7-4.1c0.5-1.4,1.1-2.6,2-3.8
					c0.8-1.1,1.7-2,2.9-2.8c1-0.7,2.2-1,3.4-1c0.6,0,1.1,0.1,1.7,0.3c0.5,0.2,1,0.4,1.5,0.7l0.9-0.8h0.5l-2.1,11.8
					c-0.2,0.6-0.2,1.3-0.1,1.9c0,0.3,0.3,0.6,0.6,0.5c1,0,1.9-0.9,2.7-2.8l0.5,0.2c-0.5,1.3-1.2,2.5-2.1,3.5c-0.6,0.6-1.4,1-2.2,1.1
					c-0.6,0-1.2-0.3-1.5-0.9c-0.3-0.9-0.3-1.8-0.1-2.7l0.1-0.7h-0.1c-0.9,1.2-1.9,2.3-3.1,3.2C156.5,351.6,155.5,352,154.4,352z
					 M153.2,346.6c0,2.4,0.8,3.7,2.3,3.7c0.7,0,1.3-0.2,1.9-0.6c0.7-0.4,1.3-0.9,1.8-1.5c0.6-0.6,1.1-1.2,1.6-1.9l1.4-8.2
					c-0.4-0.4-0.8-0.8-1.3-1c-0.5-0.3-1.1-0.4-1.7-0.4c-0.9,0-1.8,0.3-2.5,0.8c-0.8,0.6-1.4,1.4-1.9,2.3c-0.6,1-1,2.1-1.2,3.2
					C153.4,344.2,153.2,345.4,153.2,346.6L153.2,346.6z"/>
				<path class="st0" d="M168.7,351.7l2.5-14.1l-2.4-0.7v-0.3l4.2-0.9h0.2l-0.2,3.8h0.1c0.7-0.8,1.4-1.5,2.2-2.2
					c0.5-0.5,1.2-0.9,1.8-1.2c0.6-0.3,1.3-0.4,1.9-0.4c1-0.1,2,0.5,2.6,1.3c0.6,1.2,0.8,2.6,0.4,3.8l-1.2,6.8
					c-0.2,0.6-0.2,1.3-0.1,1.9c0,0.3,0.3,0.6,0.6,0.5c0.9,0,1.8-0.9,2.7-2.8l0.5,0.2c-0.4,1.3-1.1,2.5-2,3.5c-0.6,0.7-1.4,1-2.3,1.1
					c-0.6,0-1.2-0.3-1.4-0.9c-0.3-0.9-0.3-1.8-0.1-2.7l1.4-7.8c0.2-0.8,0.1-1.6-0.2-2.4c-0.4-0.7-1.1-1.1-1.9-1
					c-0.6,0-1.2,0.2-1.8,0.5c-0.6,0.4-1.2,0.8-1.7,1.3c-0.6,0.5-1.1,1-1.6,1.6l-1.9,11.1L168.7,351.7L168.7,351.7z"/>
				<path class="st0" d="M197.6,351.7h-2.1l4.3-24.3l-2.4-0.7v-0.3l4.7-0.9h0.2l-2.5,13.9h0.1c0.7-0.8,1.4-1.5,2.2-2.2
					c0.5-0.5,1.2-0.9,1.8-1.2c0.6-0.3,1.3-0.4,1.9-0.4c1-0.1,2,0.5,2.6,1.3c0.6,1.2,0.8,2.6,0.4,3.8l-1.2,6.8
					c-0.2,0.6-0.2,1.3-0.1,1.9c0,0.3,0.3,0.6,0.6,0.5c0.9,0,1.8-0.9,2.7-2.8l0.5,0.2c-0.5,1.3-1.2,2.5-2.1,3.5
					c-0.6,0.7-1.4,1-2.2,1.1c-0.6,0-1.2-0.3-1.4-0.9c-0.3-0.9-0.3-1.8-0.1-2.7l1.4-7.8c0.2-0.8,0.1-1.6-0.2-2.4
					c-0.4-0.7-1.1-1.1-1.9-1c-1,0-1.9,0.4-2.6,1c-0.9,0.7-1.7,1.5-2.4,2.3L197.6,351.7z"/>
				<path class="st0" d="M219,352c-1.6,0.1-3.1-0.6-4.1-1.8c-1-1.3-1.5-3-1.4-4.6c0-1.3,0.2-2.5,0.6-3.7c0.4-1.2,1-2.2,1.7-3.2
					c0.7-0.9,1.6-1.7,2.6-2.3c1-0.6,2.1-0.8,3.2-0.8c1.6-0.1,3.1,0.6,4.1,1.8c1,1.4,1.5,3,1.4,4.7c0,1.2-0.2,2.4-0.6,3.5
					c-0.4,1.2-0.9,2.3-1.7,3.2c-0.7,1-1.6,1.8-2.6,2.4C221.3,351.7,220.2,352,219,352z M219.4,351c1.1,0,2.1-0.4,2.8-1.2
					c0.9-0.9,1.5-2,1.9-3.2c0.5-1.4,0.7-3,0.7-4.5c0.1-1.4-0.2-2.8-0.9-4c-0.6-1-1.7-1.6-2.8-1.5c-1.1,0-2.1,0.4-2.9,1.2
					c-0.9,0.9-1.6,2-1.9,3.1c-0.5,1.5-0.7,3-0.7,4.5c-0.1,1.4,0.2,2.8,0.9,4.1C217.2,350.5,218.3,351.1,219.4,351z"/>
				<path class="st0" d="M233.8,352c-0.8,0-1.6-0.3-2.1-0.9c-0.6-0.8-0.8-1.7-0.8-2.6c0-0.3,0-0.5,0.1-0.8c0-0.3,0.1-0.6,0.1-0.9
					l1.7-9.3l-2.4-0.7v-0.3l4.6-0.9h0.2l-1.9,11.2l-0.1,0.7c0,0.2-0.1,0.4-0.1,0.6c0,0.6,0.1,1.2,0.5,1.6c0.4,0.5,1,0.7,1.6,0.6
					c0.9,0,1.8-0.4,2.5-1.1c0.8-0.7,1.6-1.5,2.3-2.3l1.7-9.5l-2.4-0.7v-0.3l4.6-0.9h0.2l-2.1,11.9c-0.2,0.6-0.2,1.3-0.1,1.9
					c0,0.3,0.3,0.6,0.6,0.6c0.5,0,1-0.3,1.4-0.7c0.6-0.6,1-1.3,1.3-2.1l0.5,0.2c-0.5,1.3-1.2,2.5-2.1,3.5c-0.6,0.6-1.4,1-2.2,1.1
					c-0.6,0-1.2-0.3-1.5-0.9c-0.3-0.9-0.4-1.8-0.1-2.7v-0.2h-0.1c-0.9,1.1-1.9,2-3,2.9C235.7,351.7,234.8,352,233.8,352z"/>
				<path class="st0" d="M248.2,351.7l2.5-14.1l-2.5-0.7v-0.3l4.3-0.9h0.1l-0.3,4.1h0.1c0.6-1,1.2-1.9,2-2.7
					c0.4-0.5,0.9-0.8,1.5-1.1c0.4-0.2,0.8-0.3,1.2-0.3s0.8,0.1,1.1,0.3c0.3,0.2,0.4,0.4,0.5,0.7c0,0.1,0,0.3-0.1,0.4l-0.7,1.3h-0.1
					l-0.5-0.3c-0.3-0.2-0.7-0.3-1.1-0.3c-0.7,0-1.4,0.3-1.9,0.8c-0.9,0.9-1.7,1.8-2.3,2.9l-1.8,10.3L248.2,351.7z"/>
				<path class="st0" d="M259.7,351.9c-0.4,0-0.8-0.1-1.1-0.4c-0.3-0.3-0.4-0.7-0.4-1.1c0-0.5,0.2-1,0.5-1.4s0.9-0.6,1.4-0.6
					c0.4,0,0.9,0.1,1.1,0.5c0.3,0.3,0.4,0.7,0.4,1.1c0,0.5-0.2,1-0.5,1.4C260.8,351.7,260.2,351.9,259.7,351.9z"/>
				<path class="st0" d="M264.2,333.9v-0.6c1-0.2,1.9-0.7,2.7-1.4c0.6-0.6,0.9-1.4,0.9-2.2c0-0.3-0.1-0.7-0.2-1
					c-0.2-0.3-0.5-0.6-0.8-0.8l-0.9-0.6v-0.4l0.4-0.8c0.1-0.2,0.3-0.4,0.5-0.6c0.1-0.1,0.3-0.1,0.5-0.1c0.1,0,0.2,0,0.4,0
					c0.1,0,0.3,0.1,0.4,0.2c0.5,0.3,0.9,0.7,1.2,1.2c0.3,0.5,0.4,1.1,0.4,1.8c0,0.7-0.2,1.4-0.6,2c-0.4,0.8-1.1,1.5-1.8,2
					C266.2,333.3,265.2,333.7,264.2,333.9z M270.3,333.9v-0.6c1-0.2,1.9-0.7,2.7-1.4c0.6-0.6,0.9-1.4,0.9-2.2c0-0.3-0.1-0.7-0.2-1
					c-0.2-0.3-0.5-0.6-0.8-0.8l-0.9-0.6v-0.4l0.4-0.8c0.1-0.2,0.3-0.4,0.5-0.6c0.1-0.1,0.3-0.1,0.5-0.1c0.1,0,0.2,0,0.4,0
					c0.1,0,0.3,0.1,0.4,0.2c0.5,0.3,0.9,0.7,1.2,1.2c0.3,0.5,0.4,1.1,0.4,1.8c0,0.7-0.2,1.4-0.6,2c-0.4,0.8-1.1,1.5-1.8,2
					C272.4,333.3,271.4,333.7,270.3,333.9z"/>
			</g>
			<g class="st1">
				<path class="st0" d="M221.8,25.8v1.8h11.9V52h-24.5V27.7c0-18.5,8.2-27.7,24.5-27.7v10.3c-4.2,0.7-7.2,2.3-9.1,4.7
					C222.7,17.5,221.8,21.1,221.8,25.8z M263.5,25.8v1.8h11.9V52H251V27.7C251,9.2,259.1,0,275.4,0v10.3
					C267.4,11.4,263.5,16.5,263.5,25.8z"/>
			</g>
		</g>
	</g>
</g>
</svg>
