<svg xmlns="http://www.w3.org/2000/svg" viewBox="0 0 426.307 123.734">
  <defs>
    <style>
      .cls-1 {
        fill: #ffc300;
      }

      .cls-2 {
        fill: none;
        stroke: #ffc300;
        stroke-miterlimit: 10;
      }
    </style>
  </defs>
  <g id="Layer_2" data-name="Layer 2">
    <g id="Layer_2-2" data-name="Layer 2">
      <g>
        <path class="cls-1" d="M15.373,115.027l-5.181,8.707H424.671L426.307,89.2s-12.148,4.917-16.092,5.539-43.593,1.246-43.593,1.246l-2.491,5.812-66,1.154-.452,2.487S79.252,107,51.328,106.466v-1.215l-45.212.266v-1.263L0,104.32S1.3,111.639,15.373,115.027Z"/>
        <path class="cls-1" d="M7.622,105.024V99.9l2.689.362v1.913h1.5v-1.758h1.913v3H15.69L19.672,99.9h3.414l1.551,2.56H26.5l2.224-3.8H51.79v2.275l4.5,1.4h25.55V101.3H96.87s43.656.662,49.046.662,72.021.106,87.388-.119,54.819-.684,54.819-.684v-3.1l50.346-1.491,18.057-1.191,3.13-3.459L409.9,88.3l16.41-6.424V89.2s-7.844,5.689-12.621,7.172-44.476,3.459-44.476,3.459l-6.424,5.93-59.3.707v3.246H8.134Z"/>
        <rect class="cls-1" x="37.322" y="96.543" width="5.944" height="6.544"/>
        <polygon class="cls-1" points="97.021 106.381 97.021 90.905 99.597 90.905 101.415 89.198 287.591 81.874 288.123 104.453 97.021 106.381"/>
        <path class="cls-1" d="M199.265,89.269,193.951,50a3.441,3.441,0,0,1,1.061-3.086c1.447-1.351,13.7-1.64,15.144-1.64l6.077,42.442Z"/>
        <polygon class="cls-1" points="109.171 89.739 109.653 78.645 112.836 77.873 113.608 90.414 109.171 89.739"/>
        <path class="cls-1" d="M127.248,89.269v-5.8c0-1.115,1.351-1.595,2.508-1.595h1.6V84.53s-1.639-.232-1.639,1.042-.038,3.2-.038,3.2Z"/>
        <path class="cls-1" d="M145.25,89.269v-5.8c0-1.64.909-1.595,1.688-1.595a3.4,3.4,0,0,1,1.688.731V84.53s-1.1-.232-1.1,1.042a24.622,24.622,0,0,0,.324,3.2Z"/>
        <polygon class="cls-1" points="156.042 87.439 156.042 84.351 200.308 83.745 201.464 87.439 156.042 87.439"/>
        <polygon class="cls-1" points="281.636 82.769 281.636 77.38 288.565 73.531 288.123 101.159 283.849 99.706 281.636 82.769"/>
        <path class="cls-1" d="M292.9,98.936V80.748a3.085,3.085,0,0,1,1.127-2.592,8.374,8.374,0,0,1,2.593-1.369v3.961a1.032,1.032,0,0,0-.865,1.126V98.936Z"/>
        <polygon class="cls-1" points="287.583 86.786 291.547 86.786 293.118 89.198 293.118 83.404 291.547 85.065 287.209 84.841 287.583 86.786"/>
        <path class="cls-1" d="M97.021,90.905S91.14,46.791,89.03,30.232s-2.111-19.969-2.111-19.969l.489-.14S99.305,87.178,99.6,90.905Z"/>
        <path class="cls-1" d="M92.472,102.1s-1.153-21.983-1.153-23.569,1.644-1.874,1.939,0L95.139,102.1Z"/>
        <polygon class="cls-1" points="94.13 98.209 98.094 98.209 98.094 94.128 93.553 94.128 94.13 98.209"/>
        <path class="cls-1" d="M322.527,98.936l-5.348-42.642L312.653.345s.362-.776,1.035,0L325.527,98.19Z"/>
        <polygon class="cls-1" points="321.624 73.531 324.903 73.531 324.903 66.338 320.531 66.338 321.624 73.531"/>
        <polygon class="cls-1" points="318.157 37.282 318.157 33.703 319.728 33.703 320.531 29.102 316.507 29.102 318.157 37.282"/>
        <polygon class="cls-1" points="312.653 98.936 312.653 83.404 316.033 83.404 318.57 91.805 315.612 92.059 315.612 98.936 312.653 98.936"/>
        <polyline class="cls-2" points="93.651 57.343 81.115 49.365 91.319 40.956"/>
        <path class="cls-1" d="M82.064,54.329a7.924,7.924,0,0,0-3.2.9,6.147,6.147,0,0,1-4.231,1.515c-2.051-.1-.3-.727.769-2.413,1.539-2.436,5.718-5.565,5.718-5.565Z"/>
        <rect class="cls-1" x="274.018" y="76.787" width="1.271" height="6.958"/>
        <rect class="cls-1" x="266.072" y="76.787" width="1.271" height="6.958"/>
        <path class="cls-1" d="M248.71,84.442V81.874l1.712-1.608h19s.186-1.132,1.024-1.132,1.956,1.132,1.956,1.132l11.255-.7L283.26,83.7Z"/>
        <polygon class="cls-1" points="250.572 78.165 277.871 77.025 277.871 80.266 278.867 80.266 278.867 67.065 278.369 67.065 278.052 76.119 250.572 76.551 250.572 78.165"/>
        <path class="cls-1" d="M221.636,86.3l1.083-8.437a.666.666,0,0,0-.884-.714l-4.422,1.566a2.3,2.3,0,0,0-1.468,1.637l-1.232,5.219Z"/>
        <polygon class="cls-1" points="220.953 81.544 250.422 80.266 250.572 76.551 249.76 76.787 249.603 79.134 220.953 80.266 220.953 81.544"/>
        <polyline class="cls-2" points="318.57 101.159 318.519 56.027 316.507 101.159"/>
        <polyline class="cls-2" points="331.415 98.936 318.519 56.027 329.353 98.936"/>
        <polyline class="cls-2" points="111.233 94.128 93.229 56.027 109.171 94.128"/>
      </g>
    </g>
  </g>
</svg>
