<?xml version="1.0" encoding="utf-8"?>
<!-- Generator: Adobe Illustrator 25.2.1, SVG Export Plug-In . SVG Version: 6.00 Build 0)  -->
<svg version="1.1" id="Layer_1" xmlns="http://www.w3.org/2000/svg" xmlns:xlink="http://www.w3.org/1999/xlink" x="0px" y="0px"
	 width="426.307px" height="123.734px" viewBox="0 0 426.307 123.734" style="enable-background:new 0 0 426.307 123.734;"
	 xml:space="preserve">
<style type="text/css">
	.st0{fill:#FE4733;}
	.st1{fill:none;stroke:#FE4733;stroke-miterlimit:10;}
</style>
<g id="Layer_2_1_">
	<g id="Layer_2-2">
		<g>
			<path class="st0" d="M15.373,115.027l-5.181,8.707h414.479l1.636-34.534c0,0-12.148,4.917-16.092,5.539
				s-43.593,1.246-43.593,1.246l-2.491,5.812l-66,1.154l-0.452,2.487c0,0-218.427,1.562-246.351,1.028v-1.215l-45.212,0.266v-1.263
				L0,104.32C0,104.32,1.3,111.639,15.373,115.027z"/>
			<path class="st0" d="M7.622,105.024V99.9l2.689,0.362v1.913h1.5v-1.758h1.913v3h1.966l3.982-3.517h3.414l1.551,2.56H26.5
				l2.224-3.8H51.79v2.275l4.5,1.4h25.55V101.3h15.03c0,0,43.656,0.662,49.046,0.662s72.021,0.106,87.388-0.119
				s54.819-0.684,54.819-0.684v-3.1l50.346-1.491l18.057-1.191l3.13-3.459L409.9,88.3l16.41-6.424V89.2
				c0,0-7.844,5.689-12.621,7.172s-44.476,3.459-44.476,3.459l-6.424,5.93l-59.3,0.707v3.246H8.134L7.622,105.024z"/>
			<rect x="37.322" y="96.543" class="st0" width="5.944" height="6.544"/>
			<polygon class="st0" points="97.021,106.381 97.021,90.905 99.597,90.905 101.415,89.198 287.591,81.874 288.123,104.453 			"/>
			<path class="st0" d="M199.265,89.269L193.951,50c-0.188-1.142,0.211-2.301,1.061-3.086c1.447-1.351,13.7-1.64,15.144-1.64
				l6.077,42.442L199.265,89.269z"/>
			<polygon class="st0" points="109.171,89.739 109.653,78.645 112.836,77.873 113.608,90.414 			"/>
			<path class="st0" d="M127.248,89.269v-5.8c0-1.115,1.351-1.595,2.508-1.595h1.6v2.656c0,0-1.639-0.232-1.639,1.042
				s-0.038,3.2-0.038,3.2L127.248,89.269z"/>
			<path class="st0" d="M145.25,89.269v-5.8c0-1.64,0.909-1.595,1.688-1.595c0.619,0.084,1.203,0.337,1.688,0.731v1.925
				c0,0-1.1-0.232-1.1,1.042c0.038,1.073,0.146,2.142,0.324,3.2L145.25,89.269z"/>
			<polygon class="st0" points="156.042,87.439 156.042,84.351 200.308,83.745 201.464,87.439 			"/>
			<polygon class="st0" points="281.636,82.769 281.636,77.38 288.565,73.531 288.123,101.159 283.849,99.706 			"/>
			<path class="st0" d="M292.9,98.936V80.748c-0.065-0.995,0.354-1.961,1.127-2.592c0.777-0.605,1.655-1.069,2.593-1.369v3.961
				c-0.542,0.086-0.922,0.58-0.865,1.126v17.062C295.755,98.936,292.9,98.936,292.9,98.936z"/>
			<polygon class="st0" points="287.583,86.786 291.547,86.786 293.118,89.198 293.118,83.404 291.547,85.065 287.209,84.841 			"/>
			<path class="st0" d="M97.021,90.905c0,0-5.881-44.114-7.991-60.673s-2.111-19.969-2.111-19.969l0.489-0.14
				c0,0,11.897,77.055,12.192,80.782H97.021z"/>
			<path class="st0" d="M92.472,102.1c0,0-1.153-21.983-1.153-23.569s1.644-1.874,1.939,0l1.881,23.569H92.472z"/>
			<polygon class="st0" points="94.13,98.209 98.094,98.209 98.094,94.128 93.553,94.128 			"/>
			<path class="st0" d="M322.527,98.936l-5.348-42.642l-4.526-55.949c0,0,0.362-0.776,1.035,0l11.839,97.845L322.527,98.936z"/>
			<polygon class="st0" points="321.624,73.531 324.903,73.531 324.903,66.338 320.531,66.338 			"/>
			<polygon class="st0" points="318.157,37.282 318.157,33.703 319.728,33.703 320.531,29.102 316.507,29.102 			"/>
			<polygon class="st0" points="312.653,98.936 312.653,83.404 316.033,83.404 318.57,91.805 315.612,92.059 315.612,98.936 			"/>
			<polyline class="st1" points="93.651,57.343 81.115,49.365 91.319,40.956 			"/>
			<path class="st0" d="M82.064,54.329c-1.118,0.07-2.209,0.377-3.2,0.9c-1.169,1.021-2.68,1.562-4.231,1.515
				c-2.051-0.1-0.3-0.727,0.769-2.413c1.539-2.436,5.718-5.565,5.718-5.565L82.064,54.329z"/>
			<rect x="274.018" y="76.787" class="st0" width="1.271" height="6.958"/>
			<rect x="266.072" y="76.787" class="st0" width="1.271" height="6.958"/>
			<path class="st0" d="M248.71,84.442v-2.568l1.712-1.608h19c0,0,0.186-1.132,1.024-1.132s1.956,1.132,1.956,1.132l11.255-0.7
				L283.26,83.7L248.71,84.442z"/>
			<polygon class="st0" points="250.572,78.165 277.871,77.025 277.871,80.266 278.867,80.266 278.867,67.065 278.369,67.065 
				278.052,76.119 250.572,76.551 			"/>
			<path class="st0" d="M221.636,86.3l1.083-8.437c0.048-0.365-0.209-0.699-0.574-0.747c-0.105-0.014-0.211-0.002-0.31,0.033
				l-4.422,1.566c-0.735,0.261-1.288,0.878-1.468,1.637l-1.232,5.219L221.636,86.3z"/>
			<polygon class="st0" points="220.953,81.544 250.422,80.266 250.572,76.551 249.76,76.787 249.603,79.134 220.953,80.266 			"/>
			<polyline class="st1" points="318.57,101.159 318.519,56.027 316.507,101.159 			"/>
			<polyline class="st1" points="331.415,98.936 318.519,56.027 329.353,98.936 			"/>
			<polyline class="st1" points="111.233,94.128 93.229,56.027 109.171,94.128 			"/>
		</g>
	</g>
</g>
</svg>
